<svg xmlns="http://www.w3.org/2000/svg" xmlns:xlink="http://www.w3.org/1999/xlink" width="144.0" height="280.0" viewBox="0.0 0.0 144.0 280.0" preserveAspectRatio="xMidYMid meet" ><g transform="matrix(1,0,0,-1,0,280.0)"><g><path fill-rule="evenodd" fill="#133d91ff" stroke="#00000000" stroke-width="0.0" opacity="0.6" d="M 0.17389476155598968,0.0017110277252379291 L 0.14823619097949584,0.006814834742186332 L 0.12346331352698206,0.015224093497742647 L 0.10000000000000005,0.026794919243112253 L 0.07824771419825588,0.04132933194175298 L 0.05857864376269051,0.05857864376269048 L 0.04132933194175298,0.07824771419825582 L 0.026794919243112253,0.10000000000000002 L 0.015224093497742647,0.12346331352698203 L 0.00681483474218636,0.1482361909794958 L 0.0017110277252379291,0.1738947615559897 L 0.0,0.19999999999999998 L 0.0,0.2 L 0.0,0.20000000000000004 L 0.0,279.8 L 0.0017110277252379291,279.82610523844403 L 0.00681483474218636,279.8517638090205 L 0.015224093497742647,279.876536686473 L 0.026794919243112253,279.90000000000003 L 0.04132933194175298,279.92175228580174 L 0.05857864376269051,279.9414213562373 L 0.07824771419825588,279.95867066805823 L 0.10000000000000005,279.9732050807569 L 0.12346331352698206,279.98477590650225 L 0.14823619097949584,279.99318516525784 L 0.17389476155598968,279.9982889722748 L 0.2,280.0 L 143.8,280.0 L 143.82610523844403,279.99828897227474 L 143.85176380902053,279.99318516525784 L 143.87653668647303,279.98477590650225 L 143.9,279.9732050807569 L 143.92175228580174,279.95867066805823 L 143.9414213562373,279.9414213562373 L 143.95867066805826,279.92175228580174 L 143.97320508075688,279.9 L 143.98477590650225,279.876536686473 L 143.9931851652578,279.8517638090205 L 143.99828897227476,279.82610523844403 L 144.0,279.8 L 144.0,0.2 L 143.99828897227476,0.17389476155599118 L 143.9931851652578,0.1482361909794988 L 143.98477590650225,0.1234633135269864 L 143.97320508075688,0.10000000000000571 L 143.95867066805826,0.0782477141982628 L 143.9414213562373,0.05857864376269856 L 143.92175228580174,0.041329331941762 L 143.9,0.026794919243122134 L 143.87653668647303,0.015224093497753166 L 143.85176380902053,0.006814834742197323 L 143.82610523844403,0.0017110277252491979 L 143.8,1.1379786002407855e-14 L 143.8,0.0 L 0.2,0.0 L 0.17389476155598968,0.0017110277252379291 z M 0.4,0.4 L 143.60000000000002,0.4 L 143.60000000000002,279.6 L 0.4,279.6 L 0.4,0.4 z" /><path fill-rule="evenodd" fill="#133d91ff" stroke="#00000000" stroke-width="0.0" opacity="0.6" d="M 11.866736190979497,234.6989148347422 L 11.841963313526982,234.70732409349773 L 11.8185,234.7188949192431 L 11.796747714198256,234.73342933194175 L 11.77707864376269,234.75067864376268 L 11.763948579225346,234.76565061289918 L 11.763707668708864,234.76545350706215 L 11.116207668708865,235.55685350706216 L 11.116448579225347,235.5570506128992 L 11.112329331941755,235.56174771419828 L 11.097794919243114,235.58350000000002 L 11.086224093497744,235.606963313527 L 11.077814834742188,235.6317361909795 L 11.072711027725239,235.657394761556 L 11.071000000000002,235.6835 L 11.071126450801879,235.68542926642027 L 11.071009316298944,235.68543039705344 L 11.170709316298943,246.01443039705342 L 11.170826450801878,246.01442926642025 L 11.172411027725238,246.038605238444 L 11.177514834742187,246.0642638090205 L 11.185924093497743,246.089036686473 L 11.197494919243113,246.11249999999998 L 11.212029331941753,246.13425228580172 L 11.22927864376269,246.1539213562373 L 11.23398151027747,246.15804565947937 L 11.233768217413775,246.15827272350393 L 13.22314091998617,248.02699235666788 L 13.012050812368411,253.06228022865955 L 10.634734795155355,255.53107286944123 L 10.634887182735094,255.53121961057622 L 10.620129331941754,255.54804771419828 L 10.605594919243114,255.56980000000001 L 10.594024093497744,255.593263313527 L 10.585614834742188,255.6180361909795 L 10.580511027725239,255.643694761556 L 10.578800000000001,255.6698 L 10.579128971448066,255.67481913438712 L 10.578863157042436,255.6748258161688 L 10.653163157042435,258.63062581616884 L 10.653428971448067,258.63061913438713 L 10.654811027725238,258.65170523844404 L 10.659914834742185,258.6773638090205 L 10.668324093497743,258.702136686473 L 10.679894919243111,258.72560000000004 L 10.694429331941752,258.74735228580175 L 10.71167864376269,258.7670213562373 L 10.731347714198256,258.78427066805824 L 10.7531,258.7988050807569 L 10.776563313526982,258.81037590650226 L 10.801336190979494,258.81878516525785 L 10.826994761555989,258.8238889722748 L 10.8531,258.8256 L 10.87920523844401,258.8238889722748 L 10.904863809020505,258.81878516525785 L 10.929636686473017,258.81037590650226 L 10.9531,258.7988050807569 L 10.974852285801743,258.78427066805824 L 10.994521356237309,258.7670213562373 L 11.011770668058247,258.74735228580175 L 11.026305080756888,258.72560000000004 L 11.037875906502256,258.702136686473 L 11.046285165257814,258.6773638090205 L 11.051388972274761,258.65170523844404 L 11.053099999999999,258.6256 L 11.052771028551932,258.6205808656129 L 11.053036842957564,258.6205741838312 L 10.980837051048162,255.74832458859822 L 13.352765204844646,253.28512713055878 L 13.352612817264909,253.2849803894238 L 13.367370668058246,253.26815228580173 L 13.381905080756887,253.2464 L 13.393475906502257,253.22293668647302 L 13.401885165257813,253.1981638090205 L 13.406988972274762,253.17250523844402 L 13.408151961245943,253.15476145559782 L 13.408524484623364,253.15477707257978 L 13.626624484623363,247.9522770725798 L 13.626251961245943,247.95226145559784 L 13.6268,247.9439 L 13.625088972274762,247.917794761556 L 13.619985165257813,247.8921361909795 L 13.611575906502257,247.867363313527 L 13.600005080756887,247.84390000000002 L 13.585470668058246,247.82214771419828 L 13.56822135623731,247.8024786437627 L 13.56351848972253,247.79835434052063 L 13.563731782586224,247.79812727649607 L 11.569866539184366,245.925187569718 L 11.471690278774924,235.7540482139592 L 12.015011143795698,235.08998005553846 L 14.05729682477687,235.04404944002653 L 14.057291341354485,235.04380562193492 L 14.07890523844401,235.04238897227475 L 14.104563809020503,235.0372851652578 L 14.129336686473017,235.02887590650226 L 14.1528,235.0173050807569 L 14.174552285801743,235.00277066805825 L 14.194221356237309,234.9855213562373 L 14.19728612090907,234.98202666190846 L 14.197467062104396,234.9821993886376 L 15.204667062104397,233.9270993886376 L 15.20448612090907,233.92692666190845 L 15.218670668058246,233.91075228580172 L 15.233205080756887,233.88899999999998 L 15.244775906502257,233.865536686473 L 15.253185165257813,233.8407638090205 L 15.258288972274762,233.815105238444 L 15.26,233.789 L 15.26,233.0216 L 15.258288972274762,232.995494761556 L 15.253185165257813,232.9698361909795 L 15.244775906502257,232.945063313527 L 15.233205080756887,232.9216 L 15.218670668058246,232.89984771419827 L 15.20142135623731,232.8801786437627 L 15.181752285801744,232.86292933194176 L 15.16,232.8483949192431 L 15.136536686473018,232.83682409349774 L 15.111763809020504,232.8284148347422 L 15.086105238444011,232.82331102772525 L 15.06,232.82160000000002 L 15.03389476155599,232.82331102772525 L 15.008236190979497,232.8284148347422 L 14.983463313526983,232.83682409349774 L 14.96,232.8483949192431 L 14.938247714198257,232.86292933194176 L 14.918578643762691,232.8801786437627 L 14.901329331941755,232.89984771419827 L 14.886794919243114,232.9216 L 14.875224093497744,232.945063313527 L 14.866814834742188,232.9698361909795 L 14.861711027725239,232.995494761556 L 14.860000000000001,233.0216 L 14.860000000000001,233.70886505017657 L 13.965395151039816,234.64601514562722 L 11.91400317522313,234.69215055997347 L 11.914008658645514,234.69239437806507 L 11.89239476155599,234.69381102772525 L 11.866736190979497,234.6989148347422 z" /><path fill-rule="evenodd" fill="#133d91ff" stroke="#00000000" stroke-width="0.0" opacity="0.6" d="M 11.755894919243113,237.8007 L 11.744324093497744,237.82416331352698 L 11.735914834742188,237.8489361909795 L 11.730811027725238,237.87459476155598 L 11.729160691089172,237.8997740329155 L 11.729102144804632,237.89977376177356 L 11.694502144804632,245.37077376177356 L 11.694560691089173,245.3707740329155 L 11.694500000000001,245.3717 L 11.696211027725239,245.39780523844402 L 11.701314834742188,245.42346380902052 L 11.709724093497744,245.44823668647302 L 11.721294919243114,245.4717 L 11.735829331941755,245.49345228580174 L 11.751593700324573,245.5114281027684 L 11.751497414997074,245.51152224673663 L 13.803221548838735,247.6099140384584 L 13.638883587325898,256.13081768524813 L 11.854316315769669,258.50544506869494 L 11.854413309015793,258.50551796054054 L 11.840994919243112,258.5256 L 11.829424093497744,258.54906331352703 L 11.821014834742186,258.57383619097953 L 11.815911027725239,258.599494761556 L 11.814200000000001,258.6256 L 11.815911027725239,258.65170523844404 L 11.821014834742186,258.6773638090205 L 11.829424093497744,258.702136686473 L 11.840994919243112,258.72560000000004 L 11.855529331941753,258.74735228580175 L 11.872778643762691,258.7670213562373 L 11.892447714198257,258.78427066805824 L 11.914200000000001,258.7988050807569 L 11.937663313526983,258.81037590650226 L 11.962436190979496,258.81878516525785 L 11.98809476155599,258.8238889722748 L 12.0142,258.8256 L 12.040305238444011,258.8238889722748 L 12.065963809020506,258.81878516525785 L 12.090736686473019,258.81037590650226 L 12.1142,258.7988050807569 L 12.135952285801745,258.78427066805824 L 12.15562135623731,258.7670213562373 L 12.172870668058248,258.74735228580175 L 12.173986690984208,258.7456820394595 L 12.174083684230332,258.7457549313051 L 13.997483684230332,256.3194549313051 L 13.997386690984206,256.31938203945947 L 14.010805080756887,256.2993 L 14.022375906502257,256.275836686473 L 14.030785165257813,256.2510638090205 L 14.035888972274762,256.225405238444 L 14.03734749907461,256.20315241967 L 14.037562813667723,256.2031565723236 L 14.204762813667722,247.53385657232363 L 14.204547499074609,247.53385241967 L 14.204799999999999,247.53 L 14.203088972274761,247.50389476155598 L 14.197985165257812,247.4782361909795 L 14.189575906502256,247.45346331352698 L 14.178005080756886,247.43 L 14.163470668058245,247.40824771419827 L 14.147706299675427,247.3902718972316 L 14.147802585002927,247.39017775326337 L 12.094877932337578,245.29055813621954 L 12.128744152729743,237.97799939200365 L 12.543504779872618,237.5184275461889 L 14.086840983568303,237.504992422297 L 14.086840056706315,237.50488595065798 L 14.111205238444011,237.50328897227476 L 14.136863809020504,237.4981851652578 L 14.161636686473019,237.48977590650227 L 14.1851,237.4782050807569 L 14.206852285801745,237.46367066805826 L 14.22409501514318,237.44854920026808 L 14.224223786618165,237.4486821909529 L 16.011423786618163,235.7181821909529 L 16.01129501514318,235.71804920026807 L 16.01372135623731,235.71592135623732 L 16.030970668058245,235.69625228580173 L 16.045505080756886,235.6745 L 16.057075906502256,235.65103668647302 L 16.06548516525781,235.62626380902051 L 16.07058897227476,235.60060523844402 L 16.07122526350706,235.59089731022402 L 16.0716239807628,235.59093017628848 L 16.284423980762803,233.00933017628847 L 16.28402526350706,233.009297310224 L 16.2851,232.9929 L 16.28338897227476,232.96679476155597 L 16.278285165257813,232.94113619097948 L 16.269875906502257,232.91636331352697 L 16.258305080756887,232.8929 L 16.243770668058247,232.87114771419826 L 16.22652135623731,232.85147864376268 L 16.206852285801745,232.83422933194174 L 16.185100000000002,232.8196949192431 L 16.161636686473017,232.80812409349772 L 16.136863809020504,232.7997148347422 L 16.11120523844401,232.79461102772524 L 16.0851,232.7929 L 16.05899476155599,232.79461102772524 L 16.033336190979497,232.7997148347422 L 16.008563313526984,232.80812409349772 L 15.985100000000001,232.8196949192431 L 15.963347714198257,232.83422933194174 L 15.943678643762691,232.85147864376268 L 15.926429331941755,232.87114771419826 L 15.911894919243114,232.8929 L 15.900324093497744,232.91636331352697 L 15.891914834742188,232.94113619097948 L 15.886811027725239,232.96679476155597 L 15.886174736492938,232.97650268977597 L 15.885776019237198,232.9764698237115 L 15.679153554548417,235.4831265663833 L 14.003412699466146,237.10570353019256 L 12.452159016431699,237.119207577703 L 12.452159943293687,237.11931404934202 L 12.42779476155599,237.12091102772524 L 12.402136190979498,237.1260148347422 L 12.377363313526983,237.13442409349773 L 12.353900000000001,237.1459949192431 L 12.332147714198257,237.16052933194175 L 12.312478643762692,237.17777864376268 L 12.305728270288496,237.185475969471 L 12.30542540324246,237.1852026339151 L 11.780625403242459,237.76670263391512 L 11.780928270288495,237.76697596947102 L 11.770429331941754,237.77894771419827 L 11.755894919243113,237.8007 z" /><path fill-rule="evenodd" fill="#133d91ff" stroke="#00000000" stroke-width="0.0" opacity="0.6" d="M 11.376947714198256,270.22247066805824 L 11.3987,270.2370050807569 L 11.422163313526982,270.24857590650225 L 11.446936190979494,270.25698516525784 L 11.472594761555989,270.2620889722748 L 11.4987,270.2638 L 11.52480523844401,270.2620889722748 L 11.550463809020503,270.25698516525784 L 11.575236686473017,270.24857590650225 L 11.5987,270.2370050807569 L 11.620452285801743,270.22247066805824 L 11.640121356237309,270.2052213562373 L 11.657370668058247,270.18555228580175 L 11.671905080756888,270.16380000000004 L 11.683475906502256,270.140336686473 L 11.691885165257814,270.1155638090205 L 11.696988972274761,270.08990523844403 L 11.698699999999999,270.0638 L 11.696988972274761,270.037694761556 L 11.691885165257814,270.01203619097953 L 11.683475906502256,269.987263313527 L 11.671905080756888,269.9638 L 11.657370668058247,269.9420477141983 L 11.640121356237309,269.9223786437627 L 11.620452285801743,269.9051293319418 L 11.5987,269.89059491924314 L 11.575236686473017,269.8790240934978 L 11.550463809020503,269.8706148347422 L 11.52480523844401,269.86551102772523 L 11.4987,269.8638 L 11.472594761555989,269.86551102772523 L 11.446936190979494,269.8706148347422 L 11.422163313526982,269.8790240934978 L 11.3987,269.89059491924314 L 11.376947714198256,269.9051293319418 L 11.35727864376269,269.9223786437627 L 11.340029331941752,269.9420477141983 L 11.325494919243111,269.9638 L 11.313924093497743,269.987263313527 L 11.305514834742185,270.01203619097953 L 11.300411027725238,270.037694761556 L 11.2987,270.0638 L 11.300411027725238,270.08990523844403 L 11.305514834742185,270.1155638090205 L 11.313924093497743,270.140336686473 L 11.325494919243111,270.16380000000004 L 11.340029331941752,270.18555228580175 L 11.35727864376269,270.2052213562373 L 11.376947714198256,270.22247066805824 z" /><path fill-rule="evenodd" fill="#133d91ff" stroke="#00000000" stroke-width="0.0" opacity="0.6" d="M 12.64919476155599,237.60611102772523 L 12.623536190979497,237.61121483474219 L 12.598763313526982,237.61962409349772 L 12.5753,237.6311949192431 L 12.553547714198256,237.64572933194174 L 12.53387864376269,237.66297864376267 L 12.516629331941754,237.68264771419825 L 12.51377151559361,237.68692473861353 L 12.513552783139362,237.68676566046497 L 12.218352783139363,238.09266566046497 L 12.218571515593611,238.09282473861353 L 12.206894919243114,238.1103 L 12.195324093497744,238.13376331352697 L 12.186914834742188,238.15853619097948 L 12.181811027725239,238.18419476155597 L 12.180100000000001,238.2103 L 12.180100000000001,245.0554 L 12.181811027725239,245.081505238444 L 12.186914834742188,245.1071638090205 L 12.195324093497744,245.131936686473 L 12.206894919243114,245.1554 L 12.221429331941755,245.17715228580172 L 12.235961626655692,245.19372319200866 L 12.235797707373838,245.1938804980596 L 14.374219409726534,247.42220259810173 L 14.211079510936882,256.9597935003536 L 12.635929540673603,258.432088708036 L 12.636153397831784,258.43232820388863 L 12.631078643762692,258.4367786437627 L 12.613829331941753,258.45644771419825 L 12.599294919243112,258.47819999999996 L 12.587724093497744,258.501663313527 L 12.579314834742187,258.5264361909795 L 12.574211027725239,258.55209476155596 L 12.572500000000002,258.5782 L 12.574211027725239,258.604305238444 L 12.579314834742187,258.62996380902047 L 12.587724093497744,258.654736686473 L 12.599294919243112,258.6782 L 12.613829331941753,258.6999522858017 L 12.631078643762692,258.71962135623727 L 12.650747714198257,258.7368706680582 L 12.672500000000001,258.75140508075685 L 12.695963313526983,258.7629759065022 L 12.720736190979496,258.7713851652578 L 12.74639476155599,258.77648897227476 L 12.7725,258.77819999999997 L 12.798605238444011,258.77648897227476 L 12.824263809020504,258.7713851652578 L 12.849036686473019,258.7629759065022 L 12.8725,258.75140508075685 L 12.894252285801745,258.7368706680582 L 12.908846602168218,258.72407179611133 L 12.909070459326399,258.72431129196394 L 14.546170459326397,257.19411129196396 L 14.54594660216822,257.19387179611135 L 14.551021356237309,257.1894213562373 L 14.568270668058245,257.16975228580174 L 14.582805080756886,257.148 L 14.594375906502256,257.124536686473 L 14.602785165257812,257.0997638090205 L 14.607888972274761,257.074105238444 L 14.609376027728645,257.0514171565208 L 14.609570748529029,257.05142048720796 L 14.775570748529029,247.34662048720796 L 14.775376027728646,247.34661715652078 L 14.775599999999999,247.3432 L 14.773888972274761,247.31709476155598 L 14.768785165257812,247.29143619097948 L 14.760375906502256,247.26666331352698 L 14.748805080756886,247.2432 L 14.734270668058246,247.22144771419826 L 14.719738373344311,247.20487680799133 L 14.719902292626163,247.2047195019404 L 12.5801,244.9749587708677 L 12.5801,238.27533676271838 L 12.778575979668616,238.00243229067402 L 14.579482865362605,237.96746230483913 L 14.579478660869388,237.96724577913554 L 14.60170523844401,237.96578897227477 L 14.627363809020503,237.96068516525781 L 14.652136686473018,237.95227590650228 L 14.6756,237.9407050807569 L 14.697352285801744,237.92617066805826 L 14.707864540259182,237.9169516683261 L 14.708146984385744,237.91727081468113 L 16.313346984385745,236.49667081468112 L 16.313064540259184,236.4963516683261 L 16.32222135623731,236.48832135623732 L 16.339470668058247,236.46865228580174 L 16.354005080756888,236.4469 L 16.365575906502258,236.42343668647302 L 16.373985165257814,236.39866380902052 L 16.378536639951907,236.3757820005435 L 16.37870010186143,236.37580587627517 L 16.858400101861427,233.09160587627517 L 16.858236639951905,233.0915820005435 L 16.85878897227476,233.08880523844402 L 16.8605,233.0627 L 16.85878897227476,233.036594761556 L 16.85368516525781,233.0109361909795 L 16.845275906502255,232.986163313527 L 16.833705080756886,232.9627 L 16.819170668058245,232.94094771419827 L 16.801921356237308,232.9212786437627 L 16.782252285801743,232.90402933194176 L 16.7605,232.8894949192431 L 16.737036686473015,232.87792409349774 L 16.712263809020502,232.8695148347422 L 16.68660523844401,232.86441102772525 L 16.6605,232.86270000000002 L 16.63439476155599,232.86441102772525 L 16.608736190979496,232.8695148347422 L 16.583963313526983,232.87792409349774 L 16.5605,232.8894949192431 L 16.538747714198255,232.90402933194176 L 16.51907864376269,232.9212786437627 L 16.501829331941753,232.94094771419827 L 16.487294919243112,232.9627 L 16.475724093497742,232.986163313527 L 16.467314834742186,233.0109361909795 L 16.462763360048093,233.03381799945652 L 16.46259989813857,233.03379412372485 L 15.993472564991976,236.24560981586586 L 14.498152543942467,237.56896617139972 L 12.671417134637394,237.60443769516087 L 12.671421339130612,237.60465422086446 L 12.64919476155599,237.60611102772523 z" /><path fill-rule="evenodd" fill="#133d91ff" stroke="#00000000" stroke-width="0.0" opacity="0.6" d="M 12.650747714198257,256.1776706680582 L 12.672500000000001,256.1922050807569 L 12.695963313526983,256.20377590650224 L 12.720736190979496,256.21218516525784 L 12.74639476155599,256.2172889722748 L 12.7725,256.219 L 12.798605238444011,256.2172889722748 L 12.824263809020504,256.21218516525784 L 12.849036686473019,256.20377590650224 L 12.8725,256.1922050807569 L 12.894252285801745,256.1776706680582 L 12.91392135623731,256.1604213562373 L 12.931170668058249,256.14075228580174 L 12.94570508075689,256.119 L 12.957275906502257,256.095536686473 L 12.965685165257815,256.0707638090205 L 12.970788972274763,256.045105238444 L 12.9725,256.019 L 12.970788972274763,255.992894761556 L 12.965685165257815,255.9672361909795 L 12.957275906502257,255.94246331352699 L 12.94570508075689,255.919 L 12.931170668058249,255.89724771419827 L 12.91392135623731,255.8775786437627 L 12.894252285801745,255.86032933194176 L 12.8725,255.8457949192431 L 12.849036686473019,255.83422409349774 L 12.824263809020504,255.8258148347422 L 12.798605238444011,255.82071102772525 L 12.7725,255.81900000000002 L 12.74639476155599,255.82071102772525 L 12.720736190979496,255.8258148347422 L 12.695963313526983,255.83422409349774 L 12.672500000000001,255.8457949192431 L 12.650747714198257,255.86032933194176 L 12.631078643762692,255.8775786437627 L 12.613829331941753,255.89724771419827 L 12.599294919243112,255.919 L 12.587724093497744,255.94246331352699 L 12.579314834742187,255.9672361909795 L 12.574211027725239,255.992894761556 L 12.572500000000002,256.019 L 12.574211027725239,256.045105238444 L 12.579314834742187,256.0707638090205 L 12.587724093497744,256.095536686473 L 12.599294919243112,256.119 L 12.613829331941753,256.14075228580174 L 12.631078643762692,256.1604213562373 L 12.650747714198257,256.1776706680582 z" /><path fill-rule="evenodd" fill="#133d91ff" stroke="#00000000" stroke-width="0.0" opacity="0.6" d="M 12.674447714198257,260.0164706680582 L 12.696200000000001,260.03100508075687 L 12.719663313526983,260.04257590650224 L 12.744436190979496,260.0509851652578 L 12.77009476155599,260.0560889722748 L 12.7962,260.0578 L 12.822305238444011,260.0560889722748 L 12.847963809020506,260.0509851652578 L 12.872736686473019,260.04257590650224 L 12.8962,260.03100508075687 L 12.917952285801745,260.0164706680582 L 12.93762135623731,259.9992213562373 L 12.954870668058248,259.97955228580173 L 12.96940508075689,259.9578 L 12.980975906502257,259.934336686473 L 12.989385165257815,259.9095638090205 L 12.994488972274763,259.883905238444 L 12.9962,259.8578 L 12.994488972274763,259.831694761556 L 12.989385165257815,259.8060361909795 L 12.980975906502257,259.781263313527 L 12.96940508075689,259.7578 L 12.954870668058248,259.73604771419826 L 12.93762135623731,259.7163786437627 L 12.917952285801745,259.6991293319418 L 12.8962,259.6845949192431 L 12.872736686473019,259.67302409349776 L 12.847963809020506,259.66461483474217 L 12.822305238444011,259.6595110277252 L 12.7962,259.6578 L 12.77009476155599,259.6595110277252 L 12.744436190979496,259.66461483474217 L 12.719663313526983,259.67302409349776 L 12.696200000000001,259.6845949192431 L 12.674447714198257,259.6991293319418 L 12.654778643762691,259.7163786437627 L 12.637529331941753,259.73604771419826 L 12.622994919243112,259.7578 L 12.611424093497744,259.781263313527 L 12.603014834742186,259.8060361909795 L 12.597911027725239,259.831694761556 L 12.596200000000001,259.8578 L 12.597911027725239,259.883905238444 L 12.603014834742186,259.9095638090205 L 12.611424093497744,259.934336686473 L 12.622994919243112,259.9578 L 12.637529331941753,259.97955228580173 L 12.654778643762691,259.9992213562373 L 12.674447714198257,260.0164706680582 z" /><path fill-rule="evenodd" fill="#133d91ff" stroke="#00000000" stroke-width="0.0" opacity="0.6" d="M 12.62647864376269,270.2243213562373 L 12.646147714198255,270.2415706680582 L 12.6679,270.25610508075687 L 12.691363313526981,270.26767590650223 L 12.716136190979494,270.2760851652578 L 12.741794761555989,270.2811889722748 L 12.7679,270.2829 L 12.79400523844401,270.2811889722748 L 12.819663809020504,270.2760851652578 L 12.844436686473017,270.26767590650223 L 12.867899999999999,270.25610508075687 L 12.889652285801743,270.2415706680582 L 12.909321356237308,270.2243213562373 L 12.926570668058247,270.2046522858017 L 12.941105080756888,270.1829 L 12.952675906502256,270.159436686473 L 12.961085165257813,270.1346638090205 L 12.966188972274761,270.109005238444 L 12.967899999999998,270.0829 L 12.966188972274761,270.056794761556 L 12.961085165257813,270.0311361909795 L 12.952675906502256,270.006363313527 L 12.941105080756888,269.9829 L 12.926570668058247,269.96114771419826 L 12.909321356237308,269.9414786437627 L 12.889652285801743,269.9242293319418 L 12.867899999999999,269.9096949192431 L 12.844436686473017,269.89812409349776 L 12.819663809020504,269.88971483474216 L 12.79400523844401,269.8846110277252 L 12.7679,269.8829 L 12.741794761555989,269.8846110277252 L 12.716136190979494,269.88971483474216 L 12.691363313526981,269.89812409349776 L 12.6679,269.9096949192431 L 12.646147714198255,269.9242293319418 L 12.62647864376269,269.9414786437627 L 12.609229331941751,269.96114771419826 L 12.59469491924311,269.9829 L 12.583124093497743,270.006363313527 L 12.574714834742185,270.0311361909795 L 12.569611027725237,270.056794761556 L 12.5679,270.0829 L 12.569611027725237,270.109005238444 L 12.574714834742185,270.1346638090205 L 12.583124093497743,270.159436686473 L 12.59469491924311,270.1829 L 12.609229331941751,270.2046522858017 L 12.62647864376269,270.2243213562373 z" /></g></g></svg>