<svg xmlns="http://www.w3.org/2000/svg" xmlns:xlink="http://www.w3.org/1999/xlink" width="144.0" height="280.0" viewBox="0.0 0.0 144.0 280.0" preserveAspectRatio="xMidYMid meet" ><g transform="matrix(1,0,0,-1,0,280.0)"><g><path fill-rule="evenodd" fill="#133d91ff" stroke="#00000000" stroke-width="0.0" opacity="0.6" d="M 0.17389476155598968,0.0017110277252379291 L 0.14823619097949584,0.006814834742186332 L 0.12346331352698206,0.015224093497742647 L 0.10000000000000005,0.026794919243112253 L 0.07824771419825588,0.04132933194175298 L 0.05857864376269051,0.05857864376269048 L 0.04132933194175298,0.07824771419825582 L 0.026794919243112253,0.10000000000000002 L 0.015224093497742647,0.12346331352698203 L 0.00681483474218636,0.1482361909794958 L 0.0017110277252379291,0.1738947615559897 L 0.0,0.19999999999999998 L 0.0,0.2 L 0.0,0.20000000000000004 L 0.0,279.8 L 0.0017110277252379291,279.82610523844403 L 0.00681483474218636,279.8517638090205 L 0.015224093497742647,279.876536686473 L 0.026794919243112253,279.90000000000003 L 0.04132933194175298,279.92175228580174 L 0.05857864376269051,279.9414213562373 L 0.07824771419825588,279.95867066805823 L 0.10000000000000005,279.9732050807569 L 0.12346331352698206,279.98477590650225 L 0.14823619097949584,279.99318516525784 L 0.17389476155598968,279.9982889722748 L 0.2,280.0 L 143.8,280.0 L 143.82610523844403,279.99828897227474 L 143.85176380902053,279.99318516525784 L 143.87653668647303,279.98477590650225 L 143.9,279.9732050807569 L 143.92175228580174,279.95867066805823 L 143.9414213562373,279.9414213562373 L 143.95867066805826,279.92175228580174 L 143.97320508075688,279.9 L 143.98477590650225,279.876536686473 L 143.9931851652578,279.8517638090205 L 143.99828897227476,279.82610523844403 L 144.0,279.8 L 144.0,0.2 L 143.99828897227476,0.17389476155599118 L 143.9931851652578,0.1482361909794988 L 143.98477590650225,0.1234633135269864 L 143.97320508075688,0.10000000000000571 L 143.95867066805826,0.0782477141982628 L 143.9414213562373,0.05857864376269853 L 143.92175228580174,0.041329331941762 L 143.9,0.026794919243122134 L 143.87653668647303,0.015224093497753166 L 143.85176380902053,0.006814834742197323 L 143.82610523844403,0.0017110277252491979 L 143.8,1.1379786002407855e-14 L 143.8,0.0 L 0.2,0.0 L 0.17389476155598968,0.0017110277252379291 z M 0.4,0.4 L 143.60000000000002,0.4 L 143.60000000000002,279.6 L 0.4,279.6 L 0.4,0.4 z" /><path fill-rule="evenodd" fill="#133d91ff" stroke="#00000000" stroke-width="0.0" opacity="0.6" d="M 10.14142135623731,253.85857864376268 L 10.121752285801744,253.84132933194175 L 10.1,253.8267949192431 L 10.076536686473018,253.81522409349773 L 10.051763809020503,253.8068148347422 L 10.02610523844401,253.80171102772525 L 10.0,253.8 L 9.97389476155599,253.80171102772525 L 9.948236190979497,253.8068148347422 L 9.923463313526982,253.81522409349773 L 9.9,253.8267949192431 L 9.878247714198256,253.84132933194175 L 9.85857864376269,253.85857864376268 L 9.841329331941754,253.87824771419827 L 9.826794919243113,253.9 L 9.815224093497743,253.92346331352698 L 9.806814834742188,253.9482361909795 L 9.801711027725238,253.97389476155598 L 9.8,254.0 L 9.8,256.0 L 9.801711027725238,256.026105238444 L 9.806814834742188,256.0517638090205 L 9.815224093497743,256.076536686473 L 9.826794919243113,256.1 L 9.841329331941754,256.12175228580173 L 9.85857864376269,256.1414213562373 L 9.864037679507739,256.14620880209634 L 9.863803845172423,256.14646025880825 L 12.636303845172424,258.7246602588082 L 12.63653767950774,258.7244088020963 L 12.650747714198257,258.7368706680582 L 12.672500000000001,258.75140508075685 L 12.695963313526983,258.7629759065022 L 12.720736190979496,258.7713851652578 L 12.74639476155599,258.77648897227476 L 12.7725,258.77819999999997 L 12.798605238444011,258.77648897227476 L 12.824263809020504,258.7713851652578 L 12.849036686473019,258.7629759065022 L 12.8725,258.75140508075685 L 12.894252285801745,258.7368706680582 L 12.91392135623731,258.71962135623727 L 12.931170668058249,258.6999522858017 L 12.94570508075689,258.6782 L 12.957275906502257,258.654736686473 L 12.965685165257815,258.62996380902047 L 12.970788972274763,258.604305238444 L 12.9725,258.5782 L 12.970788972274763,258.55209476155596 L 12.965685165257815,258.5264361909795 L 12.957275906502257,258.501663313527 L 12.94570508075689,258.47819999999996 L 12.931170668058249,258.45644771419825 L 12.91392135623731,258.4367786437627 L 12.908462320492262,258.43199119790364 L 12.908696154827577,258.43173974119173 L 10.2,255.91287213925256 L 10.2,254.0 L 10.198288972274762,253.97389476155598 L 10.193185165257812,253.9482361909795 L 10.184775906502257,253.92346331352698 L 10.173205080756887,253.9 L 10.158670668058246,253.87824771419827 L 10.14142135623731,253.85857864376268 z" /><path fill-rule="evenodd" fill="#133d91ff" stroke="#00000000" stroke-width="0.0" opacity="0.6" d="M 9.826794919243113,259.29999999999995 L 9.815224093497743,259.323463313527 L 9.806814834742188,259.3482361909795 L 9.801711027725238,259.37389476155596 L 9.8,259.4 L 9.8,262.0 L 9.801711027725238,262.026105238444 L 9.806814834742188,262.0517638090205 L 9.815224093497743,262.076536686473 L 9.826794919243113,262.1 L 9.841329331941754,262.12175228580173 L 9.85857864376269,262.1414213562373 L 9.878247714198256,262.1586706680582 L 9.9,262.1732050807569 L 9.923463313526982,262.18477590650224 L 9.948236190979497,262.19318516525783 L 9.97389476155599,262.1982889722748 L 10.0,262.2 L 10.02610523844401,262.1982889722748 L 10.051763809020503,262.19318516525783 L 10.076536686473018,262.18477590650224 L 10.1,262.1732050807569 L 10.121752285801744,262.1586706680582 L 10.14142135623731,262.1414213562373 L 10.158670668058246,262.12175228580173 L 10.173205080756887,262.1 L 10.184775906502257,262.076536686473 L 10.193185165257812,262.0517638090205 L 10.198288972274762,262.026105238444 L 10.2,262.0 L 10.2,259.48856195054134 L 10.987525657521289,258.77368694270587 L 10.98725752732511,258.7733915632245 L 10.994521356237309,258.7670213562373 L 11.011770668058247,258.74735228580175 L 11.026305080756888,258.72560000000004 L 11.037875906502256,258.702136686473 L 11.046285165257814,258.6773638090205 L 11.051388972274761,258.65170523844404 L 11.053099999999999,258.6256 L 11.051388972274761,258.599494761556 L 11.046285165257814,258.57383619097953 L 11.037875906502256,258.54906331352703 L 11.026305080756888,258.5256 L 11.011770668058247,258.5038477141983 L 10.994521356237309,258.48417864376273 L 10.974852285801743,258.4669293319418 L 10.9531,258.45239491924315 L 10.929636686473017,258.4408240934978 L 10.904863809020505,258.4324148347422 L 10.87920523844401,258.42731102772524 L 10.8531,258.42560000000003 L 10.826994761555989,258.42731102772524 L 10.801336190979494,258.4324148347422 L 10.776563313526982,258.4408240934978 L 10.7531,258.45239491924315 L 10.731347714198256,258.4669293319418 L 10.71894247267489,258.47780843677555 L 10.71867434247871,258.4775130572942 L 9.86557434247871,259.25191305729413 L 9.86584247267489,259.2522084367755 L 9.85857864376269,259.2585786437627 L 9.841329331941754,259.27824771419824 L 9.826794919243113,259.29999999999995 z" /><path fill-rule="evenodd" fill="#133d91ff" stroke="#00000000" stroke-width="0.0" opacity="0.6" d="M 10.19970726345312,267.9955337033732 L 10.198288972274762,267.973894761556 L 10.193185165257812,267.9482361909795 L 10.184775906502257,267.923463313527 L 10.173205080756887,267.9 L 10.158670668058246,267.87824771419827 L 10.14142135623731,267.8585786437627 L 10.121752285801744,267.8413293319418 L 10.1,267.8267949192431 L 10.076536686473018,267.81522409349776 L 10.051763809020503,267.80681483474217 L 10.02610523844401,267.8017110277252 L 10.0,267.8 L 9.97389476155599,267.8017110277252 L 9.948236190979497,267.80681483474217 L 9.923463313526982,267.81522409349776 L 9.9,267.8267949192431 L 9.878247714198256,267.8413293319418 L 9.85857864376269,267.8585786437627 L 9.841329331941754,267.87824771419827 L 9.826794919243113,267.9 L 9.815224093497743,267.923463313527 L 9.806814834742188,267.9482361909795 L 9.801711027725238,267.973894761556 L 9.8,268.0 L 9.80029273654688,268.0044662966268 L 9.80004999706728,268.0044717253052 L 9.82524999706728,269.1312717253052 L 9.82549273654688,269.1312662966268 L 9.826911027725238,269.152905238444 L 9.832014834742187,269.1785638090205 L 9.840424093497743,269.203336686473 L 9.851994919243113,269.2268 L 9.866529331941754,269.24855228580174 L 9.875002869406789,269.2582145034582 L 9.874680695067863,269.25849638887513 L 10.697480695067863,270.19889638887514 L 10.69780286940679,270.1986145034582 L 10.706578643762692,270.2086213562373 L 10.726247714198257,270.22587066805823 L 10.748000000000001,270.2404050807569 L 10.771463313526983,270.25197590650225 L 10.796236190979497,270.26038516525784 L 10.82189476155599,270.2654889722748 L 10.848,270.2672 L 10.849044670658476,270.26713152866756 L 10.849045014165473,270.26719726984487 L 11.499745014165471,270.2637972698449 L 11.499744670658474,270.26373152866756 L 11.52480523844401,270.2620889722748 L 11.550463809020503,270.25698516525784 L 11.575236686473017,270.24857590650225 L 11.5987,270.2370050807569 L 11.620452285801743,270.22247066805824 L 11.640121356237309,270.2052213562373 L 11.657370668058247,270.18555228580175 L 11.671905080756888,270.16380000000004 L 11.683475906502256,270.140336686473 L 11.691885165257814,270.1155638090205 L 11.696988972274761,270.08990523844403 L 11.698699999999999,270.0638 L 11.696988972274761,270.037694761556 L 11.691885165257814,270.01203619097953 L 11.683475906502256,269.987263313527 L 11.671905080756888,269.9638 L 11.657370668058247,269.9420477141983 L 11.640121356237309,269.9223786437627 L 11.620452285801743,269.9051293319418 L 11.5987,269.89059491924314 L 11.575236686473017,269.8790240934978 L 11.550463809020503,269.8706148347422 L 11.52480523844401,269.86551102772523 L 11.4987,269.8638 L 11.497655329341525,269.86386847133247 L 11.497654985834528,269.86380273015516 L 10.938341870173513,269.8667252206934 L 10.223526711720723,269.0497439676441 L 10.19995000293272,267.9955282746948 L 10.19970726345312,267.9955337033732 z" /><path fill-rule="evenodd" fill="#133d91ff" stroke="#00000000" stroke-width="0.0" opacity="0.6" d="M 12.384775906502256,253.92346331352698 L 12.373205080756886,253.9 L 12.358670668058245,253.87824771419827 L 12.341421356237309,253.85857864376268 L 12.321752285801743,253.84132933194175 L 12.299999999999999,253.8267949192431 L 12.276536686473017,253.81522409349773 L 12.251763809020503,253.8068148347422 L 12.22610523844401,253.80171102772525 L 12.2,253.8 L 12.173894761555989,253.80171102772525 L 12.148236190979496,253.8068148347422 L 12.123463313526981,253.81522409349773 L 12.1,253.8267949192431 L 12.078247714198255,253.84132933194175 L 12.05857864376269,253.85857864376268 L 12.041329331941753,253.87824771419827 L 12.026794919243113,253.9 L 12.015224093497743,253.92346331352698 L 12.006814834742187,253.9482361909795 L 12.001711027725237,253.97389476155598 L 12.0,254.0 L 12.0,255.2 L 12.001711027725237,255.226105238444 L 12.006814834742187,255.2517638090205 L 12.015224093497743,255.276536686473 L 12.026794919243113,255.29999999999998 L 12.036393248471542,255.3143649148352 L 12.036078427562131,255.31458498195443 L 12.608578427562133,256.1335849819544 L 12.608893248471528,256.1333649148352 L 12.613003499972166,256.13951634091706 L 12.613829331941753,256.14075228580174 L 12.631078643762692,256.1604213562373 L 12.650747714198257,256.1776706680582 L 12.672500000000001,256.1922050807569 L 12.695963313526983,256.20377590650224 L 12.720736190979496,256.21218516525784 L 12.74639476155599,256.2172889722748 L 12.7725,256.219 L 12.798605238444011,256.2172889722748 L 12.824263809020504,256.21218516525784 L 12.849036686473019,256.20377590650224 L 12.8725,256.1922050807569 L 12.894252285801745,256.1776706680582 L 12.91392135623731,256.1604213562373 L 12.931170668058249,256.14075228580174 L 12.94570508075689,256.119 L 12.957275906502257,256.095536686473 L 12.965685165257815,256.0707638090205 L 12.970788972274763,256.045105238444 L 12.9725,256.019 L 12.970788972274763,255.992894761556 L 12.965685165257815,255.9672361909795 L 12.957275906502257,255.94246331352699 L 12.94570508075689,255.919 L 12.936106751528458,255.90463508516478 L 12.936421572437869,255.90441501804557 L 12.399999999999999,255.13702765066282 L 12.399999999999999,254.0 L 12.398288972274761,253.97389476155598 L 12.393185165257812,253.9482361909795 L 12.384775906502256,253.92346331352698 z" /><path fill-rule="evenodd" fill="#133d91ff" stroke="#00000000" stroke-width="0.0" opacity="0.6" d="M 11.872778643762691,258.7670213562373 L 11.892447714198257,258.78427066805824 L 11.914200000000001,258.7988050807569 L 11.937663313526983,258.81037590650226 L 11.962436190979496,258.81878516525785 L 11.98809476155599,258.8238889722748 L 12.0142,258.8256 L 12.040305238444011,258.8238889722748 L 12.065963809020506,258.81878516525785 L 12.090736686473019,258.81037590650226 L 12.1142,258.7988050807569 L 12.135952285801745,258.78427066805824 L 12.15562135623731,258.7670213562373 L 12.172870668058248,258.74735228580175 L 12.18740508075689,258.72560000000004 L 12.198975906502257,258.702136686473 L 12.207385165257815,258.6773638090205 L 12.212488972274762,258.65170523844404 L 12.2142,258.6256 L 12.212488972274762,258.599494761556 L 12.207385165257815,258.57383619097953 L 12.198975906502257,258.54906331352703 L 12.18740508075689,258.5256 L 12.172870668058248,258.5038477141983 L 12.15562135623731,258.48417864376273 L 12.135952285801745,258.4669293319418 L 12.1142,258.45239491924315 L 12.090736686473019,258.4408240934978 L 12.065963809020506,258.4324148347422 L 12.040305238444011,258.42731102772524 L 12.0142,258.42560000000003 L 11.98809476155599,258.42731102772524 L 11.962436190979496,258.4324148347422 L 11.937663313526983,258.4408240934978 L 11.914200000000001,258.45239491924315 L 11.892447714198257,258.4669293319418 L 11.872778643762691,258.48417864376273 L 11.855529331941753,258.5038477141983 L 11.840994919243112,258.5256 L 11.829424093497744,258.54906331352703 L 11.821014834742186,258.57383619097953 L 11.815911027725239,258.599494761556 L 11.814200000000001,258.6256 L 11.815911027725239,258.65170523844404 L 11.821014834742186,258.6773638090205 L 11.829424093497744,258.702136686473 L 11.840994919243112,258.72560000000004 L 11.855529331941753,258.74735228580175 L 11.872778643762691,258.7670213562373 z" /><path fill-rule="evenodd" fill="#133d91ff" stroke="#00000000" stroke-width="0.0" opacity="0.6" d="M 11.841329331941754,260.4782477141983 L 11.826794919243113,260.5 L 11.815224093497743,260.52346331352703 L 11.806814834742188,260.54823619097954 L 11.801711027725238,260.573894761556 L 11.8,260.6 L 11.8,262.0 L 11.801711027725238,262.026105238444 L 11.806814834742188,262.0517638090205 L 11.815224093497743,262.076536686473 L 11.826794919243113,262.1 L 11.841329331941754,262.12175228580173 L 11.85857864376269,262.1414213562373 L 11.878247714198256,262.1586706680582 L 11.9,262.1732050807569 L 11.923463313526982,262.18477590650224 L 11.948236190979497,262.19318516525783 L 11.97389476155599,262.1982889722748 L 12.0,262.2 L 12.02610523844401,262.1982889722748 L 12.051763809020503,262.19318516525783 L 12.076536686473018,262.18477590650224 L 12.1,262.1732050807569 L 12.121752285801744,262.1586706680582 L 12.14142135623731,262.1414213562373 L 12.158670668058246,262.12175228580173 L 12.173205080756887,262.1 L 12.184775906502257,262.076536686473 L 12.193185165257812,262.0517638090205 L 12.198288972274762,262.026105238444 L 12.2,262.0 L 12.2,260.68698392810404 L 12.932573280588674,260.0040953462742 L 12.932344045878427,260.00384943320995 L 12.93762135623731,259.9992213562373 L 12.954870668058248,259.97955228580173 L 12.96940508075689,259.9578 L 12.980975906502257,259.934336686473 L 12.989385165257815,259.9095638090205 L 12.994488972274763,259.883905238444 L 12.9962,259.8578 L 12.994488972274763,259.831694761556 L 12.989385165257815,259.8060361909795 L 12.980975906502257,259.781263313527 L 12.96940508075689,259.7578 L 12.954870668058248,259.73604771419826 L 12.93762135623731,259.7163786437627 L 12.917952285801745,259.6991293319418 L 12.8962,259.6845949192431 L 12.872736686473019,259.67302409349776 L 12.847963809020506,259.66461483474217 L 12.822305238444011,259.6595110277252 L 12.7962,259.6578 L 12.77009476155599,259.6595110277252 L 12.744436190979496,259.66461483474217 L 12.719663313526983,259.67302409349776 L 12.696200000000001,259.6845949192431 L 12.674447714198257,259.6991293319418 L 12.660055954121574,259.71175056679004 L 12.659826719411328,259.7115046537258 L 11.863626719411327,260.4537046537258 L 11.863855954121574,260.45395056679007 L 11.85857864376269,260.45857864376273 L 11.841329331941754,260.4782477141983 z" /><path fill-rule="evenodd" fill="#133d91ff" stroke="#00000000" stroke-width="0.0" opacity="0.6" d="M 12.14142135623731,267.8585786437627 L 12.121752285801744,267.8413293319418 L 12.1,267.8267949192431 L 12.076536686473018,267.81522409349776 L 12.051763809020503,267.80681483474217 L 12.02610523844401,267.8017110277252 L 12.0,267.8 L 11.97389476155599,267.8017110277252 L 11.948236190979497,267.80681483474217 L 11.923463313526982,267.81522409349776 L 11.9,267.8267949192431 L 11.878247714198256,267.8413293319418 L 11.85857864376269,267.8585786437627 L 11.841329331941754,267.87824771419827 L 11.826794919243113,267.9 L 11.815224093497743,267.923463313527 L 11.806814834742188,267.9482361909795 L 11.801711027725238,267.973894761556 L 11.8,268.0 L 11.8,269.4 L 11.801711027725238,269.426105238444 L 11.806814834742188,269.45176380902046 L 11.815224093497743,269.47653668647297 L 11.826794919243113,269.5 L 11.841329331941754,269.5217522858017 L 11.85857864376269,269.54142135623727 L 11.867373586418303,269.5491343139396 L 11.867092203808934,269.5494507200104 L 12.634992203808933,270.2323507200104 L 12.635273586418293,270.2320343139396 L 12.646147714198255,270.2415706680582 L 12.6679,270.25610508075687 L 12.691363313526981,270.26767590650223 L 12.716136190979494,270.2760851652578 L 12.741794761555989,270.2811889722748 L 12.7679,270.2829 L 12.79400523844401,270.2811889722748 L 12.819663809020504,270.2760851652578 L 12.844436686473017,270.26767590650223 L 12.867899999999999,270.25610508075687 L 12.889652285801743,270.2415706680582 L 12.909321356237308,270.2243213562373 L 12.926570668058247,270.2046522858017 L 12.941105080756888,270.1829 L 12.952675906502256,270.159436686473 L 12.961085165257813,270.1346638090205 L 12.966188972274761,270.109005238444 L 12.967899999999998,270.0829 L 12.966188972274761,270.056794761556 L 12.961085165257813,270.0311361909795 L 12.952675906502256,270.006363313527 L 12.941105080756888,269.9829 L 12.926570668058247,269.96114771419826 L 12.909321356237308,269.9414786437627 L 12.900526413581705,269.9337656860604 L 12.900807796191065,269.9334492799896 L 12.2,269.3102149473696 L 12.2,268.0 L 12.198288972274762,267.973894761556 L 12.193185165257812,267.9482361909795 L 12.184775906502257,267.923463313527 L 12.173205080756887,267.9 L 12.158670668058246,267.87824771419827 L 12.14142135623731,267.8585786437627 z" /></g></g></svg>