%FSLAX34Y34*%
%MOMM*%
%LNCOPPER_TOP*%
G71*
G01*
%ADD10C, 1.00*%
%ADD11C, 0.60*%
%ADD12C, 1.00*%
%ADD13C, 0.70*%
%ADD14C, 0.10*%
%LPD*%
X-1189556Y-428363D02*
G54D10*
D03*
X-1169556Y-428363D02*
G54D10*
D03*
X-1189556Y-448363D02*
G54D10*
D03*
X-1189556Y-468363D02*
G54D10*
D03*
X-1189556Y-488363D02*
G54D10*
D03*
X-1189556Y-508363D02*
G54D10*
D03*
X-1169556Y-508363D02*
G54D10*
D03*
X-1169556Y-488363D02*
G54D10*
D03*
X-1169556Y-468363D02*
G54D10*
D03*
X-1169556Y-448363D02*
G54D10*
D03*
X-1149556Y-428363D02*
G54D10*
D03*
X-1149556Y-448363D02*
G54D10*
D03*
X-1149556Y-468363D02*
G54D10*
D03*
X-1149556Y-488363D02*
G54D10*
D03*
X-1149556Y-508363D02*
G54D10*
D03*
X-1129556Y-508363D02*
G54D10*
D03*
X-1129556Y-488363D02*
G54D10*
D03*
X-1129556Y-468363D02*
G54D10*
D03*
X-1129556Y-448363D02*
G54D10*
D03*
X-1129556Y-428363D02*
G54D10*
D03*
X-1109556Y-428363D02*
G54D10*
D03*
X-1089556Y-428363D02*
G54D10*
D03*
X-1109556Y-448363D02*
G54D10*
D03*
X-1109556Y-468363D02*
G54D10*
D03*
X-1109556Y-488363D02*
G54D10*
D03*
X-1109556Y-508363D02*
G54D10*
D03*
X-1089556Y-508363D02*
G54D10*
D03*
X-1089556Y-488363D02*
G54D10*
D03*
X-1089556Y-468363D02*
G54D10*
D03*
X-1089556Y-448363D02*
G54D10*
D03*
X-1069556Y-428363D02*
G54D10*
D03*
X-1069556Y-448363D02*
G54D10*
D03*
X-1069556Y-468363D02*
G54D10*
D03*
X-1069556Y-488363D02*
G54D10*
D03*
X-1069556Y-508363D02*
G54D10*
D03*
X-1049556Y-508363D02*
G54D10*
D03*
X-1049556Y-488363D02*
G54D10*
D03*
X-1049556Y-468363D02*
G54D10*
D03*
X-1049556Y-448363D02*
G54D10*
D03*
X-1049556Y-428363D02*
G54D10*
D03*
X-1029556Y-428363D02*
G54D10*
D03*
X-1009556Y-428363D02*
G54D10*
D03*
X-1029556Y-448363D02*
G54D10*
D03*
X-1029556Y-468363D02*
G54D10*
D03*
X-1029556Y-488363D02*
G54D10*
D03*
X-1029556Y-508363D02*
G54D10*
D03*
X-1009556Y-508363D02*
G54D10*
D03*
X-1009556Y-488363D02*
G54D10*
D03*
X-1009556Y-468363D02*
G54D10*
D03*
X-1009556Y-448363D02*
G54D10*
D03*
X-989556Y-428363D02*
G54D10*
D03*
X-989556Y-448363D02*
G54D10*
D03*
X-989556Y-468363D02*
G54D10*
D03*
X-989556Y-488363D02*
G54D10*
D03*
X-989556Y-508363D02*
G54D10*
D03*
X-969556Y-508363D02*
G54D10*
D03*
X-969556Y-488363D02*
G54D10*
D03*
X-969556Y-468363D02*
G54D10*
D03*
X-969556Y-448363D02*
G54D10*
D03*
X-969556Y-428363D02*
G54D10*
D03*
X-949556Y-428363D02*
G54D10*
D03*
X-929556Y-428363D02*
G54D10*
D03*
X-949556Y-448363D02*
G54D10*
D03*
X-949556Y-468363D02*
G54D10*
D03*
X-949556Y-488363D02*
G54D10*
D03*
X-949556Y-508363D02*
G54D10*
D03*
X-929556Y-508363D02*
G54D10*
D03*
X-929556Y-488363D02*
G54D10*
D03*
X-929556Y-468363D02*
G54D10*
D03*
X-929556Y-448363D02*
G54D10*
D03*
X-909556Y-428363D02*
G54D10*
D03*
X-909556Y-448363D02*
G54D10*
D03*
X-909556Y-468363D02*
G54D10*
D03*
X-909556Y-488363D02*
G54D10*
D03*
X-909556Y-508363D02*
G54D10*
D03*
X-889556Y-508363D02*
G54D10*
D03*
X-889556Y-488363D02*
G54D10*
D03*
X-889556Y-468363D02*
G54D10*
D03*
X-889556Y-448363D02*
G54D10*
D03*
X-889556Y-428363D02*
G54D10*
D03*
X-869556Y-428363D02*
G54D10*
D03*
X-849556Y-428363D02*
G54D10*
D03*
X-869556Y-448363D02*
G54D10*
D03*
X-869556Y-468363D02*
G54D10*
D03*
X-869556Y-488363D02*
G54D10*
D03*
X-869556Y-508363D02*
G54D10*
D03*
X-849556Y-508363D02*
G54D10*
D03*
X-849556Y-488363D02*
G54D10*
D03*
X-849556Y-468363D02*
G54D10*
D03*
X-849556Y-448363D02*
G54D10*
D03*
X-829556Y-428363D02*
G54D10*
D03*
X-829556Y-448363D02*
G54D10*
D03*
X-829556Y-468363D02*
G54D10*
D03*
X-829556Y-488363D02*
G54D10*
D03*
X-829556Y-508363D02*
G54D10*
D03*
X-809556Y-508363D02*
G54D10*
D03*
X-809556Y-488363D02*
G54D10*
D03*
X-809556Y-468363D02*
G54D10*
D03*
X-809556Y-448363D02*
G54D10*
D03*
X-809556Y-428363D02*
G54D10*
D03*
X-789556Y-428363D02*
G54D10*
D03*
X-769556Y-428363D02*
G54D10*
D03*
X-789556Y-448363D02*
G54D10*
D03*
X-789556Y-468363D02*
G54D10*
D03*
X-789556Y-488363D02*
G54D10*
D03*
X-789556Y-508363D02*
G54D10*
D03*
X-769556Y-508363D02*
G54D10*
D03*
X-769556Y-488363D02*
G54D10*
D03*
X-769556Y-468363D02*
G54D10*
D03*
X-769556Y-448363D02*
G54D10*
D03*
X-749556Y-428363D02*
G54D10*
D03*
X-749556Y-448363D02*
G54D10*
D03*
X-749556Y-468363D02*
G54D10*
D03*
X-749556Y-488363D02*
G54D10*
D03*
X-749556Y-508363D02*
G54D10*
D03*
X-729556Y-508363D02*
G54D10*
D03*
X-729556Y-488363D02*
G54D10*
D03*
X-729556Y-468363D02*
G54D10*
D03*
X-729556Y-448363D02*
G54D10*
D03*
X-729556Y-428363D02*
G54D10*
D03*
X-709556Y-428363D02*
G54D10*
D03*
X-709556Y-448363D02*
G54D10*
D03*
X-709556Y-468363D02*
G54D10*
D03*
X-709556Y-488363D02*
G54D10*
D03*
X-709556Y-508363D02*
G54D10*
D03*
X-1189556Y-228363D02*
G54D10*
D03*
X-1169556Y-228363D02*
G54D10*
D03*
X-1189556Y-248363D02*
G54D10*
D03*
X-1189556Y-268363D02*
G54D10*
D03*
X-1189556Y-288363D02*
G54D10*
D03*
X-1189556Y-308363D02*
G54D10*
D03*
X-1169556Y-308363D02*
G54D10*
D03*
X-1169556Y-288363D02*
G54D10*
D03*
X-1169556Y-268363D02*
G54D10*
D03*
X-1169556Y-248363D02*
G54D10*
D03*
X-1149556Y-228363D02*
G54D10*
D03*
X-1149556Y-248363D02*
G54D10*
D03*
X-1149556Y-268363D02*
G54D10*
D03*
X-1149556Y-288363D02*
G54D10*
D03*
X-1149556Y-308363D02*
G54D10*
D03*
X-1129556Y-308363D02*
G54D10*
D03*
X-1129556Y-288363D02*
G54D10*
D03*
X-1129556Y-268363D02*
G54D10*
D03*
X-1129556Y-248363D02*
G54D10*
D03*
X-1129556Y-228363D02*
G54D10*
D03*
X-1109556Y-228363D02*
G54D10*
D03*
X-1089556Y-228363D02*
G54D10*
D03*
X-1109556Y-248363D02*
G54D10*
D03*
X-1109556Y-268363D02*
G54D10*
D03*
X-1109556Y-288363D02*
G54D10*
D03*
X-1109556Y-308363D02*
G54D10*
D03*
X-1089556Y-308363D02*
G54D10*
D03*
X-1089556Y-288363D02*
G54D10*
D03*
X-1089556Y-268363D02*
G54D10*
D03*
X-1089556Y-248363D02*
G54D10*
D03*
X-1069556Y-228363D02*
G54D10*
D03*
X-1069556Y-248363D02*
G54D10*
D03*
X-1069556Y-268363D02*
G54D10*
D03*
X-1069556Y-288363D02*
G54D10*
D03*
X-1069556Y-308363D02*
G54D10*
D03*
X-1049556Y-308363D02*
G54D10*
D03*
X-1049556Y-288363D02*
G54D10*
D03*
X-1049556Y-268363D02*
G54D10*
D03*
X-1049556Y-248363D02*
G54D10*
D03*
X-1049556Y-228363D02*
G54D10*
D03*
X-1029556Y-228363D02*
G54D10*
D03*
X-1009556Y-228363D02*
G54D10*
D03*
X-1029556Y-248363D02*
G54D10*
D03*
X-1029556Y-268363D02*
G54D10*
D03*
X-1029556Y-288363D02*
G54D10*
D03*
X-1029556Y-308363D02*
G54D10*
D03*
X-1009556Y-308363D02*
G54D10*
D03*
X-1009556Y-288363D02*
G54D10*
D03*
X-1009556Y-268363D02*
G54D10*
D03*
X-1009556Y-248363D02*
G54D10*
D03*
X-989556Y-228363D02*
G54D10*
D03*
X-989556Y-248363D02*
G54D10*
D03*
X-989556Y-268363D02*
G54D10*
D03*
X-989556Y-288363D02*
G54D10*
D03*
X-989556Y-308363D02*
G54D10*
D03*
X-969556Y-308363D02*
G54D10*
D03*
X-969556Y-288363D02*
G54D10*
D03*
X-969556Y-268363D02*
G54D10*
D03*
X-969556Y-248363D02*
G54D10*
D03*
X-969556Y-228363D02*
G54D10*
D03*
X-949556Y-228363D02*
G54D10*
D03*
X-929556Y-228363D02*
G54D10*
D03*
X-949556Y-248363D02*
G54D10*
D03*
X-949556Y-268363D02*
G54D10*
D03*
X-949556Y-288363D02*
G54D10*
D03*
X-949556Y-308363D02*
G54D10*
D03*
X-929556Y-308363D02*
G54D10*
D03*
X-929556Y-288363D02*
G54D10*
D03*
X-929556Y-268363D02*
G54D10*
D03*
X-929556Y-248363D02*
G54D10*
D03*
X-909556Y-228363D02*
G54D10*
D03*
X-909556Y-248363D02*
G54D10*
D03*
X-909556Y-268363D02*
G54D10*
D03*
X-909556Y-288363D02*
G54D10*
D03*
X-909556Y-308363D02*
G54D10*
D03*
X-889556Y-308363D02*
G54D10*
D03*
X-889556Y-288363D02*
G54D10*
D03*
X-889556Y-268363D02*
G54D10*
D03*
X-889556Y-248363D02*
G54D10*
D03*
X-889556Y-228363D02*
G54D10*
D03*
X-869556Y-228363D02*
G54D10*
D03*
X-849556Y-228363D02*
G54D10*
D03*
X-869556Y-248363D02*
G54D10*
D03*
X-869556Y-268363D02*
G54D10*
D03*
X-869556Y-288363D02*
G54D10*
D03*
X-869556Y-308363D02*
G54D10*
D03*
X-849556Y-308363D02*
G54D10*
D03*
X-849556Y-288363D02*
G54D10*
D03*
X-849556Y-268363D02*
G54D10*
D03*
X-849556Y-248363D02*
G54D10*
D03*
X-829556Y-228363D02*
G54D10*
D03*
X-829556Y-248363D02*
G54D10*
D03*
X-829556Y-268363D02*
G54D10*
D03*
X-829556Y-288363D02*
G54D10*
D03*
X-829556Y-308363D02*
G54D10*
D03*
X-809556Y-308363D02*
G54D10*
D03*
X-809556Y-288363D02*
G54D10*
D03*
X-809556Y-268363D02*
G54D10*
D03*
X-809556Y-248363D02*
G54D10*
D03*
X-809556Y-228363D02*
G54D10*
D03*
X-789556Y-228363D02*
G54D10*
D03*
X-769556Y-228363D02*
G54D10*
D03*
X-789556Y-248363D02*
G54D10*
D03*
X-789556Y-268363D02*
G54D10*
D03*
X-789556Y-288363D02*
G54D10*
D03*
X-789556Y-308363D02*
G54D10*
D03*
X-769556Y-308363D02*
G54D10*
D03*
X-769556Y-288363D02*
G54D10*
D03*
X-769556Y-268363D02*
G54D10*
D03*
X-769556Y-248363D02*
G54D10*
D03*
X-749556Y-228363D02*
G54D10*
D03*
X-749556Y-248363D02*
G54D10*
D03*
X-749556Y-268363D02*
G54D10*
D03*
X-749556Y-288363D02*
G54D10*
D03*
X-749556Y-308363D02*
G54D10*
D03*
X-729556Y-308363D02*
G54D10*
D03*
X-729556Y-288363D02*
G54D10*
D03*
X-729556Y-268363D02*
G54D10*
D03*
X-729556Y-248363D02*
G54D10*
D03*
X-729556Y-228363D02*
G54D10*
D03*
X-709556Y-228363D02*
G54D10*
D03*
X-709556Y-248363D02*
G54D10*
D03*
X-709556Y-268363D02*
G54D10*
D03*
X-709556Y-288363D02*
G54D10*
D03*
X-709556Y-308363D02*
G54D10*
D03*
X-1189556Y-23363D02*
G54D10*
D03*
X-1169556Y-23363D02*
G54D10*
D03*
X-1189556Y-43363D02*
G54D10*
D03*
X-1189556Y-63363D02*
G54D10*
D03*
X-1189556Y-83363D02*
G54D10*
D03*
X-1189556Y-103363D02*
G54D10*
D03*
X-1169556Y-103363D02*
G54D10*
D03*
X-1169556Y-83363D02*
G54D10*
D03*
X-1169556Y-63363D02*
G54D10*
D03*
X-1169556Y-43363D02*
G54D10*
D03*
X-1149556Y-23363D02*
G54D10*
D03*
X-1149556Y-43363D02*
G54D10*
D03*
X-1149556Y-63363D02*
G54D10*
D03*
X-1149556Y-83363D02*
G54D10*
D03*
X-1149556Y-103363D02*
G54D10*
D03*
X-1129556Y-103363D02*
G54D10*
D03*
X-1129556Y-83363D02*
G54D10*
D03*
X-1129556Y-63363D02*
G54D10*
D03*
X-1129556Y-43363D02*
G54D10*
D03*
X-1129556Y-23363D02*
G54D10*
D03*
X-1109556Y-23363D02*
G54D10*
D03*
X-1089556Y-23363D02*
G54D10*
D03*
X-1109556Y-43363D02*
G54D10*
D03*
X-1109556Y-63363D02*
G54D10*
D03*
X-1109556Y-83363D02*
G54D10*
D03*
X-1109556Y-103363D02*
G54D10*
D03*
X-1089556Y-103363D02*
G54D10*
D03*
X-1089556Y-83363D02*
G54D10*
D03*
X-1089556Y-63363D02*
G54D10*
D03*
X-1089556Y-43363D02*
G54D10*
D03*
X-1069556Y-23363D02*
G54D10*
D03*
X-1069556Y-43363D02*
G54D10*
D03*
X-1069556Y-63363D02*
G54D10*
D03*
X-1069556Y-83363D02*
G54D10*
D03*
X-1069556Y-103363D02*
G54D10*
D03*
X-1049556Y-103363D02*
G54D10*
D03*
X-1049556Y-83363D02*
G54D10*
D03*
X-1049556Y-63363D02*
G54D10*
D03*
X-1049556Y-43363D02*
G54D10*
D03*
X-1049556Y-23363D02*
G54D10*
D03*
X-1029556Y-23363D02*
G54D10*
D03*
X-1009556Y-23363D02*
G54D10*
D03*
X-1029556Y-43363D02*
G54D10*
D03*
X-1029556Y-63363D02*
G54D10*
D03*
X-1029556Y-83363D02*
G54D10*
D03*
X-1029556Y-103363D02*
G54D10*
D03*
X-1009556Y-103363D02*
G54D10*
D03*
X-1009556Y-83363D02*
G54D10*
D03*
X-1009556Y-63363D02*
G54D10*
D03*
X-1009556Y-43363D02*
G54D10*
D03*
X-989556Y-23363D02*
G54D10*
D03*
X-989556Y-43363D02*
G54D10*
D03*
X-989556Y-63363D02*
G54D10*
D03*
X-989556Y-83363D02*
G54D10*
D03*
X-989556Y-103363D02*
G54D10*
D03*
X-969556Y-103363D02*
G54D10*
D03*
X-969556Y-83363D02*
G54D10*
D03*
X-969556Y-63363D02*
G54D10*
D03*
X-969556Y-43363D02*
G54D10*
D03*
X-969556Y-23363D02*
G54D10*
D03*
X-949556Y-23363D02*
G54D10*
D03*
X-929556Y-23363D02*
G54D10*
D03*
X-949556Y-43363D02*
G54D10*
D03*
X-949556Y-63363D02*
G54D10*
D03*
X-949556Y-83363D02*
G54D10*
D03*
X-949556Y-103363D02*
G54D10*
D03*
X-929556Y-103363D02*
G54D10*
D03*
X-929556Y-83363D02*
G54D10*
D03*
X-929556Y-63363D02*
G54D10*
D03*
X-929556Y-43363D02*
G54D10*
D03*
X-909556Y-23363D02*
G54D10*
D03*
X-909556Y-43363D02*
G54D10*
D03*
X-909556Y-63363D02*
G54D10*
D03*
X-909556Y-83363D02*
G54D10*
D03*
X-909556Y-103363D02*
G54D10*
D03*
X-889556Y-103363D02*
G54D10*
D03*
X-889556Y-83363D02*
G54D10*
D03*
X-889556Y-63363D02*
G54D10*
D03*
X-889556Y-43363D02*
G54D10*
D03*
X-889556Y-23363D02*
G54D10*
D03*
X-869556Y-23363D02*
G54D10*
D03*
X-849556Y-23363D02*
G54D10*
D03*
X-869556Y-43363D02*
G54D10*
D03*
X-869556Y-63363D02*
G54D10*
D03*
X-869556Y-83363D02*
G54D10*
D03*
X-869556Y-103363D02*
G54D10*
D03*
X-849556Y-103363D02*
G54D10*
D03*
X-849556Y-83363D02*
G54D10*
D03*
X-849556Y-63363D02*
G54D10*
D03*
X-849556Y-43363D02*
G54D10*
D03*
X-829556Y-23363D02*
G54D10*
D03*
X-829556Y-43363D02*
G54D10*
D03*
X-829556Y-63363D02*
G54D10*
D03*
X-829556Y-83363D02*
G54D10*
D03*
X-829556Y-103363D02*
G54D10*
D03*
X-809556Y-103363D02*
G54D10*
D03*
X-809556Y-83363D02*
G54D10*
D03*
X-809556Y-63363D02*
G54D10*
D03*
X-809556Y-43363D02*
G54D10*
D03*
X-809556Y-23363D02*
G54D10*
D03*
X-789556Y-23363D02*
G54D10*
D03*
X-769556Y-23363D02*
G54D10*
D03*
X-789556Y-43363D02*
G54D10*
D03*
X-789556Y-63363D02*
G54D10*
D03*
X-789556Y-83363D02*
G54D10*
D03*
X-789556Y-103363D02*
G54D10*
D03*
X-769556Y-103363D02*
G54D10*
D03*
X-769556Y-83363D02*
G54D10*
D03*
X-769556Y-63363D02*
G54D10*
D03*
X-769556Y-43363D02*
G54D10*
D03*
X-749556Y-23363D02*
G54D10*
D03*
X-749556Y-43363D02*
G54D10*
D03*
X-749556Y-63363D02*
G54D10*
D03*
X-749556Y-83363D02*
G54D10*
D03*
X-749556Y-103363D02*
G54D10*
D03*
X-729556Y-103363D02*
G54D10*
D03*
X-729556Y-83363D02*
G54D10*
D03*
X-729556Y-63363D02*
G54D10*
D03*
X-729556Y-43363D02*
G54D10*
D03*
X-729556Y-23363D02*
G54D10*
D03*
X-709556Y-23363D02*
G54D10*
D03*
X-709556Y-43363D02*
G54D10*
D03*
X-709556Y-63363D02*
G54D10*
D03*
X-709556Y-83363D02*
G54D10*
D03*
X-709556Y-103363D02*
G54D10*
D03*
X-1189556Y181637D02*
G54D10*
D03*
X-1169556Y181637D02*
G54D10*
D03*
X-1189556Y161637D02*
G54D10*
D03*
X-1189556Y141637D02*
G54D10*
D03*
X-1189556Y121637D02*
G54D10*
D03*
X-1189556Y101637D02*
G54D10*
D03*
X-1169556Y101637D02*
G54D10*
D03*
X-1169556Y121637D02*
G54D10*
D03*
X-1169556Y141637D02*
G54D10*
D03*
X-1169556Y161637D02*
G54D10*
D03*
X-1149556Y181637D02*
G54D10*
D03*
X-1149556Y161637D02*
G54D10*
D03*
X-1149556Y141637D02*
G54D10*
D03*
X-1149556Y121637D02*
G54D10*
D03*
X-1149556Y101637D02*
G54D10*
D03*
X-1129556Y101637D02*
G54D10*
D03*
X-1129556Y121637D02*
G54D10*
D03*
X-1129556Y141637D02*
G54D10*
D03*
X-1129556Y161637D02*
G54D10*
D03*
X-1129556Y181637D02*
G54D10*
D03*
X-1109556Y181637D02*
G54D10*
D03*
X-1089556Y181637D02*
G54D10*
D03*
X-1109556Y161637D02*
G54D10*
D03*
X-1109556Y141637D02*
G54D10*
D03*
X-1109556Y121637D02*
G54D10*
D03*
X-1109556Y101637D02*
G54D10*
D03*
X-1089556Y101637D02*
G54D10*
D03*
X-1089556Y121637D02*
G54D10*
D03*
X-1089556Y141637D02*
G54D10*
D03*
X-1089556Y161637D02*
G54D10*
D03*
X-1069556Y181637D02*
G54D10*
D03*
X-1069556Y161637D02*
G54D10*
D03*
X-1069556Y141637D02*
G54D10*
D03*
X-1069556Y121637D02*
G54D10*
D03*
X-1069556Y101637D02*
G54D10*
D03*
X-1049556Y101637D02*
G54D10*
D03*
X-1049556Y121637D02*
G54D10*
D03*
X-1049556Y141637D02*
G54D10*
D03*
X-1049556Y161637D02*
G54D10*
D03*
X-1049556Y181637D02*
G54D10*
D03*
X-1029556Y181637D02*
G54D10*
D03*
X-1009556Y181637D02*
G54D10*
D03*
X-1029556Y161637D02*
G54D10*
D03*
X-1029556Y141637D02*
G54D10*
D03*
X-1029556Y121637D02*
G54D10*
D03*
X-1029556Y101637D02*
G54D10*
D03*
X-1009556Y101637D02*
G54D10*
D03*
X-1009556Y121637D02*
G54D10*
D03*
X-1009556Y141637D02*
G54D10*
D03*
X-1009556Y161637D02*
G54D10*
D03*
X-989556Y181637D02*
G54D10*
D03*
X-989556Y161637D02*
G54D10*
D03*
X-989556Y141637D02*
G54D10*
D03*
X-989556Y121637D02*
G54D10*
D03*
X-989556Y101637D02*
G54D10*
D03*
X-969556Y101637D02*
G54D10*
D03*
X-969556Y121637D02*
G54D10*
D03*
X-969556Y141637D02*
G54D10*
D03*
X-969556Y161637D02*
G54D10*
D03*
X-969556Y181637D02*
G54D10*
D03*
X-949556Y181637D02*
G54D10*
D03*
X-929556Y181637D02*
G54D10*
D03*
X-949556Y161637D02*
G54D10*
D03*
X-949556Y141637D02*
G54D10*
D03*
X-949556Y121637D02*
G54D10*
D03*
X-949556Y101637D02*
G54D10*
D03*
X-929556Y101637D02*
G54D10*
D03*
X-929556Y121637D02*
G54D10*
D03*
X-929556Y141637D02*
G54D10*
D03*
X-929556Y161637D02*
G54D10*
D03*
X-909556Y181637D02*
G54D10*
D03*
X-909556Y161637D02*
G54D10*
D03*
X-909556Y141637D02*
G54D10*
D03*
X-909556Y121637D02*
G54D10*
D03*
X-909556Y101637D02*
G54D10*
D03*
X-889556Y101637D02*
G54D10*
D03*
X-889556Y121637D02*
G54D10*
D03*
X-889556Y141637D02*
G54D10*
D03*
X-889556Y161637D02*
G54D10*
D03*
X-889556Y181637D02*
G54D10*
D03*
X-869556Y181637D02*
G54D10*
D03*
X-849556Y181637D02*
G54D10*
D03*
X-869556Y161637D02*
G54D10*
D03*
X-869556Y141637D02*
G54D10*
D03*
X-869556Y121637D02*
G54D10*
D03*
X-869556Y101637D02*
G54D10*
D03*
X-849556Y101637D02*
G54D10*
D03*
X-849556Y121637D02*
G54D10*
D03*
X-849556Y141637D02*
G54D10*
D03*
X-849556Y161637D02*
G54D10*
D03*
X-829556Y181637D02*
G54D10*
D03*
X-829556Y161637D02*
G54D10*
D03*
X-829556Y141637D02*
G54D10*
D03*
X-829556Y121637D02*
G54D10*
D03*
X-829556Y101637D02*
G54D10*
D03*
X-809556Y101637D02*
G54D10*
D03*
X-809556Y121637D02*
G54D10*
D03*
X-809556Y141637D02*
G54D10*
D03*
X-809556Y161637D02*
G54D10*
D03*
X-809556Y181637D02*
G54D10*
D03*
X-789556Y181637D02*
G54D10*
D03*
X-769556Y181637D02*
G54D10*
D03*
X-789556Y161637D02*
G54D10*
D03*
X-789556Y141637D02*
G54D10*
D03*
X-789556Y121637D02*
G54D10*
D03*
X-789556Y101637D02*
G54D10*
D03*
X-769556Y101637D02*
G54D10*
D03*
X-769556Y121637D02*
G54D10*
D03*
X-769556Y141637D02*
G54D10*
D03*
X-769556Y161637D02*
G54D10*
D03*
X-749556Y181637D02*
G54D10*
D03*
X-749556Y161637D02*
G54D10*
D03*
X-749556Y141637D02*
G54D10*
D03*
X-749556Y121637D02*
G54D10*
D03*
X-749556Y101637D02*
G54D10*
D03*
X-729556Y101637D02*
G54D10*
D03*
X-729556Y121637D02*
G54D10*
D03*
X-729556Y141637D02*
G54D10*
D03*
X-729556Y161637D02*
G54D10*
D03*
X-729556Y181637D02*
G54D10*
D03*
X-709556Y181637D02*
G54D10*
D03*
X-709556Y161637D02*
G54D10*
D03*
X-709556Y141637D02*
G54D10*
D03*
X-709556Y121637D02*
G54D10*
D03*
X-709556Y101637D02*
G54D10*
D03*
X-2714556Y181637D02*
G54D10*
D03*
X-2694556Y181637D02*
G54D10*
D03*
X-2714556Y161637D02*
G54D10*
D03*
X-2714556Y141637D02*
G54D10*
D03*
X-2714556Y121637D02*
G54D10*
D03*
X-2714556Y101637D02*
G54D10*
D03*
X-2694556Y101637D02*
G54D10*
D03*
X-2694556Y121637D02*
G54D10*
D03*
X-2694556Y141637D02*
G54D10*
D03*
X-2694556Y161637D02*
G54D10*
D03*
X-2674556Y181637D02*
G54D10*
D03*
X-2674556Y161637D02*
G54D10*
D03*
X-2674556Y141637D02*
G54D10*
D03*
X-2674556Y121637D02*
G54D10*
D03*
X-2674556Y101637D02*
G54D10*
D03*
X-2654556Y101637D02*
G54D10*
D03*
X-2654556Y121637D02*
G54D10*
D03*
X-2654556Y141637D02*
G54D10*
D03*
X-2654556Y161637D02*
G54D10*
D03*
X-2654556Y181637D02*
G54D10*
D03*
X-2634556Y181637D02*
G54D10*
D03*
X-2614556Y181637D02*
G54D10*
D03*
X-2634556Y161637D02*
G54D10*
D03*
X-2634556Y141637D02*
G54D10*
D03*
X-2634556Y121637D02*
G54D10*
D03*
X-2634556Y101637D02*
G54D10*
D03*
X-2614556Y101637D02*
G54D10*
D03*
X-2614556Y121637D02*
G54D10*
D03*
X-2614556Y141637D02*
G54D10*
D03*
X-2614556Y161637D02*
G54D10*
D03*
X-2594556Y181637D02*
G54D10*
D03*
X-2594556Y161637D02*
G54D10*
D03*
X-2594556Y141637D02*
G54D10*
D03*
X-2594556Y121637D02*
G54D10*
D03*
X-2594556Y101637D02*
G54D10*
D03*
X-2574556Y101637D02*
G54D10*
D03*
X-2574556Y121637D02*
G54D10*
D03*
X-2574556Y141637D02*
G54D10*
D03*
X-2574556Y161637D02*
G54D10*
D03*
X-2574556Y181637D02*
G54D10*
D03*
X-2554556Y181637D02*
G54D10*
D03*
X-2534556Y181637D02*
G54D10*
D03*
X-2554556Y161637D02*
G54D10*
D03*
X-2554556Y141637D02*
G54D10*
D03*
X-2554556Y121637D02*
G54D10*
D03*
X-2554556Y101637D02*
G54D10*
D03*
X-2534556Y101637D02*
G54D10*
D03*
X-2534556Y121637D02*
G54D10*
D03*
X-2534556Y141637D02*
G54D10*
D03*
X-2534556Y161637D02*
G54D10*
D03*
X-2514556Y181637D02*
G54D10*
D03*
X-2514556Y161637D02*
G54D10*
D03*
X-2514556Y141637D02*
G54D10*
D03*
X-2514556Y121637D02*
G54D10*
D03*
X-2514556Y101637D02*
G54D10*
D03*
X-2494556Y101637D02*
G54D10*
D03*
X-2494556Y121637D02*
G54D10*
D03*
X-2494556Y141637D02*
G54D10*
D03*
X-2494556Y161637D02*
G54D10*
D03*
X-2494556Y181637D02*
G54D10*
D03*
X-2474556Y181637D02*
G54D10*
D03*
X-2454556Y181637D02*
G54D10*
D03*
X-2474556Y161637D02*
G54D10*
D03*
X-2474556Y141637D02*
G54D10*
D03*
X-2474556Y121637D02*
G54D10*
D03*
X-2474556Y101637D02*
G54D10*
D03*
X-2454556Y101637D02*
G54D10*
D03*
X-2454556Y121637D02*
G54D10*
D03*
X-2454556Y141637D02*
G54D10*
D03*
X-2454556Y161637D02*
G54D10*
D03*
X-2434556Y181637D02*
G54D10*
D03*
X-2434556Y161637D02*
G54D10*
D03*
X-2434556Y141637D02*
G54D10*
D03*
X-2434556Y121637D02*
G54D10*
D03*
X-2434556Y101637D02*
G54D10*
D03*
X-2414556Y101637D02*
G54D10*
D03*
X-2414556Y121637D02*
G54D10*
D03*
X-2414556Y141637D02*
G54D10*
D03*
X-2414556Y161637D02*
G54D10*
D03*
X-2414556Y181637D02*
G54D10*
D03*
X-2394556Y181637D02*
G54D10*
D03*
X-2374556Y181637D02*
G54D10*
D03*
X-2394556Y161637D02*
G54D10*
D03*
X-2394556Y141637D02*
G54D10*
D03*
X-2394556Y121637D02*
G54D10*
D03*
X-2394556Y101637D02*
G54D10*
D03*
X-2374556Y101637D02*
G54D10*
D03*
X-2374556Y121637D02*
G54D10*
D03*
X-2374556Y141637D02*
G54D10*
D03*
X-2374556Y161637D02*
G54D10*
D03*
X-2354556Y181637D02*
G54D10*
D03*
X-2354556Y161637D02*
G54D10*
D03*
X-2354556Y141637D02*
G54D10*
D03*
X-2354556Y121637D02*
G54D10*
D03*
X-2354556Y101637D02*
G54D10*
D03*
X-2334556Y101637D02*
G54D10*
D03*
X-2334556Y121637D02*
G54D10*
D03*
X-2334556Y141637D02*
G54D10*
D03*
X-2334556Y161637D02*
G54D10*
D03*
X-2334556Y181637D02*
G54D10*
D03*
X-2314556Y181637D02*
G54D10*
D03*
X-2294556Y181637D02*
G54D10*
D03*
X-2314556Y161637D02*
G54D10*
D03*
X-2314556Y141637D02*
G54D10*
D03*
X-2314556Y121637D02*
G54D10*
D03*
X-2314556Y101637D02*
G54D10*
D03*
X-2294556Y101637D02*
G54D10*
D03*
X-2294556Y121637D02*
G54D10*
D03*
X-2294556Y141637D02*
G54D10*
D03*
X-2294556Y161637D02*
G54D10*
D03*
X-2274556Y181637D02*
G54D10*
D03*
X-2274556Y161637D02*
G54D10*
D03*
X-2274556Y141637D02*
G54D10*
D03*
X-2274556Y121637D02*
G54D10*
D03*
X-2274556Y101637D02*
G54D10*
D03*
X-2254556Y101637D02*
G54D10*
D03*
X-2254556Y121637D02*
G54D10*
D03*
X-2254556Y141637D02*
G54D10*
D03*
X-2254556Y161637D02*
G54D10*
D03*
X-2254556Y181637D02*
G54D10*
D03*
X-2234556Y181637D02*
G54D10*
D03*
X-2234556Y161637D02*
G54D10*
D03*
X-2234556Y141637D02*
G54D10*
D03*
X-2234556Y121637D02*
G54D10*
D03*
X-2234556Y101637D02*
G54D10*
D03*
X-2714556Y-23363D02*
G54D10*
D03*
X-2694556Y-23363D02*
G54D10*
D03*
X-2714556Y-43363D02*
G54D10*
D03*
X-2714556Y-63363D02*
G54D10*
D03*
X-2714556Y-83363D02*
G54D10*
D03*
X-2714556Y-103363D02*
G54D10*
D03*
X-2694556Y-103363D02*
G54D10*
D03*
X-2694556Y-83363D02*
G54D10*
D03*
X-2694556Y-63363D02*
G54D10*
D03*
X-2694556Y-43363D02*
G54D10*
D03*
X-2674556Y-23363D02*
G54D10*
D03*
X-2674556Y-43363D02*
G54D10*
D03*
X-2674556Y-63363D02*
G54D10*
D03*
X-2674556Y-83363D02*
G54D10*
D03*
X-2674556Y-103363D02*
G54D10*
D03*
X-2654556Y-103363D02*
G54D10*
D03*
X-2654556Y-83363D02*
G54D10*
D03*
X-2654556Y-63363D02*
G54D10*
D03*
X-2654556Y-43363D02*
G54D10*
D03*
X-2654556Y-23363D02*
G54D10*
D03*
X-2634556Y-23363D02*
G54D10*
D03*
X-2614556Y-23363D02*
G54D10*
D03*
X-2634556Y-43363D02*
G54D10*
D03*
X-2634556Y-63363D02*
G54D10*
D03*
X-2634556Y-83363D02*
G54D10*
D03*
X-2634556Y-103363D02*
G54D10*
D03*
X-2614556Y-103363D02*
G54D10*
D03*
X-2614556Y-83363D02*
G54D10*
D03*
X-2614556Y-63363D02*
G54D10*
D03*
X-2614556Y-43363D02*
G54D10*
D03*
X-2594556Y-23363D02*
G54D10*
D03*
X-2594556Y-43363D02*
G54D10*
D03*
X-2594556Y-63363D02*
G54D10*
D03*
X-2594556Y-83363D02*
G54D10*
D03*
X-2594556Y-103363D02*
G54D10*
D03*
X-2574556Y-103363D02*
G54D10*
D03*
X-2574556Y-83363D02*
G54D10*
D03*
X-2574556Y-63363D02*
G54D10*
D03*
X-2574556Y-43363D02*
G54D10*
D03*
X-2574556Y-23363D02*
G54D10*
D03*
X-2554556Y-23363D02*
G54D10*
D03*
X-2534556Y-23363D02*
G54D10*
D03*
X-2554556Y-43363D02*
G54D10*
D03*
X-2554556Y-63363D02*
G54D10*
D03*
X-2554556Y-83363D02*
G54D10*
D03*
X-2554556Y-103363D02*
G54D10*
D03*
X-2534556Y-103363D02*
G54D10*
D03*
X-2534556Y-83363D02*
G54D10*
D03*
X-2534556Y-63363D02*
G54D10*
D03*
X-2534556Y-43363D02*
G54D10*
D03*
X-2514556Y-23363D02*
G54D10*
D03*
X-2514556Y-43363D02*
G54D10*
D03*
X-2514556Y-63363D02*
G54D10*
D03*
X-2514556Y-83363D02*
G54D10*
D03*
X-2514556Y-103363D02*
G54D10*
D03*
X-2494556Y-103363D02*
G54D10*
D03*
X-2494556Y-83363D02*
G54D10*
D03*
X-2494556Y-63363D02*
G54D10*
D03*
X-2494556Y-43363D02*
G54D10*
D03*
X-2494556Y-23363D02*
G54D10*
D03*
X-2474556Y-23363D02*
G54D10*
D03*
X-2454556Y-23363D02*
G54D10*
D03*
X-2474556Y-43363D02*
G54D10*
D03*
X-2474556Y-63363D02*
G54D10*
D03*
X-2474556Y-83363D02*
G54D10*
D03*
X-2474556Y-103363D02*
G54D10*
D03*
X-2454556Y-103363D02*
G54D10*
D03*
X-2454556Y-83363D02*
G54D10*
D03*
X-2454556Y-63363D02*
G54D10*
D03*
X-2454556Y-43363D02*
G54D10*
D03*
X-2434556Y-23363D02*
G54D10*
D03*
X-2434556Y-43363D02*
G54D10*
D03*
X-2434556Y-63363D02*
G54D10*
D03*
X-2434556Y-83363D02*
G54D10*
D03*
X-2434556Y-103363D02*
G54D10*
D03*
X-2414556Y-103363D02*
G54D10*
D03*
X-2414556Y-83363D02*
G54D10*
D03*
X-2414556Y-63363D02*
G54D10*
D03*
X-2414556Y-43363D02*
G54D10*
D03*
X-2414556Y-23363D02*
G54D10*
D03*
X-2394556Y-23363D02*
G54D10*
D03*
X-2374556Y-23363D02*
G54D10*
D03*
X-2394556Y-43363D02*
G54D10*
D03*
X-2394556Y-63363D02*
G54D10*
D03*
X-2394556Y-83363D02*
G54D10*
D03*
X-2394556Y-103363D02*
G54D10*
D03*
X-2374556Y-103363D02*
G54D10*
D03*
X-2374556Y-83363D02*
G54D10*
D03*
X-2374556Y-63363D02*
G54D10*
D03*
X-2374556Y-43363D02*
G54D10*
D03*
X-2354556Y-23363D02*
G54D10*
D03*
X-2354556Y-43363D02*
G54D10*
D03*
X-2354556Y-63363D02*
G54D10*
D03*
X-2354556Y-83363D02*
G54D10*
D03*
X-2354556Y-103363D02*
G54D10*
D03*
X-2334556Y-103363D02*
G54D10*
D03*
X-2334556Y-83363D02*
G54D10*
D03*
X-2334556Y-63363D02*
G54D10*
D03*
X-2334556Y-43363D02*
G54D10*
D03*
X-2334556Y-23363D02*
G54D10*
D03*
X-2314556Y-23363D02*
G54D10*
D03*
X-2294556Y-23363D02*
G54D10*
D03*
X-2314556Y-43363D02*
G54D10*
D03*
X-2314556Y-63363D02*
G54D10*
D03*
X-2314556Y-83363D02*
G54D10*
D03*
X-2314556Y-103363D02*
G54D10*
D03*
X-2294556Y-103363D02*
G54D10*
D03*
X-2294556Y-83363D02*
G54D10*
D03*
X-2294556Y-63363D02*
G54D10*
D03*
X-2294556Y-43363D02*
G54D10*
D03*
X-2274556Y-23363D02*
G54D10*
D03*
X-2274556Y-43363D02*
G54D10*
D03*
X-2274556Y-63363D02*
G54D10*
D03*
X-2274556Y-83363D02*
G54D10*
D03*
X-2274556Y-103363D02*
G54D10*
D03*
X-2254556Y-103363D02*
G54D10*
D03*
X-2254556Y-83363D02*
G54D10*
D03*
X-2254556Y-63363D02*
G54D10*
D03*
X-2254556Y-43363D02*
G54D10*
D03*
X-2254556Y-23363D02*
G54D10*
D03*
X-2234556Y-23363D02*
G54D10*
D03*
X-2234556Y-43363D02*
G54D10*
D03*
X-2234556Y-63363D02*
G54D10*
D03*
X-2234556Y-83363D02*
G54D10*
D03*
X-2234556Y-103363D02*
G54D10*
D03*
X-2714556Y-223363D02*
G54D10*
D03*
X-2694556Y-223363D02*
G54D10*
D03*
X-2714556Y-243363D02*
G54D10*
D03*
X-2714556Y-263363D02*
G54D10*
D03*
X-2714556Y-283363D02*
G54D10*
D03*
X-2714556Y-303363D02*
G54D10*
D03*
X-2694556Y-303363D02*
G54D10*
D03*
X-2694556Y-283363D02*
G54D10*
D03*
X-2694556Y-263363D02*
G54D10*
D03*
X-2694556Y-243363D02*
G54D10*
D03*
X-2674556Y-223363D02*
G54D10*
D03*
X-2674556Y-243363D02*
G54D10*
D03*
X-2674556Y-263363D02*
G54D10*
D03*
X-2674556Y-283363D02*
G54D10*
D03*
X-2674556Y-303363D02*
G54D10*
D03*
X-2654556Y-303363D02*
G54D10*
D03*
X-2654556Y-283363D02*
G54D10*
D03*
X-2654556Y-263363D02*
G54D10*
D03*
X-2654556Y-243363D02*
G54D10*
D03*
X-2654556Y-223363D02*
G54D10*
D03*
X-2634556Y-223363D02*
G54D10*
D03*
X-2614556Y-223363D02*
G54D10*
D03*
X-2634556Y-243363D02*
G54D10*
D03*
X-2634556Y-263363D02*
G54D10*
D03*
X-2634556Y-283363D02*
G54D10*
D03*
X-2634556Y-303363D02*
G54D10*
D03*
X-2614556Y-303363D02*
G54D10*
D03*
X-2614556Y-283363D02*
G54D10*
D03*
X-2614556Y-263363D02*
G54D10*
D03*
X-2614556Y-243363D02*
G54D10*
D03*
X-2594556Y-223363D02*
G54D10*
D03*
X-2594556Y-243363D02*
G54D10*
D03*
X-2594556Y-263363D02*
G54D10*
D03*
X-2594556Y-283363D02*
G54D10*
D03*
X-2594556Y-303363D02*
G54D10*
D03*
X-2574556Y-303363D02*
G54D10*
D03*
X-2574556Y-283363D02*
G54D10*
D03*
X-2574556Y-263363D02*
G54D10*
D03*
X-2574556Y-243363D02*
G54D10*
D03*
X-2574556Y-223363D02*
G54D10*
D03*
X-2554556Y-223363D02*
G54D10*
D03*
X-2534556Y-223363D02*
G54D10*
D03*
X-2554556Y-243363D02*
G54D10*
D03*
X-2554556Y-263363D02*
G54D10*
D03*
X-2554556Y-283363D02*
G54D10*
D03*
X-2554556Y-303363D02*
G54D10*
D03*
X-2534556Y-303363D02*
G54D10*
D03*
X-2534556Y-283363D02*
G54D10*
D03*
X-2534556Y-263363D02*
G54D10*
D03*
X-2534556Y-243363D02*
G54D10*
D03*
X-2514556Y-223363D02*
G54D10*
D03*
X-2514556Y-243363D02*
G54D10*
D03*
X-2514556Y-263363D02*
G54D10*
D03*
X-2514556Y-283363D02*
G54D10*
D03*
X-2514556Y-303363D02*
G54D10*
D03*
X-2494556Y-303363D02*
G54D10*
D03*
X-2494556Y-283363D02*
G54D10*
D03*
X-2494556Y-263363D02*
G54D10*
D03*
X-2494556Y-243363D02*
G54D10*
D03*
X-2494556Y-223363D02*
G54D10*
D03*
X-2474556Y-223363D02*
G54D10*
D03*
X-2454556Y-223363D02*
G54D10*
D03*
X-2474556Y-243363D02*
G54D10*
D03*
X-2474556Y-263363D02*
G54D10*
D03*
X-2474556Y-283363D02*
G54D10*
D03*
X-2474556Y-303363D02*
G54D10*
D03*
X-2454556Y-303363D02*
G54D10*
D03*
X-2454556Y-283363D02*
G54D10*
D03*
X-2454556Y-263363D02*
G54D10*
D03*
X-2454556Y-243363D02*
G54D10*
D03*
X-2434556Y-223363D02*
G54D10*
D03*
X-2434556Y-243363D02*
G54D10*
D03*
X-2434556Y-263363D02*
G54D10*
D03*
X-2434556Y-283363D02*
G54D10*
D03*
X-2434556Y-303363D02*
G54D10*
D03*
X-2414556Y-303363D02*
G54D10*
D03*
X-2414556Y-283363D02*
G54D10*
D03*
X-2414556Y-263363D02*
G54D10*
D03*
X-2414556Y-243363D02*
G54D10*
D03*
X-2414556Y-223363D02*
G54D10*
D03*
X-2394556Y-223363D02*
G54D10*
D03*
X-2374556Y-223363D02*
G54D10*
D03*
X-2394556Y-243363D02*
G54D10*
D03*
X-2394556Y-263363D02*
G54D10*
D03*
X-2394556Y-283363D02*
G54D10*
D03*
X-2394556Y-303363D02*
G54D10*
D03*
X-2374556Y-303363D02*
G54D10*
D03*
X-2374556Y-283363D02*
G54D10*
D03*
X-2374556Y-263363D02*
G54D10*
D03*
X-2374556Y-243363D02*
G54D10*
D03*
X-2354556Y-223363D02*
G54D10*
D03*
X-2354556Y-243363D02*
G54D10*
D03*
X-2354556Y-263363D02*
G54D10*
D03*
X-2354556Y-283363D02*
G54D10*
D03*
X-2354556Y-303363D02*
G54D10*
D03*
X-2334556Y-303363D02*
G54D10*
D03*
X-2334556Y-283363D02*
G54D10*
D03*
X-2334556Y-263363D02*
G54D10*
D03*
X-2334556Y-243363D02*
G54D10*
D03*
X-2334556Y-223363D02*
G54D10*
D03*
X-2314556Y-223363D02*
G54D10*
D03*
X-2294556Y-223363D02*
G54D10*
D03*
X-2314556Y-243363D02*
G54D10*
D03*
X-2314556Y-263363D02*
G54D10*
D03*
X-2314556Y-283363D02*
G54D10*
D03*
X-2314556Y-303363D02*
G54D10*
D03*
X-2294556Y-303363D02*
G54D10*
D03*
X-2294556Y-283363D02*
G54D10*
D03*
X-2294556Y-263363D02*
G54D10*
D03*
X-2294556Y-243363D02*
G54D10*
D03*
X-2274556Y-223363D02*
G54D10*
D03*
X-2274556Y-243363D02*
G54D10*
D03*
X-2274556Y-263363D02*
G54D10*
D03*
X-2274556Y-283363D02*
G54D10*
D03*
X-2274556Y-303363D02*
G54D10*
D03*
X-2254556Y-303363D02*
G54D10*
D03*
X-2254556Y-283363D02*
G54D10*
D03*
X-2254556Y-263363D02*
G54D10*
D03*
X-2254556Y-243363D02*
G54D10*
D03*
X-2254556Y-223363D02*
G54D10*
D03*
X-2234556Y-223363D02*
G54D10*
D03*
X-2234556Y-243363D02*
G54D10*
D03*
X-2234556Y-263363D02*
G54D10*
D03*
X-2234556Y-283363D02*
G54D10*
D03*
X-2234556Y-303363D02*
G54D10*
D03*
X-2714556Y-428363D02*
G54D10*
D03*
X-2694556Y-428363D02*
G54D10*
D03*
X-2714556Y-448363D02*
G54D10*
D03*
X-2714556Y-468363D02*
G54D10*
D03*
X-2714556Y-488363D02*
G54D10*
D03*
X-2714556Y-508363D02*
G54D10*
D03*
X-2694556Y-508363D02*
G54D10*
D03*
X-2694556Y-488363D02*
G54D10*
D03*
X-2694556Y-468363D02*
G54D10*
D03*
X-2694556Y-448363D02*
G54D10*
D03*
X-2674556Y-428363D02*
G54D10*
D03*
X-2674556Y-448363D02*
G54D10*
D03*
X-2674556Y-468363D02*
G54D10*
D03*
X-2674556Y-488363D02*
G54D10*
D03*
X-2674556Y-508363D02*
G54D10*
D03*
X-2654556Y-508363D02*
G54D10*
D03*
X-2654556Y-488363D02*
G54D10*
D03*
X-2654556Y-468363D02*
G54D10*
D03*
X-2654556Y-448363D02*
G54D10*
D03*
X-2654556Y-428363D02*
G54D10*
D03*
X-2634556Y-428363D02*
G54D10*
D03*
X-2614556Y-428363D02*
G54D10*
D03*
X-2634556Y-448363D02*
G54D10*
D03*
X-2634556Y-468363D02*
G54D10*
D03*
X-2634556Y-488363D02*
G54D10*
D03*
X-2634556Y-508363D02*
G54D10*
D03*
X-2614556Y-508363D02*
G54D10*
D03*
X-2614556Y-488363D02*
G54D10*
D03*
X-2614556Y-468363D02*
G54D10*
D03*
X-2614556Y-448363D02*
G54D10*
D03*
X-2594556Y-428363D02*
G54D10*
D03*
X-2594556Y-448363D02*
G54D10*
D03*
X-2594556Y-468363D02*
G54D10*
D03*
X-2594556Y-488363D02*
G54D10*
D03*
X-2594556Y-508363D02*
G54D10*
D03*
X-2574556Y-508363D02*
G54D10*
D03*
X-2574556Y-488363D02*
G54D10*
D03*
X-2574556Y-468363D02*
G54D10*
D03*
X-2574556Y-448363D02*
G54D10*
D03*
X-2574556Y-428363D02*
G54D10*
D03*
X-2554556Y-428363D02*
G54D10*
D03*
X-2534556Y-428363D02*
G54D10*
D03*
X-2554556Y-448363D02*
G54D10*
D03*
X-2554556Y-468363D02*
G54D10*
D03*
X-2554556Y-488363D02*
G54D10*
D03*
X-2554556Y-508363D02*
G54D10*
D03*
X-2534556Y-508363D02*
G54D10*
D03*
X-2534556Y-488363D02*
G54D10*
D03*
X-2534556Y-468363D02*
G54D10*
D03*
X-2534556Y-448363D02*
G54D10*
D03*
X-2514556Y-428363D02*
G54D10*
D03*
X-2514556Y-448363D02*
G54D10*
D03*
X-2514556Y-468363D02*
G54D10*
D03*
X-2514556Y-488363D02*
G54D10*
D03*
X-2514556Y-508363D02*
G54D10*
D03*
X-2494556Y-508363D02*
G54D10*
D03*
X-2494556Y-488363D02*
G54D10*
D03*
X-2494556Y-468363D02*
G54D10*
D03*
X-2494556Y-448363D02*
G54D10*
D03*
X-2494556Y-428363D02*
G54D10*
D03*
X-2474556Y-428363D02*
G54D10*
D03*
X-2454556Y-428363D02*
G54D10*
D03*
X-2474556Y-448363D02*
G54D10*
D03*
X-2474556Y-468363D02*
G54D10*
D03*
X-2474556Y-488363D02*
G54D10*
D03*
X-2474556Y-508363D02*
G54D10*
D03*
X-2454556Y-508363D02*
G54D10*
D03*
X-2454556Y-488363D02*
G54D10*
D03*
X-2454556Y-468363D02*
G54D10*
D03*
X-2454556Y-448363D02*
G54D10*
D03*
X-2434556Y-428363D02*
G54D10*
D03*
X-2434556Y-448363D02*
G54D10*
D03*
X-2434556Y-468363D02*
G54D10*
D03*
X-2434556Y-488363D02*
G54D10*
D03*
X-2434556Y-508363D02*
G54D10*
D03*
X-2414556Y-508363D02*
G54D10*
D03*
X-2414556Y-488363D02*
G54D10*
D03*
X-2414556Y-468363D02*
G54D10*
D03*
X-2414556Y-448363D02*
G54D10*
D03*
X-2414556Y-428363D02*
G54D10*
D03*
X-2394556Y-428363D02*
G54D10*
D03*
X-2374556Y-428363D02*
G54D10*
D03*
X-2394556Y-448363D02*
G54D10*
D03*
X-2394556Y-468363D02*
G54D10*
D03*
X-2394556Y-488363D02*
G54D10*
D03*
X-2394556Y-508363D02*
G54D10*
D03*
X-2374556Y-508363D02*
G54D10*
D03*
X-2374556Y-488363D02*
G54D10*
D03*
X-2374556Y-468363D02*
G54D10*
D03*
X-2374556Y-448363D02*
G54D10*
D03*
X-2354556Y-428363D02*
G54D10*
D03*
X-2354556Y-448363D02*
G54D10*
D03*
X-2354556Y-468363D02*
G54D10*
D03*
X-2354556Y-488363D02*
G54D10*
D03*
X-2354556Y-508363D02*
G54D10*
D03*
X-2334556Y-508363D02*
G54D10*
D03*
X-2334556Y-488363D02*
G54D10*
D03*
X-2334556Y-468363D02*
G54D10*
D03*
X-2334556Y-448363D02*
G54D10*
D03*
X-2334556Y-428363D02*
G54D10*
D03*
X-2314556Y-428363D02*
G54D10*
D03*
X-2294556Y-428363D02*
G54D10*
D03*
X-2314556Y-448363D02*
G54D10*
D03*
X-2314556Y-468363D02*
G54D10*
D03*
X-2314556Y-488363D02*
G54D10*
D03*
X-2314556Y-508363D02*
G54D10*
D03*
X-2294556Y-508363D02*
G54D10*
D03*
X-2294556Y-488363D02*
G54D10*
D03*
X-2294556Y-468363D02*
G54D10*
D03*
X-2294556Y-448363D02*
G54D10*
D03*
X-2274556Y-428363D02*
G54D10*
D03*
X-2274556Y-448363D02*
G54D10*
D03*
X-2274556Y-468363D02*
G54D10*
D03*
X-2274556Y-488363D02*
G54D10*
D03*
X-2274556Y-508363D02*
G54D10*
D03*
X-2254556Y-508363D02*
G54D10*
D03*
X-2254556Y-488363D02*
G54D10*
D03*
X-2254556Y-468363D02*
G54D10*
D03*
X-2254556Y-448363D02*
G54D10*
D03*
X-2254556Y-428363D02*
G54D10*
D03*
X-2234556Y-428363D02*
G54D10*
D03*
X-2234556Y-448363D02*
G54D10*
D03*
X-2234556Y-468363D02*
G54D10*
D03*
X-2234556Y-488363D02*
G54D10*
D03*
X-2234556Y-508363D02*
G54D10*
D03*
X-1567580Y209745D02*
G54D11*
D03*
X-1547580Y209745D02*
G54D11*
D03*
X-1527580Y209745D02*
G54D11*
D03*
X-1507580Y209745D02*
G54D11*
D03*
X-1487580Y209745D02*
G54D11*
D03*
X-1467580Y209745D02*
G54D11*
D03*
X-1447580Y209745D02*
G54D11*
D03*
X-1427580Y209745D02*
G54D11*
D03*
X-1407580Y209745D02*
G54D11*
D03*
X-1387580Y209745D02*
G54D11*
D03*
X-1367580Y209745D02*
G54D11*
D03*
X-1347580Y209745D02*
G54D11*
D03*
X-1327580Y209745D02*
G54D11*
D03*
X-1307580Y209745D02*
G54D11*
D03*
X-1287580Y209745D02*
G54D11*
D03*
X-1267580Y209745D02*
G54D11*
D03*
X-1247580Y209745D02*
G54D11*
D03*
X-1227580Y209745D02*
G54D11*
D03*
X-1566330Y195995D02*
G54D11*
D03*
X-1546330Y195995D02*
G54D11*
D03*
X-1526330Y195995D02*
G54D11*
D03*
X-1506330Y195995D02*
G54D11*
D03*
X-1486330Y195995D02*
G54D11*
D03*
X-1466330Y195995D02*
G54D11*
D03*
X-1446330Y195995D02*
G54D11*
D03*
X-1426330Y195995D02*
G54D11*
D03*
X-1406330Y195995D02*
G54D11*
D03*
X-1386330Y195995D02*
G54D11*
D03*
X-1366330Y195995D02*
G54D11*
D03*
X-1346330Y195995D02*
G54D11*
D03*
X-1326330Y195995D02*
G54D11*
D03*
X-1306330Y195995D02*
G54D11*
D03*
X-1286330Y195995D02*
G54D11*
D03*
X-1266330Y195995D02*
G54D11*
D03*
X-1246330Y195995D02*
G54D11*
D03*
X-1226330Y195995D02*
G54D11*
D03*
X-1566330Y182245D02*
G54D11*
D03*
X-1546330Y182245D02*
G54D11*
D03*
X-1526330Y182245D02*
G54D11*
D03*
X-1506330Y182245D02*
G54D11*
D03*
X-1486330Y182245D02*
G54D11*
D03*
X-1466330Y182245D02*
G54D11*
D03*
X-1446330Y182245D02*
G54D11*
D03*
X-1426330Y182245D02*
G54D11*
D03*
X-1406330Y182245D02*
G54D11*
D03*
X-1386330Y182245D02*
G54D11*
D03*
X-1366330Y182245D02*
G54D11*
D03*
X-1346330Y182245D02*
G54D11*
D03*
X-1326330Y182245D02*
G54D11*
D03*
X-1306330Y182245D02*
G54D11*
D03*
X-1286330Y182245D02*
G54D11*
D03*
X-1266330Y182245D02*
G54D11*
D03*
X-1246330Y182245D02*
G54D11*
D03*
X-1226330Y182245D02*
G54D11*
D03*
X-1566330Y168495D02*
G54D11*
D03*
X-1546330Y168495D02*
G54D11*
D03*
X-1526330Y168495D02*
G54D11*
D03*
X-1506330Y168495D02*
G54D11*
D03*
X-1486330Y168495D02*
G54D11*
D03*
X-1466330Y168495D02*
G54D11*
D03*
X-1446330Y168495D02*
G54D11*
D03*
X-1426330Y168495D02*
G54D11*
D03*
X-1406330Y168495D02*
G54D11*
D03*
X-1386330Y168495D02*
G54D11*
D03*
X-1366330Y168495D02*
G54D11*
D03*
X-1346330Y168495D02*
G54D11*
D03*
X-1326330Y168495D02*
G54D11*
D03*
X-1306330Y168495D02*
G54D11*
D03*
X-1286330Y168495D02*
G54D11*
D03*
X-1266330Y168495D02*
G54D11*
D03*
X-1246330Y168495D02*
G54D11*
D03*
X-1226330Y168495D02*
G54D11*
D03*
X-1566330Y154745D02*
G54D11*
D03*
X-1546330Y154745D02*
G54D11*
D03*
X-1526330Y154745D02*
G54D11*
D03*
X-1506330Y154745D02*
G54D11*
D03*
X-1486330Y154745D02*
G54D11*
D03*
X-1466330Y154745D02*
G54D11*
D03*
X-1446330Y154745D02*
G54D11*
D03*
X-1426330Y154745D02*
G54D11*
D03*
X-1406330Y154745D02*
G54D11*
D03*
X-1386330Y154745D02*
G54D11*
D03*
X-1366330Y154745D02*
G54D11*
D03*
X-1346330Y154745D02*
G54D11*
D03*
X-1326330Y154745D02*
G54D11*
D03*
X-1306330Y154745D02*
G54D11*
D03*
X-1286330Y154745D02*
G54D11*
D03*
X-1266330Y154745D02*
G54D11*
D03*
X-1246330Y154745D02*
G54D11*
D03*
X-1226330Y154745D02*
G54D11*
D03*
X-1566330Y139745D02*
G54D11*
D03*
X-1546330Y139745D02*
G54D11*
D03*
X-1526330Y139745D02*
G54D11*
D03*
X-1506330Y139745D02*
G54D11*
D03*
X-1486330Y139745D02*
G54D11*
D03*
X-1466330Y139745D02*
G54D11*
D03*
X-1446330Y139745D02*
G54D11*
D03*
X-1426330Y139745D02*
G54D11*
D03*
X-1406330Y139745D02*
G54D11*
D03*
X-1386330Y139745D02*
G54D11*
D03*
X-1366330Y139745D02*
G54D11*
D03*
X-1346330Y139745D02*
G54D11*
D03*
X-1326330Y139745D02*
G54D11*
D03*
X-1306330Y139745D02*
G54D11*
D03*
X-1286330Y139745D02*
G54D11*
D03*
X-1266330Y139745D02*
G54D11*
D03*
X-1246330Y139745D02*
G54D11*
D03*
X-1226330Y139745D02*
G54D11*
D03*
X-1566330Y125995D02*
G54D11*
D03*
X-1546330Y125995D02*
G54D11*
D03*
X-1526330Y125995D02*
G54D11*
D03*
X-1506330Y125995D02*
G54D11*
D03*
X-1486330Y125995D02*
G54D11*
D03*
X-1466330Y125995D02*
G54D11*
D03*
X-1446330Y125995D02*
G54D11*
D03*
X-1426330Y125995D02*
G54D11*
D03*
X-1406330Y125995D02*
G54D11*
D03*
X-1386330Y125995D02*
G54D11*
D03*
X-1366330Y125995D02*
G54D11*
D03*
X-1346330Y125995D02*
G54D11*
D03*
X-1326330Y125995D02*
G54D11*
D03*
X-1306330Y125995D02*
G54D11*
D03*
X-1286330Y125995D02*
G54D11*
D03*
X-1266330Y125995D02*
G54D11*
D03*
X-1246330Y125995D02*
G54D11*
D03*
X-1226330Y125995D02*
G54D11*
D03*
X-1566330Y112245D02*
G54D11*
D03*
X-1546330Y112245D02*
G54D11*
D03*
X-1526330Y112245D02*
G54D11*
D03*
X-1506330Y112245D02*
G54D11*
D03*
X-1486330Y112245D02*
G54D11*
D03*
X-1466330Y112245D02*
G54D11*
D03*
X-1446330Y112245D02*
G54D11*
D03*
X-1426330Y112245D02*
G54D11*
D03*
X-1406330Y112245D02*
G54D11*
D03*
X-1386330Y112245D02*
G54D11*
D03*
X-1366330Y112245D02*
G54D11*
D03*
X-1346330Y112245D02*
G54D11*
D03*
X-1326330Y112245D02*
G54D11*
D03*
X-1306330Y112245D02*
G54D11*
D03*
X-1286330Y112245D02*
G54D11*
D03*
X-1266330Y112245D02*
G54D11*
D03*
X-1246330Y112245D02*
G54D11*
D03*
X-1226330Y112245D02*
G54D11*
D03*
X-1566330Y97245D02*
G54D11*
D03*
X-1546330Y97245D02*
G54D11*
D03*
X-1526330Y97245D02*
G54D11*
D03*
X-1506330Y97245D02*
G54D11*
D03*
X-1486330Y97245D02*
G54D11*
D03*
X-1466330Y97245D02*
G54D11*
D03*
X-1446330Y97245D02*
G54D11*
D03*
X-1426330Y97245D02*
G54D11*
D03*
X-1406330Y97245D02*
G54D11*
D03*
X-1386330Y97245D02*
G54D11*
D03*
X-1366330Y97245D02*
G54D11*
D03*
X-1346330Y97245D02*
G54D11*
D03*
X-1326330Y97245D02*
G54D11*
D03*
X-1306330Y97245D02*
G54D11*
D03*
X-1286330Y97245D02*
G54D11*
D03*
X-1266330Y97245D02*
G54D11*
D03*
X-1246330Y97245D02*
G54D11*
D03*
X-1226330Y97245D02*
G54D11*
D03*
X-1567580Y5995D02*
G54D11*
D03*
X-1547580Y5995D02*
G54D11*
D03*
X-1527580Y5995D02*
G54D11*
D03*
X-1507580Y5995D02*
G54D11*
D03*
X-1487580Y5995D02*
G54D11*
D03*
X-1467580Y5995D02*
G54D11*
D03*
X-1447580Y5995D02*
G54D11*
D03*
X-1427580Y5995D02*
G54D11*
D03*
X-1407580Y5995D02*
G54D11*
D03*
X-1387580Y5995D02*
G54D11*
D03*
X-1367580Y5995D02*
G54D11*
D03*
X-1347580Y5995D02*
G54D11*
D03*
X-1327580Y5995D02*
G54D11*
D03*
X-1307580Y5995D02*
G54D11*
D03*
X-1287580Y5995D02*
G54D11*
D03*
X-1267580Y5995D02*
G54D11*
D03*
X-1247580Y5995D02*
G54D11*
D03*
X-1227580Y5995D02*
G54D11*
D03*
X-1566330Y-7755D02*
G54D11*
D03*
X-1546330Y-7755D02*
G54D11*
D03*
X-1526330Y-7755D02*
G54D11*
D03*
X-1506330Y-7755D02*
G54D11*
D03*
X-1486330Y-7755D02*
G54D11*
D03*
X-1466330Y-7755D02*
G54D11*
D03*
X-1446330Y-7755D02*
G54D11*
D03*
X-1426330Y-7755D02*
G54D11*
D03*
X-1406330Y-7755D02*
G54D11*
D03*
X-1386330Y-7755D02*
G54D11*
D03*
X-1366330Y-7755D02*
G54D11*
D03*
X-1346330Y-7755D02*
G54D11*
D03*
X-1326330Y-7755D02*
G54D11*
D03*
X-1306330Y-7755D02*
G54D11*
D03*
X-1286330Y-7755D02*
G54D11*
D03*
X-1266330Y-7755D02*
G54D11*
D03*
X-1246330Y-7755D02*
G54D11*
D03*
X-1226330Y-7755D02*
G54D11*
D03*
X-1566330Y-21505D02*
G54D11*
D03*
X-1546330Y-21505D02*
G54D11*
D03*
X-1526330Y-21505D02*
G54D11*
D03*
X-1506330Y-21505D02*
G54D11*
D03*
X-1486330Y-21505D02*
G54D11*
D03*
X-1466330Y-21505D02*
G54D11*
D03*
X-1446330Y-21505D02*
G54D11*
D03*
X-1426330Y-21505D02*
G54D11*
D03*
X-1406330Y-21505D02*
G54D11*
D03*
X-1386330Y-21505D02*
G54D11*
D03*
X-1366330Y-21505D02*
G54D11*
D03*
X-1346330Y-21505D02*
G54D11*
D03*
X-1326330Y-21505D02*
G54D11*
D03*
X-1306330Y-21505D02*
G54D11*
D03*
X-1286330Y-21505D02*
G54D11*
D03*
X-1266330Y-21505D02*
G54D11*
D03*
X-1246330Y-21505D02*
G54D11*
D03*
X-1226330Y-21505D02*
G54D11*
D03*
X-1566330Y-35255D02*
G54D11*
D03*
X-1546330Y-35255D02*
G54D11*
D03*
X-1526330Y-35255D02*
G54D11*
D03*
X-1506330Y-35255D02*
G54D11*
D03*
X-1486330Y-35255D02*
G54D11*
D03*
X-1466330Y-35255D02*
G54D11*
D03*
X-1446330Y-35255D02*
G54D11*
D03*
X-1426330Y-35255D02*
G54D11*
D03*
X-1406330Y-35255D02*
G54D11*
D03*
X-1386330Y-35255D02*
G54D11*
D03*
X-1366330Y-35255D02*
G54D11*
D03*
X-1346330Y-35255D02*
G54D11*
D03*
X-1326330Y-35255D02*
G54D11*
D03*
X-1306330Y-35255D02*
G54D11*
D03*
X-1286330Y-35255D02*
G54D11*
D03*
X-1266330Y-35255D02*
G54D11*
D03*
X-1246330Y-35255D02*
G54D11*
D03*
X-1226330Y-35255D02*
G54D11*
D03*
X-1566330Y-49005D02*
G54D11*
D03*
X-1546330Y-49005D02*
G54D11*
D03*
X-1526330Y-49005D02*
G54D11*
D03*
X-1506330Y-49005D02*
G54D11*
D03*
X-1486330Y-49005D02*
G54D11*
D03*
X-1466330Y-49005D02*
G54D11*
D03*
X-1446330Y-49005D02*
G54D11*
D03*
X-1426330Y-49005D02*
G54D11*
D03*
X-1406330Y-49005D02*
G54D11*
D03*
X-1386330Y-49005D02*
G54D11*
D03*
X-1366330Y-49005D02*
G54D11*
D03*
X-1346330Y-49005D02*
G54D11*
D03*
X-1326330Y-49005D02*
G54D11*
D03*
X-1306330Y-49005D02*
G54D11*
D03*
X-1286330Y-49005D02*
G54D11*
D03*
X-1266330Y-49005D02*
G54D11*
D03*
X-1246330Y-49005D02*
G54D11*
D03*
X-1226330Y-49005D02*
G54D11*
D03*
X-1566330Y-64005D02*
G54D11*
D03*
X-1546330Y-64005D02*
G54D11*
D03*
X-1526330Y-64005D02*
G54D11*
D03*
X-1506330Y-64005D02*
G54D11*
D03*
X-1486330Y-64005D02*
G54D11*
D03*
X-1466330Y-64005D02*
G54D11*
D03*
X-1446330Y-64005D02*
G54D11*
D03*
X-1426330Y-64005D02*
G54D11*
D03*
X-1406330Y-64005D02*
G54D11*
D03*
X-1386330Y-64005D02*
G54D11*
D03*
X-1366330Y-64005D02*
G54D11*
D03*
X-1346330Y-64005D02*
G54D11*
D03*
X-1326330Y-64005D02*
G54D11*
D03*
X-1306330Y-64005D02*
G54D11*
D03*
X-1286330Y-64005D02*
G54D11*
D03*
X-1266330Y-64005D02*
G54D11*
D03*
X-1246330Y-64005D02*
G54D11*
D03*
X-1226330Y-64005D02*
G54D11*
D03*
X-1566330Y-77755D02*
G54D11*
D03*
X-1546330Y-77755D02*
G54D11*
D03*
X-1526330Y-77755D02*
G54D11*
D03*
X-1506330Y-77755D02*
G54D11*
D03*
X-1486330Y-77755D02*
G54D11*
D03*
X-1466330Y-77755D02*
G54D11*
D03*
X-1446330Y-77755D02*
G54D11*
D03*
X-1426330Y-77755D02*
G54D11*
D03*
X-1406330Y-77755D02*
G54D11*
D03*
X-1386330Y-77755D02*
G54D11*
D03*
X-1366330Y-77755D02*
G54D11*
D03*
X-1346330Y-77755D02*
G54D11*
D03*
X-1326330Y-77755D02*
G54D11*
D03*
X-1306330Y-77755D02*
G54D11*
D03*
X-1286330Y-77755D02*
G54D11*
D03*
X-1266330Y-77755D02*
G54D11*
D03*
X-1246330Y-77755D02*
G54D11*
D03*
X-1226330Y-77755D02*
G54D11*
D03*
X-1566330Y-91505D02*
G54D11*
D03*
X-1546330Y-91505D02*
G54D11*
D03*
X-1526330Y-91505D02*
G54D11*
D03*
X-1506330Y-91505D02*
G54D11*
D03*
X-1486330Y-91505D02*
G54D11*
D03*
X-1466330Y-91505D02*
G54D11*
D03*
X-1446330Y-91505D02*
G54D11*
D03*
X-1426330Y-91505D02*
G54D11*
D03*
X-1406330Y-91505D02*
G54D11*
D03*
X-1386330Y-91505D02*
G54D11*
D03*
X-1366330Y-91505D02*
G54D11*
D03*
X-1346330Y-91505D02*
G54D11*
D03*
X-1326330Y-91505D02*
G54D11*
D03*
X-1306330Y-91505D02*
G54D11*
D03*
X-1286330Y-91505D02*
G54D11*
D03*
X-1266330Y-91505D02*
G54D11*
D03*
X-1246330Y-91505D02*
G54D11*
D03*
X-1226330Y-91505D02*
G54D11*
D03*
X-1566330Y-106505D02*
G54D11*
D03*
X-1546330Y-106505D02*
G54D11*
D03*
X-1526330Y-106505D02*
G54D11*
D03*
X-1506330Y-106505D02*
G54D11*
D03*
X-1486330Y-106505D02*
G54D11*
D03*
X-1466330Y-106505D02*
G54D11*
D03*
X-1446330Y-106505D02*
G54D11*
D03*
X-1426330Y-106505D02*
G54D11*
D03*
X-1406330Y-106505D02*
G54D11*
D03*
X-1386330Y-106505D02*
G54D11*
D03*
X-1366330Y-106505D02*
G54D11*
D03*
X-1346330Y-106505D02*
G54D11*
D03*
X-1326330Y-106505D02*
G54D11*
D03*
X-1306330Y-106505D02*
G54D11*
D03*
X-1286330Y-106505D02*
G54D11*
D03*
X-1266330Y-106505D02*
G54D11*
D03*
X-1246330Y-106505D02*
G54D11*
D03*
X-1226330Y-106505D02*
G54D11*
D03*
X-1566330Y-197755D02*
G54D11*
D03*
X-1546330Y-197755D02*
G54D11*
D03*
X-1526330Y-197755D02*
G54D11*
D03*
X-1506330Y-197755D02*
G54D11*
D03*
X-1486330Y-197755D02*
G54D11*
D03*
X-1466330Y-197755D02*
G54D11*
D03*
X-1446330Y-197755D02*
G54D11*
D03*
X-1426330Y-197755D02*
G54D11*
D03*
X-1406330Y-197755D02*
G54D11*
D03*
X-1386330Y-197755D02*
G54D11*
D03*
X-1366330Y-197755D02*
G54D11*
D03*
X-1346330Y-197755D02*
G54D11*
D03*
X-1326330Y-197755D02*
G54D11*
D03*
X-1306330Y-197755D02*
G54D11*
D03*
X-1286330Y-197755D02*
G54D11*
D03*
X-1266330Y-197755D02*
G54D11*
D03*
X-1246330Y-197755D02*
G54D11*
D03*
X-1226330Y-197755D02*
G54D11*
D03*
X-1565080Y-211505D02*
G54D11*
D03*
X-1545080Y-211505D02*
G54D11*
D03*
X-1525080Y-211505D02*
G54D11*
D03*
X-1505080Y-211505D02*
G54D11*
D03*
X-1485080Y-211505D02*
G54D11*
D03*
X-1465080Y-211505D02*
G54D11*
D03*
X-1445080Y-211505D02*
G54D11*
D03*
X-1425080Y-211505D02*
G54D11*
D03*
X-1405080Y-211505D02*
G54D11*
D03*
X-1385080Y-211505D02*
G54D11*
D03*
X-1365080Y-211505D02*
G54D11*
D03*
X-1345080Y-211505D02*
G54D11*
D03*
X-1325080Y-211505D02*
G54D11*
D03*
X-1305080Y-211505D02*
G54D11*
D03*
X-1285080Y-211505D02*
G54D11*
D03*
X-1265080Y-211505D02*
G54D11*
D03*
X-1245080Y-211505D02*
G54D11*
D03*
X-1225080Y-211505D02*
G54D11*
D03*
X-1565080Y-225255D02*
G54D11*
D03*
X-1545080Y-225255D02*
G54D11*
D03*
X-1525080Y-225255D02*
G54D11*
D03*
X-1505080Y-225255D02*
G54D11*
D03*
X-1485080Y-225255D02*
G54D11*
D03*
X-1465080Y-225255D02*
G54D11*
D03*
X-1445080Y-225255D02*
G54D11*
D03*
X-1425080Y-225255D02*
G54D11*
D03*
X-1405080Y-225255D02*
G54D11*
D03*
X-1385080Y-225255D02*
G54D11*
D03*
X-1365080Y-225255D02*
G54D11*
D03*
X-1345080Y-225255D02*
G54D11*
D03*
X-1325080Y-225255D02*
G54D11*
D03*
X-1305080Y-225255D02*
G54D11*
D03*
X-1285080Y-225255D02*
G54D11*
D03*
X-1265080Y-225255D02*
G54D11*
D03*
X-1245080Y-225255D02*
G54D11*
D03*
X-1225080Y-225255D02*
G54D11*
D03*
X-1565080Y-239005D02*
G54D11*
D03*
X-1545080Y-239005D02*
G54D11*
D03*
X-1525080Y-239005D02*
G54D11*
D03*
X-1505080Y-239005D02*
G54D11*
D03*
X-1485080Y-239005D02*
G54D11*
D03*
X-1465080Y-239005D02*
G54D11*
D03*
X-1445080Y-239005D02*
G54D11*
D03*
X-1425080Y-239005D02*
G54D11*
D03*
X-1405080Y-239005D02*
G54D11*
D03*
X-1385080Y-239005D02*
G54D11*
D03*
X-1365080Y-239005D02*
G54D11*
D03*
X-1345080Y-239005D02*
G54D11*
D03*
X-1325080Y-239005D02*
G54D11*
D03*
X-1305080Y-239005D02*
G54D11*
D03*
X-1285080Y-239005D02*
G54D11*
D03*
X-1265080Y-239005D02*
G54D11*
D03*
X-1245080Y-239005D02*
G54D11*
D03*
X-1225080Y-239005D02*
G54D11*
D03*
X-1565080Y-252755D02*
G54D11*
D03*
X-1545080Y-252755D02*
G54D11*
D03*
X-1525080Y-252755D02*
G54D11*
D03*
X-1505080Y-252755D02*
G54D11*
D03*
X-1485080Y-252755D02*
G54D11*
D03*
X-1465080Y-252755D02*
G54D11*
D03*
X-1445080Y-252755D02*
G54D11*
D03*
X-1425080Y-252755D02*
G54D11*
D03*
X-1405080Y-252755D02*
G54D11*
D03*
X-1385080Y-252755D02*
G54D11*
D03*
X-1365080Y-252755D02*
G54D11*
D03*
X-1345080Y-252755D02*
G54D11*
D03*
X-1325080Y-252755D02*
G54D11*
D03*
X-1305080Y-252755D02*
G54D11*
D03*
X-1285080Y-252755D02*
G54D11*
D03*
X-1265080Y-252755D02*
G54D11*
D03*
X-1245080Y-252755D02*
G54D11*
D03*
X-1225080Y-252755D02*
G54D11*
D03*
X-1565080Y-267755D02*
G54D11*
D03*
X-1545080Y-267755D02*
G54D11*
D03*
X-1525080Y-267755D02*
G54D11*
D03*
X-1505080Y-267755D02*
G54D11*
D03*
X-1485080Y-267755D02*
G54D11*
D03*
X-1465080Y-267755D02*
G54D11*
D03*
X-1445080Y-267755D02*
G54D11*
D03*
X-1425080Y-267755D02*
G54D11*
D03*
X-1405080Y-267755D02*
G54D11*
D03*
X-1385080Y-267755D02*
G54D11*
D03*
X-1365080Y-267755D02*
G54D11*
D03*
X-1345080Y-267755D02*
G54D11*
D03*
X-1325080Y-267755D02*
G54D11*
D03*
X-1305080Y-267755D02*
G54D11*
D03*
X-1285080Y-267755D02*
G54D11*
D03*
X-1265080Y-267755D02*
G54D11*
D03*
X-1245080Y-267755D02*
G54D11*
D03*
X-1225080Y-267755D02*
G54D11*
D03*
X-1565080Y-281505D02*
G54D11*
D03*
X-1545080Y-281505D02*
G54D11*
D03*
X-1525080Y-281505D02*
G54D11*
D03*
X-1505080Y-281505D02*
G54D11*
D03*
X-1485080Y-281505D02*
G54D11*
D03*
X-1465080Y-281505D02*
G54D11*
D03*
X-1445080Y-281505D02*
G54D11*
D03*
X-1425080Y-281505D02*
G54D11*
D03*
X-1405080Y-281505D02*
G54D11*
D03*
X-1385080Y-281505D02*
G54D11*
D03*
X-1365080Y-281505D02*
G54D11*
D03*
X-1345080Y-281505D02*
G54D11*
D03*
X-1325080Y-281505D02*
G54D11*
D03*
X-1305080Y-281505D02*
G54D11*
D03*
X-1285080Y-281505D02*
G54D11*
D03*
X-1265080Y-281505D02*
G54D11*
D03*
X-1245080Y-281505D02*
G54D11*
D03*
X-1225080Y-281505D02*
G54D11*
D03*
X-1565080Y-295255D02*
G54D11*
D03*
X-1545080Y-295255D02*
G54D11*
D03*
X-1525080Y-295255D02*
G54D11*
D03*
X-1505080Y-295255D02*
G54D11*
D03*
X-1485080Y-295255D02*
G54D11*
D03*
X-1465080Y-295255D02*
G54D11*
D03*
X-1445080Y-295255D02*
G54D11*
D03*
X-1425080Y-295255D02*
G54D11*
D03*
X-1405080Y-295255D02*
G54D11*
D03*
X-1385080Y-295255D02*
G54D11*
D03*
X-1365080Y-295255D02*
G54D11*
D03*
X-1345080Y-295255D02*
G54D11*
D03*
X-1325080Y-295255D02*
G54D11*
D03*
X-1305080Y-295255D02*
G54D11*
D03*
X-1285080Y-295255D02*
G54D11*
D03*
X-1265080Y-295255D02*
G54D11*
D03*
X-1245080Y-295255D02*
G54D11*
D03*
X-1225080Y-295255D02*
G54D11*
D03*
X-1565080Y-310255D02*
G54D11*
D03*
X-1545080Y-310255D02*
G54D11*
D03*
X-1525080Y-310255D02*
G54D11*
D03*
X-1505080Y-310255D02*
G54D11*
D03*
X-1485080Y-310255D02*
G54D11*
D03*
X-1465080Y-310255D02*
G54D11*
D03*
X-1445080Y-310255D02*
G54D11*
D03*
X-1425080Y-310255D02*
G54D11*
D03*
X-1405080Y-310255D02*
G54D11*
D03*
X-1385080Y-310255D02*
G54D11*
D03*
X-1365080Y-310255D02*
G54D11*
D03*
X-1345080Y-310255D02*
G54D11*
D03*
X-1325080Y-310255D02*
G54D11*
D03*
X-1305080Y-310255D02*
G54D11*
D03*
X-1285080Y-310255D02*
G54D11*
D03*
X-1265080Y-310255D02*
G54D11*
D03*
X-1245080Y-310255D02*
G54D11*
D03*
X-1225080Y-310255D02*
G54D11*
D03*
X-1566330Y-399005D02*
G54D11*
D03*
X-1546330Y-399005D02*
G54D11*
D03*
X-1526330Y-399005D02*
G54D11*
D03*
X-1506330Y-399005D02*
G54D11*
D03*
X-1486330Y-399005D02*
G54D11*
D03*
X-1466330Y-399005D02*
G54D11*
D03*
X-1446330Y-399005D02*
G54D11*
D03*
X-1426330Y-399005D02*
G54D11*
D03*
X-1406330Y-399005D02*
G54D11*
D03*
X-1386330Y-399005D02*
G54D11*
D03*
X-1366330Y-399005D02*
G54D11*
D03*
X-1346330Y-399005D02*
G54D11*
D03*
X-1326330Y-399005D02*
G54D11*
D03*
X-1306330Y-399005D02*
G54D11*
D03*
X-1286330Y-399005D02*
G54D11*
D03*
X-1266330Y-399005D02*
G54D11*
D03*
X-1246330Y-399005D02*
G54D11*
D03*
X-1226330Y-399005D02*
G54D11*
D03*
X-1565080Y-412755D02*
G54D11*
D03*
X-1545080Y-412755D02*
G54D11*
D03*
X-1525080Y-412755D02*
G54D11*
D03*
X-1505080Y-412755D02*
G54D11*
D03*
X-1485080Y-412755D02*
G54D11*
D03*
X-1465080Y-412755D02*
G54D11*
D03*
X-1445080Y-412755D02*
G54D11*
D03*
X-1425080Y-412755D02*
G54D11*
D03*
X-1405080Y-412755D02*
G54D11*
D03*
X-1385080Y-412755D02*
G54D11*
D03*
X-1365080Y-412755D02*
G54D11*
D03*
X-1345080Y-412755D02*
G54D11*
D03*
X-1325080Y-412755D02*
G54D11*
D03*
X-1305080Y-412755D02*
G54D11*
D03*
X-1285080Y-412755D02*
G54D11*
D03*
X-1265080Y-412755D02*
G54D11*
D03*
X-1245080Y-412755D02*
G54D11*
D03*
X-1225080Y-412755D02*
G54D11*
D03*
X-1565080Y-426505D02*
G54D11*
D03*
X-1545080Y-426505D02*
G54D11*
D03*
X-1525080Y-426505D02*
G54D11*
D03*
X-1505080Y-426505D02*
G54D11*
D03*
X-1485080Y-426505D02*
G54D11*
D03*
X-1465080Y-426505D02*
G54D11*
D03*
X-1445080Y-426505D02*
G54D11*
D03*
X-1425080Y-426505D02*
G54D11*
D03*
X-1405080Y-426505D02*
G54D11*
D03*
X-1385080Y-426505D02*
G54D11*
D03*
X-1365080Y-426505D02*
G54D11*
D03*
X-1345080Y-426505D02*
G54D11*
D03*
X-1325080Y-426505D02*
G54D11*
D03*
X-1305080Y-426505D02*
G54D11*
D03*
X-1285080Y-426505D02*
G54D11*
D03*
X-1265080Y-426505D02*
G54D11*
D03*
X-1245080Y-426505D02*
G54D11*
D03*
X-1225080Y-426505D02*
G54D11*
D03*
X-1565080Y-440255D02*
G54D11*
D03*
X-1545080Y-440255D02*
G54D11*
D03*
X-1525080Y-440255D02*
G54D11*
D03*
X-1505080Y-440255D02*
G54D11*
D03*
X-1485080Y-440255D02*
G54D11*
D03*
X-1465080Y-440255D02*
G54D11*
D03*
X-1445080Y-440255D02*
G54D11*
D03*
X-1425080Y-440255D02*
G54D11*
D03*
X-1405080Y-440255D02*
G54D11*
D03*
X-1385080Y-440255D02*
G54D11*
D03*
X-1365080Y-440255D02*
G54D11*
D03*
X-1345080Y-440255D02*
G54D11*
D03*
X-1325080Y-440255D02*
G54D11*
D03*
X-1305080Y-440255D02*
G54D11*
D03*
X-1285080Y-440255D02*
G54D11*
D03*
X-1265080Y-440255D02*
G54D11*
D03*
X-1245080Y-440255D02*
G54D11*
D03*
X-1225080Y-440255D02*
G54D11*
D03*
X-1565080Y-454005D02*
G54D11*
D03*
X-1545080Y-454005D02*
G54D11*
D03*
X-1525080Y-454005D02*
G54D11*
D03*
X-1505080Y-454005D02*
G54D11*
D03*
X-1485080Y-454005D02*
G54D11*
D03*
X-1465080Y-454005D02*
G54D11*
D03*
X-1445080Y-454005D02*
G54D11*
D03*
X-1425080Y-454005D02*
G54D11*
D03*
X-1405080Y-454005D02*
G54D11*
D03*
X-1385080Y-454005D02*
G54D11*
D03*
X-1365080Y-454005D02*
G54D11*
D03*
X-1345080Y-454005D02*
G54D11*
D03*
X-1325080Y-454005D02*
G54D11*
D03*
X-1305080Y-454005D02*
G54D11*
D03*
X-1285080Y-454005D02*
G54D11*
D03*
X-1265080Y-454005D02*
G54D11*
D03*
X-1245080Y-454005D02*
G54D11*
D03*
X-1225080Y-454005D02*
G54D11*
D03*
X-1565080Y-469005D02*
G54D11*
D03*
X-1545080Y-469005D02*
G54D11*
D03*
X-1525080Y-469005D02*
G54D11*
D03*
X-1505080Y-469005D02*
G54D11*
D03*
X-1485080Y-469005D02*
G54D11*
D03*
X-1465080Y-469005D02*
G54D11*
D03*
X-1445080Y-469005D02*
G54D11*
D03*
X-1425080Y-469005D02*
G54D11*
D03*
X-1405080Y-469005D02*
G54D11*
D03*
X-1385080Y-469005D02*
G54D11*
D03*
X-1365080Y-469005D02*
G54D11*
D03*
X-1345080Y-469005D02*
G54D11*
D03*
X-1325080Y-469005D02*
G54D11*
D03*
X-1305080Y-469005D02*
G54D11*
D03*
X-1285080Y-469005D02*
G54D11*
D03*
X-1265080Y-469005D02*
G54D11*
D03*
X-1245080Y-469005D02*
G54D11*
D03*
X-1225080Y-469005D02*
G54D11*
D03*
X-1565080Y-482755D02*
G54D11*
D03*
X-1545080Y-482755D02*
G54D11*
D03*
X-1525080Y-482755D02*
G54D11*
D03*
X-1505080Y-482755D02*
G54D11*
D03*
X-1485080Y-482755D02*
G54D11*
D03*
X-1465080Y-482755D02*
G54D11*
D03*
X-1445080Y-482755D02*
G54D11*
D03*
X-1425080Y-482755D02*
G54D11*
D03*
X-1405080Y-482755D02*
G54D11*
D03*
X-1385080Y-482755D02*
G54D11*
D03*
X-1365080Y-482755D02*
G54D11*
D03*
X-1345080Y-482755D02*
G54D11*
D03*
X-1325080Y-482755D02*
G54D11*
D03*
X-1305080Y-482755D02*
G54D11*
D03*
X-1285080Y-482755D02*
G54D11*
D03*
X-1265080Y-482755D02*
G54D11*
D03*
X-1245080Y-482755D02*
G54D11*
D03*
X-1225080Y-482755D02*
G54D11*
D03*
X-1565080Y-496505D02*
G54D11*
D03*
X-1545080Y-496505D02*
G54D11*
D03*
X-1525080Y-496505D02*
G54D11*
D03*
X-1505080Y-496505D02*
G54D11*
D03*
X-1485080Y-496505D02*
G54D11*
D03*
X-1465080Y-496505D02*
G54D11*
D03*
X-1445080Y-496505D02*
G54D11*
D03*
X-1425080Y-496505D02*
G54D11*
D03*
X-1405080Y-496505D02*
G54D11*
D03*
X-1385080Y-496505D02*
G54D11*
D03*
X-1365080Y-496505D02*
G54D11*
D03*
X-1345080Y-496505D02*
G54D11*
D03*
X-1325080Y-496505D02*
G54D11*
D03*
X-1305080Y-496505D02*
G54D11*
D03*
X-1285080Y-496505D02*
G54D11*
D03*
X-1265080Y-496505D02*
G54D11*
D03*
X-1245080Y-496505D02*
G54D11*
D03*
X-1225080Y-496505D02*
G54D11*
D03*
X-1565080Y-511505D02*
G54D11*
D03*
X-1545080Y-511505D02*
G54D11*
D03*
X-1525080Y-511505D02*
G54D11*
D03*
X-1505080Y-511505D02*
G54D11*
D03*
X-1485080Y-511505D02*
G54D11*
D03*
X-1465080Y-511505D02*
G54D11*
D03*
X-1445080Y-511505D02*
G54D11*
D03*
X-1425080Y-511505D02*
G54D11*
D03*
X-1405080Y-511505D02*
G54D11*
D03*
X-1385080Y-511505D02*
G54D11*
D03*
X-1365080Y-511505D02*
G54D11*
D03*
X-1345080Y-511505D02*
G54D11*
D03*
X-1325080Y-511505D02*
G54D11*
D03*
X-1305080Y-511505D02*
G54D11*
D03*
X-1285080Y-511505D02*
G54D11*
D03*
X-1265080Y-511505D02*
G54D11*
D03*
X-1245080Y-511505D02*
G54D11*
D03*
X-1225080Y-511505D02*
G54D11*
D03*
X-3092580Y209745D02*
G54D11*
D03*
X-3072580Y209745D02*
G54D11*
D03*
X-3052580Y209745D02*
G54D11*
D03*
X-3032580Y209745D02*
G54D11*
D03*
X-3012580Y209745D02*
G54D11*
D03*
X-2992580Y209745D02*
G54D11*
D03*
X-2972580Y209745D02*
G54D11*
D03*
X-2952580Y209745D02*
G54D11*
D03*
X-2932580Y209745D02*
G54D11*
D03*
X-2912580Y209745D02*
G54D11*
D03*
X-2892580Y209745D02*
G54D11*
D03*
X-2872580Y209745D02*
G54D11*
D03*
X-2852580Y209745D02*
G54D11*
D03*
X-2832580Y209745D02*
G54D11*
D03*
X-2812580Y209745D02*
G54D11*
D03*
X-2792580Y209745D02*
G54D11*
D03*
X-2772580Y209745D02*
G54D11*
D03*
X-2752580Y209745D02*
G54D11*
D03*
X-3091330Y195995D02*
G54D11*
D03*
X-3071330Y195995D02*
G54D11*
D03*
X-3051330Y195995D02*
G54D11*
D03*
X-3031330Y195995D02*
G54D11*
D03*
X-3011330Y195995D02*
G54D11*
D03*
X-2991330Y195995D02*
G54D11*
D03*
X-2971330Y195995D02*
G54D11*
D03*
X-2951330Y195995D02*
G54D11*
D03*
X-2931330Y195995D02*
G54D11*
D03*
X-2911330Y195995D02*
G54D11*
D03*
X-2891330Y195995D02*
G54D11*
D03*
X-2871330Y195995D02*
G54D11*
D03*
X-2851330Y195995D02*
G54D11*
D03*
X-2831330Y195995D02*
G54D11*
D03*
X-2811330Y195995D02*
G54D11*
D03*
X-2791330Y195995D02*
G54D11*
D03*
X-2771330Y195995D02*
G54D11*
D03*
X-2751330Y195995D02*
G54D11*
D03*
X-3091330Y182245D02*
G54D11*
D03*
X-3071330Y182245D02*
G54D11*
D03*
X-3051330Y182245D02*
G54D11*
D03*
X-3031330Y182245D02*
G54D11*
D03*
X-3011330Y182245D02*
G54D11*
D03*
X-2991330Y182245D02*
G54D11*
D03*
X-2971330Y182245D02*
G54D11*
D03*
X-2951330Y182245D02*
G54D11*
D03*
X-2931330Y182245D02*
G54D11*
D03*
X-2911330Y182245D02*
G54D11*
D03*
X-2891330Y182245D02*
G54D11*
D03*
X-2871330Y182245D02*
G54D11*
D03*
X-2851330Y182245D02*
G54D11*
D03*
X-2831330Y182245D02*
G54D11*
D03*
X-2811330Y182245D02*
G54D11*
D03*
X-2791330Y182245D02*
G54D11*
D03*
X-2771330Y182245D02*
G54D11*
D03*
X-2751330Y182245D02*
G54D11*
D03*
X-3091330Y168495D02*
G54D11*
D03*
X-3071330Y168495D02*
G54D11*
D03*
X-3051330Y168495D02*
G54D11*
D03*
X-3031330Y168495D02*
G54D11*
D03*
X-3011330Y168495D02*
G54D11*
D03*
X-2991330Y168495D02*
G54D11*
D03*
X-2971330Y168495D02*
G54D11*
D03*
X-2951330Y168495D02*
G54D11*
D03*
X-2931330Y168495D02*
G54D11*
D03*
X-2911330Y168495D02*
G54D11*
D03*
X-2891330Y168495D02*
G54D11*
D03*
X-2871330Y168495D02*
G54D11*
D03*
X-2851330Y168495D02*
G54D11*
D03*
X-2831330Y168495D02*
G54D11*
D03*
X-2811330Y168495D02*
G54D11*
D03*
X-2791330Y168495D02*
G54D11*
D03*
X-2771330Y168495D02*
G54D11*
D03*
X-2751330Y168495D02*
G54D11*
D03*
X-3091330Y154745D02*
G54D11*
D03*
X-3071330Y154745D02*
G54D11*
D03*
X-3051330Y154745D02*
G54D11*
D03*
X-3031330Y154745D02*
G54D11*
D03*
X-3011330Y154745D02*
G54D11*
D03*
X-2991330Y154745D02*
G54D11*
D03*
X-2971330Y154745D02*
G54D11*
D03*
X-2951330Y154745D02*
G54D11*
D03*
X-2931330Y154745D02*
G54D11*
D03*
X-2911330Y154745D02*
G54D11*
D03*
X-2891330Y154745D02*
G54D11*
D03*
X-2871330Y154745D02*
G54D11*
D03*
X-2851330Y154745D02*
G54D11*
D03*
X-2831330Y154745D02*
G54D11*
D03*
X-2811330Y154745D02*
G54D11*
D03*
X-2791330Y154745D02*
G54D11*
D03*
X-2771330Y154745D02*
G54D11*
D03*
X-2751330Y154745D02*
G54D11*
D03*
X-3091330Y139745D02*
G54D11*
D03*
X-3071330Y139745D02*
G54D11*
D03*
X-3051330Y139745D02*
G54D11*
D03*
X-3031330Y139745D02*
G54D11*
D03*
X-3011330Y139745D02*
G54D11*
D03*
X-2991330Y139745D02*
G54D11*
D03*
X-2971330Y139745D02*
G54D11*
D03*
X-2951330Y139745D02*
G54D11*
D03*
X-2931330Y139745D02*
G54D11*
D03*
X-2911330Y139745D02*
G54D11*
D03*
X-2891330Y139745D02*
G54D11*
D03*
X-2871330Y139745D02*
G54D11*
D03*
X-2851330Y139745D02*
G54D11*
D03*
X-2831330Y139745D02*
G54D11*
D03*
X-2811330Y139745D02*
G54D11*
D03*
X-2791330Y139745D02*
G54D11*
D03*
X-2771330Y139745D02*
G54D11*
D03*
X-2751330Y139745D02*
G54D11*
D03*
X-3091330Y125995D02*
G54D11*
D03*
X-3071330Y125995D02*
G54D11*
D03*
X-3051330Y125995D02*
G54D11*
D03*
X-3031330Y125995D02*
G54D11*
D03*
X-3011330Y125995D02*
G54D11*
D03*
X-2991330Y125995D02*
G54D11*
D03*
X-2971330Y125995D02*
G54D11*
D03*
X-2951330Y125995D02*
G54D11*
D03*
X-2931330Y125995D02*
G54D11*
D03*
X-2911330Y125995D02*
G54D11*
D03*
X-2891330Y125995D02*
G54D11*
D03*
X-2871330Y125995D02*
G54D11*
D03*
X-2851330Y125995D02*
G54D11*
D03*
X-2831330Y125995D02*
G54D11*
D03*
X-2811330Y125995D02*
G54D11*
D03*
X-2791330Y125995D02*
G54D11*
D03*
X-2771330Y125995D02*
G54D11*
D03*
X-2751330Y125995D02*
G54D11*
D03*
X-3091330Y112245D02*
G54D11*
D03*
X-3071330Y112245D02*
G54D11*
D03*
X-3051330Y112245D02*
G54D11*
D03*
X-3031330Y112245D02*
G54D11*
D03*
X-3011330Y112245D02*
G54D11*
D03*
X-2991330Y112245D02*
G54D11*
D03*
X-2971330Y112245D02*
G54D11*
D03*
X-2951330Y112245D02*
G54D11*
D03*
X-2931330Y112245D02*
G54D11*
D03*
X-2911330Y112245D02*
G54D11*
D03*
X-2891330Y112245D02*
G54D11*
D03*
X-2871330Y112245D02*
G54D11*
D03*
X-2851330Y112245D02*
G54D11*
D03*
X-2831330Y112245D02*
G54D11*
D03*
X-2811330Y112245D02*
G54D11*
D03*
X-2791330Y112245D02*
G54D11*
D03*
X-2771330Y112245D02*
G54D11*
D03*
X-2751330Y112245D02*
G54D11*
D03*
X-3091330Y97245D02*
G54D11*
D03*
X-3071330Y97245D02*
G54D11*
D03*
X-3051330Y97245D02*
G54D11*
D03*
X-3031330Y97245D02*
G54D11*
D03*
X-3011330Y97245D02*
G54D11*
D03*
X-2991330Y97245D02*
G54D11*
D03*
X-2971330Y97245D02*
G54D11*
D03*
X-2951330Y97245D02*
G54D11*
D03*
X-2931330Y97245D02*
G54D11*
D03*
X-2911330Y97245D02*
G54D11*
D03*
X-2891330Y97245D02*
G54D11*
D03*
X-2871330Y97245D02*
G54D11*
D03*
X-2851330Y97245D02*
G54D11*
D03*
X-2831330Y97245D02*
G54D11*
D03*
X-2811330Y97245D02*
G54D11*
D03*
X-2791330Y97245D02*
G54D11*
D03*
X-2771330Y97245D02*
G54D11*
D03*
X-2751330Y97245D02*
G54D11*
D03*
X-3092580Y7245D02*
G54D11*
D03*
X-3072580Y7245D02*
G54D11*
D03*
X-3052580Y7245D02*
G54D11*
D03*
X-3032580Y7245D02*
G54D11*
D03*
X-3012580Y7245D02*
G54D11*
D03*
X-2992580Y7245D02*
G54D11*
D03*
X-2972580Y7245D02*
G54D11*
D03*
X-2952580Y7245D02*
G54D11*
D03*
X-2932580Y7245D02*
G54D11*
D03*
X-2912580Y7245D02*
G54D11*
D03*
X-2892580Y7245D02*
G54D11*
D03*
X-2872580Y7245D02*
G54D11*
D03*
X-2852580Y7245D02*
G54D11*
D03*
X-2832580Y7245D02*
G54D11*
D03*
X-2812580Y7245D02*
G54D11*
D03*
X-2792580Y7245D02*
G54D11*
D03*
X-2772580Y7245D02*
G54D11*
D03*
X-2752580Y7245D02*
G54D11*
D03*
X-3091330Y-6505D02*
G54D11*
D03*
X-3071330Y-6505D02*
G54D11*
D03*
X-3051330Y-6505D02*
G54D11*
D03*
X-3031330Y-6505D02*
G54D11*
D03*
X-3011330Y-6505D02*
G54D11*
D03*
X-2991330Y-6505D02*
G54D11*
D03*
X-2971330Y-6505D02*
G54D11*
D03*
X-2951330Y-6505D02*
G54D11*
D03*
X-2931330Y-6505D02*
G54D11*
D03*
X-2911330Y-6505D02*
G54D11*
D03*
X-2891330Y-6505D02*
G54D11*
D03*
X-2871330Y-6505D02*
G54D11*
D03*
X-2851330Y-6505D02*
G54D11*
D03*
X-2831330Y-6505D02*
G54D11*
D03*
X-2811330Y-6505D02*
G54D11*
D03*
X-2791330Y-6505D02*
G54D11*
D03*
X-2771330Y-6505D02*
G54D11*
D03*
X-2751330Y-6505D02*
G54D11*
D03*
X-3091330Y-20255D02*
G54D11*
D03*
X-3071330Y-20255D02*
G54D11*
D03*
X-3051330Y-20255D02*
G54D11*
D03*
X-3031330Y-20255D02*
G54D11*
D03*
X-3011330Y-20255D02*
G54D11*
D03*
X-2991330Y-20255D02*
G54D11*
D03*
X-2971330Y-20255D02*
G54D11*
D03*
X-2951330Y-20255D02*
G54D11*
D03*
X-2931330Y-20255D02*
G54D11*
D03*
X-2911330Y-20255D02*
G54D11*
D03*
X-2891330Y-20255D02*
G54D11*
D03*
X-2871330Y-20255D02*
G54D11*
D03*
X-2851330Y-20255D02*
G54D11*
D03*
X-2831330Y-20255D02*
G54D11*
D03*
X-2811330Y-20255D02*
G54D11*
D03*
X-2791330Y-20255D02*
G54D11*
D03*
X-2771330Y-20255D02*
G54D11*
D03*
X-2751330Y-20255D02*
G54D11*
D03*
X-3091330Y-34005D02*
G54D11*
D03*
X-3071330Y-34005D02*
G54D11*
D03*
X-3051330Y-34005D02*
G54D11*
D03*
X-3031330Y-34005D02*
G54D11*
D03*
X-3011330Y-34005D02*
G54D11*
D03*
X-2991330Y-34005D02*
G54D11*
D03*
X-2971330Y-34005D02*
G54D11*
D03*
X-2951330Y-34005D02*
G54D11*
D03*
X-2931330Y-34005D02*
G54D11*
D03*
X-2911330Y-34005D02*
G54D11*
D03*
X-2891330Y-34005D02*
G54D11*
D03*
X-2871330Y-34005D02*
G54D11*
D03*
X-2851330Y-34005D02*
G54D11*
D03*
X-2831330Y-34005D02*
G54D11*
D03*
X-2811330Y-34005D02*
G54D11*
D03*
X-2791330Y-34005D02*
G54D11*
D03*
X-2771330Y-34005D02*
G54D11*
D03*
X-2751330Y-34005D02*
G54D11*
D03*
X-3091330Y-47755D02*
G54D11*
D03*
X-3071330Y-47755D02*
G54D11*
D03*
X-3051330Y-47755D02*
G54D11*
D03*
X-3031330Y-47755D02*
G54D11*
D03*
X-3011330Y-47755D02*
G54D11*
D03*
X-2991330Y-47755D02*
G54D11*
D03*
X-2971330Y-47755D02*
G54D11*
D03*
X-2951330Y-47755D02*
G54D11*
D03*
X-2931330Y-47755D02*
G54D11*
D03*
X-2911330Y-47755D02*
G54D11*
D03*
X-2891330Y-47755D02*
G54D11*
D03*
X-2871330Y-47755D02*
G54D11*
D03*
X-2851330Y-47755D02*
G54D11*
D03*
X-2831330Y-47755D02*
G54D11*
D03*
X-2811330Y-47755D02*
G54D11*
D03*
X-2791330Y-47755D02*
G54D11*
D03*
X-2771330Y-47755D02*
G54D11*
D03*
X-2751330Y-47755D02*
G54D11*
D03*
X-3091330Y-62755D02*
G54D11*
D03*
X-3071330Y-62755D02*
G54D11*
D03*
X-3051330Y-62755D02*
G54D11*
D03*
X-3031330Y-62755D02*
G54D11*
D03*
X-3011330Y-62755D02*
G54D11*
D03*
X-2991330Y-62755D02*
G54D11*
D03*
X-2971330Y-62755D02*
G54D11*
D03*
X-2951330Y-62755D02*
G54D11*
D03*
X-2931330Y-62755D02*
G54D11*
D03*
X-2911330Y-62755D02*
G54D11*
D03*
X-2891330Y-62755D02*
G54D11*
D03*
X-2871330Y-62755D02*
G54D11*
D03*
X-2851330Y-62755D02*
G54D11*
D03*
X-2831330Y-62755D02*
G54D11*
D03*
X-2811330Y-62755D02*
G54D11*
D03*
X-2791330Y-62755D02*
G54D11*
D03*
X-2771330Y-62755D02*
G54D11*
D03*
X-2751330Y-62755D02*
G54D11*
D03*
X-3091330Y-76505D02*
G54D11*
D03*
X-3071330Y-76505D02*
G54D11*
D03*
X-3051330Y-76505D02*
G54D11*
D03*
X-3031330Y-76505D02*
G54D11*
D03*
X-3011330Y-76505D02*
G54D11*
D03*
X-2991330Y-76505D02*
G54D11*
D03*
X-2971330Y-76505D02*
G54D11*
D03*
X-2951330Y-76505D02*
G54D11*
D03*
X-2931330Y-76505D02*
G54D11*
D03*
X-2911330Y-76505D02*
G54D11*
D03*
X-2891330Y-76505D02*
G54D11*
D03*
X-2871330Y-76505D02*
G54D11*
D03*
X-2851330Y-76505D02*
G54D11*
D03*
X-2831330Y-76505D02*
G54D11*
D03*
X-2811330Y-76505D02*
G54D11*
D03*
X-2791330Y-76505D02*
G54D11*
D03*
X-2771330Y-76505D02*
G54D11*
D03*
X-2751330Y-76505D02*
G54D11*
D03*
X-3091330Y-90255D02*
G54D11*
D03*
X-3071330Y-90255D02*
G54D11*
D03*
X-3051330Y-90255D02*
G54D11*
D03*
X-3031330Y-90255D02*
G54D11*
D03*
X-3011330Y-90255D02*
G54D11*
D03*
X-2991330Y-90255D02*
G54D11*
D03*
X-2971330Y-90255D02*
G54D11*
D03*
X-2951330Y-90255D02*
G54D11*
D03*
X-2931330Y-90255D02*
G54D11*
D03*
X-2911330Y-90255D02*
G54D11*
D03*
X-2891330Y-90255D02*
G54D11*
D03*
X-2871330Y-90255D02*
G54D11*
D03*
X-2851330Y-90255D02*
G54D11*
D03*
X-2831330Y-90255D02*
G54D11*
D03*
X-2811330Y-90255D02*
G54D11*
D03*
X-2791330Y-90255D02*
G54D11*
D03*
X-2771330Y-90255D02*
G54D11*
D03*
X-2751330Y-90255D02*
G54D11*
D03*
X-3091330Y-105255D02*
G54D11*
D03*
X-3071330Y-105255D02*
G54D11*
D03*
X-3051330Y-105255D02*
G54D11*
D03*
X-3031330Y-105255D02*
G54D11*
D03*
X-3011330Y-105255D02*
G54D11*
D03*
X-2991330Y-105255D02*
G54D11*
D03*
X-2971330Y-105255D02*
G54D11*
D03*
X-2951330Y-105255D02*
G54D11*
D03*
X-2931330Y-105255D02*
G54D11*
D03*
X-2911330Y-105255D02*
G54D11*
D03*
X-2891330Y-105255D02*
G54D11*
D03*
X-2871330Y-105255D02*
G54D11*
D03*
X-2851330Y-105255D02*
G54D11*
D03*
X-2831330Y-105255D02*
G54D11*
D03*
X-2811330Y-105255D02*
G54D11*
D03*
X-2791330Y-105255D02*
G54D11*
D03*
X-2771330Y-105255D02*
G54D11*
D03*
X-2751330Y-105255D02*
G54D11*
D03*
X-3091330Y-196505D02*
G54D11*
D03*
X-3071330Y-196505D02*
G54D11*
D03*
X-3051330Y-196505D02*
G54D11*
D03*
X-3031330Y-196505D02*
G54D11*
D03*
X-3011330Y-196505D02*
G54D11*
D03*
X-2991330Y-196505D02*
G54D11*
D03*
X-2971330Y-196505D02*
G54D11*
D03*
X-2951330Y-196505D02*
G54D11*
D03*
X-2931330Y-196505D02*
G54D11*
D03*
X-2911330Y-196505D02*
G54D11*
D03*
X-2891330Y-196505D02*
G54D11*
D03*
X-2871330Y-196505D02*
G54D11*
D03*
X-2851330Y-196505D02*
G54D11*
D03*
X-2831330Y-196505D02*
G54D11*
D03*
X-2811330Y-196505D02*
G54D11*
D03*
X-2791330Y-196505D02*
G54D11*
D03*
X-2771330Y-196505D02*
G54D11*
D03*
X-2751330Y-196505D02*
G54D11*
D03*
X-3090080Y-210255D02*
G54D11*
D03*
X-3070080Y-210255D02*
G54D11*
D03*
X-3050080Y-210255D02*
G54D11*
D03*
X-3030080Y-210255D02*
G54D11*
D03*
X-3010080Y-210255D02*
G54D11*
D03*
X-2990080Y-210255D02*
G54D11*
D03*
X-2970080Y-210255D02*
G54D11*
D03*
X-2950080Y-210255D02*
G54D11*
D03*
X-2930080Y-210255D02*
G54D11*
D03*
X-2910080Y-210255D02*
G54D11*
D03*
X-2890080Y-210255D02*
G54D11*
D03*
X-2870080Y-210255D02*
G54D11*
D03*
X-2850080Y-210255D02*
G54D11*
D03*
X-2830080Y-210255D02*
G54D11*
D03*
X-2810080Y-210255D02*
G54D11*
D03*
X-2790080Y-210255D02*
G54D11*
D03*
X-2770080Y-210255D02*
G54D11*
D03*
X-2750080Y-210255D02*
G54D11*
D03*
X-3090080Y-224005D02*
G54D11*
D03*
X-3070080Y-224005D02*
G54D11*
D03*
X-3050080Y-224005D02*
G54D11*
D03*
X-3030080Y-224005D02*
G54D11*
D03*
X-3010080Y-224005D02*
G54D11*
D03*
X-2990080Y-224005D02*
G54D11*
D03*
X-2970080Y-224005D02*
G54D11*
D03*
X-2950080Y-224005D02*
G54D11*
D03*
X-2930080Y-224005D02*
G54D11*
D03*
X-2910080Y-224005D02*
G54D11*
D03*
X-2890080Y-224005D02*
G54D11*
D03*
X-2870080Y-224005D02*
G54D11*
D03*
X-2850080Y-224005D02*
G54D11*
D03*
X-2830080Y-224005D02*
G54D11*
D03*
X-2810080Y-224005D02*
G54D11*
D03*
X-2790080Y-224005D02*
G54D11*
D03*
X-2770080Y-224005D02*
G54D11*
D03*
X-2750080Y-224005D02*
G54D11*
D03*
X-3090080Y-237755D02*
G54D11*
D03*
X-3070080Y-237755D02*
G54D11*
D03*
X-3050080Y-237755D02*
G54D11*
D03*
X-3030080Y-237755D02*
G54D11*
D03*
X-3010080Y-237755D02*
G54D11*
D03*
X-2990080Y-237755D02*
G54D11*
D03*
X-2970080Y-237755D02*
G54D11*
D03*
X-2950080Y-237755D02*
G54D11*
D03*
X-2930080Y-237755D02*
G54D11*
D03*
X-2910080Y-237755D02*
G54D11*
D03*
X-2890080Y-237755D02*
G54D11*
D03*
X-2870080Y-237755D02*
G54D11*
D03*
X-2850080Y-237755D02*
G54D11*
D03*
X-2830080Y-237755D02*
G54D11*
D03*
X-2810080Y-237755D02*
G54D11*
D03*
X-2790080Y-237755D02*
G54D11*
D03*
X-2770080Y-237755D02*
G54D11*
D03*
X-2750080Y-237755D02*
G54D11*
D03*
X-3090080Y-251505D02*
G54D11*
D03*
X-3070080Y-251505D02*
G54D11*
D03*
X-3050080Y-251505D02*
G54D11*
D03*
X-3030080Y-251505D02*
G54D11*
D03*
X-3010080Y-251505D02*
G54D11*
D03*
X-2990080Y-251505D02*
G54D11*
D03*
X-2970080Y-251505D02*
G54D11*
D03*
X-2950080Y-251505D02*
G54D11*
D03*
X-2930080Y-251505D02*
G54D11*
D03*
X-2910080Y-251505D02*
G54D11*
D03*
X-2890080Y-251505D02*
G54D11*
D03*
X-2870080Y-251505D02*
G54D11*
D03*
X-2850080Y-251505D02*
G54D11*
D03*
X-2830080Y-251505D02*
G54D11*
D03*
X-2810080Y-251505D02*
G54D11*
D03*
X-2790080Y-251505D02*
G54D11*
D03*
X-2770080Y-251505D02*
G54D11*
D03*
X-2750080Y-251505D02*
G54D11*
D03*
X-3090080Y-266505D02*
G54D11*
D03*
X-3070080Y-266505D02*
G54D11*
D03*
X-3050080Y-266505D02*
G54D11*
D03*
X-3030080Y-266505D02*
G54D11*
D03*
X-3010080Y-266505D02*
G54D11*
D03*
X-2990080Y-266505D02*
G54D11*
D03*
X-2970080Y-266505D02*
G54D11*
D03*
X-2950080Y-266505D02*
G54D11*
D03*
X-2930080Y-266505D02*
G54D11*
D03*
X-2910080Y-266505D02*
G54D11*
D03*
X-2890080Y-266505D02*
G54D11*
D03*
X-2870080Y-266505D02*
G54D11*
D03*
X-2850080Y-266505D02*
G54D11*
D03*
X-2830080Y-266505D02*
G54D11*
D03*
X-2810080Y-266505D02*
G54D11*
D03*
X-2790080Y-266505D02*
G54D11*
D03*
X-2770080Y-266505D02*
G54D11*
D03*
X-2750080Y-266505D02*
G54D11*
D03*
X-3090080Y-280255D02*
G54D11*
D03*
X-3070080Y-280255D02*
G54D11*
D03*
X-3050080Y-280255D02*
G54D11*
D03*
X-3030080Y-280255D02*
G54D11*
D03*
X-3010080Y-280255D02*
G54D11*
D03*
X-2990080Y-280255D02*
G54D11*
D03*
X-2970080Y-280255D02*
G54D11*
D03*
X-2950080Y-280255D02*
G54D11*
D03*
X-2930080Y-280255D02*
G54D11*
D03*
X-2910080Y-280255D02*
G54D11*
D03*
X-2890080Y-280255D02*
G54D11*
D03*
X-2870080Y-280255D02*
G54D11*
D03*
X-2850080Y-280255D02*
G54D11*
D03*
X-2830080Y-280255D02*
G54D11*
D03*
X-2810080Y-280255D02*
G54D11*
D03*
X-2790080Y-280255D02*
G54D11*
D03*
X-2770080Y-280255D02*
G54D11*
D03*
X-2750080Y-280255D02*
G54D11*
D03*
X-3090080Y-294005D02*
G54D11*
D03*
X-3070080Y-294005D02*
G54D11*
D03*
X-3050080Y-294005D02*
G54D11*
D03*
X-3030080Y-294005D02*
G54D11*
D03*
X-3010080Y-294005D02*
G54D11*
D03*
X-2990080Y-294005D02*
G54D11*
D03*
X-2970080Y-294005D02*
G54D11*
D03*
X-2950080Y-294005D02*
G54D11*
D03*
X-2930080Y-294005D02*
G54D11*
D03*
X-2910080Y-294005D02*
G54D11*
D03*
X-2890080Y-294005D02*
G54D11*
D03*
X-2870080Y-294005D02*
G54D11*
D03*
X-2850080Y-294005D02*
G54D11*
D03*
X-2830080Y-294005D02*
G54D11*
D03*
X-2810080Y-294005D02*
G54D11*
D03*
X-2790080Y-294005D02*
G54D11*
D03*
X-2770080Y-294005D02*
G54D11*
D03*
X-2750080Y-294005D02*
G54D11*
D03*
X-3090080Y-309005D02*
G54D11*
D03*
X-3070080Y-309005D02*
G54D11*
D03*
X-3050080Y-309005D02*
G54D11*
D03*
X-3030080Y-309005D02*
G54D11*
D03*
X-3010080Y-309005D02*
G54D11*
D03*
X-2990080Y-309005D02*
G54D11*
D03*
X-2970080Y-309005D02*
G54D11*
D03*
X-2950080Y-309005D02*
G54D11*
D03*
X-2930080Y-309005D02*
G54D11*
D03*
X-2910080Y-309005D02*
G54D11*
D03*
X-2890080Y-309005D02*
G54D11*
D03*
X-2870080Y-309005D02*
G54D11*
D03*
X-2850080Y-309005D02*
G54D11*
D03*
X-2830080Y-309005D02*
G54D11*
D03*
X-2810080Y-309005D02*
G54D11*
D03*
X-2790080Y-309005D02*
G54D11*
D03*
X-2770080Y-309005D02*
G54D11*
D03*
X-2750080Y-309005D02*
G54D11*
D03*
X-3090080Y-399005D02*
G54D11*
D03*
X-3070080Y-399005D02*
G54D11*
D03*
X-3050080Y-399005D02*
G54D11*
D03*
X-3030080Y-399005D02*
G54D11*
D03*
X-3010080Y-399005D02*
G54D11*
D03*
X-2990080Y-399005D02*
G54D11*
D03*
X-2970080Y-399005D02*
G54D11*
D03*
X-2950080Y-399005D02*
G54D11*
D03*
X-2930080Y-399005D02*
G54D11*
D03*
X-2910080Y-399005D02*
G54D11*
D03*
X-2890080Y-399005D02*
G54D11*
D03*
X-2870080Y-399005D02*
G54D11*
D03*
X-2850080Y-399005D02*
G54D11*
D03*
X-2830080Y-399005D02*
G54D11*
D03*
X-2810080Y-399005D02*
G54D11*
D03*
X-2790080Y-399005D02*
G54D11*
D03*
X-2770080Y-399005D02*
G54D11*
D03*
X-2750080Y-399005D02*
G54D11*
D03*
X-3088830Y-412755D02*
G54D11*
D03*
X-3068830Y-412755D02*
G54D11*
D03*
X-3048830Y-412755D02*
G54D11*
D03*
X-3028830Y-412755D02*
G54D11*
D03*
X-3008830Y-412755D02*
G54D11*
D03*
X-2988830Y-412755D02*
G54D11*
D03*
X-2968830Y-412755D02*
G54D11*
D03*
X-2948830Y-412755D02*
G54D11*
D03*
X-2928830Y-412755D02*
G54D11*
D03*
X-2908830Y-412755D02*
G54D11*
D03*
X-2888830Y-412755D02*
G54D11*
D03*
X-2868830Y-412755D02*
G54D11*
D03*
X-2848830Y-412755D02*
G54D11*
D03*
X-2828830Y-412755D02*
G54D11*
D03*
X-2808830Y-412755D02*
G54D11*
D03*
X-2788830Y-412755D02*
G54D11*
D03*
X-2768830Y-412755D02*
G54D11*
D03*
X-2748830Y-412755D02*
G54D11*
D03*
X-3088830Y-426505D02*
G54D11*
D03*
X-3068830Y-426505D02*
G54D11*
D03*
X-3048830Y-426505D02*
G54D11*
D03*
X-3028830Y-426505D02*
G54D11*
D03*
X-3008830Y-426505D02*
G54D11*
D03*
X-2988830Y-426505D02*
G54D11*
D03*
X-2968830Y-426505D02*
G54D11*
D03*
X-2948830Y-426505D02*
G54D11*
D03*
X-2928830Y-426505D02*
G54D11*
D03*
X-2908830Y-426505D02*
G54D11*
D03*
X-2888830Y-426505D02*
G54D11*
D03*
X-2868830Y-426505D02*
G54D11*
D03*
X-2848830Y-426505D02*
G54D11*
D03*
X-2828830Y-426505D02*
G54D11*
D03*
X-2808830Y-426505D02*
G54D11*
D03*
X-2788830Y-426505D02*
G54D11*
D03*
X-2768830Y-426505D02*
G54D11*
D03*
X-2748830Y-426505D02*
G54D11*
D03*
X-3088830Y-440255D02*
G54D11*
D03*
X-3068830Y-440255D02*
G54D11*
D03*
X-3048830Y-440255D02*
G54D11*
D03*
X-3028830Y-440255D02*
G54D11*
D03*
X-3008830Y-440255D02*
G54D11*
D03*
X-2988830Y-440255D02*
G54D11*
D03*
X-2968830Y-440255D02*
G54D11*
D03*
X-2948830Y-440255D02*
G54D11*
D03*
X-2928830Y-440255D02*
G54D11*
D03*
X-2908830Y-440255D02*
G54D11*
D03*
X-2888830Y-440255D02*
G54D11*
D03*
X-2868830Y-440255D02*
G54D11*
D03*
X-2848830Y-440255D02*
G54D11*
D03*
X-2828830Y-440255D02*
G54D11*
D03*
X-2808830Y-440255D02*
G54D11*
D03*
X-2788830Y-440255D02*
G54D11*
D03*
X-2768830Y-440255D02*
G54D11*
D03*
X-2748830Y-440255D02*
G54D11*
D03*
X-3088830Y-454005D02*
G54D11*
D03*
X-3068830Y-454005D02*
G54D11*
D03*
X-3048830Y-454005D02*
G54D11*
D03*
X-3028830Y-454005D02*
G54D11*
D03*
X-3008830Y-454005D02*
G54D11*
D03*
X-2988830Y-454005D02*
G54D11*
D03*
X-2968830Y-454005D02*
G54D11*
D03*
X-2948830Y-454005D02*
G54D11*
D03*
X-2928830Y-454005D02*
G54D11*
D03*
X-2908830Y-454005D02*
G54D11*
D03*
X-2888830Y-454005D02*
G54D11*
D03*
X-2868830Y-454005D02*
G54D11*
D03*
X-2848830Y-454005D02*
G54D11*
D03*
X-2828830Y-454005D02*
G54D11*
D03*
X-2808830Y-454005D02*
G54D11*
D03*
X-2788830Y-454005D02*
G54D11*
D03*
X-2768830Y-454005D02*
G54D11*
D03*
X-2748830Y-454005D02*
G54D11*
D03*
X-3088830Y-469005D02*
G54D11*
D03*
X-3068830Y-469005D02*
G54D11*
D03*
X-3048830Y-469005D02*
G54D11*
D03*
X-3028830Y-469005D02*
G54D11*
D03*
X-3008830Y-469005D02*
G54D11*
D03*
X-2988830Y-469005D02*
G54D11*
D03*
X-2968830Y-469005D02*
G54D11*
D03*
X-2948830Y-469005D02*
G54D11*
D03*
X-2928830Y-469005D02*
G54D11*
D03*
X-2908830Y-469005D02*
G54D11*
D03*
X-2888830Y-469005D02*
G54D11*
D03*
X-2868830Y-469005D02*
G54D11*
D03*
X-2848830Y-469005D02*
G54D11*
D03*
X-2828830Y-469005D02*
G54D11*
D03*
X-2808830Y-469005D02*
G54D11*
D03*
X-2788830Y-469005D02*
G54D11*
D03*
X-2768830Y-469005D02*
G54D11*
D03*
X-2748830Y-469005D02*
G54D11*
D03*
X-3088830Y-482755D02*
G54D11*
D03*
X-3068830Y-482755D02*
G54D11*
D03*
X-3048830Y-482755D02*
G54D11*
D03*
X-3028830Y-482755D02*
G54D11*
D03*
X-3008830Y-482755D02*
G54D11*
D03*
X-2988830Y-482755D02*
G54D11*
D03*
X-2968830Y-482755D02*
G54D11*
D03*
X-2948830Y-482755D02*
G54D11*
D03*
X-2928830Y-482755D02*
G54D11*
D03*
X-2908830Y-482755D02*
G54D11*
D03*
X-2888830Y-482755D02*
G54D11*
D03*
X-2868830Y-482755D02*
G54D11*
D03*
X-2848830Y-482755D02*
G54D11*
D03*
X-2828830Y-482755D02*
G54D11*
D03*
X-2808830Y-482755D02*
G54D11*
D03*
X-2788830Y-482755D02*
G54D11*
D03*
X-2768830Y-482755D02*
G54D11*
D03*
X-2748830Y-482755D02*
G54D11*
D03*
X-3088830Y-496505D02*
G54D11*
D03*
X-3068830Y-496505D02*
G54D11*
D03*
X-3048830Y-496505D02*
G54D11*
D03*
X-3028830Y-496505D02*
G54D11*
D03*
X-3008830Y-496505D02*
G54D11*
D03*
X-2988830Y-496505D02*
G54D11*
D03*
X-2968830Y-496505D02*
G54D11*
D03*
X-2948830Y-496505D02*
G54D11*
D03*
X-2928830Y-496505D02*
G54D11*
D03*
X-2908830Y-496505D02*
G54D11*
D03*
X-2888830Y-496505D02*
G54D11*
D03*
X-2868830Y-496505D02*
G54D11*
D03*
X-2848830Y-496505D02*
G54D11*
D03*
X-2828830Y-496505D02*
G54D11*
D03*
X-2808830Y-496505D02*
G54D11*
D03*
X-2788830Y-496505D02*
G54D11*
D03*
X-2768830Y-496505D02*
G54D11*
D03*
X-2748830Y-496505D02*
G54D11*
D03*
X-3088830Y-511505D02*
G54D11*
D03*
X-3068830Y-511505D02*
G54D11*
D03*
X-3048830Y-511505D02*
G54D11*
D03*
X-3028830Y-511505D02*
G54D11*
D03*
X-3008830Y-511505D02*
G54D11*
D03*
X-2988830Y-511505D02*
G54D11*
D03*
X-2968830Y-511505D02*
G54D11*
D03*
X-2948830Y-511505D02*
G54D11*
D03*
X-2928830Y-511505D02*
G54D11*
D03*
X-2908830Y-511505D02*
G54D11*
D03*
X-2888830Y-511505D02*
G54D11*
D03*
X-2868830Y-511505D02*
G54D11*
D03*
X-2848830Y-511505D02*
G54D11*
D03*
X-2828830Y-511505D02*
G54D11*
D03*
X-2808830Y-511505D02*
G54D11*
D03*
X-2788830Y-511505D02*
G54D11*
D03*
X-2768830Y-511505D02*
G54D11*
D03*
X-2748830Y-511505D02*
G54D11*
D03*
X-3462830Y-31558D02*
G54D12*
D03*
X-3482830Y-31558D02*
G54D12*
D03*
X-3502830Y-31558D02*
G54D12*
D03*
X-3502830Y-11558D02*
G54D12*
D03*
X-3482830Y-11558D02*
G54D12*
D03*
X-3482830Y8442D02*
G54D12*
D03*
X-3502830Y8442D02*
G54D12*
D03*
X-3502830Y28442D02*
G54D12*
D03*
X-3482830Y28442D02*
G54D12*
D03*
X-3462830Y28442D02*
G54D12*
D03*
X-3462830Y8442D02*
G54D12*
D03*
X-3462830Y-11558D02*
G54D12*
D03*
X-3442830Y-11558D02*
G54D12*
D03*
X-3442830Y-31558D02*
G54D12*
D03*
X-3442830Y8442D02*
G54D12*
D03*
X-3442830Y28442D02*
G54D12*
D03*
X-3422830Y28442D02*
G54D12*
D03*
X-3422830Y8442D02*
G54D12*
D03*
X-3422830Y-11558D02*
G54D12*
D03*
X-3422830Y-31558D02*
G54D12*
D03*
X-3422830Y-51558D02*
G54D12*
D03*
X-3442830Y-51558D02*
G54D12*
D03*
X-3462830Y-51558D02*
G54D12*
D03*
X-3482830Y-51558D02*
G54D12*
D03*
X-3502830Y-51558D02*
G54D12*
D03*
X-3502830Y-71558D02*
G54D12*
D03*
X-3482830Y-71558D02*
G54D12*
D03*
X-3462830Y-71558D02*
G54D12*
D03*
X-3442830Y-71558D02*
G54D12*
D03*
X-3422830Y-71558D02*
G54D12*
D03*
X-3422830Y-91558D02*
G54D12*
D03*
X-3442830Y-91558D02*
G54D12*
D03*
X-3462830Y-91558D02*
G54D12*
D03*
X-3482830Y-91558D02*
G54D12*
D03*
X-3502830Y-91558D02*
G54D12*
D03*
X-3502830Y-111558D02*
G54D12*
D03*
X-3482830Y-111558D02*
G54D12*
D03*
X-3462830Y-111558D02*
G54D12*
D03*
X-3442830Y-111558D02*
G54D12*
D03*
X-3422830Y-111558D02*
G54D12*
D03*
X-3422830Y48442D02*
G54D12*
D03*
X-3442830Y48442D02*
G54D12*
D03*
X-3462830Y48442D02*
G54D12*
D03*
X-3482830Y48442D02*
G54D12*
D03*
X-3502830Y48442D02*
G54D12*
D03*
X-3502830Y-131558D02*
G54D12*
D03*
X-3482830Y-131558D02*
G54D12*
D03*
X-3462830Y-131558D02*
G54D12*
D03*
X-3442830Y-131558D02*
G54D12*
D03*
X-3422830Y-131558D02*
G54D12*
D03*
X-3422830Y-151558D02*
G54D12*
D03*
X-3442830Y-151558D02*
G54D12*
D03*
X-3462830Y-151558D02*
G54D12*
D03*
X-3482830Y-151558D02*
G54D12*
D03*
X-3502830Y-151558D02*
G54D12*
D03*
X-2183135Y174792D02*
G54D10*
D03*
X-2183135Y154792D02*
G54D10*
D03*
X-2183135Y134792D02*
G54D10*
D03*
X-2183135Y104792D02*
G54D10*
D03*
X-2153135Y104792D02*
G54D10*
D03*
X-2153135Y134792D02*
G54D10*
D03*
X-2153135Y154792D02*
G54D10*
D03*
X-2153135Y174792D02*
G54D10*
D03*
X-2123135Y174792D02*
G54D10*
D03*
X-2123135Y154792D02*
G54D10*
D03*
X-2123135Y134792D02*
G54D10*
D03*
X-2123135Y104792D02*
G54D10*
D03*
X-2063135Y104792D02*
G54D10*
D03*
X-2063135Y134792D02*
G54D10*
D03*
X-2063135Y154792D02*
G54D10*
D03*
X-2063135Y174792D02*
G54D10*
D03*
X-2033135Y174792D02*
G54D10*
D03*
X-2033135Y154792D02*
G54D10*
D03*
X-2033135Y134792D02*
G54D10*
D03*
X-2033135Y104792D02*
G54D10*
D03*
X-2003135Y104792D02*
G54D10*
D03*
X-2003135Y134792D02*
G54D10*
D03*
X-2003135Y154792D02*
G54D10*
D03*
X-2003135Y174792D02*
G54D10*
D03*
X-2180635Y-27708D02*
G54D10*
D03*
X-2180635Y-47708D02*
G54D10*
D03*
X-2180635Y-67708D02*
G54D10*
D03*
X-2180635Y-97708D02*
G54D10*
D03*
X-2150635Y-97708D02*
G54D10*
D03*
X-2150635Y-67708D02*
G54D10*
D03*
X-2150635Y-47708D02*
G54D10*
D03*
X-2150635Y-27708D02*
G54D10*
D03*
X-2120635Y-27708D02*
G54D10*
D03*
X-2120635Y-47708D02*
G54D10*
D03*
X-2120635Y-67708D02*
G54D10*
D03*
X-2120635Y-97708D02*
G54D10*
D03*
X-2060635Y-97708D02*
G54D10*
D03*
X-2060635Y-67708D02*
G54D10*
D03*
X-2060635Y-47708D02*
G54D10*
D03*
X-2060635Y-27708D02*
G54D10*
D03*
X-2030635Y-27708D02*
G54D10*
D03*
X-2030635Y-47708D02*
G54D10*
D03*
X-2030635Y-67708D02*
G54D10*
D03*
X-2030635Y-97708D02*
G54D10*
D03*
X-2000635Y-97708D02*
G54D10*
D03*
X-2000635Y-67708D02*
G54D10*
D03*
X-2000635Y-47708D02*
G54D10*
D03*
X-2000635Y-27708D02*
G54D10*
D03*
X-2180635Y-232708D02*
G54D10*
D03*
X-2180635Y-252708D02*
G54D10*
D03*
X-2180635Y-272708D02*
G54D10*
D03*
X-2180635Y-302708D02*
G54D10*
D03*
X-2150635Y-302708D02*
G54D10*
D03*
X-2150635Y-272708D02*
G54D10*
D03*
X-2150635Y-252708D02*
G54D10*
D03*
X-2150635Y-232708D02*
G54D10*
D03*
X-2120635Y-232708D02*
G54D10*
D03*
X-2120635Y-252708D02*
G54D10*
D03*
X-2120635Y-272708D02*
G54D10*
D03*
X-2120635Y-302708D02*
G54D10*
D03*
X-2060635Y-302708D02*
G54D10*
D03*
X-2060635Y-272708D02*
G54D10*
D03*
X-2060635Y-252708D02*
G54D10*
D03*
X-2060635Y-232708D02*
G54D10*
D03*
X-2030635Y-232708D02*
G54D10*
D03*
X-2030635Y-252708D02*
G54D10*
D03*
X-2030635Y-272708D02*
G54D10*
D03*
X-2030635Y-302708D02*
G54D10*
D03*
X-2000635Y-302708D02*
G54D10*
D03*
X-2000635Y-272708D02*
G54D10*
D03*
X-2000635Y-252708D02*
G54D10*
D03*
X-2000635Y-232708D02*
G54D10*
D03*
X-2180635Y-432708D02*
G54D10*
D03*
X-2180635Y-452708D02*
G54D10*
D03*
X-2180635Y-472708D02*
G54D10*
D03*
X-2180635Y-502708D02*
G54D10*
D03*
X-2150635Y-502708D02*
G54D10*
D03*
X-2150635Y-472708D02*
G54D10*
D03*
X-2150635Y-452708D02*
G54D10*
D03*
X-2150635Y-432708D02*
G54D10*
D03*
X-2120635Y-432708D02*
G54D10*
D03*
X-2120635Y-452708D02*
G54D10*
D03*
X-2120635Y-472708D02*
G54D10*
D03*
X-2120635Y-502708D02*
G54D10*
D03*
X-2060635Y-502708D02*
G54D10*
D03*
X-2060635Y-472708D02*
G54D10*
D03*
X-2060635Y-452708D02*
G54D10*
D03*
X-2060635Y-432708D02*
G54D10*
D03*
X-2030635Y-432708D02*
G54D10*
D03*
X-2030635Y-452708D02*
G54D10*
D03*
X-2030635Y-472708D02*
G54D10*
D03*
X-2030635Y-502708D02*
G54D10*
D03*
X-2000635Y-502708D02*
G54D10*
D03*
X-2000635Y-472708D02*
G54D10*
D03*
X-2000635Y-452708D02*
G54D10*
D03*
X-2000635Y-432708D02*
G54D10*
D03*
X-660635Y174792D02*
G54D10*
D03*
X-660635Y154792D02*
G54D10*
D03*
X-660635Y134792D02*
G54D10*
D03*
X-660635Y104792D02*
G54D10*
D03*
X-630635Y104792D02*
G54D10*
D03*
X-630635Y134792D02*
G54D10*
D03*
X-630635Y154792D02*
G54D10*
D03*
X-630635Y174792D02*
G54D10*
D03*
X-600635Y174792D02*
G54D10*
D03*
X-600635Y154792D02*
G54D10*
D03*
X-600635Y134792D02*
G54D10*
D03*
X-600635Y104792D02*
G54D10*
D03*
X-540635Y104792D02*
G54D10*
D03*
X-540635Y134792D02*
G54D10*
D03*
X-540635Y154792D02*
G54D10*
D03*
X-540635Y174792D02*
G54D10*
D03*
X-510635Y174792D02*
G54D10*
D03*
X-510635Y154792D02*
G54D10*
D03*
X-510635Y134792D02*
G54D10*
D03*
X-510635Y104792D02*
G54D10*
D03*
X-480635Y104792D02*
G54D10*
D03*
X-480635Y134792D02*
G54D10*
D03*
X-480635Y154792D02*
G54D10*
D03*
X-480635Y174792D02*
G54D10*
D03*
X-658135Y-27708D02*
G54D10*
D03*
X-658135Y-47708D02*
G54D10*
D03*
X-658135Y-67708D02*
G54D10*
D03*
X-658135Y-97708D02*
G54D10*
D03*
X-628135Y-97708D02*
G54D10*
D03*
X-628135Y-67708D02*
G54D10*
D03*
X-628135Y-47708D02*
G54D10*
D03*
X-628135Y-27708D02*
G54D10*
D03*
X-598135Y-27708D02*
G54D10*
D03*
X-598135Y-47708D02*
G54D10*
D03*
X-598135Y-67708D02*
G54D10*
D03*
X-598135Y-97708D02*
G54D10*
D03*
X-538135Y-97708D02*
G54D10*
D03*
X-538135Y-67708D02*
G54D10*
D03*
X-538135Y-47708D02*
G54D10*
D03*
X-538135Y-27708D02*
G54D10*
D03*
X-508135Y-27708D02*
G54D10*
D03*
X-508135Y-47708D02*
G54D10*
D03*
X-508135Y-67708D02*
G54D10*
D03*
X-508135Y-97708D02*
G54D10*
D03*
X-478135Y-97708D02*
G54D10*
D03*
X-478135Y-67708D02*
G54D10*
D03*
X-478135Y-47708D02*
G54D10*
D03*
X-478135Y-27708D02*
G54D10*
D03*
X-658135Y-230208D02*
G54D10*
D03*
X-658135Y-250208D02*
G54D10*
D03*
X-658135Y-270208D02*
G54D10*
D03*
X-658135Y-300208D02*
G54D10*
D03*
X-628135Y-300208D02*
G54D10*
D03*
X-628135Y-270208D02*
G54D10*
D03*
X-628135Y-250208D02*
G54D10*
D03*
X-628135Y-230208D02*
G54D10*
D03*
X-598135Y-230208D02*
G54D10*
D03*
X-598135Y-250208D02*
G54D10*
D03*
X-598135Y-270208D02*
G54D10*
D03*
X-598135Y-300208D02*
G54D10*
D03*
X-538135Y-300208D02*
G54D10*
D03*
X-538135Y-270208D02*
G54D10*
D03*
X-538135Y-250208D02*
G54D10*
D03*
X-538135Y-230208D02*
G54D10*
D03*
X-508135Y-230208D02*
G54D10*
D03*
X-508135Y-250208D02*
G54D10*
D03*
X-508135Y-270208D02*
G54D10*
D03*
X-508135Y-300208D02*
G54D10*
D03*
X-478135Y-300208D02*
G54D10*
D03*
X-478135Y-270208D02*
G54D10*
D03*
X-478135Y-250208D02*
G54D10*
D03*
X-478135Y-230208D02*
G54D10*
D03*
X-655635Y-435208D02*
G54D10*
D03*
X-655635Y-455208D02*
G54D10*
D03*
X-655635Y-475208D02*
G54D10*
D03*
X-655635Y-505208D02*
G54D10*
D03*
X-625635Y-505208D02*
G54D10*
D03*
X-625635Y-475208D02*
G54D10*
D03*
X-625635Y-455208D02*
G54D10*
D03*
X-625635Y-435208D02*
G54D10*
D03*
X-595635Y-435208D02*
G54D10*
D03*
X-595635Y-455208D02*
G54D10*
D03*
X-595635Y-475208D02*
G54D10*
D03*
X-595635Y-505208D02*
G54D10*
D03*
X-535635Y-505208D02*
G54D10*
D03*
X-535635Y-475208D02*
G54D10*
D03*
X-535635Y-455208D02*
G54D10*
D03*
X-535635Y-435208D02*
G54D10*
D03*
X-505635Y-435208D02*
G54D10*
D03*
X-505635Y-455208D02*
G54D10*
D03*
X-505635Y-475208D02*
G54D10*
D03*
X-505635Y-505208D02*
G54D10*
D03*
X-475635Y-505208D02*
G54D10*
D03*
X-475635Y-475208D02*
G54D10*
D03*
X-475635Y-455208D02*
G54D10*
D03*
X-475635Y-435208D02*
G54D10*
D03*
X0Y0D02*
G54D10*
D03*
X0Y-25000D02*
G54D10*
D03*
X25000Y-25000D02*
G54D10*
D03*
X25000Y0D02*
G54D10*
D03*
X25000Y-50000D02*
G54D10*
D03*
X0Y-50000D02*
G54D10*
D03*
X0Y-75000D02*
G54D10*
D03*
X25000Y-75000D02*
G54D10*
D03*
X65000Y0D02*
G54D10*
D03*
X65000Y-25000D02*
G54D10*
D03*
X90000Y-25000D02*
G54D10*
D03*
X90000Y0D02*
G54D10*
D03*
X90000Y-50000D02*
G54D10*
D03*
X65000Y-50000D02*
G54D10*
D03*
X65000Y-75000D02*
G54D10*
D03*
X90000Y-75000D02*
G54D10*
D03*
X122500Y0D02*
G54D10*
D03*
X122500Y-25000D02*
G54D10*
D03*
X147500Y-25000D02*
G54D10*
D03*
X147500Y0D02*
G54D10*
D03*
X147500Y-50000D02*
G54D10*
D03*
X122500Y-50000D02*
G54D10*
D03*
X122500Y-75000D02*
G54D10*
D03*
X147500Y-75000D02*
G54D10*
D03*
X172500Y0D02*
G54D10*
D03*
X172500Y-25000D02*
G54D10*
D03*
X197500Y-25000D02*
G54D10*
D03*
X197500Y0D02*
G54D10*
D03*
X197500Y-50000D02*
G54D10*
D03*
X172500Y-50000D02*
G54D10*
D03*
X172500Y-75000D02*
G54D10*
D03*
X197500Y-75000D02*
G54D10*
D03*
X225000Y0D02*
G54D10*
D03*
X225000Y-25000D02*
G54D10*
D03*
X250000Y-25000D02*
G54D10*
D03*
X250000Y0D02*
G54D10*
D03*
X250000Y-50000D02*
G54D10*
D03*
X225000Y-50000D02*
G54D10*
D03*
X225000Y-75000D02*
G54D10*
D03*
X250000Y-75000D02*
G54D10*
D03*
X280000Y0D02*
G54D10*
D03*
X280000Y-25000D02*
G54D10*
D03*
X305000Y-25000D02*
G54D10*
D03*
X305000Y0D02*
G54D10*
D03*
X305000Y-50000D02*
G54D10*
D03*
X280000Y-50000D02*
G54D10*
D03*
X280000Y-75000D02*
G54D10*
D03*
X305000Y-75000D02*
G54D10*
D03*
X345000Y0D02*
G54D10*
D03*
X345000Y-25000D02*
G54D10*
D03*
X370000Y-25000D02*
G54D10*
D03*
X370000Y0D02*
G54D10*
D03*
X370000Y-50000D02*
G54D10*
D03*
X345000Y-50000D02*
G54D10*
D03*
X345000Y-75000D02*
G54D10*
D03*
X370000Y-75000D02*
G54D10*
D03*
X0Y25000D02*
G54D13*
D03*
X-25000Y0D02*
G54D13*
D03*
X25000Y25000D02*
G54D13*
D03*
X65000Y25000D02*
G54D13*
D03*
X90000Y25000D02*
G54D13*
D03*
X-25000Y-25000D02*
G54D13*
D03*
X-25000Y-50000D02*
G54D13*
D03*
X-25000Y-75000D02*
G54D13*
D03*
X280000Y25000D02*
G54D13*
D03*
X305000Y25000D02*
G54D13*
D03*
X345000Y25000D02*
G54D13*
D03*
X370000Y25000D02*
G54D13*
D03*
X395000Y0D02*
G54D13*
D03*
X395000Y-25000D02*
G54D13*
D03*
X395000Y-50000D02*
G54D13*
D03*
X395000Y-75000D02*
G54D13*
D03*
X0Y-405000D02*
G54D10*
D03*
X0Y-430000D02*
G54D10*
D03*
X25000Y-430000D02*
G54D10*
D03*
X25000Y-405000D02*
G54D10*
D03*
X25000Y-455000D02*
G54D10*
D03*
X0Y-455000D02*
G54D10*
D03*
X0Y-480000D02*
G54D10*
D03*
X25000Y-480000D02*
G54D10*
D03*
X65000Y-405000D02*
G54D10*
D03*
X65000Y-430000D02*
G54D10*
D03*
X90000Y-430000D02*
G54D10*
D03*
X90000Y-405000D02*
G54D10*
D03*
X90000Y-455000D02*
G54D10*
D03*
X65000Y-455000D02*
G54D10*
D03*
X65000Y-480000D02*
G54D10*
D03*
X90000Y-480000D02*
G54D10*
D03*
X122500Y-405000D02*
G54D10*
D03*
X122500Y-430000D02*
G54D10*
D03*
X147500Y-430000D02*
G54D10*
D03*
X147500Y-405000D02*
G54D10*
D03*
X147500Y-455000D02*
G54D10*
D03*
X122500Y-455000D02*
G54D10*
D03*
X122500Y-480000D02*
G54D10*
D03*
X147500Y-480000D02*
G54D10*
D03*
X172500Y-405000D02*
G54D10*
D03*
X172500Y-430000D02*
G54D10*
D03*
X197500Y-430000D02*
G54D10*
D03*
X197500Y-405000D02*
G54D10*
D03*
X197500Y-455000D02*
G54D10*
D03*
X172500Y-455000D02*
G54D10*
D03*
X172500Y-480000D02*
G54D10*
D03*
X197500Y-480000D02*
G54D10*
D03*
X225000Y-405000D02*
G54D10*
D03*
X225000Y-430000D02*
G54D10*
D03*
X250000Y-430000D02*
G54D10*
D03*
X250000Y-405000D02*
G54D10*
D03*
X250000Y-455000D02*
G54D10*
D03*
X225000Y-455000D02*
G54D10*
D03*
X225000Y-480000D02*
G54D10*
D03*
X250000Y-480000D02*
G54D10*
D03*
X280000Y-405000D02*
G54D10*
D03*
X280000Y-430000D02*
G54D10*
D03*
X305000Y-430000D02*
G54D10*
D03*
X305000Y-405000D02*
G54D10*
D03*
X305000Y-455000D02*
G54D10*
D03*
X280000Y-455000D02*
G54D10*
D03*
X280000Y-480000D02*
G54D10*
D03*
X305000Y-480000D02*
G54D10*
D03*
X345000Y-405000D02*
G54D10*
D03*
X345000Y-430000D02*
G54D10*
D03*
X370000Y-430000D02*
G54D10*
D03*
X370000Y-405000D02*
G54D10*
D03*
X370000Y-455000D02*
G54D10*
D03*
X345000Y-455000D02*
G54D10*
D03*
X345000Y-480000D02*
G54D10*
D03*
X370000Y-480000D02*
G54D10*
D03*
X0Y-380000D02*
G54D13*
D03*
X-25000Y-405000D02*
G54D13*
D03*
X25000Y-380000D02*
G54D13*
D03*
X65000Y-380000D02*
G54D13*
D03*
X90000Y-380000D02*
G54D13*
D03*
X-25000Y-430000D02*
G54D13*
D03*
X-25000Y-455000D02*
G54D13*
D03*
X-25000Y-480000D02*
G54D13*
D03*
X280000Y-380000D02*
G54D13*
D03*
X305000Y-380000D02*
G54D13*
D03*
X345000Y-380000D02*
G54D13*
D03*
X370000Y-380000D02*
G54D13*
D03*
X395000Y-405000D02*
G54D13*
D03*
X395000Y-430000D02*
G54D13*
D03*
X395000Y-455000D02*
G54D13*
D03*
X395000Y-480000D02*
G54D13*
D03*
X-475000Y-375000D02*
G54D13*
D03*
X-610000Y-350000D02*
G54D13*
D03*
X-652500Y-350000D02*
G54D13*
D03*
X-652500Y-362500D02*
G54D13*
D03*
X-652500Y-375000D02*
G54D13*
D03*
X-652500Y-387500D02*
G54D13*
D03*
X-677500Y-337500D02*
G54D13*
D03*
X-707500Y-367500D02*
G54D13*
D03*
X-727500Y-367500D02*
G54D13*
D03*
X-747500Y-367500D02*
G54D13*
D03*
X-707500Y-327500D02*
G54D13*
D03*
X-730000Y-327500D02*
G54D13*
D03*
X-750000Y-327500D02*
G54D13*
D03*
X-797500Y-365000D02*
G54D13*
D03*
X-710000Y-407500D02*
G54D13*
D03*
X-730000Y-407500D02*
G54D13*
D03*
X-750000Y-407500D02*
G54D13*
D03*
X-767500Y-407500D02*
G54D13*
D03*
X-787500Y-407500D02*
G54D13*
D03*
X-807500Y-407500D02*
G54D13*
D03*
X-827500Y-407500D02*
G54D13*
D03*
X-847500Y-407500D02*
G54D13*
D03*
X-867500Y-407500D02*
G54D13*
D03*
X-887500Y-407500D02*
G54D13*
D03*
X-910000Y-407500D02*
G54D13*
D03*
X-1047500Y-407500D02*
G54D13*
D03*
X-1067500Y-407500D02*
G54D13*
D03*
X-1127500Y-407500D02*
G54D13*
D03*
X-1150000Y-407500D02*
G54D13*
D03*
X-1047500Y-377500D02*
G54D13*
D03*
X-1070000Y-377500D02*
G54D13*
D03*
X-1087500Y-377500D02*
G54D13*
D03*
X-1107500Y-377500D02*
G54D13*
D03*
X-1127500Y-377500D02*
G54D13*
D03*
X-1150000Y-377500D02*
G54D13*
D03*
X-1170000Y-377500D02*
G54D13*
D03*
X-1190000Y-377500D02*
G54D13*
D03*
X-1047500Y-325000D02*
G54D13*
D03*
X-1067500Y-325000D02*
G54D13*
D03*
X-1090000Y-325000D02*
G54D13*
D03*
X-1110000Y-325000D02*
G54D13*
D03*
X-1127500Y-325000D02*
G54D13*
D03*
X-1150000Y-325000D02*
G54D13*
D03*
X-1170000Y-325000D02*
G54D13*
D03*
X-1190000Y-325000D02*
G54D13*
D03*
X-1702500Y227500D02*
G54D13*
D03*
X-1690000Y230000D02*
G54D13*
D03*
X-1690000Y215000D02*
G54D13*
D03*
X-1702500Y217500D02*
G54D13*
D03*
X-1842500Y217500D02*
G54D13*
D03*
X-1842500Y227500D02*
G54D13*
D03*
X-1830000Y230000D02*
G54D13*
D03*
X-1830000Y215000D02*
G54D13*
D03*
X-1837500Y-452500D02*
G54D13*
D03*
X-1837500Y-472500D02*
G54D13*
D03*
X-1837500Y-485000D02*
G54D13*
D03*
X-1855000Y-485000D02*
G54D13*
D03*
X-1855000Y-472500D02*
G54D13*
D03*
X-1855000Y-452500D02*
G54D13*
D03*
X-2252500Y-407500D02*
G54D13*
D03*
X-2272500Y-407500D02*
G54D13*
D03*
X-2292500Y-407500D02*
G54D13*
D03*
X-2312500Y-407500D02*
G54D13*
D03*
X-2282500Y-365000D02*
G54D13*
D03*
X-2372500Y-380000D02*
G54D13*
D03*
X-2372500Y-407500D02*
G54D13*
D03*
X-2392500Y-407500D02*
G54D13*
D03*
X-2392500Y-380000D02*
G54D13*
D03*
X-2415000Y-380000D02*
G54D13*
D03*
X-2415000Y-407500D02*
G54D13*
D03*
X-2432500Y-380000D02*
G54D13*
D03*
X-2432500Y-407500D02*
G54D13*
D03*
X-2452500Y-407500D02*
G54D13*
D03*
X-2452500Y-380000D02*
G54D13*
D03*
X-2472500Y-380000D02*
G54D13*
D03*
X-2472500Y-407500D02*
G54D13*
D03*
X-2492500Y-407500D02*
G54D13*
D03*
X-2492500Y-380000D02*
G54D13*
D03*
X-2512500Y-380000D02*
G54D13*
D03*
X-2512500Y-407500D02*
G54D13*
D03*
X-2532500Y-407500D02*
G54D13*
D03*
X-2532500Y-380000D02*
G54D13*
D03*
X-2552500Y-380000D02*
G54D13*
D03*
X-2552500Y-407500D02*
G54D13*
D03*
X-2572500Y-407500D02*
G54D13*
D03*
X-2572500Y-380000D02*
G54D13*
D03*
X-2592500Y-380000D02*
G54D13*
D03*
X-2592500Y-407500D02*
G54D13*
D03*
X-2612500Y-407500D02*
G54D13*
D03*
X-2632500Y-407500D02*
G54D13*
D03*
X-2652500Y-407500D02*
G54D13*
D03*
X-2675000Y-407500D02*
G54D13*
D03*
G54D14*
X-809556Y-228363D02*
X-797500Y-242500D01*
X-797500Y-330000D01*
X-817500Y-350000D01*
X-817500Y-420000D01*
X-809556Y-428363D01*
G54D14*
X-829556Y-428363D02*
X-840000Y-417500D01*
X-840000Y-347500D01*
X-817500Y-325000D01*
X-817500Y-235000D01*
X-829556Y-228363D01*
G54D14*
X-849556Y-468363D02*
X-860000Y-457500D01*
X-860000Y-275000D01*
X-869556Y-268363D01*
G54D14*
X-849556Y-268363D02*
X-860000Y-257500D01*
X-872500Y-257500D01*
X-877500Y-262500D01*
X-877500Y-457500D01*
X-869556Y-468363D01*
G54D14*
X-889556Y-428363D02*
X-880000Y-420000D01*
X-880000Y-235000D01*
X-889556Y-228363D01*
G54D14*
X-909556Y-428363D02*
X-920000Y-420000D01*
X-920000Y-305000D01*
X-912056Y-295863D01*
G54D14*
X-912056Y-295863D02*
X-905000Y-295000D01*
X-900000Y-290000D01*
X-900000Y-235000D01*
X-909556Y-228363D01*
G54D14*
X-889556Y-468363D02*
X-897500Y-467500D01*
X-897500Y-307500D01*
X-889556Y-308363D01*
G54D14*
X-909556Y-308363D02*
X-902500Y-307500D01*
X-902500Y-467500D01*
X-909556Y-468363D01*
G54D14*
X-949556Y-468363D02*
X-937500Y-457500D01*
X-940000Y-275000D01*
X-929556Y-268363D01*
G54D14*
X-949556Y-268363D02*
X-957500Y-277500D01*
X-957500Y-472500D01*
X-952500Y-477500D01*
X-940000Y-477500D01*
X-929556Y-468363D01*
G54D14*
X-1009556Y-508363D02*
X-997500Y-497500D01*
X-997500Y-315000D01*
X-1009556Y-308363D01*
G54D14*
X-969556Y-428363D02*
X-977500Y-417500D01*
X-977500Y-237500D01*
X-989556Y-228363D01*
G54D14*
X-1029556Y-468363D02*
X-1020000Y-457500D01*
X-1020000Y-275000D01*
X-1009556Y-268363D01*
G54D14*
X-1009556Y-468363D02*
X-1020000Y-477500D01*
X-1032500Y-477500D01*
X-1040000Y-470000D01*
X-1040000Y-277500D01*
X-1029556Y-268363D01*
G54D14*
X-1049556Y-508363D02*
X-1057500Y-507500D01*
X-1057500Y-267500D01*
X-1049556Y-268363D01*
G54D14*
X-1069556Y-268363D02*
X-1062500Y-267500D01*
X-1062500Y-507500D01*
X-1069556Y-508363D01*
G54D14*
X-1089556Y-488363D02*
X-1097500Y-487500D01*
X-1097500Y-247500D01*
X-1089556Y-248363D01*
G54D14*
X-1109556Y-248363D02*
X-1102500Y-247500D01*
X-1102500Y-487500D01*
X-1109556Y-488363D01*
G54D14*
X-1129556Y-508363D02*
X-1137500Y-507500D01*
X-1137500Y-485000D01*
X-1135000Y-480000D01*
X-1120000Y-480000D01*
X-1117500Y-475000D01*
G54D14*
X-1117500Y-475000D02*
X-1117500Y-302500D01*
X-1122500Y-297500D01*
G54D14*
X-1122500Y-297500D02*
X-1135000Y-297500D01*
X-1140000Y-292500D01*
X-1140000Y-272500D01*
X-1129556Y-268363D01*
G54D14*
X-1149556Y-268363D02*
X-1142500Y-272500D01*
X-1142500Y-292500D01*
X-1135000Y-300000D01*
X-1122500Y-300000D01*
X-1120000Y-302500D01*
X-1120000Y-472500D01*
X-1125000Y-477500D01*
X-1137500Y-477500D01*
X-1140000Y-480000D01*
X-1140000Y-507500D01*
X-1149556Y-508363D01*
G54D14*
X-1129556Y-468363D02*
X-1137500Y-465000D01*
X-1137500Y-307500D01*
X-1129556Y-308363D01*
G54D14*
X-1149556Y-308363D02*
X-1140000Y-307500D01*
X-1140000Y-465000D01*
X-1149556Y-468363D01*
G54D14*
X-1169556Y-488363D02*
X-1177500Y-487500D01*
X-1177500Y-465000D01*
X-1172500Y-460000D01*
X-1162500Y-460000D01*
X-1157500Y-455000D01*
X-1157500Y-260000D01*
X-1169556Y-248363D01*
G54D14*
X-1189556Y-248363D02*
X-1180000Y-257500D01*
X-1165000Y-257500D01*
X-1160000Y-262500D01*
X-1160000Y-452500D01*
X-1165000Y-457500D01*
X-1175000Y-457500D01*
X-1180000Y-462500D01*
X-1180000Y-485000D01*
X-1189556Y-488363D01*
G54D14*
X-1169556Y-448363D02*
X-1177500Y-445000D01*
X-1177500Y-287500D01*
G54D14*
X-1177500Y-287500D02*
X-1169556Y-288363D01*
G54D14*
X-1189556Y-288363D02*
X-1180000Y-287500D01*
X-1180000Y-445000D01*
X-1189556Y-448363D01*
G54D14*
X-749556Y-508363D02*
X-772500Y-530000D01*
X-2250000Y-532500D01*
X-2274556Y-508363D01*
G54D14*
X-1265080Y-496505D02*
X-1255000Y-507500D01*
X-1255000Y-520000D01*
X-790000Y-520000D01*
X-780000Y-512500D01*
X-780000Y-317500D01*
X-769556Y-308363D01*
G54D14*
X-1225080Y-412755D02*
X-1222500Y-410000D01*
X-1217500Y-410000D01*
X-1210000Y-402500D01*
X-1210000Y-187500D01*
X-1217500Y-180000D01*
X-1252500Y-180000D01*
X-1257500Y-185000D01*
X-1257500Y-215000D01*
X-1245080Y-225255D01*
G54D14*
X-1245080Y-211505D02*
X-1255000Y-212500D01*
X-1255000Y-187500D01*
X-1250000Y-182500D01*
X-1220000Y-182500D01*
X-1212500Y-190000D01*
X-1212500Y-400000D01*
X-1217500Y-402500D01*
X-1226330Y-399005D01*
G54D14*
X-1245080Y-412755D02*
X-1240000Y-415000D01*
X-1235000Y-415000D01*
X-1235000Y-202500D01*
X-1226330Y-197755D01*
G54D14*
X-1225080Y-211505D02*
X-1232500Y-205000D01*
X-1232500Y-417500D01*
X-1245080Y-426505D01*
G54D14*
X-1265080Y-440255D02*
X-1255000Y-430000D01*
X-1255000Y-247500D01*
X-1265080Y-239005D01*
G54D14*
X-1285080Y-454005D02*
X-1275000Y-445000D01*
X-1275000Y-362500D01*
X-1272500Y-357500D01*
X-1272500Y-265000D01*
X-1285080Y-252755D01*
G54D14*
X-1285080Y-469005D02*
X-1292500Y-462500D01*
X-1292500Y-342500D01*
X-1277500Y-327500D01*
X-1277500Y-277500D01*
X-1285080Y-267755D01*
G54D14*
X-1285080Y-482755D02*
X-1297500Y-470000D01*
X-1297500Y-292500D01*
X-1285080Y-281505D01*
G54D14*
X-1285080Y-482755D02*
X-1295000Y-495000D01*
X-1295000Y-515000D01*
X-1307500Y-527500D01*
X-2200000Y-527500D01*
X-2227500Y-500000D01*
X-2280000Y-500000D01*
X-2287500Y-507500D01*
X-2294556Y-508363D01*
G54D14*
X-1305080Y-482755D02*
X-1315000Y-492500D01*
X-1315000Y-515000D01*
X-1320000Y-520000D01*
X-2190000Y-520000D01*
X-2232500Y-477500D01*
X-2280000Y-477500D01*
X-2285000Y-485000D01*
X-2287500Y-495000D01*
X-2292500Y-500000D01*
X-2305000Y-500000D01*
X-2307500Y-502500D01*
X-2307500Y-515000D01*
X-2312500Y-520000D01*
X-2525000Y-520000D01*
X-2534556Y-508363D01*
G54D14*
X-1465080Y-482755D02*
X-1470000Y-487500D01*
X-1475000Y-485000D01*
X-1475000Y-392500D01*
X-1462500Y-380000D01*
X-1375000Y-380000D01*
X-1312500Y-317500D01*
X-1312500Y-187500D01*
X-1295000Y-170000D01*
X-1175000Y-170000D01*
X-1117500Y-112500D01*
X-1117500Y-55000D01*
X-1125000Y-50000D01*
X-1132500Y-50000D01*
X-1137500Y-45000D01*
X-1137500Y-25000D01*
X-1129556Y-23363D01*
G54D14*
X-1149556Y-23363D02*
X-1142500Y-25000D01*
X-1142500Y-45000D01*
X-1135000Y-52500D01*
X-1127500Y-52500D01*
X-1122500Y-55000D01*
X-1122500Y-110000D01*
X-1175000Y-165000D01*
X-1295000Y-165000D01*
X-1317500Y-187500D01*
X-1317500Y-315000D01*
X-1377500Y-375000D01*
X-1462500Y-375000D01*
X-1480000Y-392500D01*
X-1480000Y-487500D01*
X-1472500Y-492500D01*
X-1465080Y-496505D01*
G54D14*
X-1485080Y-454005D02*
X-1492500Y-460000D01*
X-1495000Y-455000D01*
X-1495000Y-385000D01*
X-1475000Y-365000D01*
X-1385000Y-365000D01*
X-1335000Y-315000D01*
X-1335000Y-187500D01*
X-1302500Y-155000D01*
X-1202500Y-155000D01*
X-1157500Y-110000D01*
X-1157500Y-12500D01*
X-1057500Y87500D01*
G54D14*
X-1057500Y87500D02*
X-1057500Y180000D01*
X-1049556Y181637D01*
G54D14*
X-1069556Y181637D02*
X-1060000Y180000D01*
X-1060000Y87500D01*
X-1160000Y-12500D01*
X-1160000Y-107500D01*
X-1205000Y-152500D01*
X-1305000Y-152500D01*
X-1337500Y-185000D01*
X-1337500Y-312500D01*
X-1390000Y-362500D01*
X-1475000Y-362500D01*
X-1497500Y-385000D01*
X-1497500Y-460000D01*
X-1492500Y-465000D01*
X-1490000Y-465000D01*
X-1485080Y-469005D01*
G54D14*
X-2314556Y-488363D02*
X-2313363Y-488363D01*
X-2307500Y-482500D01*
X-2307500Y-462500D01*
X-2300000Y-455000D01*
X-2267500Y-455000D01*
X-2265000Y-452500D01*
X-2265000Y-410000D01*
X-2272500Y-407500D01*
G54D14*
X-2252500Y-407500D02*
X-2262500Y-410000D01*
X-2262500Y-452500D01*
X-2270000Y-460000D01*
X-2300000Y-460000D01*
X-2302500Y-462500D01*
X-2302500Y-482500D01*
X-2294556Y-488363D01*
G54D14*
X-2314556Y-448363D02*
X-2307500Y-442500D01*
X-2307500Y-410000D01*
X-2312500Y-407500D01*
G54D14*
X-2292500Y-407500D02*
X-2302500Y-410000D01*
X-2302500Y-442500D01*
X-2294556Y-448363D01*
G54D14*
X-789556Y121637D02*
X-782500Y117500D01*
X-782500Y-75000D01*
X-789556Y-83363D01*
X-780000Y-95000D01*
X-780000Y-282500D01*
X-789556Y-288363D01*
G54D14*
X-769556Y-288363D02*
X-777500Y-282500D01*
X-777500Y-95000D01*
X-769556Y-83363D01*
X-777500Y-75000D01*
X-777500Y117500D01*
X-769556Y121637D01*
G54D14*
X-3050080Y-251505D02*
X-3055995Y-251505D01*
X-3060000Y-247500D01*
X-3060000Y47500D01*
X-3037500Y70000D01*
X-3037500Y107500D01*
X-3042500Y112500D01*
X-3051075Y112500D01*
X-3051330Y112245D01*
G54D14*
X-3051330Y97245D02*
X-3051330Y98670D01*
X-3045000Y105000D01*
X-3042500Y105000D01*
X-3040000Y102500D01*
X-3040000Y72500D01*
X-3062500Y50000D01*
X-3062500Y-254085D01*
X-3050080Y-266505D01*
G54D14*
X-3030080Y-237755D02*
X-3032245Y-237755D01*
X-3040000Y-230000D01*
X-3040000Y45000D01*
X-3020000Y65000D01*
X-3020000Y114665D01*
X-3031330Y125995D01*
G54D14*
X-3031330Y112245D02*
X-3027245Y112245D01*
X-3022500Y107500D01*
X-3022500Y67500D01*
X-3042500Y47500D01*
X-3042500Y-239085D01*
X-3030080Y-251505D01*
G54D14*
X-3010080Y-210255D02*
X-3004745Y-210255D01*
X-2997500Y-217500D01*
X-2997500Y-391585D01*
X-2990080Y-399005D01*
G54D14*
X-2988830Y-412755D02*
X-2994745Y-412755D01*
X-3002500Y-405000D01*
X-3002500Y-231585D01*
X-3010080Y-224005D01*
G54D14*
X-2970080Y-224005D02*
X-2969005Y-224005D01*
X-2965000Y-220000D01*
X-2960000Y-220000D01*
X-2960000Y-401585D01*
X-2948830Y-412755D01*
G54D14*
X-2950080Y-399005D02*
X-2955995Y-399005D01*
X-2957500Y-397500D01*
X-2957500Y-215000D01*
X-2962500Y-210000D01*
X-2969825Y-210000D01*
X-2970080Y-210255D01*
G54D14*
X-2930080Y-266505D02*
X-2930080Y-264920D01*
X-2935000Y-260000D01*
X-2937500Y-260000D01*
X-2940000Y-262500D01*
X-2940000Y-312500D01*
X-2922500Y-330000D01*
G54D14*
X-2922500Y-330000D02*
X-2310000Y-330000D01*
X-2305000Y-325000D01*
X-2235000Y-325000D01*
X-2085000Y-340000D01*
X-1950000Y-327500D01*
X-1907500Y-325000D01*
X-1722500Y-142500D01*
X-1545000Y-142500D01*
G54D14*
X-1526330Y-106505D02*
X-1517500Y-110000D01*
X-1517500Y-115000D01*
X-1545000Y-142500D01*
G54D14*
X-2920000Y-335000D02*
X-2310000Y-335000D01*
X-2305000Y-330000D01*
X-2235000Y-330000D01*
X-2085000Y-345000D01*
X-1950000Y-332500D01*
X-1907500Y-330000D01*
X-1722500Y-147500D01*
X-1542500Y-147500D01*
G54D14*
X-2912500Y-322500D02*
X-2315000Y-322500D01*
X-2310000Y-317500D01*
X-2240000Y-317500D01*
X-2090000Y-332500D01*
X-1955000Y-320000D01*
X-1912500Y-317500D01*
X-1727501Y-135000D01*
X-1560001Y-135000D01*
G54D14*
X-2910000Y-317500D02*
X-2317500Y-317500D01*
X-2312500Y-312500D01*
X-2242500Y-312500D01*
X-2092500Y-327500D01*
X-1957500Y-315000D01*
X-1915000Y-312500D01*
X-1730001Y-130000D01*
X-1560001Y-130000D01*
G54D14*
X-2910000Y-317500D02*
X-2920000Y-307500D01*
X-2920000Y-304085D01*
X-2930080Y-294005D01*
G54D14*
X-2930080Y-309005D02*
X-2926505Y-309005D01*
X-2925000Y-307500D01*
X-2917500Y-315000D01*
X-2917500Y-317500D01*
X-2912500Y-322500D01*
G54D14*
X-2920000Y-335000D02*
X-2925000Y-335000D01*
X-2945000Y-315000D01*
X-2945000Y-260000D01*
X-2937500Y-252500D01*
X-2931075Y-252500D01*
X-2930080Y-251505D01*
G54D14*
X-1542500Y-147500D02*
X-1512500Y-117500D01*
X-1512500Y-105335D01*
X-1526330Y-91505D01*
G54D14*
X-1560000Y-135000D02*
X-1532500Y-107500D01*
X-1532500Y-70175D01*
X-1526330Y-64005D01*
G54D14*
X-1526330Y-49005D02*
X-1531505Y-49005D01*
X-1537500Y-55000D01*
X-1537500Y-107499D01*
X-1560001Y-130000D01*
M02*
