%FSLAX34Y34*%
%MOMM*%
%LNCOPPER_TOP*%
G71*
G01*
%ADD10C, 1.00*%
%ADD11C, 0.60*%
%ADD12C, 1.00*%
%ADD13C, 0.70*%
%ADD14C, 0.10*%
%ADD15C, 0.80*%
%LPD*%
X-1189556Y-428363D02*
G54D10*
D03*
X-1169556Y-428363D02*
G54D10*
D03*
X-1189556Y-448363D02*
G54D10*
D03*
X-1189556Y-468363D02*
G54D10*
D03*
X-1189556Y-488363D02*
G54D10*
D03*
X-1189556Y-508363D02*
G54D10*
D03*
X-1169556Y-508363D02*
G54D10*
D03*
X-1169556Y-488363D02*
G54D10*
D03*
X-1169556Y-468363D02*
G54D10*
D03*
X-1169556Y-448363D02*
G54D10*
D03*
X-1149556Y-428363D02*
G54D10*
D03*
X-1149556Y-448363D02*
G54D10*
D03*
X-1149556Y-468363D02*
G54D10*
D03*
X-1149556Y-488363D02*
G54D10*
D03*
X-1149556Y-508363D02*
G54D10*
D03*
X-1129556Y-508363D02*
G54D10*
D03*
X-1129556Y-488363D02*
G54D10*
D03*
X-1129556Y-468363D02*
G54D10*
D03*
X-1129556Y-448363D02*
G54D10*
D03*
X-1129556Y-428363D02*
G54D10*
D03*
X-1109556Y-428363D02*
G54D10*
D03*
X-1089556Y-428363D02*
G54D10*
D03*
X-1109556Y-448363D02*
G54D10*
D03*
X-1109556Y-468363D02*
G54D10*
D03*
X-1109556Y-488363D02*
G54D10*
D03*
X-1109556Y-508363D02*
G54D10*
D03*
X-1089556Y-508363D02*
G54D10*
D03*
X-1089556Y-488363D02*
G54D10*
D03*
X-1089556Y-468363D02*
G54D10*
D03*
X-1089556Y-448363D02*
G54D10*
D03*
X-1069556Y-428363D02*
G54D10*
D03*
X-1069556Y-448363D02*
G54D10*
D03*
X-1069556Y-468363D02*
G54D10*
D03*
X-1069556Y-488363D02*
G54D10*
D03*
X-1069556Y-508363D02*
G54D10*
D03*
X-1049556Y-508363D02*
G54D10*
D03*
X-1049556Y-488363D02*
G54D10*
D03*
X-1049556Y-468363D02*
G54D10*
D03*
X-1049556Y-448363D02*
G54D10*
D03*
X-1049556Y-428363D02*
G54D10*
D03*
X-1029556Y-428363D02*
G54D10*
D03*
X-1009556Y-428363D02*
G54D10*
D03*
X-1029556Y-448363D02*
G54D10*
D03*
X-1029556Y-468363D02*
G54D10*
D03*
X-1029556Y-488363D02*
G54D10*
D03*
X-1029556Y-508363D02*
G54D10*
D03*
X-1009556Y-508363D02*
G54D10*
D03*
X-1009556Y-488363D02*
G54D10*
D03*
X-1009556Y-468363D02*
G54D10*
D03*
X-1009556Y-448363D02*
G54D10*
D03*
X-989556Y-428363D02*
G54D10*
D03*
X-989556Y-448363D02*
G54D10*
D03*
X-989556Y-468363D02*
G54D10*
D03*
X-989556Y-488363D02*
G54D10*
D03*
X-989556Y-508363D02*
G54D10*
D03*
X-969556Y-508363D02*
G54D10*
D03*
X-969556Y-488363D02*
G54D10*
D03*
X-969556Y-468363D02*
G54D10*
D03*
X-969556Y-448363D02*
G54D10*
D03*
X-969556Y-428363D02*
G54D10*
D03*
X-949556Y-428363D02*
G54D10*
D03*
X-929556Y-428363D02*
G54D10*
D03*
X-949556Y-448363D02*
G54D10*
D03*
X-949556Y-468363D02*
G54D10*
D03*
X-949556Y-488363D02*
G54D10*
D03*
X-949556Y-508363D02*
G54D10*
D03*
X-929556Y-508363D02*
G54D10*
D03*
X-929556Y-488363D02*
G54D10*
D03*
X-929556Y-468363D02*
G54D10*
D03*
X-929556Y-448363D02*
G54D10*
D03*
X-909556Y-428363D02*
G54D10*
D03*
X-909556Y-448363D02*
G54D10*
D03*
X-909556Y-468363D02*
G54D10*
D03*
X-909556Y-488363D02*
G54D10*
D03*
X-909556Y-508363D02*
G54D10*
D03*
X-889556Y-508363D02*
G54D10*
D03*
X-889556Y-488363D02*
G54D10*
D03*
X-889556Y-468363D02*
G54D10*
D03*
X-889556Y-448363D02*
G54D10*
D03*
X-889556Y-428363D02*
G54D10*
D03*
X-869556Y-428363D02*
G54D10*
D03*
X-849556Y-428363D02*
G54D10*
D03*
X-869556Y-448363D02*
G54D10*
D03*
X-869556Y-468363D02*
G54D10*
D03*
X-869556Y-488363D02*
G54D10*
D03*
X-869556Y-508363D02*
G54D10*
D03*
X-849556Y-508363D02*
G54D10*
D03*
X-849556Y-488363D02*
G54D10*
D03*
X-849556Y-468363D02*
G54D10*
D03*
X-849556Y-448363D02*
G54D10*
D03*
X-829556Y-428363D02*
G54D10*
D03*
X-829556Y-448363D02*
G54D10*
D03*
X-829556Y-468363D02*
G54D10*
D03*
X-829556Y-488363D02*
G54D10*
D03*
X-829556Y-508363D02*
G54D10*
D03*
X-809556Y-508363D02*
G54D10*
D03*
X-809556Y-488363D02*
G54D10*
D03*
X-809556Y-468363D02*
G54D10*
D03*
X-809556Y-448363D02*
G54D10*
D03*
X-809556Y-428363D02*
G54D10*
D03*
X-789556Y-428363D02*
G54D10*
D03*
X-769556Y-428363D02*
G54D10*
D03*
X-789556Y-448363D02*
G54D10*
D03*
X-789556Y-468363D02*
G54D10*
D03*
X-789556Y-488363D02*
G54D10*
D03*
X-789556Y-508363D02*
G54D10*
D03*
X-769556Y-508363D02*
G54D10*
D03*
X-769556Y-488363D02*
G54D10*
D03*
X-769556Y-468363D02*
G54D10*
D03*
X-769556Y-448363D02*
G54D10*
D03*
X-749556Y-428363D02*
G54D10*
D03*
X-749556Y-448363D02*
G54D10*
D03*
X-749556Y-468363D02*
G54D10*
D03*
X-749556Y-488363D02*
G54D10*
D03*
X-749556Y-508363D02*
G54D10*
D03*
X-729556Y-508363D02*
G54D10*
D03*
X-729556Y-488363D02*
G54D10*
D03*
X-729556Y-468363D02*
G54D10*
D03*
X-729556Y-448363D02*
G54D10*
D03*
X-729556Y-428363D02*
G54D10*
D03*
X-709556Y-428363D02*
G54D10*
D03*
X-709556Y-448363D02*
G54D10*
D03*
X-709556Y-468363D02*
G54D10*
D03*
X-709556Y-488363D02*
G54D10*
D03*
X-709556Y-508363D02*
G54D10*
D03*
X-1189556Y-228363D02*
G54D10*
D03*
X-1169556Y-228363D02*
G54D10*
D03*
X-1189556Y-248363D02*
G54D10*
D03*
X-1189556Y-268363D02*
G54D10*
D03*
X-1189556Y-288363D02*
G54D10*
D03*
X-1189556Y-308363D02*
G54D10*
D03*
X-1169556Y-308363D02*
G54D10*
D03*
X-1169556Y-288363D02*
G54D10*
D03*
X-1169556Y-268363D02*
G54D10*
D03*
X-1169556Y-248363D02*
G54D10*
D03*
X-1149556Y-228363D02*
G54D10*
D03*
X-1149556Y-248363D02*
G54D10*
D03*
X-1149556Y-268363D02*
G54D10*
D03*
X-1149556Y-288363D02*
G54D10*
D03*
X-1149556Y-308363D02*
G54D10*
D03*
X-1129556Y-308363D02*
G54D10*
D03*
X-1129556Y-288363D02*
G54D10*
D03*
X-1129556Y-268363D02*
G54D10*
D03*
X-1129556Y-248363D02*
G54D10*
D03*
X-1129556Y-228363D02*
G54D10*
D03*
X-1109556Y-228363D02*
G54D10*
D03*
X-1089556Y-228363D02*
G54D10*
D03*
X-1109556Y-248363D02*
G54D10*
D03*
X-1109556Y-268363D02*
G54D10*
D03*
X-1109556Y-288363D02*
G54D10*
D03*
X-1109556Y-308363D02*
G54D10*
D03*
X-1089556Y-308363D02*
G54D10*
D03*
X-1089556Y-288363D02*
G54D10*
D03*
X-1089556Y-268363D02*
G54D10*
D03*
X-1089556Y-248363D02*
G54D10*
D03*
X-1069556Y-228363D02*
G54D10*
D03*
X-1069556Y-248363D02*
G54D10*
D03*
X-1069556Y-268363D02*
G54D10*
D03*
X-1069556Y-288363D02*
G54D10*
D03*
X-1069556Y-308363D02*
G54D10*
D03*
X-1049556Y-308363D02*
G54D10*
D03*
X-1049556Y-288363D02*
G54D10*
D03*
X-1049556Y-268363D02*
G54D10*
D03*
X-1049556Y-248363D02*
G54D10*
D03*
X-1049556Y-228363D02*
G54D10*
D03*
X-1029556Y-228363D02*
G54D10*
D03*
X-1009556Y-228363D02*
G54D10*
D03*
X-1029556Y-248363D02*
G54D10*
D03*
X-1029556Y-268363D02*
G54D10*
D03*
X-1029556Y-288363D02*
G54D10*
D03*
X-1029556Y-308363D02*
G54D10*
D03*
X-1009556Y-308363D02*
G54D10*
D03*
X-1009556Y-288363D02*
G54D10*
D03*
X-1009556Y-268363D02*
G54D10*
D03*
X-1009556Y-248363D02*
G54D10*
D03*
X-989556Y-228363D02*
G54D10*
D03*
X-989556Y-248363D02*
G54D10*
D03*
X-989556Y-268363D02*
G54D10*
D03*
X-989556Y-288363D02*
G54D10*
D03*
X-989556Y-308363D02*
G54D10*
D03*
X-969556Y-308363D02*
G54D10*
D03*
X-969556Y-288363D02*
G54D10*
D03*
X-969556Y-268363D02*
G54D10*
D03*
X-969556Y-248363D02*
G54D10*
D03*
X-969556Y-228363D02*
G54D10*
D03*
X-949556Y-228363D02*
G54D10*
D03*
X-929556Y-228363D02*
G54D10*
D03*
X-949556Y-248363D02*
G54D10*
D03*
X-949556Y-268363D02*
G54D10*
D03*
X-949556Y-288363D02*
G54D10*
D03*
X-949556Y-308363D02*
G54D10*
D03*
X-929556Y-308363D02*
G54D10*
D03*
X-929556Y-288363D02*
G54D10*
D03*
X-929556Y-268363D02*
G54D10*
D03*
X-929556Y-248363D02*
G54D10*
D03*
X-909556Y-228363D02*
G54D10*
D03*
X-909556Y-248363D02*
G54D10*
D03*
X-909556Y-268363D02*
G54D10*
D03*
X-909556Y-288363D02*
G54D10*
D03*
X-909556Y-308363D02*
G54D10*
D03*
X-889556Y-308363D02*
G54D10*
D03*
X-889556Y-288363D02*
G54D10*
D03*
X-889556Y-268363D02*
G54D10*
D03*
X-889556Y-248363D02*
G54D10*
D03*
X-889556Y-228363D02*
G54D10*
D03*
X-869556Y-228363D02*
G54D10*
D03*
X-849556Y-228363D02*
G54D10*
D03*
X-869556Y-248363D02*
G54D10*
D03*
X-869556Y-268363D02*
G54D10*
D03*
X-869556Y-288363D02*
G54D10*
D03*
X-869556Y-308363D02*
G54D10*
D03*
X-849556Y-308363D02*
G54D10*
D03*
X-849556Y-288363D02*
G54D10*
D03*
X-849556Y-268363D02*
G54D10*
D03*
X-849556Y-248363D02*
G54D10*
D03*
X-829556Y-228363D02*
G54D10*
D03*
X-829556Y-248363D02*
G54D10*
D03*
X-829556Y-268363D02*
G54D10*
D03*
X-829556Y-288363D02*
G54D10*
D03*
X-829556Y-308363D02*
G54D10*
D03*
X-809556Y-308363D02*
G54D10*
D03*
X-809556Y-288363D02*
G54D10*
D03*
X-809556Y-268363D02*
G54D10*
D03*
X-809556Y-248363D02*
G54D10*
D03*
X-809556Y-228363D02*
G54D10*
D03*
X-789556Y-228363D02*
G54D10*
D03*
X-769556Y-228363D02*
G54D10*
D03*
X-789556Y-248363D02*
G54D10*
D03*
X-789556Y-268363D02*
G54D10*
D03*
X-789556Y-288363D02*
G54D10*
D03*
X-789556Y-308363D02*
G54D10*
D03*
X-769556Y-308363D02*
G54D10*
D03*
X-769556Y-288363D02*
G54D10*
D03*
X-769556Y-268363D02*
G54D10*
D03*
X-769556Y-248363D02*
G54D10*
D03*
X-749556Y-228363D02*
G54D10*
D03*
X-749556Y-248363D02*
G54D10*
D03*
X-749556Y-268363D02*
G54D10*
D03*
X-749556Y-288363D02*
G54D10*
D03*
X-749556Y-308363D02*
G54D10*
D03*
X-729556Y-308363D02*
G54D10*
D03*
X-729556Y-288363D02*
G54D10*
D03*
X-729556Y-268363D02*
G54D10*
D03*
X-729556Y-248363D02*
G54D10*
D03*
X-729556Y-228363D02*
G54D10*
D03*
X-709556Y-228363D02*
G54D10*
D03*
X-709556Y-248363D02*
G54D10*
D03*
X-709556Y-268363D02*
G54D10*
D03*
X-709556Y-288363D02*
G54D10*
D03*
X-709556Y-308363D02*
G54D10*
D03*
X-1189556Y-23363D02*
G54D10*
D03*
X-1169556Y-23363D02*
G54D10*
D03*
X-1189556Y-43363D02*
G54D10*
D03*
X-1189556Y-63363D02*
G54D10*
D03*
X-1189556Y-83363D02*
G54D10*
D03*
X-1189556Y-103363D02*
G54D10*
D03*
X-1169556Y-103363D02*
G54D10*
D03*
X-1169556Y-83363D02*
G54D10*
D03*
X-1169556Y-63363D02*
G54D10*
D03*
X-1169556Y-43363D02*
G54D10*
D03*
X-1149556Y-23363D02*
G54D10*
D03*
X-1149556Y-43363D02*
G54D10*
D03*
X-1149556Y-63363D02*
G54D10*
D03*
X-1149556Y-83363D02*
G54D10*
D03*
X-1149556Y-103363D02*
G54D10*
D03*
X-1129556Y-103363D02*
G54D10*
D03*
X-1129556Y-83363D02*
G54D10*
D03*
X-1129556Y-63363D02*
G54D10*
D03*
X-1129556Y-43363D02*
G54D10*
D03*
X-1129556Y-23363D02*
G54D10*
D03*
X-1109556Y-23363D02*
G54D10*
D03*
X-1089556Y-23363D02*
G54D10*
D03*
X-1109556Y-43363D02*
G54D10*
D03*
X-1109556Y-63363D02*
G54D10*
D03*
X-1109556Y-83363D02*
G54D10*
D03*
X-1109556Y-103363D02*
G54D10*
D03*
X-1089556Y-103363D02*
G54D10*
D03*
X-1089556Y-83363D02*
G54D10*
D03*
X-1089556Y-63363D02*
G54D10*
D03*
X-1089556Y-43363D02*
G54D10*
D03*
X-1069556Y-23363D02*
G54D10*
D03*
X-1069556Y-43363D02*
G54D10*
D03*
X-1069556Y-63363D02*
G54D10*
D03*
X-1069556Y-83363D02*
G54D10*
D03*
X-1069556Y-103363D02*
G54D10*
D03*
X-1049556Y-103363D02*
G54D10*
D03*
X-1049556Y-83363D02*
G54D10*
D03*
X-1049556Y-63363D02*
G54D10*
D03*
X-1049556Y-43363D02*
G54D10*
D03*
X-1049556Y-23363D02*
G54D10*
D03*
X-1029556Y-23363D02*
G54D10*
D03*
X-1009556Y-23363D02*
G54D10*
D03*
X-1029556Y-43363D02*
G54D10*
D03*
X-1029556Y-63363D02*
G54D10*
D03*
X-1029556Y-83363D02*
G54D10*
D03*
X-1029556Y-103363D02*
G54D10*
D03*
X-1009556Y-103363D02*
G54D10*
D03*
X-1009556Y-83363D02*
G54D10*
D03*
X-1009556Y-63363D02*
G54D10*
D03*
X-1009556Y-43363D02*
G54D10*
D03*
X-989556Y-23363D02*
G54D10*
D03*
X-989556Y-43363D02*
G54D10*
D03*
X-989556Y-63363D02*
G54D10*
D03*
X-989556Y-83363D02*
G54D10*
D03*
X-989556Y-103363D02*
G54D10*
D03*
X-969556Y-103363D02*
G54D10*
D03*
X-969556Y-83363D02*
G54D10*
D03*
X-969556Y-63363D02*
G54D10*
D03*
X-969556Y-43363D02*
G54D10*
D03*
X-969556Y-23363D02*
G54D10*
D03*
X-949556Y-23363D02*
G54D10*
D03*
X-929556Y-23363D02*
G54D10*
D03*
X-949556Y-43363D02*
G54D10*
D03*
X-949556Y-63363D02*
G54D10*
D03*
X-949556Y-83363D02*
G54D10*
D03*
X-949556Y-103363D02*
G54D10*
D03*
X-929556Y-103363D02*
G54D10*
D03*
X-929556Y-83363D02*
G54D10*
D03*
X-929556Y-63363D02*
G54D10*
D03*
X-929556Y-43363D02*
G54D10*
D03*
X-909556Y-23363D02*
G54D10*
D03*
X-909556Y-43363D02*
G54D10*
D03*
X-909556Y-63363D02*
G54D10*
D03*
X-909556Y-83363D02*
G54D10*
D03*
X-909556Y-103363D02*
G54D10*
D03*
X-889556Y-103363D02*
G54D10*
D03*
X-889556Y-83363D02*
G54D10*
D03*
X-889556Y-63363D02*
G54D10*
D03*
X-889556Y-43363D02*
G54D10*
D03*
X-889556Y-23363D02*
G54D10*
D03*
X-869556Y-23363D02*
G54D10*
D03*
X-849556Y-23363D02*
G54D10*
D03*
X-869556Y-43363D02*
G54D10*
D03*
X-869556Y-63363D02*
G54D10*
D03*
X-869556Y-83363D02*
G54D10*
D03*
X-869556Y-103363D02*
G54D10*
D03*
X-849556Y-103363D02*
G54D10*
D03*
X-849556Y-83363D02*
G54D10*
D03*
X-849556Y-63363D02*
G54D10*
D03*
X-849556Y-43363D02*
G54D10*
D03*
X-829556Y-23363D02*
G54D10*
D03*
X-829556Y-43363D02*
G54D10*
D03*
X-829556Y-63363D02*
G54D10*
D03*
X-829556Y-83363D02*
G54D10*
D03*
X-829556Y-103363D02*
G54D10*
D03*
X-809556Y-103363D02*
G54D10*
D03*
X-809556Y-83363D02*
G54D10*
D03*
X-809556Y-63363D02*
G54D10*
D03*
X-809556Y-43363D02*
G54D10*
D03*
X-809556Y-23363D02*
G54D10*
D03*
X-789556Y-23363D02*
G54D10*
D03*
X-769556Y-23363D02*
G54D10*
D03*
X-789556Y-43363D02*
G54D10*
D03*
X-789556Y-63363D02*
G54D10*
D03*
X-789556Y-83363D02*
G54D10*
D03*
X-789556Y-103363D02*
G54D10*
D03*
X-769556Y-103363D02*
G54D10*
D03*
X-769556Y-83363D02*
G54D10*
D03*
X-769556Y-63363D02*
G54D10*
D03*
X-769556Y-43363D02*
G54D10*
D03*
X-749556Y-23363D02*
G54D10*
D03*
X-749556Y-43363D02*
G54D10*
D03*
X-749556Y-63363D02*
G54D10*
D03*
X-749556Y-83363D02*
G54D10*
D03*
X-749556Y-103363D02*
G54D10*
D03*
X-729556Y-103363D02*
G54D10*
D03*
X-729556Y-83363D02*
G54D10*
D03*
X-729556Y-63363D02*
G54D10*
D03*
X-729556Y-43363D02*
G54D10*
D03*
X-729556Y-23363D02*
G54D10*
D03*
X-709556Y-23363D02*
G54D10*
D03*
X-709556Y-43363D02*
G54D10*
D03*
X-709556Y-63363D02*
G54D10*
D03*
X-709556Y-83363D02*
G54D10*
D03*
X-709556Y-103363D02*
G54D10*
D03*
X-1189556Y181637D02*
G54D10*
D03*
X-1169556Y181637D02*
G54D10*
D03*
X-1189556Y161637D02*
G54D10*
D03*
X-1189556Y141637D02*
G54D10*
D03*
X-1189556Y121637D02*
G54D10*
D03*
X-1189556Y101637D02*
G54D10*
D03*
X-1169556Y101637D02*
G54D10*
D03*
X-1169556Y121637D02*
G54D10*
D03*
X-1169556Y141637D02*
G54D10*
D03*
X-1169556Y161637D02*
G54D10*
D03*
X-1149556Y181637D02*
G54D10*
D03*
X-1149556Y161637D02*
G54D10*
D03*
X-1149556Y141637D02*
G54D10*
D03*
X-1149556Y121637D02*
G54D10*
D03*
X-1149556Y101637D02*
G54D10*
D03*
X-1129556Y101637D02*
G54D10*
D03*
X-1129556Y121637D02*
G54D10*
D03*
X-1129556Y141637D02*
G54D10*
D03*
X-1129556Y161637D02*
G54D10*
D03*
X-1129556Y181637D02*
G54D10*
D03*
X-1109556Y181637D02*
G54D10*
D03*
X-1089556Y181637D02*
G54D10*
D03*
X-1109556Y161637D02*
G54D10*
D03*
X-1109556Y141637D02*
G54D10*
D03*
X-1109556Y121637D02*
G54D10*
D03*
X-1109556Y101637D02*
G54D10*
D03*
X-1089556Y101637D02*
G54D10*
D03*
X-1089556Y121637D02*
G54D10*
D03*
X-1089556Y141637D02*
G54D10*
D03*
X-1089556Y161637D02*
G54D10*
D03*
X-1069556Y181637D02*
G54D10*
D03*
X-1069556Y161637D02*
G54D10*
D03*
X-1069556Y141637D02*
G54D10*
D03*
X-1069556Y121637D02*
G54D10*
D03*
X-1069556Y101637D02*
G54D10*
D03*
X-1049556Y101637D02*
G54D10*
D03*
X-1049556Y121637D02*
G54D10*
D03*
X-1049556Y141637D02*
G54D10*
D03*
X-1049556Y161637D02*
G54D10*
D03*
X-1049556Y181637D02*
G54D10*
D03*
X-1029556Y181637D02*
G54D10*
D03*
X-1009556Y181637D02*
G54D10*
D03*
X-1029556Y161637D02*
G54D10*
D03*
X-1029556Y141637D02*
G54D10*
D03*
X-1029556Y121637D02*
G54D10*
D03*
X-1029556Y101637D02*
G54D10*
D03*
X-1009556Y101637D02*
G54D10*
D03*
X-1009556Y121637D02*
G54D10*
D03*
X-1009556Y141637D02*
G54D10*
D03*
X-1009556Y161637D02*
G54D10*
D03*
X-989556Y181637D02*
G54D10*
D03*
X-989556Y161637D02*
G54D10*
D03*
X-989556Y141637D02*
G54D10*
D03*
X-989556Y121637D02*
G54D10*
D03*
X-989556Y101637D02*
G54D10*
D03*
X-969556Y101637D02*
G54D10*
D03*
X-969556Y121637D02*
G54D10*
D03*
X-969556Y141637D02*
G54D10*
D03*
X-969556Y161637D02*
G54D10*
D03*
X-969556Y181637D02*
G54D10*
D03*
X-949556Y181637D02*
G54D10*
D03*
X-929556Y181637D02*
G54D10*
D03*
X-949556Y161637D02*
G54D10*
D03*
X-949556Y141637D02*
G54D10*
D03*
X-949556Y121637D02*
G54D10*
D03*
X-949556Y101637D02*
G54D10*
D03*
X-929556Y101637D02*
G54D10*
D03*
X-929556Y121637D02*
G54D10*
D03*
X-929556Y141637D02*
G54D10*
D03*
X-929556Y161637D02*
G54D10*
D03*
X-909556Y181637D02*
G54D10*
D03*
X-909556Y161637D02*
G54D10*
D03*
X-909556Y141637D02*
G54D10*
D03*
X-909556Y121637D02*
G54D10*
D03*
X-909556Y101637D02*
G54D10*
D03*
X-889556Y101637D02*
G54D10*
D03*
X-889556Y121637D02*
G54D10*
D03*
X-889556Y141637D02*
G54D10*
D03*
X-889556Y161637D02*
G54D10*
D03*
X-889556Y181637D02*
G54D10*
D03*
X-869556Y181637D02*
G54D10*
D03*
X-849556Y181637D02*
G54D10*
D03*
X-869556Y161637D02*
G54D10*
D03*
X-869556Y141637D02*
G54D10*
D03*
X-869556Y121637D02*
G54D10*
D03*
X-869556Y101637D02*
G54D10*
D03*
X-849556Y101637D02*
G54D10*
D03*
X-849556Y121637D02*
G54D10*
D03*
X-849556Y141637D02*
G54D10*
D03*
X-849556Y161637D02*
G54D10*
D03*
X-829556Y181637D02*
G54D10*
D03*
X-829556Y161637D02*
G54D10*
D03*
X-829556Y141637D02*
G54D10*
D03*
X-829556Y121637D02*
G54D10*
D03*
X-829556Y101637D02*
G54D10*
D03*
X-809556Y101637D02*
G54D10*
D03*
X-809556Y121637D02*
G54D10*
D03*
X-809556Y141637D02*
G54D10*
D03*
X-809556Y161637D02*
G54D10*
D03*
X-809556Y181637D02*
G54D10*
D03*
X-789556Y181637D02*
G54D10*
D03*
X-769556Y181637D02*
G54D10*
D03*
X-789556Y161637D02*
G54D10*
D03*
X-789556Y141637D02*
G54D10*
D03*
X-789556Y121637D02*
G54D10*
D03*
X-789556Y101637D02*
G54D10*
D03*
X-769556Y101637D02*
G54D10*
D03*
X-769556Y121637D02*
G54D10*
D03*
X-769556Y141637D02*
G54D10*
D03*
X-769556Y161637D02*
G54D10*
D03*
X-749556Y181637D02*
G54D10*
D03*
X-749556Y161637D02*
G54D10*
D03*
X-749556Y141637D02*
G54D10*
D03*
X-749556Y121637D02*
G54D10*
D03*
X-749556Y101637D02*
G54D10*
D03*
X-729556Y101637D02*
G54D10*
D03*
X-729556Y121637D02*
G54D10*
D03*
X-729556Y141637D02*
G54D10*
D03*
X-729556Y161637D02*
G54D10*
D03*
X-729556Y181637D02*
G54D10*
D03*
X-709556Y181637D02*
G54D10*
D03*
X-709556Y161637D02*
G54D10*
D03*
X-709556Y141637D02*
G54D10*
D03*
X-709556Y121637D02*
G54D10*
D03*
X-709556Y101637D02*
G54D10*
D03*
X-2714556Y181637D02*
G54D10*
D03*
X-2694556Y181637D02*
G54D10*
D03*
X-2714556Y161637D02*
G54D10*
D03*
X-2714556Y141637D02*
G54D10*
D03*
X-2714556Y121637D02*
G54D10*
D03*
X-2714556Y101637D02*
G54D10*
D03*
X-2694556Y101637D02*
G54D10*
D03*
X-2694556Y121637D02*
G54D10*
D03*
X-2694556Y141637D02*
G54D10*
D03*
X-2694556Y161637D02*
G54D10*
D03*
X-2674556Y181637D02*
G54D10*
D03*
X-2674556Y161637D02*
G54D10*
D03*
X-2674556Y141637D02*
G54D10*
D03*
X-2674556Y121637D02*
G54D10*
D03*
X-2674556Y101637D02*
G54D10*
D03*
X-2654556Y101637D02*
G54D10*
D03*
X-2654556Y121637D02*
G54D10*
D03*
X-2654556Y141637D02*
G54D10*
D03*
X-2654556Y161637D02*
G54D10*
D03*
X-2654556Y181637D02*
G54D10*
D03*
X-2634556Y181637D02*
G54D10*
D03*
X-2614556Y181637D02*
G54D10*
D03*
X-2634556Y161637D02*
G54D10*
D03*
X-2634556Y141637D02*
G54D10*
D03*
X-2634556Y121637D02*
G54D10*
D03*
X-2634556Y101637D02*
G54D10*
D03*
X-2614556Y101637D02*
G54D10*
D03*
X-2614556Y121637D02*
G54D10*
D03*
X-2614556Y141637D02*
G54D10*
D03*
X-2614556Y161637D02*
G54D10*
D03*
X-2594556Y181637D02*
G54D10*
D03*
X-2594556Y161637D02*
G54D10*
D03*
X-2594556Y141637D02*
G54D10*
D03*
X-2594556Y121637D02*
G54D10*
D03*
X-2594556Y101637D02*
G54D10*
D03*
X-2574556Y101637D02*
G54D10*
D03*
X-2574556Y121637D02*
G54D10*
D03*
X-2574556Y141637D02*
G54D10*
D03*
X-2574556Y161637D02*
G54D10*
D03*
X-2574556Y181637D02*
G54D10*
D03*
X-2554556Y181637D02*
G54D10*
D03*
X-2534556Y181637D02*
G54D10*
D03*
X-2554556Y161637D02*
G54D10*
D03*
X-2554556Y141637D02*
G54D10*
D03*
X-2554556Y121637D02*
G54D10*
D03*
X-2554556Y101637D02*
G54D10*
D03*
X-2534556Y101637D02*
G54D10*
D03*
X-2534556Y121637D02*
G54D10*
D03*
X-2534556Y141637D02*
G54D10*
D03*
X-2534556Y161637D02*
G54D10*
D03*
X-2514556Y181637D02*
G54D10*
D03*
X-2514556Y161637D02*
G54D10*
D03*
X-2514556Y141637D02*
G54D10*
D03*
X-2514556Y121637D02*
G54D10*
D03*
X-2514556Y101637D02*
G54D10*
D03*
X-2494556Y101637D02*
G54D10*
D03*
X-2494556Y121637D02*
G54D10*
D03*
X-2494556Y141637D02*
G54D10*
D03*
X-2494556Y161637D02*
G54D10*
D03*
X-2494556Y181637D02*
G54D10*
D03*
X-2474556Y181637D02*
G54D10*
D03*
X-2454556Y181637D02*
G54D10*
D03*
X-2474556Y161637D02*
G54D10*
D03*
X-2474556Y141637D02*
G54D10*
D03*
X-2474556Y121637D02*
G54D10*
D03*
X-2474556Y101637D02*
G54D10*
D03*
X-2454556Y101637D02*
G54D10*
D03*
X-2454556Y121637D02*
G54D10*
D03*
X-2454556Y141637D02*
G54D10*
D03*
X-2454556Y161637D02*
G54D10*
D03*
X-2434556Y181637D02*
G54D10*
D03*
X-2434556Y161637D02*
G54D10*
D03*
X-2434556Y141637D02*
G54D10*
D03*
X-2434556Y121637D02*
G54D10*
D03*
X-2434556Y101637D02*
G54D10*
D03*
X-2414556Y101637D02*
G54D10*
D03*
X-2414556Y121637D02*
G54D10*
D03*
X-2414556Y141637D02*
G54D10*
D03*
X-2414556Y161637D02*
G54D10*
D03*
X-2414556Y181637D02*
G54D10*
D03*
X-2394556Y181637D02*
G54D10*
D03*
X-2374556Y181637D02*
G54D10*
D03*
X-2394556Y161637D02*
G54D10*
D03*
X-2394556Y141637D02*
G54D10*
D03*
X-2394556Y121637D02*
G54D10*
D03*
X-2394556Y101637D02*
G54D10*
D03*
X-2374556Y101637D02*
G54D10*
D03*
X-2374556Y121637D02*
G54D10*
D03*
X-2374556Y141637D02*
G54D10*
D03*
X-2374556Y161637D02*
G54D10*
D03*
X-2354556Y181637D02*
G54D10*
D03*
X-2354556Y161637D02*
G54D10*
D03*
X-2354556Y141637D02*
G54D10*
D03*
X-2354556Y121637D02*
G54D10*
D03*
X-2354556Y101637D02*
G54D10*
D03*
X-2334556Y101637D02*
G54D10*
D03*
X-2334556Y121637D02*
G54D10*
D03*
X-2334556Y141637D02*
G54D10*
D03*
X-2334556Y161637D02*
G54D10*
D03*
X-2334556Y181637D02*
G54D10*
D03*
X-2314556Y181637D02*
G54D10*
D03*
X-2294556Y181637D02*
G54D10*
D03*
X-2314556Y161637D02*
G54D10*
D03*
X-2314556Y141637D02*
G54D10*
D03*
X-2314556Y121637D02*
G54D10*
D03*
X-2314556Y101637D02*
G54D10*
D03*
X-2294556Y101637D02*
G54D10*
D03*
X-2294556Y121637D02*
G54D10*
D03*
X-2294556Y141637D02*
G54D10*
D03*
X-2294556Y161637D02*
G54D10*
D03*
X-2274556Y181637D02*
G54D10*
D03*
X-2274556Y161637D02*
G54D10*
D03*
X-2274556Y141637D02*
G54D10*
D03*
X-2274556Y121637D02*
G54D10*
D03*
X-2274556Y101637D02*
G54D10*
D03*
X-2254556Y101637D02*
G54D10*
D03*
X-2254556Y121637D02*
G54D10*
D03*
X-2254556Y141637D02*
G54D10*
D03*
X-2254556Y161637D02*
G54D10*
D03*
X-2254556Y181637D02*
G54D10*
D03*
X-2234556Y181637D02*
G54D10*
D03*
X-2234556Y161637D02*
G54D10*
D03*
X-2234556Y141637D02*
G54D10*
D03*
X-2234556Y121637D02*
G54D10*
D03*
X-2234556Y101637D02*
G54D10*
D03*
X-2714556Y-23363D02*
G54D10*
D03*
X-2694556Y-23363D02*
G54D10*
D03*
X-2714556Y-43363D02*
G54D10*
D03*
X-2714556Y-63363D02*
G54D10*
D03*
X-2714556Y-83363D02*
G54D10*
D03*
X-2714556Y-103363D02*
G54D10*
D03*
X-2694556Y-103363D02*
G54D10*
D03*
X-2694556Y-83363D02*
G54D10*
D03*
X-2694556Y-63363D02*
G54D10*
D03*
X-2694556Y-43363D02*
G54D10*
D03*
X-2674556Y-23363D02*
G54D10*
D03*
X-2674556Y-43363D02*
G54D10*
D03*
X-2674556Y-63363D02*
G54D10*
D03*
X-2674556Y-83363D02*
G54D10*
D03*
X-2674556Y-103363D02*
G54D10*
D03*
X-2654556Y-103363D02*
G54D10*
D03*
X-2654556Y-83363D02*
G54D10*
D03*
X-2654556Y-63363D02*
G54D10*
D03*
X-2654556Y-43363D02*
G54D10*
D03*
X-2654556Y-23363D02*
G54D10*
D03*
X-2634556Y-23363D02*
G54D10*
D03*
X-2614556Y-23363D02*
G54D10*
D03*
X-2634556Y-43363D02*
G54D10*
D03*
X-2634556Y-63363D02*
G54D10*
D03*
X-2634556Y-83363D02*
G54D10*
D03*
X-2634556Y-103363D02*
G54D10*
D03*
X-2614556Y-103363D02*
G54D10*
D03*
X-2614556Y-83363D02*
G54D10*
D03*
X-2614556Y-63363D02*
G54D10*
D03*
X-2614556Y-43363D02*
G54D10*
D03*
X-2594556Y-23363D02*
G54D10*
D03*
X-2594556Y-43363D02*
G54D10*
D03*
X-2594556Y-63363D02*
G54D10*
D03*
X-2594556Y-83363D02*
G54D10*
D03*
X-2594556Y-103363D02*
G54D10*
D03*
X-2574556Y-103363D02*
G54D10*
D03*
X-2574556Y-83363D02*
G54D10*
D03*
X-2574556Y-63363D02*
G54D10*
D03*
X-2574556Y-43363D02*
G54D10*
D03*
X-2574556Y-23363D02*
G54D10*
D03*
X-2554556Y-23363D02*
G54D10*
D03*
X-2534556Y-23363D02*
G54D10*
D03*
X-2554556Y-43363D02*
G54D10*
D03*
X-2554556Y-63363D02*
G54D10*
D03*
X-2554556Y-83363D02*
G54D10*
D03*
X-2554556Y-103363D02*
G54D10*
D03*
X-2534556Y-103363D02*
G54D10*
D03*
X-2534556Y-83363D02*
G54D10*
D03*
X-2534556Y-63363D02*
G54D10*
D03*
X-2534556Y-43363D02*
G54D10*
D03*
X-2514556Y-23363D02*
G54D10*
D03*
X-2514556Y-43363D02*
G54D10*
D03*
X-2514556Y-63363D02*
G54D10*
D03*
X-2514556Y-83363D02*
G54D10*
D03*
X-2514556Y-103363D02*
G54D10*
D03*
X-2494556Y-103363D02*
G54D10*
D03*
X-2494556Y-83363D02*
G54D10*
D03*
X-2494556Y-63363D02*
G54D10*
D03*
X-2494556Y-43363D02*
G54D10*
D03*
X-2494556Y-23363D02*
G54D10*
D03*
X-2474556Y-23363D02*
G54D10*
D03*
X-2454556Y-23363D02*
G54D10*
D03*
X-2474556Y-43363D02*
G54D10*
D03*
X-2474556Y-63363D02*
G54D10*
D03*
X-2474556Y-83363D02*
G54D10*
D03*
X-2474556Y-103363D02*
G54D10*
D03*
X-2454556Y-103363D02*
G54D10*
D03*
X-2454556Y-83363D02*
G54D10*
D03*
X-2454556Y-63363D02*
G54D10*
D03*
X-2454556Y-43363D02*
G54D10*
D03*
X-2434556Y-23363D02*
G54D10*
D03*
X-2434556Y-43363D02*
G54D10*
D03*
X-2434556Y-63363D02*
G54D10*
D03*
X-2434556Y-83363D02*
G54D10*
D03*
X-2434556Y-103363D02*
G54D10*
D03*
X-2414556Y-103363D02*
G54D10*
D03*
X-2414556Y-83363D02*
G54D10*
D03*
X-2414556Y-63363D02*
G54D10*
D03*
X-2414556Y-43363D02*
G54D10*
D03*
X-2414556Y-23363D02*
G54D10*
D03*
X-2394556Y-23363D02*
G54D10*
D03*
X-2374556Y-23363D02*
G54D10*
D03*
X-2394556Y-43363D02*
G54D10*
D03*
X-2394556Y-63363D02*
G54D10*
D03*
X-2394556Y-83363D02*
G54D10*
D03*
X-2394556Y-103363D02*
G54D10*
D03*
X-2374556Y-103363D02*
G54D10*
D03*
X-2374556Y-83363D02*
G54D10*
D03*
X-2374556Y-63363D02*
G54D10*
D03*
X-2374556Y-43363D02*
G54D10*
D03*
X-2354556Y-23363D02*
G54D10*
D03*
X-2354556Y-43363D02*
G54D10*
D03*
X-2354556Y-63363D02*
G54D10*
D03*
X-2354556Y-83363D02*
G54D10*
D03*
X-2354556Y-103363D02*
G54D10*
D03*
X-2334556Y-103363D02*
G54D10*
D03*
X-2334556Y-83363D02*
G54D10*
D03*
X-2334556Y-63363D02*
G54D10*
D03*
X-2334556Y-43363D02*
G54D10*
D03*
X-2334556Y-23363D02*
G54D10*
D03*
X-2314556Y-23363D02*
G54D10*
D03*
X-2294556Y-23363D02*
G54D10*
D03*
X-2314556Y-43363D02*
G54D10*
D03*
X-2314556Y-63363D02*
G54D10*
D03*
X-2314556Y-83363D02*
G54D10*
D03*
X-2314556Y-103363D02*
G54D10*
D03*
X-2294556Y-103363D02*
G54D10*
D03*
X-2294556Y-83363D02*
G54D10*
D03*
X-2294556Y-63363D02*
G54D10*
D03*
X-2294556Y-43363D02*
G54D10*
D03*
X-2274556Y-23363D02*
G54D10*
D03*
X-2274556Y-43363D02*
G54D10*
D03*
X-2274556Y-63363D02*
G54D10*
D03*
X-2274556Y-83363D02*
G54D10*
D03*
X-2274556Y-103363D02*
G54D10*
D03*
X-2254556Y-103363D02*
G54D10*
D03*
X-2254556Y-83363D02*
G54D10*
D03*
X-2254556Y-63363D02*
G54D10*
D03*
X-2254556Y-43363D02*
G54D10*
D03*
X-2254556Y-23363D02*
G54D10*
D03*
X-2234556Y-23363D02*
G54D10*
D03*
X-2234556Y-43363D02*
G54D10*
D03*
X-2234556Y-63363D02*
G54D10*
D03*
X-2234556Y-83363D02*
G54D10*
D03*
X-2234556Y-103363D02*
G54D10*
D03*
X-2714556Y-223363D02*
G54D10*
D03*
X-2694556Y-223363D02*
G54D10*
D03*
X-2714556Y-243363D02*
G54D10*
D03*
X-2714556Y-263363D02*
G54D10*
D03*
X-2714556Y-283363D02*
G54D10*
D03*
X-2714556Y-303363D02*
G54D10*
D03*
X-2694556Y-303363D02*
G54D10*
D03*
X-2694556Y-283363D02*
G54D10*
D03*
X-2694556Y-263363D02*
G54D10*
D03*
X-2694556Y-243363D02*
G54D10*
D03*
X-2674556Y-223363D02*
G54D10*
D03*
X-2674556Y-243363D02*
G54D10*
D03*
X-2674556Y-263363D02*
G54D10*
D03*
X-2674556Y-283363D02*
G54D10*
D03*
X-2674556Y-303363D02*
G54D10*
D03*
X-2654556Y-303363D02*
G54D10*
D03*
X-2654556Y-283363D02*
G54D10*
D03*
X-2654556Y-263363D02*
G54D10*
D03*
X-2654556Y-243363D02*
G54D10*
D03*
X-2654556Y-223363D02*
G54D10*
D03*
X-2634556Y-223363D02*
G54D10*
D03*
X-2614556Y-223363D02*
G54D10*
D03*
X-2634556Y-243363D02*
G54D10*
D03*
X-2634556Y-263363D02*
G54D10*
D03*
X-2634556Y-283363D02*
G54D10*
D03*
X-2634556Y-303363D02*
G54D10*
D03*
X-2614556Y-303363D02*
G54D10*
D03*
X-2614556Y-283363D02*
G54D10*
D03*
X-2614556Y-263363D02*
G54D10*
D03*
X-2614556Y-243363D02*
G54D10*
D03*
X-2594556Y-223363D02*
G54D10*
D03*
X-2594556Y-243363D02*
G54D10*
D03*
X-2594556Y-263363D02*
G54D10*
D03*
X-2594556Y-283363D02*
G54D10*
D03*
X-2594556Y-303363D02*
G54D10*
D03*
X-2574556Y-303363D02*
G54D10*
D03*
X-2574556Y-283363D02*
G54D10*
D03*
X-2574556Y-263363D02*
G54D10*
D03*
X-2574556Y-243363D02*
G54D10*
D03*
X-2574556Y-223363D02*
G54D10*
D03*
X-2554556Y-223363D02*
G54D10*
D03*
X-2534556Y-223363D02*
G54D10*
D03*
X-2554556Y-243363D02*
G54D10*
D03*
X-2554556Y-263363D02*
G54D10*
D03*
X-2554556Y-283363D02*
G54D10*
D03*
X-2554556Y-303363D02*
G54D10*
D03*
X-2534556Y-303363D02*
G54D10*
D03*
X-2534556Y-283363D02*
G54D10*
D03*
X-2534556Y-263363D02*
G54D10*
D03*
X-2534556Y-243363D02*
G54D10*
D03*
X-2514556Y-223363D02*
G54D10*
D03*
X-2514556Y-243363D02*
G54D10*
D03*
X-2514556Y-263363D02*
G54D10*
D03*
X-2514556Y-283363D02*
G54D10*
D03*
X-2514556Y-303363D02*
G54D10*
D03*
X-2494556Y-303363D02*
G54D10*
D03*
X-2494556Y-283363D02*
G54D10*
D03*
X-2494556Y-263363D02*
G54D10*
D03*
X-2494556Y-243363D02*
G54D10*
D03*
X-2494556Y-223363D02*
G54D10*
D03*
X-2474556Y-223363D02*
G54D10*
D03*
X-2454556Y-223363D02*
G54D10*
D03*
X-2474556Y-243363D02*
G54D10*
D03*
X-2474556Y-263363D02*
G54D10*
D03*
X-2474556Y-283363D02*
G54D10*
D03*
X-2474556Y-303363D02*
G54D10*
D03*
X-2454556Y-303363D02*
G54D10*
D03*
X-2454556Y-283363D02*
G54D10*
D03*
X-2454556Y-263363D02*
G54D10*
D03*
X-2454556Y-243363D02*
G54D10*
D03*
X-2434556Y-223363D02*
G54D10*
D03*
X-2434556Y-243363D02*
G54D10*
D03*
X-2434556Y-263363D02*
G54D10*
D03*
X-2434556Y-283363D02*
G54D10*
D03*
X-2434556Y-303363D02*
G54D10*
D03*
X-2414556Y-303363D02*
G54D10*
D03*
X-2414556Y-283363D02*
G54D10*
D03*
X-2414556Y-263363D02*
G54D10*
D03*
X-2414556Y-243363D02*
G54D10*
D03*
X-2414556Y-223363D02*
G54D10*
D03*
X-2394556Y-223363D02*
G54D10*
D03*
X-2374556Y-223363D02*
G54D10*
D03*
X-2394556Y-243363D02*
G54D10*
D03*
X-2394556Y-263363D02*
G54D10*
D03*
X-2394556Y-283363D02*
G54D10*
D03*
X-2394556Y-303363D02*
G54D10*
D03*
X-2374556Y-303363D02*
G54D10*
D03*
X-2374556Y-283363D02*
G54D10*
D03*
X-2374556Y-263363D02*
G54D10*
D03*
X-2374556Y-243363D02*
G54D10*
D03*
X-2354556Y-223363D02*
G54D10*
D03*
X-2354556Y-243363D02*
G54D10*
D03*
X-2354556Y-263363D02*
G54D10*
D03*
X-2354556Y-283363D02*
G54D10*
D03*
X-2354556Y-303363D02*
G54D10*
D03*
X-2334556Y-303363D02*
G54D10*
D03*
X-2334556Y-283363D02*
G54D10*
D03*
X-2334556Y-263363D02*
G54D10*
D03*
X-2334556Y-243363D02*
G54D10*
D03*
X-2334556Y-223363D02*
G54D10*
D03*
X-2314556Y-223363D02*
G54D10*
D03*
X-2294556Y-223363D02*
G54D10*
D03*
X-2314556Y-243363D02*
G54D10*
D03*
X-2314556Y-263363D02*
G54D10*
D03*
X-2314556Y-283363D02*
G54D10*
D03*
X-2314556Y-303363D02*
G54D10*
D03*
X-2294556Y-303363D02*
G54D10*
D03*
X-2294556Y-283363D02*
G54D10*
D03*
X-2294556Y-263363D02*
G54D10*
D03*
X-2294556Y-243363D02*
G54D10*
D03*
X-2274556Y-223363D02*
G54D10*
D03*
X-2274556Y-243363D02*
G54D10*
D03*
X-2274556Y-263363D02*
G54D10*
D03*
X-2274556Y-283363D02*
G54D10*
D03*
X-2274556Y-303363D02*
G54D10*
D03*
X-2254556Y-303363D02*
G54D10*
D03*
X-2254556Y-283363D02*
G54D10*
D03*
X-2254556Y-263363D02*
G54D10*
D03*
X-2254556Y-243363D02*
G54D10*
D03*
X-2254556Y-223363D02*
G54D10*
D03*
X-2234556Y-223363D02*
G54D10*
D03*
X-2234556Y-243363D02*
G54D10*
D03*
X-2234556Y-263363D02*
G54D10*
D03*
X-2234556Y-283363D02*
G54D10*
D03*
X-2234556Y-303363D02*
G54D10*
D03*
X-2714556Y-428363D02*
G54D10*
D03*
X-2694556Y-428363D02*
G54D10*
D03*
X-2714556Y-448363D02*
G54D10*
D03*
X-2714556Y-468363D02*
G54D10*
D03*
X-2714556Y-488363D02*
G54D10*
D03*
X-2714556Y-508363D02*
G54D10*
D03*
X-2694556Y-508363D02*
G54D10*
D03*
X-2694556Y-488363D02*
G54D10*
D03*
X-2694556Y-468363D02*
G54D10*
D03*
X-2694556Y-448363D02*
G54D10*
D03*
X-2674556Y-428363D02*
G54D10*
D03*
X-2674556Y-448363D02*
G54D10*
D03*
X-2674556Y-468363D02*
G54D10*
D03*
X-2674556Y-488363D02*
G54D10*
D03*
X-2674556Y-508363D02*
G54D10*
D03*
X-2654556Y-508363D02*
G54D10*
D03*
X-2654556Y-488363D02*
G54D10*
D03*
X-2654556Y-468363D02*
G54D10*
D03*
X-2654556Y-448363D02*
G54D10*
D03*
X-2654556Y-428363D02*
G54D10*
D03*
X-2634556Y-428363D02*
G54D10*
D03*
X-2614556Y-428363D02*
G54D10*
D03*
X-2634556Y-448363D02*
G54D10*
D03*
X-2634556Y-468363D02*
G54D10*
D03*
X-2634556Y-488363D02*
G54D10*
D03*
X-2634556Y-508363D02*
G54D10*
D03*
X-2614556Y-508363D02*
G54D10*
D03*
X-2614556Y-488363D02*
G54D10*
D03*
X-2614556Y-468363D02*
G54D10*
D03*
X-2614556Y-448363D02*
G54D10*
D03*
X-2594556Y-428363D02*
G54D10*
D03*
X-2594556Y-448363D02*
G54D10*
D03*
X-2594556Y-468363D02*
G54D10*
D03*
X-2594556Y-488363D02*
G54D10*
D03*
X-2594556Y-508363D02*
G54D10*
D03*
X-2574556Y-508363D02*
G54D10*
D03*
X-2574556Y-488363D02*
G54D10*
D03*
X-2574556Y-468363D02*
G54D10*
D03*
X-2574556Y-448363D02*
G54D10*
D03*
X-2574556Y-428363D02*
G54D10*
D03*
X-2554556Y-428363D02*
G54D10*
D03*
X-2534556Y-428363D02*
G54D10*
D03*
X-2554556Y-448363D02*
G54D10*
D03*
X-2554556Y-468363D02*
G54D10*
D03*
X-2554556Y-488363D02*
G54D10*
D03*
X-2554556Y-508363D02*
G54D10*
D03*
X-2534556Y-508363D02*
G54D10*
D03*
X-2534556Y-488363D02*
G54D10*
D03*
X-2534556Y-468363D02*
G54D10*
D03*
X-2534556Y-448363D02*
G54D10*
D03*
X-2514556Y-428363D02*
G54D10*
D03*
X-2514556Y-448363D02*
G54D10*
D03*
X-2514556Y-468363D02*
G54D10*
D03*
X-2514556Y-488363D02*
G54D10*
D03*
X-2514556Y-508363D02*
G54D10*
D03*
X-2494556Y-508363D02*
G54D10*
D03*
X-2494556Y-488363D02*
G54D10*
D03*
X-2494556Y-468363D02*
G54D10*
D03*
X-2494556Y-448363D02*
G54D10*
D03*
X-2494556Y-428363D02*
G54D10*
D03*
X-2474556Y-428363D02*
G54D10*
D03*
X-2454556Y-428363D02*
G54D10*
D03*
X-2474556Y-448363D02*
G54D10*
D03*
X-2474556Y-468363D02*
G54D10*
D03*
X-2474556Y-488363D02*
G54D10*
D03*
X-2474556Y-508363D02*
G54D10*
D03*
X-2454556Y-508363D02*
G54D10*
D03*
X-2454556Y-488363D02*
G54D10*
D03*
X-2454556Y-468363D02*
G54D10*
D03*
X-2454556Y-448363D02*
G54D10*
D03*
X-2434556Y-428363D02*
G54D10*
D03*
X-2434556Y-448363D02*
G54D10*
D03*
X-2434556Y-468363D02*
G54D10*
D03*
X-2434556Y-488363D02*
G54D10*
D03*
X-2434556Y-508363D02*
G54D10*
D03*
X-2414556Y-508363D02*
G54D10*
D03*
X-2414556Y-488363D02*
G54D10*
D03*
X-2414556Y-468363D02*
G54D10*
D03*
X-2414556Y-448363D02*
G54D10*
D03*
X-2414556Y-428363D02*
G54D10*
D03*
X-2394556Y-428363D02*
G54D10*
D03*
X-2374556Y-428363D02*
G54D10*
D03*
X-2394556Y-448363D02*
G54D10*
D03*
X-2394556Y-468363D02*
G54D10*
D03*
X-2394556Y-488363D02*
G54D10*
D03*
X-2394556Y-508363D02*
G54D10*
D03*
X-2374556Y-508363D02*
G54D10*
D03*
X-2374556Y-488363D02*
G54D10*
D03*
X-2374556Y-468363D02*
G54D10*
D03*
X-2374556Y-448363D02*
G54D10*
D03*
X-2354556Y-428363D02*
G54D10*
D03*
X-2354556Y-448363D02*
G54D10*
D03*
X-2354556Y-468363D02*
G54D10*
D03*
X-2354556Y-488363D02*
G54D10*
D03*
X-2354556Y-508363D02*
G54D10*
D03*
X-2334556Y-508363D02*
G54D10*
D03*
X-2334556Y-488363D02*
G54D10*
D03*
X-2334556Y-468363D02*
G54D10*
D03*
X-2334556Y-448363D02*
G54D10*
D03*
X-2334556Y-428363D02*
G54D10*
D03*
X-2314556Y-428363D02*
G54D10*
D03*
X-2294556Y-428363D02*
G54D10*
D03*
X-2314556Y-448363D02*
G54D10*
D03*
X-2314556Y-468363D02*
G54D10*
D03*
X-2314556Y-488363D02*
G54D10*
D03*
X-2314556Y-508363D02*
G54D10*
D03*
X-2294556Y-508363D02*
G54D10*
D03*
X-2294556Y-488363D02*
G54D10*
D03*
X-2294556Y-468363D02*
G54D10*
D03*
X-2294556Y-448363D02*
G54D10*
D03*
X-2274556Y-428363D02*
G54D10*
D03*
X-2274556Y-448363D02*
G54D10*
D03*
X-2274556Y-468363D02*
G54D10*
D03*
X-2274556Y-488363D02*
G54D10*
D03*
X-2274556Y-508363D02*
G54D10*
D03*
X-2254556Y-508363D02*
G54D10*
D03*
X-2254556Y-488363D02*
G54D10*
D03*
X-2254556Y-468363D02*
G54D10*
D03*
X-2254556Y-448363D02*
G54D10*
D03*
X-2254556Y-428363D02*
G54D10*
D03*
X-2234556Y-428363D02*
G54D10*
D03*
X-2234556Y-448363D02*
G54D10*
D03*
X-2234556Y-468363D02*
G54D10*
D03*
X-2234556Y-488363D02*
G54D10*
D03*
X-2234556Y-508363D02*
G54D10*
D03*
X-1567580Y209745D02*
G54D11*
D03*
X-1547580Y209745D02*
G54D11*
D03*
X-1527580Y209745D02*
G54D11*
D03*
X-1507580Y209745D02*
G54D11*
D03*
X-1487580Y209745D02*
G54D11*
D03*
X-1467580Y209745D02*
G54D11*
D03*
X-1447580Y209745D02*
G54D11*
D03*
X-1427580Y209745D02*
G54D11*
D03*
X-1407580Y209745D02*
G54D11*
D03*
X-1387580Y209745D02*
G54D11*
D03*
X-1367580Y209745D02*
G54D11*
D03*
X-1347580Y209745D02*
G54D11*
D03*
X-1327580Y209745D02*
G54D11*
D03*
X-1307580Y209745D02*
G54D11*
D03*
X-1287580Y209745D02*
G54D11*
D03*
X-1267580Y209745D02*
G54D11*
D03*
X-1247580Y209745D02*
G54D11*
D03*
X-1227580Y209745D02*
G54D11*
D03*
X-1566330Y195995D02*
G54D11*
D03*
X-1546330Y195995D02*
G54D11*
D03*
X-1526330Y195995D02*
G54D11*
D03*
X-1506330Y195995D02*
G54D11*
D03*
X-1486330Y195995D02*
G54D11*
D03*
X-1466330Y195995D02*
G54D11*
D03*
X-1446330Y195995D02*
G54D11*
D03*
X-1426330Y195995D02*
G54D11*
D03*
X-1406330Y195995D02*
G54D11*
D03*
X-1386330Y195995D02*
G54D11*
D03*
X-1366330Y195995D02*
G54D11*
D03*
X-1346330Y195995D02*
G54D11*
D03*
X-1326330Y195995D02*
G54D11*
D03*
X-1306330Y195995D02*
G54D11*
D03*
X-1286330Y195995D02*
G54D11*
D03*
X-1266330Y195995D02*
G54D11*
D03*
X-1246330Y195995D02*
G54D11*
D03*
X-1226330Y195995D02*
G54D11*
D03*
X-1566330Y182245D02*
G54D11*
D03*
X-1546330Y182245D02*
G54D11*
D03*
X-1526330Y182245D02*
G54D11*
D03*
X-1506330Y182245D02*
G54D11*
D03*
X-1486330Y182245D02*
G54D11*
D03*
X-1466330Y182245D02*
G54D11*
D03*
X-1446330Y182245D02*
G54D11*
D03*
X-1426330Y182245D02*
G54D11*
D03*
X-1406330Y182245D02*
G54D11*
D03*
X-1386330Y182245D02*
G54D11*
D03*
X-1366330Y182245D02*
G54D11*
D03*
X-1346330Y182245D02*
G54D11*
D03*
X-1326330Y182245D02*
G54D11*
D03*
X-1306330Y182245D02*
G54D11*
D03*
X-1286330Y182245D02*
G54D11*
D03*
X-1266330Y182245D02*
G54D11*
D03*
X-1246330Y182245D02*
G54D11*
D03*
X-1226330Y182245D02*
G54D11*
D03*
X-1566330Y168495D02*
G54D11*
D03*
X-1546330Y168495D02*
G54D11*
D03*
X-1526330Y168495D02*
G54D11*
D03*
X-1506330Y168495D02*
G54D11*
D03*
X-1486330Y168495D02*
G54D11*
D03*
X-1466330Y168495D02*
G54D11*
D03*
X-1446330Y168495D02*
G54D11*
D03*
X-1426330Y168495D02*
G54D11*
D03*
X-1406330Y168495D02*
G54D11*
D03*
X-1386330Y168495D02*
G54D11*
D03*
X-1366330Y168495D02*
G54D11*
D03*
X-1346330Y168495D02*
G54D11*
D03*
X-1326330Y168495D02*
G54D11*
D03*
X-1306330Y168495D02*
G54D11*
D03*
X-1286330Y168495D02*
G54D11*
D03*
X-1266330Y168495D02*
G54D11*
D03*
X-1246330Y168495D02*
G54D11*
D03*
X-1226330Y168495D02*
G54D11*
D03*
X-1566330Y154745D02*
G54D11*
D03*
X-1546330Y154745D02*
G54D11*
D03*
X-1526330Y154745D02*
G54D11*
D03*
X-1506330Y154745D02*
G54D11*
D03*
X-1486330Y154745D02*
G54D11*
D03*
X-1466330Y154745D02*
G54D11*
D03*
X-1446330Y154745D02*
G54D11*
D03*
X-1426330Y154745D02*
G54D11*
D03*
X-1406330Y154745D02*
G54D11*
D03*
X-1386330Y154745D02*
G54D11*
D03*
X-1366330Y154745D02*
G54D11*
D03*
X-1346330Y154745D02*
G54D11*
D03*
X-1326330Y154745D02*
G54D11*
D03*
X-1306330Y154745D02*
G54D11*
D03*
X-1286330Y154745D02*
G54D11*
D03*
X-1266330Y154745D02*
G54D11*
D03*
X-1246330Y154745D02*
G54D11*
D03*
X-1226330Y154745D02*
G54D11*
D03*
X-1566330Y139745D02*
G54D11*
D03*
X-1546330Y139745D02*
G54D11*
D03*
X-1526330Y139745D02*
G54D11*
D03*
X-1506330Y139745D02*
G54D11*
D03*
X-1486330Y139745D02*
G54D11*
D03*
X-1466330Y139745D02*
G54D11*
D03*
X-1446330Y139745D02*
G54D11*
D03*
X-1426330Y139745D02*
G54D11*
D03*
X-1406330Y139745D02*
G54D11*
D03*
X-1386330Y139745D02*
G54D11*
D03*
X-1366330Y139745D02*
G54D11*
D03*
X-1346330Y139745D02*
G54D11*
D03*
X-1326330Y139745D02*
G54D11*
D03*
X-1306330Y139745D02*
G54D11*
D03*
X-1286330Y139745D02*
G54D11*
D03*
X-1266330Y139745D02*
G54D11*
D03*
X-1246330Y139745D02*
G54D11*
D03*
X-1226330Y139745D02*
G54D11*
D03*
X-1566330Y125995D02*
G54D11*
D03*
X-1546330Y125995D02*
G54D11*
D03*
X-1526330Y125995D02*
G54D11*
D03*
X-1506330Y125995D02*
G54D11*
D03*
X-1486330Y125995D02*
G54D11*
D03*
X-1466330Y125995D02*
G54D11*
D03*
X-1446330Y125995D02*
G54D11*
D03*
X-1426330Y125995D02*
G54D11*
D03*
X-1406330Y125995D02*
G54D11*
D03*
X-1386330Y125995D02*
G54D11*
D03*
X-1366330Y125995D02*
G54D11*
D03*
X-1346330Y125995D02*
G54D11*
D03*
X-1326330Y125995D02*
G54D11*
D03*
X-1306330Y125995D02*
G54D11*
D03*
X-1286330Y125995D02*
G54D11*
D03*
X-1266330Y125995D02*
G54D11*
D03*
X-1246330Y125995D02*
G54D11*
D03*
X-1226330Y125995D02*
G54D11*
D03*
X-1566330Y112245D02*
G54D11*
D03*
X-1546330Y112245D02*
G54D11*
D03*
X-1526330Y112245D02*
G54D11*
D03*
X-1506330Y112245D02*
G54D11*
D03*
X-1486330Y112245D02*
G54D11*
D03*
X-1466330Y112245D02*
G54D11*
D03*
X-1446330Y112245D02*
G54D11*
D03*
X-1426330Y112245D02*
G54D11*
D03*
X-1406330Y112245D02*
G54D11*
D03*
X-1386330Y112245D02*
G54D11*
D03*
X-1366330Y112245D02*
G54D11*
D03*
X-1346330Y112245D02*
G54D11*
D03*
X-1326330Y112245D02*
G54D11*
D03*
X-1306330Y112245D02*
G54D11*
D03*
X-1286330Y112245D02*
G54D11*
D03*
X-1266330Y112245D02*
G54D11*
D03*
X-1246330Y112245D02*
G54D11*
D03*
X-1226330Y112245D02*
G54D11*
D03*
X-1566330Y97245D02*
G54D11*
D03*
X-1546330Y97245D02*
G54D11*
D03*
X-1526330Y97245D02*
G54D11*
D03*
X-1506330Y97245D02*
G54D11*
D03*
X-1486330Y97245D02*
G54D11*
D03*
X-1466330Y97245D02*
G54D11*
D03*
X-1446330Y97245D02*
G54D11*
D03*
X-1426330Y97245D02*
G54D11*
D03*
X-1406330Y97245D02*
G54D11*
D03*
X-1386330Y97245D02*
G54D11*
D03*
X-1366330Y97245D02*
G54D11*
D03*
X-1346330Y97245D02*
G54D11*
D03*
X-1326330Y97245D02*
G54D11*
D03*
X-1306330Y97245D02*
G54D11*
D03*
X-1286330Y97245D02*
G54D11*
D03*
X-1266330Y97245D02*
G54D11*
D03*
X-1246330Y97245D02*
G54D11*
D03*
X-1226330Y97245D02*
G54D11*
D03*
X-1567580Y5995D02*
G54D11*
D03*
X-1547580Y5995D02*
G54D11*
D03*
X-1527580Y5995D02*
G54D11*
D03*
X-1507580Y5995D02*
G54D11*
D03*
X-1487580Y5995D02*
G54D11*
D03*
X-1467580Y5995D02*
G54D11*
D03*
X-1447580Y5995D02*
G54D11*
D03*
X-1427580Y5995D02*
G54D11*
D03*
X-1407580Y5995D02*
G54D11*
D03*
X-1387580Y5995D02*
G54D11*
D03*
X-1367580Y5995D02*
G54D11*
D03*
X-1347580Y5995D02*
G54D11*
D03*
X-1327580Y5995D02*
G54D11*
D03*
X-1307580Y5995D02*
G54D11*
D03*
X-1287580Y5995D02*
G54D11*
D03*
X-1267580Y5995D02*
G54D11*
D03*
X-1247580Y5995D02*
G54D11*
D03*
X-1227580Y5995D02*
G54D11*
D03*
X-1566330Y-7755D02*
G54D11*
D03*
X-1546330Y-7755D02*
G54D11*
D03*
X-1526330Y-7755D02*
G54D11*
D03*
X-1506330Y-7755D02*
G54D11*
D03*
X-1486330Y-7755D02*
G54D11*
D03*
X-1466330Y-7755D02*
G54D11*
D03*
X-1446330Y-7755D02*
G54D11*
D03*
X-1426330Y-7755D02*
G54D11*
D03*
X-1406330Y-7755D02*
G54D11*
D03*
X-1386330Y-7755D02*
G54D11*
D03*
X-1366330Y-7755D02*
G54D11*
D03*
X-1346330Y-7755D02*
G54D11*
D03*
X-1326330Y-7755D02*
G54D11*
D03*
X-1306330Y-7755D02*
G54D11*
D03*
X-1286330Y-7755D02*
G54D11*
D03*
X-1266330Y-7755D02*
G54D11*
D03*
X-1246330Y-7755D02*
G54D11*
D03*
X-1226330Y-7755D02*
G54D11*
D03*
X-1566330Y-21505D02*
G54D11*
D03*
X-1546330Y-21505D02*
G54D11*
D03*
X-1526330Y-21505D02*
G54D11*
D03*
X-1506330Y-21505D02*
G54D11*
D03*
X-1486330Y-21505D02*
G54D11*
D03*
X-1466330Y-21505D02*
G54D11*
D03*
X-1446330Y-21505D02*
G54D11*
D03*
X-1426330Y-21505D02*
G54D11*
D03*
X-1406330Y-21505D02*
G54D11*
D03*
X-1386330Y-21505D02*
G54D11*
D03*
X-1366330Y-21505D02*
G54D11*
D03*
X-1346330Y-21505D02*
G54D11*
D03*
X-1326330Y-21505D02*
G54D11*
D03*
X-1306330Y-21505D02*
G54D11*
D03*
X-1286330Y-21505D02*
G54D11*
D03*
X-1266330Y-21505D02*
G54D11*
D03*
X-1246330Y-21505D02*
G54D11*
D03*
X-1226330Y-21505D02*
G54D11*
D03*
X-1566330Y-35255D02*
G54D11*
D03*
X-1546330Y-35255D02*
G54D11*
D03*
X-1526330Y-35255D02*
G54D11*
D03*
X-1506330Y-35255D02*
G54D11*
D03*
X-1486330Y-35255D02*
G54D11*
D03*
X-1466330Y-35255D02*
G54D11*
D03*
X-1446330Y-35255D02*
G54D11*
D03*
X-1426330Y-35255D02*
G54D11*
D03*
X-1406330Y-35255D02*
G54D11*
D03*
X-1386330Y-35255D02*
G54D11*
D03*
X-1366330Y-35255D02*
G54D11*
D03*
X-1346330Y-35255D02*
G54D11*
D03*
X-1326330Y-35255D02*
G54D11*
D03*
X-1306330Y-35255D02*
G54D11*
D03*
X-1286330Y-35255D02*
G54D11*
D03*
X-1266330Y-35255D02*
G54D11*
D03*
X-1246330Y-35255D02*
G54D11*
D03*
X-1226330Y-35255D02*
G54D11*
D03*
X-1566330Y-49005D02*
G54D11*
D03*
X-1546330Y-49005D02*
G54D11*
D03*
X-1526330Y-49005D02*
G54D11*
D03*
X-1506330Y-49005D02*
G54D11*
D03*
X-1486330Y-49005D02*
G54D11*
D03*
X-1466330Y-49005D02*
G54D11*
D03*
X-1446330Y-49005D02*
G54D11*
D03*
X-1426330Y-49005D02*
G54D11*
D03*
X-1406330Y-49005D02*
G54D11*
D03*
X-1386330Y-49005D02*
G54D11*
D03*
X-1366330Y-49005D02*
G54D11*
D03*
X-1346330Y-49005D02*
G54D11*
D03*
X-1326330Y-49005D02*
G54D11*
D03*
X-1306330Y-49005D02*
G54D11*
D03*
X-1286330Y-49005D02*
G54D11*
D03*
X-1266330Y-49005D02*
G54D11*
D03*
X-1246330Y-49005D02*
G54D11*
D03*
X-1226330Y-49005D02*
G54D11*
D03*
X-1566330Y-64005D02*
G54D11*
D03*
X-1546330Y-64005D02*
G54D11*
D03*
X-1526330Y-64005D02*
G54D11*
D03*
X-1506330Y-64005D02*
G54D11*
D03*
X-1486330Y-64005D02*
G54D11*
D03*
X-1466330Y-64005D02*
G54D11*
D03*
X-1446330Y-64005D02*
G54D11*
D03*
X-1426330Y-64005D02*
G54D11*
D03*
X-1406330Y-64005D02*
G54D11*
D03*
X-1386330Y-64005D02*
G54D11*
D03*
X-1366330Y-64005D02*
G54D11*
D03*
X-1346330Y-64005D02*
G54D11*
D03*
X-1326330Y-64005D02*
G54D11*
D03*
X-1306330Y-64005D02*
G54D11*
D03*
X-1286330Y-64005D02*
G54D11*
D03*
X-1266330Y-64005D02*
G54D11*
D03*
X-1246330Y-64005D02*
G54D11*
D03*
X-1226330Y-64005D02*
G54D11*
D03*
X-1566330Y-77755D02*
G54D11*
D03*
X-1546330Y-77755D02*
G54D11*
D03*
X-1526330Y-77755D02*
G54D11*
D03*
X-1506330Y-77755D02*
G54D11*
D03*
X-1486330Y-77755D02*
G54D11*
D03*
X-1466330Y-77755D02*
G54D11*
D03*
X-1446330Y-77755D02*
G54D11*
D03*
X-1426330Y-77755D02*
G54D11*
D03*
X-1406330Y-77755D02*
G54D11*
D03*
X-1386330Y-77755D02*
G54D11*
D03*
X-1366330Y-77755D02*
G54D11*
D03*
X-1346330Y-77755D02*
G54D11*
D03*
X-1326330Y-77755D02*
G54D11*
D03*
X-1306330Y-77755D02*
G54D11*
D03*
X-1286330Y-77755D02*
G54D11*
D03*
X-1266330Y-77755D02*
G54D11*
D03*
X-1246330Y-77755D02*
G54D11*
D03*
X-1226330Y-77755D02*
G54D11*
D03*
X-1566330Y-91505D02*
G54D11*
D03*
X-1546330Y-91505D02*
G54D11*
D03*
X-1526330Y-91505D02*
G54D11*
D03*
X-1506330Y-91505D02*
G54D11*
D03*
X-1486330Y-91505D02*
G54D11*
D03*
X-1466330Y-91505D02*
G54D11*
D03*
X-1446330Y-91505D02*
G54D11*
D03*
X-1426330Y-91505D02*
G54D11*
D03*
X-1406330Y-91505D02*
G54D11*
D03*
X-1386330Y-91505D02*
G54D11*
D03*
X-1366330Y-91505D02*
G54D11*
D03*
X-1346330Y-91505D02*
G54D11*
D03*
X-1326330Y-91505D02*
G54D11*
D03*
X-1306330Y-91505D02*
G54D11*
D03*
X-1286330Y-91505D02*
G54D11*
D03*
X-1266330Y-91505D02*
G54D11*
D03*
X-1246330Y-91505D02*
G54D11*
D03*
X-1226330Y-91505D02*
G54D11*
D03*
X-1566330Y-106505D02*
G54D11*
D03*
X-1546330Y-106505D02*
G54D11*
D03*
X-1526330Y-106505D02*
G54D11*
D03*
X-1506330Y-106505D02*
G54D11*
D03*
X-1486330Y-106505D02*
G54D11*
D03*
X-1466330Y-106505D02*
G54D11*
D03*
X-1446330Y-106505D02*
G54D11*
D03*
X-1426330Y-106505D02*
G54D11*
D03*
X-1406330Y-106505D02*
G54D11*
D03*
X-1386330Y-106505D02*
G54D11*
D03*
X-1366330Y-106505D02*
G54D11*
D03*
X-1346330Y-106505D02*
G54D11*
D03*
X-1326330Y-106505D02*
G54D11*
D03*
X-1306330Y-106505D02*
G54D11*
D03*
X-1286330Y-106505D02*
G54D11*
D03*
X-1266330Y-106505D02*
G54D11*
D03*
X-1246330Y-106505D02*
G54D11*
D03*
X-1226330Y-106505D02*
G54D11*
D03*
X-1566330Y-197755D02*
G54D11*
D03*
X-1546330Y-197755D02*
G54D11*
D03*
X-1526330Y-197755D02*
G54D11*
D03*
X-1506330Y-197755D02*
G54D11*
D03*
X-1486330Y-197755D02*
G54D11*
D03*
X-1466330Y-197755D02*
G54D11*
D03*
X-1446330Y-197755D02*
G54D11*
D03*
X-1426330Y-197755D02*
G54D11*
D03*
X-1406330Y-197755D02*
G54D11*
D03*
X-1386330Y-197755D02*
G54D11*
D03*
X-1366330Y-197755D02*
G54D11*
D03*
X-1346330Y-197755D02*
G54D11*
D03*
X-1326330Y-197755D02*
G54D11*
D03*
X-1306330Y-197755D02*
G54D11*
D03*
X-1286330Y-197755D02*
G54D11*
D03*
X-1266330Y-197755D02*
G54D11*
D03*
X-1246330Y-197755D02*
G54D11*
D03*
X-1226330Y-197755D02*
G54D11*
D03*
X-1565080Y-211505D02*
G54D11*
D03*
X-1545080Y-211505D02*
G54D11*
D03*
X-1525080Y-211505D02*
G54D11*
D03*
X-1505080Y-211505D02*
G54D11*
D03*
X-1485080Y-211505D02*
G54D11*
D03*
X-1465080Y-211505D02*
G54D11*
D03*
X-1445080Y-211505D02*
G54D11*
D03*
X-1425080Y-211505D02*
G54D11*
D03*
X-1405080Y-211505D02*
G54D11*
D03*
X-1385080Y-211505D02*
G54D11*
D03*
X-1365080Y-211505D02*
G54D11*
D03*
X-1345080Y-211505D02*
G54D11*
D03*
X-1325080Y-211505D02*
G54D11*
D03*
X-1305080Y-211505D02*
G54D11*
D03*
X-1285080Y-211505D02*
G54D11*
D03*
X-1265080Y-211505D02*
G54D11*
D03*
X-1245080Y-211505D02*
G54D11*
D03*
X-1225080Y-211505D02*
G54D11*
D03*
X-1565080Y-225255D02*
G54D11*
D03*
X-1545080Y-225255D02*
G54D11*
D03*
X-1525080Y-225255D02*
G54D11*
D03*
X-1505080Y-225255D02*
G54D11*
D03*
X-1485080Y-225255D02*
G54D11*
D03*
X-1465080Y-225255D02*
G54D11*
D03*
X-1445080Y-225255D02*
G54D11*
D03*
X-1425080Y-225255D02*
G54D11*
D03*
X-1405080Y-225255D02*
G54D11*
D03*
X-1385080Y-225255D02*
G54D11*
D03*
X-1365080Y-225255D02*
G54D11*
D03*
X-1345080Y-225255D02*
G54D11*
D03*
X-1325080Y-225255D02*
G54D11*
D03*
X-1305080Y-225255D02*
G54D11*
D03*
X-1285080Y-225255D02*
G54D11*
D03*
X-1265080Y-225255D02*
G54D11*
D03*
X-1245080Y-225255D02*
G54D11*
D03*
X-1225080Y-225255D02*
G54D11*
D03*
X-1565080Y-239005D02*
G54D11*
D03*
X-1545080Y-239005D02*
G54D11*
D03*
X-1525080Y-239005D02*
G54D11*
D03*
X-1505080Y-239005D02*
G54D11*
D03*
X-1485080Y-239005D02*
G54D11*
D03*
X-1465080Y-239005D02*
G54D11*
D03*
X-1445080Y-239005D02*
G54D11*
D03*
X-1425080Y-239005D02*
G54D11*
D03*
X-1405080Y-239005D02*
G54D11*
D03*
X-1385080Y-239005D02*
G54D11*
D03*
X-1365080Y-239005D02*
G54D11*
D03*
X-1345080Y-239005D02*
G54D11*
D03*
X-1325080Y-239005D02*
G54D11*
D03*
X-1305080Y-239005D02*
G54D11*
D03*
X-1285080Y-239005D02*
G54D11*
D03*
X-1265080Y-239005D02*
G54D11*
D03*
X-1245080Y-239005D02*
G54D11*
D03*
X-1225080Y-239005D02*
G54D11*
D03*
X-1565080Y-252755D02*
G54D11*
D03*
X-1545080Y-252755D02*
G54D11*
D03*
X-1525080Y-252755D02*
G54D11*
D03*
X-1505080Y-252755D02*
G54D11*
D03*
X-1485080Y-252755D02*
G54D11*
D03*
X-1465080Y-252755D02*
G54D11*
D03*
X-1445080Y-252755D02*
G54D11*
D03*
X-1425080Y-252755D02*
G54D11*
D03*
X-1405080Y-252755D02*
G54D11*
D03*
X-1385080Y-252755D02*
G54D11*
D03*
X-1365080Y-252755D02*
G54D11*
D03*
X-1345080Y-252755D02*
G54D11*
D03*
X-1325080Y-252755D02*
G54D11*
D03*
X-1305080Y-252755D02*
G54D11*
D03*
X-1285080Y-252755D02*
G54D11*
D03*
X-1265080Y-252755D02*
G54D11*
D03*
X-1245080Y-252755D02*
G54D11*
D03*
X-1225080Y-252755D02*
G54D11*
D03*
X-1565080Y-267755D02*
G54D11*
D03*
X-1545080Y-267755D02*
G54D11*
D03*
X-1525080Y-267755D02*
G54D11*
D03*
X-1505080Y-267755D02*
G54D11*
D03*
X-1485080Y-267755D02*
G54D11*
D03*
X-1465080Y-267755D02*
G54D11*
D03*
X-1445080Y-267755D02*
G54D11*
D03*
X-1425080Y-267755D02*
G54D11*
D03*
X-1405080Y-267755D02*
G54D11*
D03*
X-1385080Y-267755D02*
G54D11*
D03*
X-1365080Y-267755D02*
G54D11*
D03*
X-1345080Y-267755D02*
G54D11*
D03*
X-1325080Y-267755D02*
G54D11*
D03*
X-1305080Y-267755D02*
G54D11*
D03*
X-1285080Y-267755D02*
G54D11*
D03*
X-1265080Y-267755D02*
G54D11*
D03*
X-1245080Y-267755D02*
G54D11*
D03*
X-1225080Y-267755D02*
G54D11*
D03*
X-1565080Y-281505D02*
G54D11*
D03*
X-1545080Y-281505D02*
G54D11*
D03*
X-1525080Y-281505D02*
G54D11*
D03*
X-1505080Y-281505D02*
G54D11*
D03*
X-1485080Y-281505D02*
G54D11*
D03*
X-1465080Y-281505D02*
G54D11*
D03*
X-1445080Y-281505D02*
G54D11*
D03*
X-1425080Y-281505D02*
G54D11*
D03*
X-1405080Y-281505D02*
G54D11*
D03*
X-1385080Y-281505D02*
G54D11*
D03*
X-1365080Y-281505D02*
G54D11*
D03*
X-1345080Y-281505D02*
G54D11*
D03*
X-1325080Y-281505D02*
G54D11*
D03*
X-1305080Y-281505D02*
G54D11*
D03*
X-1285080Y-281505D02*
G54D11*
D03*
X-1265080Y-281505D02*
G54D11*
D03*
X-1245080Y-281505D02*
G54D11*
D03*
X-1225080Y-281505D02*
G54D11*
D03*
X-1565080Y-295255D02*
G54D11*
D03*
X-1545080Y-295255D02*
G54D11*
D03*
X-1525080Y-295255D02*
G54D11*
D03*
X-1505080Y-295255D02*
G54D11*
D03*
X-1485080Y-295255D02*
G54D11*
D03*
X-1465080Y-295255D02*
G54D11*
D03*
X-1445080Y-295255D02*
G54D11*
D03*
X-1425080Y-295255D02*
G54D11*
D03*
X-1405080Y-295255D02*
G54D11*
D03*
X-1385080Y-295255D02*
G54D11*
D03*
X-1365080Y-295255D02*
G54D11*
D03*
X-1345080Y-295255D02*
G54D11*
D03*
X-1325080Y-295255D02*
G54D11*
D03*
X-1305080Y-295255D02*
G54D11*
D03*
X-1285080Y-295255D02*
G54D11*
D03*
X-1265080Y-295255D02*
G54D11*
D03*
X-1245080Y-295255D02*
G54D11*
D03*
X-1225080Y-295255D02*
G54D11*
D03*
X-1565080Y-310255D02*
G54D11*
D03*
X-1545080Y-310255D02*
G54D11*
D03*
X-1525080Y-310255D02*
G54D11*
D03*
X-1505080Y-310255D02*
G54D11*
D03*
X-1485080Y-310255D02*
G54D11*
D03*
X-1465080Y-310255D02*
G54D11*
D03*
X-1445080Y-310255D02*
G54D11*
D03*
X-1425080Y-310255D02*
G54D11*
D03*
X-1405080Y-310255D02*
G54D11*
D03*
X-1385080Y-310255D02*
G54D11*
D03*
X-1365080Y-310255D02*
G54D11*
D03*
X-1345080Y-310255D02*
G54D11*
D03*
X-1325080Y-310255D02*
G54D11*
D03*
X-1305080Y-310255D02*
G54D11*
D03*
X-1285080Y-310255D02*
G54D11*
D03*
X-1265080Y-310255D02*
G54D11*
D03*
X-1245080Y-310255D02*
G54D11*
D03*
X-1225080Y-310255D02*
G54D11*
D03*
X-1566330Y-399005D02*
G54D11*
D03*
X-1546330Y-399005D02*
G54D11*
D03*
X-1526330Y-399005D02*
G54D11*
D03*
X-1506330Y-399005D02*
G54D11*
D03*
X-1486330Y-399005D02*
G54D11*
D03*
X-1466330Y-399005D02*
G54D11*
D03*
X-1446330Y-399005D02*
G54D11*
D03*
X-1426330Y-399005D02*
G54D11*
D03*
X-1406330Y-399005D02*
G54D11*
D03*
X-1386330Y-399005D02*
G54D11*
D03*
X-1366330Y-399005D02*
G54D11*
D03*
X-1346330Y-399005D02*
G54D11*
D03*
X-1326330Y-399005D02*
G54D11*
D03*
X-1306330Y-399005D02*
G54D11*
D03*
X-1286330Y-399005D02*
G54D11*
D03*
X-1266330Y-399005D02*
G54D11*
D03*
X-1246330Y-399005D02*
G54D11*
D03*
X-1226330Y-399005D02*
G54D11*
D03*
X-1565080Y-412755D02*
G54D11*
D03*
X-1545080Y-412755D02*
G54D11*
D03*
X-1525080Y-412755D02*
G54D11*
D03*
X-1505080Y-412755D02*
G54D11*
D03*
X-1485080Y-412755D02*
G54D11*
D03*
X-1465080Y-412755D02*
G54D11*
D03*
X-1445080Y-412755D02*
G54D11*
D03*
X-1425080Y-412755D02*
G54D11*
D03*
X-1405080Y-412755D02*
G54D11*
D03*
X-1385080Y-412755D02*
G54D11*
D03*
X-1365080Y-412755D02*
G54D11*
D03*
X-1345080Y-412755D02*
G54D11*
D03*
X-1325080Y-412755D02*
G54D11*
D03*
X-1305080Y-412755D02*
G54D11*
D03*
X-1285080Y-412755D02*
G54D11*
D03*
X-1265080Y-412755D02*
G54D11*
D03*
X-1245080Y-412755D02*
G54D11*
D03*
X-1225080Y-412755D02*
G54D11*
D03*
X-1565080Y-426505D02*
G54D11*
D03*
X-1545080Y-426505D02*
G54D11*
D03*
X-1525080Y-426505D02*
G54D11*
D03*
X-1505080Y-426505D02*
G54D11*
D03*
X-1485080Y-426505D02*
G54D11*
D03*
X-1465080Y-426505D02*
G54D11*
D03*
X-1445080Y-426505D02*
G54D11*
D03*
X-1425080Y-426505D02*
G54D11*
D03*
X-1405080Y-426505D02*
G54D11*
D03*
X-1385080Y-426505D02*
G54D11*
D03*
X-1365080Y-426505D02*
G54D11*
D03*
X-1345080Y-426505D02*
G54D11*
D03*
X-1325080Y-426505D02*
G54D11*
D03*
X-1305080Y-426505D02*
G54D11*
D03*
X-1285080Y-426505D02*
G54D11*
D03*
X-1265080Y-426505D02*
G54D11*
D03*
X-1245080Y-426505D02*
G54D11*
D03*
X-1225080Y-426505D02*
G54D11*
D03*
X-1565080Y-440255D02*
G54D11*
D03*
X-1545080Y-440255D02*
G54D11*
D03*
X-1525080Y-440255D02*
G54D11*
D03*
X-1505080Y-440255D02*
G54D11*
D03*
X-1485080Y-440255D02*
G54D11*
D03*
X-1465080Y-440255D02*
G54D11*
D03*
X-1445080Y-440255D02*
G54D11*
D03*
X-1425080Y-440255D02*
G54D11*
D03*
X-1405080Y-440255D02*
G54D11*
D03*
X-1385080Y-440255D02*
G54D11*
D03*
X-1365080Y-440255D02*
G54D11*
D03*
X-1345080Y-440255D02*
G54D11*
D03*
X-1325080Y-440255D02*
G54D11*
D03*
X-1305080Y-440255D02*
G54D11*
D03*
X-1285080Y-440255D02*
G54D11*
D03*
X-1265080Y-440255D02*
G54D11*
D03*
X-1245080Y-440255D02*
G54D11*
D03*
X-1225080Y-440255D02*
G54D11*
D03*
X-1565080Y-454005D02*
G54D11*
D03*
X-1545080Y-454005D02*
G54D11*
D03*
X-1525080Y-454005D02*
G54D11*
D03*
X-1505080Y-454005D02*
G54D11*
D03*
X-1485080Y-454005D02*
G54D11*
D03*
X-1465080Y-454005D02*
G54D11*
D03*
X-1445080Y-454005D02*
G54D11*
D03*
X-1425080Y-454005D02*
G54D11*
D03*
X-1405080Y-454005D02*
G54D11*
D03*
X-1385080Y-454005D02*
G54D11*
D03*
X-1365080Y-454005D02*
G54D11*
D03*
X-1345080Y-454005D02*
G54D11*
D03*
X-1325080Y-454005D02*
G54D11*
D03*
X-1305080Y-454005D02*
G54D11*
D03*
X-1285080Y-454005D02*
G54D11*
D03*
X-1265080Y-454005D02*
G54D11*
D03*
X-1245080Y-454005D02*
G54D11*
D03*
X-1225080Y-454005D02*
G54D11*
D03*
X-1565080Y-469005D02*
G54D11*
D03*
X-1545080Y-469005D02*
G54D11*
D03*
X-1525080Y-469005D02*
G54D11*
D03*
X-1505080Y-469005D02*
G54D11*
D03*
X-1485080Y-469005D02*
G54D11*
D03*
X-1465080Y-469005D02*
G54D11*
D03*
X-1445080Y-469005D02*
G54D11*
D03*
X-1425080Y-469005D02*
G54D11*
D03*
X-1405080Y-469005D02*
G54D11*
D03*
X-1385080Y-469005D02*
G54D11*
D03*
X-1365080Y-469005D02*
G54D11*
D03*
X-1345080Y-469005D02*
G54D11*
D03*
X-1325080Y-469005D02*
G54D11*
D03*
X-1305080Y-469005D02*
G54D11*
D03*
X-1285080Y-469005D02*
G54D11*
D03*
X-1265080Y-469005D02*
G54D11*
D03*
X-1245080Y-469005D02*
G54D11*
D03*
X-1225080Y-469005D02*
G54D11*
D03*
X-1565080Y-482755D02*
G54D11*
D03*
X-1545080Y-482755D02*
G54D11*
D03*
X-1525080Y-482755D02*
G54D11*
D03*
X-1505080Y-482755D02*
G54D11*
D03*
X-1485080Y-482755D02*
G54D11*
D03*
X-1465080Y-482755D02*
G54D11*
D03*
X-1445080Y-482755D02*
G54D11*
D03*
X-1425080Y-482755D02*
G54D11*
D03*
X-1405080Y-482755D02*
G54D11*
D03*
X-1385080Y-482755D02*
G54D11*
D03*
X-1365080Y-482755D02*
G54D11*
D03*
X-1345080Y-482755D02*
G54D11*
D03*
X-1325080Y-482755D02*
G54D11*
D03*
X-1305080Y-482755D02*
G54D11*
D03*
X-1285080Y-482755D02*
G54D11*
D03*
X-1265080Y-482755D02*
G54D11*
D03*
X-1245080Y-482755D02*
G54D11*
D03*
X-1225080Y-482755D02*
G54D11*
D03*
X-1565080Y-496505D02*
G54D11*
D03*
X-1545080Y-496505D02*
G54D11*
D03*
X-1525080Y-496505D02*
G54D11*
D03*
X-1505080Y-496505D02*
G54D11*
D03*
X-1485080Y-496505D02*
G54D11*
D03*
X-1465080Y-496505D02*
G54D11*
D03*
X-1445080Y-496505D02*
G54D11*
D03*
X-1425080Y-496505D02*
G54D11*
D03*
X-1405080Y-496505D02*
G54D11*
D03*
X-1385080Y-496505D02*
G54D11*
D03*
X-1365080Y-496505D02*
G54D11*
D03*
X-1345080Y-496505D02*
G54D11*
D03*
X-1325080Y-496505D02*
G54D11*
D03*
X-1305080Y-496505D02*
G54D11*
D03*
X-1285080Y-496505D02*
G54D11*
D03*
X-1265080Y-496505D02*
G54D11*
D03*
X-1245080Y-496505D02*
G54D11*
D03*
X-1225080Y-496505D02*
G54D11*
D03*
X-1565080Y-511505D02*
G54D11*
D03*
X-1545080Y-511505D02*
G54D11*
D03*
X-1525080Y-511505D02*
G54D11*
D03*
X-1505080Y-511505D02*
G54D11*
D03*
X-1485080Y-511505D02*
G54D11*
D03*
X-1465080Y-511505D02*
G54D11*
D03*
X-1445080Y-511505D02*
G54D11*
D03*
X-1425080Y-511505D02*
G54D11*
D03*
X-1405080Y-511505D02*
G54D11*
D03*
X-1385080Y-511505D02*
G54D11*
D03*
X-1365080Y-511505D02*
G54D11*
D03*
X-1345080Y-511505D02*
G54D11*
D03*
X-1325080Y-511505D02*
G54D11*
D03*
X-1305080Y-511505D02*
G54D11*
D03*
X-1285080Y-511505D02*
G54D11*
D03*
X-1265080Y-511505D02*
G54D11*
D03*
X-1245080Y-511505D02*
G54D11*
D03*
X-1225080Y-511505D02*
G54D11*
D03*
X-3092580Y209745D02*
G54D11*
D03*
X-3072580Y209745D02*
G54D11*
D03*
X-3052580Y209745D02*
G54D11*
D03*
X-3032580Y209745D02*
G54D11*
D03*
X-3012580Y209745D02*
G54D11*
D03*
X-2992580Y209745D02*
G54D11*
D03*
X-2972580Y209745D02*
G54D11*
D03*
X-2952580Y209745D02*
G54D11*
D03*
X-2932580Y209745D02*
G54D11*
D03*
X-2912580Y209745D02*
G54D11*
D03*
X-2892580Y209745D02*
G54D11*
D03*
X-2872580Y209745D02*
G54D11*
D03*
X-2852580Y209745D02*
G54D11*
D03*
X-2832580Y209745D02*
G54D11*
D03*
X-2812580Y209745D02*
G54D11*
D03*
X-2792580Y209745D02*
G54D11*
D03*
X-2772580Y209745D02*
G54D11*
D03*
X-2752580Y209745D02*
G54D11*
D03*
X-3091330Y195995D02*
G54D11*
D03*
X-3071330Y195995D02*
G54D11*
D03*
X-3051330Y195995D02*
G54D11*
D03*
X-3031330Y195995D02*
G54D11*
D03*
X-3011330Y195995D02*
G54D11*
D03*
X-2991330Y195995D02*
G54D11*
D03*
X-2971330Y195995D02*
G54D11*
D03*
X-2951330Y195995D02*
G54D11*
D03*
X-2931330Y195995D02*
G54D11*
D03*
X-2911330Y195995D02*
G54D11*
D03*
X-2891330Y195995D02*
G54D11*
D03*
X-2871330Y195995D02*
G54D11*
D03*
X-2851330Y195995D02*
G54D11*
D03*
X-2831330Y195995D02*
G54D11*
D03*
X-2811330Y195995D02*
G54D11*
D03*
X-2791330Y195995D02*
G54D11*
D03*
X-2771330Y195995D02*
G54D11*
D03*
X-2751330Y195995D02*
G54D11*
D03*
X-3091330Y182245D02*
G54D11*
D03*
X-3071330Y182245D02*
G54D11*
D03*
X-3051330Y182245D02*
G54D11*
D03*
X-3031330Y182245D02*
G54D11*
D03*
X-3011330Y182245D02*
G54D11*
D03*
X-2991330Y182245D02*
G54D11*
D03*
X-2971330Y182245D02*
G54D11*
D03*
X-2951330Y182245D02*
G54D11*
D03*
X-2931330Y182245D02*
G54D11*
D03*
X-2911330Y182245D02*
G54D11*
D03*
X-2891330Y182245D02*
G54D11*
D03*
X-2871330Y182245D02*
G54D11*
D03*
X-2851330Y182245D02*
G54D11*
D03*
X-2831330Y182245D02*
G54D11*
D03*
X-2811330Y182245D02*
G54D11*
D03*
X-2791330Y182245D02*
G54D11*
D03*
X-2771330Y182245D02*
G54D11*
D03*
X-2751330Y182245D02*
G54D11*
D03*
X-3091330Y168495D02*
G54D11*
D03*
X-3071330Y168495D02*
G54D11*
D03*
X-3051330Y168495D02*
G54D11*
D03*
X-3031330Y168495D02*
G54D11*
D03*
X-3011330Y168495D02*
G54D11*
D03*
X-2991330Y168495D02*
G54D11*
D03*
X-2971330Y168495D02*
G54D11*
D03*
X-2951330Y168495D02*
G54D11*
D03*
X-2931330Y168495D02*
G54D11*
D03*
X-2911330Y168495D02*
G54D11*
D03*
X-2891330Y168495D02*
G54D11*
D03*
X-2871330Y168495D02*
G54D11*
D03*
X-2851330Y168495D02*
G54D11*
D03*
X-2831330Y168495D02*
G54D11*
D03*
X-2811330Y168495D02*
G54D11*
D03*
X-2791330Y168495D02*
G54D11*
D03*
X-2771330Y168495D02*
G54D11*
D03*
X-2751330Y168495D02*
G54D11*
D03*
X-3091330Y154745D02*
G54D11*
D03*
X-3071330Y154745D02*
G54D11*
D03*
X-3051330Y154745D02*
G54D11*
D03*
X-3031330Y154745D02*
G54D11*
D03*
X-3011330Y154745D02*
G54D11*
D03*
X-2991330Y154745D02*
G54D11*
D03*
X-2971330Y154745D02*
G54D11*
D03*
X-2951330Y154745D02*
G54D11*
D03*
X-2931330Y154745D02*
G54D11*
D03*
X-2911330Y154745D02*
G54D11*
D03*
X-2891330Y154745D02*
G54D11*
D03*
X-2871330Y154745D02*
G54D11*
D03*
X-2851330Y154745D02*
G54D11*
D03*
X-2831330Y154745D02*
G54D11*
D03*
X-2811330Y154745D02*
G54D11*
D03*
X-2791330Y154745D02*
G54D11*
D03*
X-2771330Y154745D02*
G54D11*
D03*
X-2751330Y154745D02*
G54D11*
D03*
X-3091330Y139745D02*
G54D11*
D03*
X-3071330Y139745D02*
G54D11*
D03*
X-3051330Y139745D02*
G54D11*
D03*
X-3031330Y139745D02*
G54D11*
D03*
X-3011330Y139745D02*
G54D11*
D03*
X-2991330Y139745D02*
G54D11*
D03*
X-2971330Y139745D02*
G54D11*
D03*
X-2951330Y139745D02*
G54D11*
D03*
X-2931330Y139745D02*
G54D11*
D03*
X-2911330Y139745D02*
G54D11*
D03*
X-2891330Y139745D02*
G54D11*
D03*
X-2871330Y139745D02*
G54D11*
D03*
X-2851330Y139745D02*
G54D11*
D03*
X-2831330Y139745D02*
G54D11*
D03*
X-2811330Y139745D02*
G54D11*
D03*
X-2791330Y139745D02*
G54D11*
D03*
X-2771330Y139745D02*
G54D11*
D03*
X-2751330Y139745D02*
G54D11*
D03*
X-3091330Y125995D02*
G54D11*
D03*
X-3071330Y125995D02*
G54D11*
D03*
X-3051330Y125995D02*
G54D11*
D03*
X-3031330Y125995D02*
G54D11*
D03*
X-3011330Y125995D02*
G54D11*
D03*
X-2991330Y125995D02*
G54D11*
D03*
X-2971330Y125995D02*
G54D11*
D03*
X-2951330Y125995D02*
G54D11*
D03*
X-2931330Y125995D02*
G54D11*
D03*
X-2911330Y125995D02*
G54D11*
D03*
X-2891330Y125995D02*
G54D11*
D03*
X-2871330Y125995D02*
G54D11*
D03*
X-2851330Y125995D02*
G54D11*
D03*
X-2831330Y125995D02*
G54D11*
D03*
X-2811330Y125995D02*
G54D11*
D03*
X-2791330Y125995D02*
G54D11*
D03*
X-2771330Y125995D02*
G54D11*
D03*
X-2751330Y125995D02*
G54D11*
D03*
X-3091330Y112245D02*
G54D11*
D03*
X-3071330Y112245D02*
G54D11*
D03*
X-3051330Y112245D02*
G54D11*
D03*
X-3031330Y112245D02*
G54D11*
D03*
X-3011330Y112245D02*
G54D11*
D03*
X-2991330Y112245D02*
G54D11*
D03*
X-2971330Y112245D02*
G54D11*
D03*
X-2951330Y112245D02*
G54D11*
D03*
X-2931330Y112245D02*
G54D11*
D03*
X-2911330Y112245D02*
G54D11*
D03*
X-2891330Y112245D02*
G54D11*
D03*
X-2871330Y112245D02*
G54D11*
D03*
X-2851330Y112245D02*
G54D11*
D03*
X-2831330Y112245D02*
G54D11*
D03*
X-2811330Y112245D02*
G54D11*
D03*
X-2791330Y112245D02*
G54D11*
D03*
X-2771330Y112245D02*
G54D11*
D03*
X-2751330Y112245D02*
G54D11*
D03*
X-3091330Y97245D02*
G54D11*
D03*
X-3071330Y97245D02*
G54D11*
D03*
X-3051330Y97245D02*
G54D11*
D03*
X-3031330Y97245D02*
G54D11*
D03*
X-3011330Y97245D02*
G54D11*
D03*
X-2991330Y97245D02*
G54D11*
D03*
X-2971330Y97245D02*
G54D11*
D03*
X-2951330Y97245D02*
G54D11*
D03*
X-2931330Y97245D02*
G54D11*
D03*
X-2911330Y97245D02*
G54D11*
D03*
X-2891330Y97245D02*
G54D11*
D03*
X-2871330Y97245D02*
G54D11*
D03*
X-2851330Y97245D02*
G54D11*
D03*
X-2831330Y97245D02*
G54D11*
D03*
X-2811330Y97245D02*
G54D11*
D03*
X-2791330Y97245D02*
G54D11*
D03*
X-2771330Y97245D02*
G54D11*
D03*
X-2751330Y97245D02*
G54D11*
D03*
X-3092580Y7245D02*
G54D11*
D03*
X-3072580Y7245D02*
G54D11*
D03*
X-3052580Y7245D02*
G54D11*
D03*
X-3032580Y7245D02*
G54D11*
D03*
X-3012580Y7245D02*
G54D11*
D03*
X-2992580Y7245D02*
G54D11*
D03*
X-2972580Y7245D02*
G54D11*
D03*
X-2952580Y7245D02*
G54D11*
D03*
X-2932580Y7245D02*
G54D11*
D03*
X-2912580Y7245D02*
G54D11*
D03*
X-2892580Y7245D02*
G54D11*
D03*
X-2872580Y7245D02*
G54D11*
D03*
X-2852580Y7245D02*
G54D11*
D03*
X-2832580Y7245D02*
G54D11*
D03*
X-2812580Y7245D02*
G54D11*
D03*
X-2792580Y7245D02*
G54D11*
D03*
X-2772580Y7245D02*
G54D11*
D03*
X-2752580Y7245D02*
G54D11*
D03*
X-3091330Y-6505D02*
G54D11*
D03*
X-3071330Y-6505D02*
G54D11*
D03*
X-3051330Y-6505D02*
G54D11*
D03*
X-3031330Y-6505D02*
G54D11*
D03*
X-3011330Y-6505D02*
G54D11*
D03*
X-2991330Y-6505D02*
G54D11*
D03*
X-2971330Y-6505D02*
G54D11*
D03*
X-2951330Y-6505D02*
G54D11*
D03*
X-2931330Y-6505D02*
G54D11*
D03*
X-2911330Y-6505D02*
G54D11*
D03*
X-2891330Y-6505D02*
G54D11*
D03*
X-2871330Y-6505D02*
G54D11*
D03*
X-2851330Y-6505D02*
G54D11*
D03*
X-2831330Y-6505D02*
G54D11*
D03*
X-2811330Y-6505D02*
G54D11*
D03*
X-2791330Y-6505D02*
G54D11*
D03*
X-2771330Y-6505D02*
G54D11*
D03*
X-2751330Y-6505D02*
G54D11*
D03*
X-3091330Y-20255D02*
G54D11*
D03*
X-3071330Y-20255D02*
G54D11*
D03*
X-3051330Y-20255D02*
G54D11*
D03*
X-3031330Y-20255D02*
G54D11*
D03*
X-3011330Y-20255D02*
G54D11*
D03*
X-2991330Y-20255D02*
G54D11*
D03*
X-2971330Y-20255D02*
G54D11*
D03*
X-2951330Y-20255D02*
G54D11*
D03*
X-2931330Y-20255D02*
G54D11*
D03*
X-2911330Y-20255D02*
G54D11*
D03*
X-2891330Y-20255D02*
G54D11*
D03*
X-2871330Y-20255D02*
G54D11*
D03*
X-2851330Y-20255D02*
G54D11*
D03*
X-2831330Y-20255D02*
G54D11*
D03*
X-2811330Y-20255D02*
G54D11*
D03*
X-2791330Y-20255D02*
G54D11*
D03*
X-2771330Y-20255D02*
G54D11*
D03*
X-2751330Y-20255D02*
G54D11*
D03*
X-3091330Y-34005D02*
G54D11*
D03*
X-3071330Y-34005D02*
G54D11*
D03*
X-3051330Y-34005D02*
G54D11*
D03*
X-3031330Y-34005D02*
G54D11*
D03*
X-3011330Y-34005D02*
G54D11*
D03*
X-2991330Y-34005D02*
G54D11*
D03*
X-2971330Y-34005D02*
G54D11*
D03*
X-2951330Y-34005D02*
G54D11*
D03*
X-2931330Y-34005D02*
G54D11*
D03*
X-2911330Y-34005D02*
G54D11*
D03*
X-2891330Y-34005D02*
G54D11*
D03*
X-2871330Y-34005D02*
G54D11*
D03*
X-2851330Y-34005D02*
G54D11*
D03*
X-2831330Y-34005D02*
G54D11*
D03*
X-2811330Y-34005D02*
G54D11*
D03*
X-2791330Y-34005D02*
G54D11*
D03*
X-2771330Y-34005D02*
G54D11*
D03*
X-2751330Y-34005D02*
G54D11*
D03*
X-3091330Y-47755D02*
G54D11*
D03*
X-3071330Y-47755D02*
G54D11*
D03*
X-3051330Y-47755D02*
G54D11*
D03*
X-3031330Y-47755D02*
G54D11*
D03*
X-3011330Y-47755D02*
G54D11*
D03*
X-2991330Y-47755D02*
G54D11*
D03*
X-2971330Y-47755D02*
G54D11*
D03*
X-2951330Y-47755D02*
G54D11*
D03*
X-2931330Y-47755D02*
G54D11*
D03*
X-2911330Y-47755D02*
G54D11*
D03*
X-2891330Y-47755D02*
G54D11*
D03*
X-2871330Y-47755D02*
G54D11*
D03*
X-2851330Y-47755D02*
G54D11*
D03*
X-2831330Y-47755D02*
G54D11*
D03*
X-2811330Y-47755D02*
G54D11*
D03*
X-2791330Y-47755D02*
G54D11*
D03*
X-2771330Y-47755D02*
G54D11*
D03*
X-2751330Y-47755D02*
G54D11*
D03*
X-3091330Y-62755D02*
G54D11*
D03*
X-3071330Y-62755D02*
G54D11*
D03*
X-3051330Y-62755D02*
G54D11*
D03*
X-3031330Y-62755D02*
G54D11*
D03*
X-3011330Y-62755D02*
G54D11*
D03*
X-2991330Y-62755D02*
G54D11*
D03*
X-2971330Y-62755D02*
G54D11*
D03*
X-2951330Y-62755D02*
G54D11*
D03*
X-2931330Y-62755D02*
G54D11*
D03*
X-2911330Y-62755D02*
G54D11*
D03*
X-2891330Y-62755D02*
G54D11*
D03*
X-2871330Y-62755D02*
G54D11*
D03*
X-2851330Y-62755D02*
G54D11*
D03*
X-2831330Y-62755D02*
G54D11*
D03*
X-2811330Y-62755D02*
G54D11*
D03*
X-2791330Y-62755D02*
G54D11*
D03*
X-2771330Y-62755D02*
G54D11*
D03*
X-2751330Y-62755D02*
G54D11*
D03*
X-3091330Y-76505D02*
G54D11*
D03*
X-3071330Y-76505D02*
G54D11*
D03*
X-3051330Y-76505D02*
G54D11*
D03*
X-3031330Y-76505D02*
G54D11*
D03*
X-3011330Y-76505D02*
G54D11*
D03*
X-2991330Y-76505D02*
G54D11*
D03*
X-2971330Y-76505D02*
G54D11*
D03*
X-2951330Y-76505D02*
G54D11*
D03*
X-2931330Y-76505D02*
G54D11*
D03*
X-2911330Y-76505D02*
G54D11*
D03*
X-2891330Y-76505D02*
G54D11*
D03*
X-2871330Y-76505D02*
G54D11*
D03*
X-2851330Y-76505D02*
G54D11*
D03*
X-2831330Y-76505D02*
G54D11*
D03*
X-2811330Y-76505D02*
G54D11*
D03*
X-2791330Y-76505D02*
G54D11*
D03*
X-2771330Y-76505D02*
G54D11*
D03*
X-2751330Y-76505D02*
G54D11*
D03*
X-3091330Y-90255D02*
G54D11*
D03*
X-3071330Y-90255D02*
G54D11*
D03*
X-3051330Y-90255D02*
G54D11*
D03*
X-3031330Y-90255D02*
G54D11*
D03*
X-3011330Y-90255D02*
G54D11*
D03*
X-2991330Y-90255D02*
G54D11*
D03*
X-2971330Y-90255D02*
G54D11*
D03*
X-2951330Y-90255D02*
G54D11*
D03*
X-2931330Y-90255D02*
G54D11*
D03*
X-2911330Y-90255D02*
G54D11*
D03*
X-2891330Y-90255D02*
G54D11*
D03*
X-2871330Y-90255D02*
G54D11*
D03*
X-2851330Y-90255D02*
G54D11*
D03*
X-2831330Y-90255D02*
G54D11*
D03*
X-2811330Y-90255D02*
G54D11*
D03*
X-2791330Y-90255D02*
G54D11*
D03*
X-2771330Y-90255D02*
G54D11*
D03*
X-2751330Y-90255D02*
G54D11*
D03*
X-3091330Y-105255D02*
G54D11*
D03*
X-3071330Y-105255D02*
G54D11*
D03*
X-3051330Y-105255D02*
G54D11*
D03*
X-3031330Y-105255D02*
G54D11*
D03*
X-3011330Y-105255D02*
G54D11*
D03*
X-2991330Y-105255D02*
G54D11*
D03*
X-2971330Y-105255D02*
G54D11*
D03*
X-2951330Y-105255D02*
G54D11*
D03*
X-2931330Y-105255D02*
G54D11*
D03*
X-2911330Y-105255D02*
G54D11*
D03*
X-2891330Y-105255D02*
G54D11*
D03*
X-2871330Y-105255D02*
G54D11*
D03*
X-2851330Y-105255D02*
G54D11*
D03*
X-2831330Y-105255D02*
G54D11*
D03*
X-2811330Y-105255D02*
G54D11*
D03*
X-2791330Y-105255D02*
G54D11*
D03*
X-2771330Y-105255D02*
G54D11*
D03*
X-2751330Y-105255D02*
G54D11*
D03*
X-3091330Y-196505D02*
G54D11*
D03*
X-3071330Y-196505D02*
G54D11*
D03*
X-3051330Y-196505D02*
G54D11*
D03*
X-3031330Y-196505D02*
G54D11*
D03*
X-3011330Y-196505D02*
G54D11*
D03*
X-2991330Y-196505D02*
G54D11*
D03*
X-2971330Y-196505D02*
G54D11*
D03*
X-2951330Y-196505D02*
G54D11*
D03*
X-2931330Y-196505D02*
G54D11*
D03*
X-2911330Y-196505D02*
G54D11*
D03*
X-2891330Y-196505D02*
G54D11*
D03*
X-2871330Y-196505D02*
G54D11*
D03*
X-2851330Y-196505D02*
G54D11*
D03*
X-2831330Y-196505D02*
G54D11*
D03*
X-2811330Y-196505D02*
G54D11*
D03*
X-2791330Y-196505D02*
G54D11*
D03*
X-2771330Y-196505D02*
G54D11*
D03*
X-2751330Y-196505D02*
G54D11*
D03*
X-3090080Y-210255D02*
G54D11*
D03*
X-3070080Y-210255D02*
G54D11*
D03*
X-3050080Y-210255D02*
G54D11*
D03*
X-3030080Y-210255D02*
G54D11*
D03*
X-3010080Y-210255D02*
G54D11*
D03*
X-2990080Y-210255D02*
G54D11*
D03*
X-2970080Y-210255D02*
G54D11*
D03*
X-2950080Y-210255D02*
G54D11*
D03*
X-2930080Y-210255D02*
G54D11*
D03*
X-2910080Y-210255D02*
G54D11*
D03*
X-2890080Y-210255D02*
G54D11*
D03*
X-2870080Y-210255D02*
G54D11*
D03*
X-2850080Y-210255D02*
G54D11*
D03*
X-2830080Y-210255D02*
G54D11*
D03*
X-2810080Y-210255D02*
G54D11*
D03*
X-2790080Y-210255D02*
G54D11*
D03*
X-2770080Y-210255D02*
G54D11*
D03*
X-2750080Y-210255D02*
G54D11*
D03*
X-3090080Y-224005D02*
G54D11*
D03*
X-3070080Y-224005D02*
G54D11*
D03*
X-3050080Y-224005D02*
G54D11*
D03*
X-3030080Y-224005D02*
G54D11*
D03*
X-3010080Y-224005D02*
G54D11*
D03*
X-2990080Y-224005D02*
G54D11*
D03*
X-2970080Y-224005D02*
G54D11*
D03*
X-2950080Y-224005D02*
G54D11*
D03*
X-2930080Y-224005D02*
G54D11*
D03*
X-2910080Y-224005D02*
G54D11*
D03*
X-2890080Y-224005D02*
G54D11*
D03*
X-2870080Y-224005D02*
G54D11*
D03*
X-2850080Y-224005D02*
G54D11*
D03*
X-2830080Y-224005D02*
G54D11*
D03*
X-2810080Y-224005D02*
G54D11*
D03*
X-2790080Y-224005D02*
G54D11*
D03*
X-2770080Y-224005D02*
G54D11*
D03*
X-2750080Y-224005D02*
G54D11*
D03*
X-3090080Y-237755D02*
G54D11*
D03*
X-3070080Y-237755D02*
G54D11*
D03*
X-3050080Y-237755D02*
G54D11*
D03*
X-3030080Y-237755D02*
G54D11*
D03*
X-3010080Y-237755D02*
G54D11*
D03*
X-2990080Y-237755D02*
G54D11*
D03*
X-2970080Y-237755D02*
G54D11*
D03*
X-2950080Y-237755D02*
G54D11*
D03*
X-2930080Y-237755D02*
G54D11*
D03*
X-2910080Y-237755D02*
G54D11*
D03*
X-2890080Y-237755D02*
G54D11*
D03*
X-2870080Y-237755D02*
G54D11*
D03*
X-2850080Y-237755D02*
G54D11*
D03*
X-2830080Y-237755D02*
G54D11*
D03*
X-2810080Y-237755D02*
G54D11*
D03*
X-2790080Y-237755D02*
G54D11*
D03*
X-2770080Y-237755D02*
G54D11*
D03*
X-2750080Y-237755D02*
G54D11*
D03*
X-3090080Y-251505D02*
G54D11*
D03*
X-3070080Y-251505D02*
G54D11*
D03*
X-3050080Y-251505D02*
G54D11*
D03*
X-3030080Y-251505D02*
G54D11*
D03*
X-3010080Y-251505D02*
G54D11*
D03*
X-2990080Y-251505D02*
G54D11*
D03*
X-2970080Y-251505D02*
G54D11*
D03*
X-2950080Y-251505D02*
G54D11*
D03*
X-2930080Y-251505D02*
G54D11*
D03*
X-2910080Y-251505D02*
G54D11*
D03*
X-2890080Y-251505D02*
G54D11*
D03*
X-2870080Y-251505D02*
G54D11*
D03*
X-2850080Y-251505D02*
G54D11*
D03*
X-2830080Y-251505D02*
G54D11*
D03*
X-2810080Y-251505D02*
G54D11*
D03*
X-2790080Y-251505D02*
G54D11*
D03*
X-2770080Y-251505D02*
G54D11*
D03*
X-2750080Y-251505D02*
G54D11*
D03*
X-3090080Y-266505D02*
G54D11*
D03*
X-3070080Y-266505D02*
G54D11*
D03*
X-3050080Y-266505D02*
G54D11*
D03*
X-3030080Y-266505D02*
G54D11*
D03*
X-3010080Y-266505D02*
G54D11*
D03*
X-2990080Y-266505D02*
G54D11*
D03*
X-2970080Y-266505D02*
G54D11*
D03*
X-2950080Y-266505D02*
G54D11*
D03*
X-2930080Y-266505D02*
G54D11*
D03*
X-2910080Y-266505D02*
G54D11*
D03*
X-2890080Y-266505D02*
G54D11*
D03*
X-2870080Y-266505D02*
G54D11*
D03*
X-2850080Y-266505D02*
G54D11*
D03*
X-2830080Y-266505D02*
G54D11*
D03*
X-2810080Y-266505D02*
G54D11*
D03*
X-2790080Y-266505D02*
G54D11*
D03*
X-2770080Y-266505D02*
G54D11*
D03*
X-2750080Y-266505D02*
G54D11*
D03*
X-3090080Y-280255D02*
G54D11*
D03*
X-3070080Y-280255D02*
G54D11*
D03*
X-3050080Y-280255D02*
G54D11*
D03*
X-3030080Y-280255D02*
G54D11*
D03*
X-3010080Y-280255D02*
G54D11*
D03*
X-2990080Y-280255D02*
G54D11*
D03*
X-2970080Y-280255D02*
G54D11*
D03*
X-2950080Y-280255D02*
G54D11*
D03*
X-2930080Y-280255D02*
G54D11*
D03*
X-2910080Y-280255D02*
G54D11*
D03*
X-2890080Y-280255D02*
G54D11*
D03*
X-2870080Y-280255D02*
G54D11*
D03*
X-2850080Y-280255D02*
G54D11*
D03*
X-2830080Y-280255D02*
G54D11*
D03*
X-2810080Y-280255D02*
G54D11*
D03*
X-2790080Y-280255D02*
G54D11*
D03*
X-2770080Y-280255D02*
G54D11*
D03*
X-2750080Y-280255D02*
G54D11*
D03*
X-3090080Y-294005D02*
G54D11*
D03*
X-3070080Y-294005D02*
G54D11*
D03*
X-3050080Y-294005D02*
G54D11*
D03*
X-3030080Y-294005D02*
G54D11*
D03*
X-3010080Y-294005D02*
G54D11*
D03*
X-2990080Y-294005D02*
G54D11*
D03*
X-2970080Y-294005D02*
G54D11*
D03*
X-2950080Y-294005D02*
G54D11*
D03*
X-2930080Y-294005D02*
G54D11*
D03*
X-2910080Y-294005D02*
G54D11*
D03*
X-2890080Y-294005D02*
G54D11*
D03*
X-2870080Y-294005D02*
G54D11*
D03*
X-2850080Y-294005D02*
G54D11*
D03*
X-2830080Y-294005D02*
G54D11*
D03*
X-2810080Y-294005D02*
G54D11*
D03*
X-2790080Y-294005D02*
G54D11*
D03*
X-2770080Y-294005D02*
G54D11*
D03*
X-2750080Y-294005D02*
G54D11*
D03*
X-3090080Y-309005D02*
G54D11*
D03*
X-3070080Y-309005D02*
G54D11*
D03*
X-3050080Y-309005D02*
G54D11*
D03*
X-3030080Y-309005D02*
G54D11*
D03*
X-3010080Y-309005D02*
G54D11*
D03*
X-2990080Y-309005D02*
G54D11*
D03*
X-2970080Y-309005D02*
G54D11*
D03*
X-2950080Y-309005D02*
G54D11*
D03*
X-2930080Y-309005D02*
G54D11*
D03*
X-2910080Y-309005D02*
G54D11*
D03*
X-2890080Y-309005D02*
G54D11*
D03*
X-2870080Y-309005D02*
G54D11*
D03*
X-2850080Y-309005D02*
G54D11*
D03*
X-2830080Y-309005D02*
G54D11*
D03*
X-2810080Y-309005D02*
G54D11*
D03*
X-2790080Y-309005D02*
G54D11*
D03*
X-2770080Y-309005D02*
G54D11*
D03*
X-2750080Y-309005D02*
G54D11*
D03*
X-3090080Y-399005D02*
G54D11*
D03*
X-3070080Y-399005D02*
G54D11*
D03*
X-3050080Y-399005D02*
G54D11*
D03*
X-3030080Y-399005D02*
G54D11*
D03*
X-3010080Y-399005D02*
G54D11*
D03*
X-2990080Y-399005D02*
G54D11*
D03*
X-2970080Y-399005D02*
G54D11*
D03*
X-2950080Y-399005D02*
G54D11*
D03*
X-2930080Y-399005D02*
G54D11*
D03*
X-2910080Y-399005D02*
G54D11*
D03*
X-2890080Y-399005D02*
G54D11*
D03*
X-2870080Y-399005D02*
G54D11*
D03*
X-2850080Y-399005D02*
G54D11*
D03*
X-2830080Y-399005D02*
G54D11*
D03*
X-2810080Y-399005D02*
G54D11*
D03*
X-2790080Y-399005D02*
G54D11*
D03*
X-2770080Y-399005D02*
G54D11*
D03*
X-2750080Y-399005D02*
G54D11*
D03*
X-3088830Y-412755D02*
G54D11*
D03*
X-3068830Y-412755D02*
G54D11*
D03*
X-3048830Y-412755D02*
G54D11*
D03*
X-3028830Y-412755D02*
G54D11*
D03*
X-3008830Y-412755D02*
G54D11*
D03*
X-2988830Y-412755D02*
G54D11*
D03*
X-2968830Y-412755D02*
G54D11*
D03*
X-2948830Y-412755D02*
G54D11*
D03*
X-2928830Y-412755D02*
G54D11*
D03*
X-2908830Y-412755D02*
G54D11*
D03*
X-2888830Y-412755D02*
G54D11*
D03*
X-2868830Y-412755D02*
G54D11*
D03*
X-2848830Y-412755D02*
G54D11*
D03*
X-2828830Y-412755D02*
G54D11*
D03*
X-2808830Y-412755D02*
G54D11*
D03*
X-2788830Y-412755D02*
G54D11*
D03*
X-2768830Y-412755D02*
G54D11*
D03*
X-2748830Y-412755D02*
G54D11*
D03*
X-3088830Y-426505D02*
G54D11*
D03*
X-3068830Y-426505D02*
G54D11*
D03*
X-3048830Y-426505D02*
G54D11*
D03*
X-3028830Y-426505D02*
G54D11*
D03*
X-3008830Y-426505D02*
G54D11*
D03*
X-2988830Y-426505D02*
G54D11*
D03*
X-2968830Y-426505D02*
G54D11*
D03*
X-2948830Y-426505D02*
G54D11*
D03*
X-2928830Y-426505D02*
G54D11*
D03*
X-2908830Y-426505D02*
G54D11*
D03*
X-2888830Y-426505D02*
G54D11*
D03*
X-2868830Y-426505D02*
G54D11*
D03*
X-2848830Y-426505D02*
G54D11*
D03*
X-2828830Y-426505D02*
G54D11*
D03*
X-2808830Y-426505D02*
G54D11*
D03*
X-2788830Y-426505D02*
G54D11*
D03*
X-2768830Y-426505D02*
G54D11*
D03*
X-2748830Y-426505D02*
G54D11*
D03*
X-3088830Y-440255D02*
G54D11*
D03*
X-3068830Y-440255D02*
G54D11*
D03*
X-3048830Y-440255D02*
G54D11*
D03*
X-3028830Y-440255D02*
G54D11*
D03*
X-3008830Y-440255D02*
G54D11*
D03*
X-2988830Y-440255D02*
G54D11*
D03*
X-2968830Y-440255D02*
G54D11*
D03*
X-2948830Y-440255D02*
G54D11*
D03*
X-2928830Y-440255D02*
G54D11*
D03*
X-2908830Y-440255D02*
G54D11*
D03*
X-2888830Y-440255D02*
G54D11*
D03*
X-2868830Y-440255D02*
G54D11*
D03*
X-2848830Y-440255D02*
G54D11*
D03*
X-2828830Y-440255D02*
G54D11*
D03*
X-2808830Y-440255D02*
G54D11*
D03*
X-2788830Y-440255D02*
G54D11*
D03*
X-2768830Y-440255D02*
G54D11*
D03*
X-2748830Y-440255D02*
G54D11*
D03*
X-3088830Y-454005D02*
G54D11*
D03*
X-3068830Y-454005D02*
G54D11*
D03*
X-3048830Y-454005D02*
G54D11*
D03*
X-3028830Y-454005D02*
G54D11*
D03*
X-3008830Y-454005D02*
G54D11*
D03*
X-2988830Y-454005D02*
G54D11*
D03*
X-2968830Y-454005D02*
G54D11*
D03*
X-2948830Y-454005D02*
G54D11*
D03*
X-2928830Y-454005D02*
G54D11*
D03*
X-2908830Y-454005D02*
G54D11*
D03*
X-2888830Y-454005D02*
G54D11*
D03*
X-2868830Y-454005D02*
G54D11*
D03*
X-2848830Y-454005D02*
G54D11*
D03*
X-2828830Y-454005D02*
G54D11*
D03*
X-2808830Y-454005D02*
G54D11*
D03*
X-2788830Y-454005D02*
G54D11*
D03*
X-2768830Y-454005D02*
G54D11*
D03*
X-2748830Y-454005D02*
G54D11*
D03*
X-3088830Y-469005D02*
G54D11*
D03*
X-3068830Y-469005D02*
G54D11*
D03*
X-3048830Y-469005D02*
G54D11*
D03*
X-3028830Y-469005D02*
G54D11*
D03*
X-3008830Y-469005D02*
G54D11*
D03*
X-2988830Y-469005D02*
G54D11*
D03*
X-2968830Y-469005D02*
G54D11*
D03*
X-2948830Y-469005D02*
G54D11*
D03*
X-2928830Y-469005D02*
G54D11*
D03*
X-2908830Y-469005D02*
G54D11*
D03*
X-2888830Y-469005D02*
G54D11*
D03*
X-2868830Y-469005D02*
G54D11*
D03*
X-2848830Y-469005D02*
G54D11*
D03*
X-2828830Y-469005D02*
G54D11*
D03*
X-2808830Y-469005D02*
G54D11*
D03*
X-2788830Y-469005D02*
G54D11*
D03*
X-2768830Y-469005D02*
G54D11*
D03*
X-2748830Y-469005D02*
G54D11*
D03*
X-3088830Y-482755D02*
G54D11*
D03*
X-3068830Y-482755D02*
G54D11*
D03*
X-3048830Y-482755D02*
G54D11*
D03*
X-3028830Y-482755D02*
G54D11*
D03*
X-3008830Y-482755D02*
G54D11*
D03*
X-2988830Y-482755D02*
G54D11*
D03*
X-2968830Y-482755D02*
G54D11*
D03*
X-2948830Y-482755D02*
G54D11*
D03*
X-2928830Y-482755D02*
G54D11*
D03*
X-2908830Y-482755D02*
G54D11*
D03*
X-2888830Y-482755D02*
G54D11*
D03*
X-2868830Y-482755D02*
G54D11*
D03*
X-2848830Y-482755D02*
G54D11*
D03*
X-2828830Y-482755D02*
G54D11*
D03*
X-2808830Y-482755D02*
G54D11*
D03*
X-2788830Y-482755D02*
G54D11*
D03*
X-2768830Y-482755D02*
G54D11*
D03*
X-2748830Y-482755D02*
G54D11*
D03*
X-3088830Y-496505D02*
G54D11*
D03*
X-3068830Y-496505D02*
G54D11*
D03*
X-3048830Y-496505D02*
G54D11*
D03*
X-3028830Y-496505D02*
G54D11*
D03*
X-3008830Y-496505D02*
G54D11*
D03*
X-2988830Y-496505D02*
G54D11*
D03*
X-2968830Y-496505D02*
G54D11*
D03*
X-2948830Y-496505D02*
G54D11*
D03*
X-2928830Y-496505D02*
G54D11*
D03*
X-2908830Y-496505D02*
G54D11*
D03*
X-2888830Y-496505D02*
G54D11*
D03*
X-2868830Y-496505D02*
G54D11*
D03*
X-2848830Y-496505D02*
G54D11*
D03*
X-2828830Y-496505D02*
G54D11*
D03*
X-2808830Y-496505D02*
G54D11*
D03*
X-2788830Y-496505D02*
G54D11*
D03*
X-2768830Y-496505D02*
G54D11*
D03*
X-2748830Y-496505D02*
G54D11*
D03*
X-3088830Y-511505D02*
G54D11*
D03*
X-3068830Y-511505D02*
G54D11*
D03*
X-3048830Y-511505D02*
G54D11*
D03*
X-3028830Y-511505D02*
G54D11*
D03*
X-3008830Y-511505D02*
G54D11*
D03*
X-2988830Y-511505D02*
G54D11*
D03*
X-2968830Y-511505D02*
G54D11*
D03*
X-2948830Y-511505D02*
G54D11*
D03*
X-2928830Y-511505D02*
G54D11*
D03*
X-2908830Y-511505D02*
G54D11*
D03*
X-2888830Y-511505D02*
G54D11*
D03*
X-2868830Y-511505D02*
G54D11*
D03*
X-2848830Y-511505D02*
G54D11*
D03*
X-2828830Y-511505D02*
G54D11*
D03*
X-2808830Y-511505D02*
G54D11*
D03*
X-2788830Y-511505D02*
G54D11*
D03*
X-2768830Y-511505D02*
G54D11*
D03*
X-2748830Y-511505D02*
G54D11*
D03*
X-3462830Y-31558D02*
G54D12*
D03*
X-3482830Y-31558D02*
G54D12*
D03*
X-3502830Y-31558D02*
G54D12*
D03*
X-3502830Y-11558D02*
G54D12*
D03*
X-3482830Y-11558D02*
G54D12*
D03*
X-3482830Y8442D02*
G54D12*
D03*
X-3502830Y8442D02*
G54D12*
D03*
X-3502830Y28442D02*
G54D12*
D03*
X-3482830Y28442D02*
G54D12*
D03*
X-3462830Y28442D02*
G54D12*
D03*
X-3462830Y8442D02*
G54D12*
D03*
X-3462830Y-11558D02*
G54D12*
D03*
X-3442830Y-11558D02*
G54D12*
D03*
X-3442830Y-31558D02*
G54D12*
D03*
X-3442830Y8442D02*
G54D12*
D03*
X-3442830Y28442D02*
G54D12*
D03*
X-3422830Y28442D02*
G54D12*
D03*
X-3422830Y8442D02*
G54D12*
D03*
X-3422830Y-11558D02*
G54D12*
D03*
X-3422830Y-31558D02*
G54D12*
D03*
X-3422830Y-51558D02*
G54D12*
D03*
X-3442830Y-51558D02*
G54D12*
D03*
X-3462830Y-51558D02*
G54D12*
D03*
X-3482830Y-51558D02*
G54D12*
D03*
X-3502830Y-51558D02*
G54D12*
D03*
X-3502830Y-71558D02*
G54D12*
D03*
X-3482830Y-71558D02*
G54D12*
D03*
X-3462830Y-71558D02*
G54D12*
D03*
X-3442830Y-71558D02*
G54D12*
D03*
X-3422830Y-71558D02*
G54D12*
D03*
X-3422830Y-91558D02*
G54D12*
D03*
X-3442830Y-91558D02*
G54D12*
D03*
X-3462830Y-91558D02*
G54D12*
D03*
X-3482830Y-91558D02*
G54D12*
D03*
X-3502830Y-91558D02*
G54D12*
D03*
X-3502830Y-111558D02*
G54D12*
D03*
X-3482830Y-111558D02*
G54D12*
D03*
X-3462830Y-111558D02*
G54D12*
D03*
X-3442830Y-111558D02*
G54D12*
D03*
X-3422830Y-111558D02*
G54D12*
D03*
X-3422830Y48442D02*
G54D12*
D03*
X-3442830Y48442D02*
G54D12*
D03*
X-3462830Y48442D02*
G54D12*
D03*
X-3482830Y48442D02*
G54D12*
D03*
X-3502830Y48442D02*
G54D12*
D03*
X-3502830Y-131558D02*
G54D12*
D03*
X-3482830Y-131558D02*
G54D12*
D03*
X-3462830Y-131558D02*
G54D12*
D03*
X-3442830Y-131558D02*
G54D12*
D03*
X-3422830Y-131558D02*
G54D12*
D03*
X-3422830Y-151558D02*
G54D12*
D03*
X-3442830Y-151558D02*
G54D12*
D03*
X-3462830Y-151558D02*
G54D12*
D03*
X-3482830Y-151558D02*
G54D12*
D03*
X-3502830Y-151558D02*
G54D12*
D03*
X-2183135Y174792D02*
G54D10*
D03*
X-2183135Y154792D02*
G54D10*
D03*
X-2183135Y134792D02*
G54D10*
D03*
X-2183135Y104792D02*
G54D10*
D03*
X-2153135Y104792D02*
G54D10*
D03*
X-2153135Y134792D02*
G54D10*
D03*
X-2153135Y154792D02*
G54D10*
D03*
X-2153135Y174792D02*
G54D10*
D03*
X-2123135Y174792D02*
G54D10*
D03*
X-2123135Y154792D02*
G54D10*
D03*
X-2123135Y134792D02*
G54D10*
D03*
X-2123135Y104792D02*
G54D10*
D03*
X-2063135Y104792D02*
G54D10*
D03*
X-2063135Y134792D02*
G54D10*
D03*
X-2063135Y154792D02*
G54D10*
D03*
X-2063135Y174792D02*
G54D10*
D03*
X-2033135Y174792D02*
G54D10*
D03*
X-2033135Y154792D02*
G54D10*
D03*
X-2033135Y134792D02*
G54D10*
D03*
X-2033135Y104792D02*
G54D10*
D03*
X-2003135Y104792D02*
G54D10*
D03*
X-2003135Y134792D02*
G54D10*
D03*
X-2003135Y154792D02*
G54D10*
D03*
X-2003135Y174792D02*
G54D10*
D03*
X-2180635Y-27708D02*
G54D10*
D03*
X-2180635Y-47708D02*
G54D10*
D03*
X-2180635Y-67708D02*
G54D10*
D03*
X-2180635Y-97708D02*
G54D10*
D03*
X-2150635Y-97708D02*
G54D10*
D03*
X-2150635Y-67708D02*
G54D10*
D03*
X-2150635Y-47708D02*
G54D10*
D03*
X-2150635Y-27708D02*
G54D10*
D03*
X-2120635Y-27708D02*
G54D10*
D03*
X-2120635Y-47708D02*
G54D10*
D03*
X-2120635Y-67708D02*
G54D10*
D03*
X-2120635Y-97708D02*
G54D10*
D03*
X-2060635Y-97708D02*
G54D10*
D03*
X-2060635Y-67708D02*
G54D10*
D03*
X-2060635Y-47708D02*
G54D10*
D03*
X-2060635Y-27708D02*
G54D10*
D03*
X-2030635Y-27708D02*
G54D10*
D03*
X-2030635Y-47708D02*
G54D10*
D03*
X-2030635Y-67708D02*
G54D10*
D03*
X-2030635Y-97708D02*
G54D10*
D03*
X-2000635Y-97708D02*
G54D10*
D03*
X-2000635Y-67708D02*
G54D10*
D03*
X-2000635Y-47708D02*
G54D10*
D03*
X-2000635Y-27708D02*
G54D10*
D03*
X-2180635Y-232708D02*
G54D10*
D03*
X-2180635Y-252708D02*
G54D10*
D03*
X-2180635Y-272708D02*
G54D10*
D03*
X-2180635Y-302708D02*
G54D10*
D03*
X-2150635Y-302708D02*
G54D10*
D03*
X-2150635Y-272708D02*
G54D10*
D03*
X-2150635Y-252708D02*
G54D10*
D03*
X-2150635Y-232708D02*
G54D10*
D03*
X-2120635Y-232708D02*
G54D10*
D03*
X-2120635Y-252708D02*
G54D10*
D03*
X-2120635Y-272708D02*
G54D10*
D03*
X-2120635Y-302708D02*
G54D10*
D03*
X-2060635Y-302708D02*
G54D10*
D03*
X-2060635Y-272708D02*
G54D10*
D03*
X-2060635Y-252708D02*
G54D10*
D03*
X-2060635Y-232708D02*
G54D10*
D03*
X-2030635Y-232708D02*
G54D10*
D03*
X-2030635Y-252708D02*
G54D10*
D03*
X-2030635Y-272708D02*
G54D10*
D03*
X-2030635Y-302708D02*
G54D10*
D03*
X-2000635Y-302708D02*
G54D10*
D03*
X-2000635Y-272708D02*
G54D10*
D03*
X-2000635Y-252708D02*
G54D10*
D03*
X-2000635Y-232708D02*
G54D10*
D03*
X-2180635Y-432708D02*
G54D10*
D03*
X-2180635Y-452708D02*
G54D10*
D03*
X-2180635Y-472708D02*
G54D10*
D03*
X-2180635Y-502708D02*
G54D10*
D03*
X-2150635Y-502708D02*
G54D10*
D03*
X-2150635Y-472708D02*
G54D10*
D03*
X-2150635Y-452708D02*
G54D10*
D03*
X-2150635Y-432708D02*
G54D10*
D03*
X-2120635Y-432708D02*
G54D10*
D03*
X-2120635Y-452708D02*
G54D10*
D03*
X-2120635Y-472708D02*
G54D10*
D03*
X-2120635Y-502708D02*
G54D10*
D03*
X-2060635Y-502708D02*
G54D10*
D03*
X-2060635Y-472708D02*
G54D10*
D03*
X-2060635Y-452708D02*
G54D10*
D03*
X-2060635Y-432708D02*
G54D10*
D03*
X-2030635Y-432708D02*
G54D10*
D03*
X-2030635Y-452708D02*
G54D10*
D03*
X-2030635Y-472708D02*
G54D10*
D03*
X-2030635Y-502708D02*
G54D10*
D03*
X-2000635Y-502708D02*
G54D10*
D03*
X-2000635Y-472708D02*
G54D10*
D03*
X-2000635Y-452708D02*
G54D10*
D03*
X-2000635Y-432708D02*
G54D10*
D03*
X-660635Y174792D02*
G54D10*
D03*
X-660635Y154792D02*
G54D10*
D03*
X-660635Y134792D02*
G54D10*
D03*
X-660635Y104792D02*
G54D10*
D03*
X-630635Y104792D02*
G54D10*
D03*
X-630635Y134792D02*
G54D10*
D03*
X-630635Y154792D02*
G54D10*
D03*
X-630635Y174792D02*
G54D10*
D03*
X-600635Y174792D02*
G54D10*
D03*
X-600635Y154792D02*
G54D10*
D03*
X-600635Y134792D02*
G54D10*
D03*
X-600635Y104792D02*
G54D10*
D03*
X-540635Y104792D02*
G54D10*
D03*
X-540635Y134792D02*
G54D10*
D03*
X-540635Y154792D02*
G54D10*
D03*
X-540635Y174792D02*
G54D10*
D03*
X-510635Y174792D02*
G54D10*
D03*
X-510635Y154792D02*
G54D10*
D03*
X-510635Y134792D02*
G54D10*
D03*
X-510635Y104792D02*
G54D10*
D03*
X-480635Y104792D02*
G54D10*
D03*
X-480635Y134792D02*
G54D10*
D03*
X-480635Y154792D02*
G54D10*
D03*
X-480635Y174792D02*
G54D10*
D03*
X-658135Y-27708D02*
G54D10*
D03*
X-658135Y-47708D02*
G54D10*
D03*
X-658135Y-67708D02*
G54D10*
D03*
X-658135Y-97708D02*
G54D10*
D03*
X-628135Y-97708D02*
G54D10*
D03*
X-628135Y-67708D02*
G54D10*
D03*
X-628135Y-47708D02*
G54D10*
D03*
X-628135Y-27708D02*
G54D10*
D03*
X-598135Y-27708D02*
G54D10*
D03*
X-598135Y-47708D02*
G54D10*
D03*
X-598135Y-67708D02*
G54D10*
D03*
X-598135Y-97708D02*
G54D10*
D03*
X-538135Y-97708D02*
G54D10*
D03*
X-538135Y-67708D02*
G54D10*
D03*
X-538135Y-47708D02*
G54D10*
D03*
X-538135Y-27708D02*
G54D10*
D03*
X-508135Y-27708D02*
G54D10*
D03*
X-508135Y-47708D02*
G54D10*
D03*
X-508135Y-67708D02*
G54D10*
D03*
X-508135Y-97708D02*
G54D10*
D03*
X-478135Y-97708D02*
G54D10*
D03*
X-478135Y-67708D02*
G54D10*
D03*
X-478135Y-47708D02*
G54D10*
D03*
X-478135Y-27708D02*
G54D10*
D03*
X-658135Y-230208D02*
G54D10*
D03*
X-658135Y-250208D02*
G54D10*
D03*
X-658135Y-270208D02*
G54D10*
D03*
X-658135Y-300208D02*
G54D10*
D03*
X-628135Y-300208D02*
G54D10*
D03*
X-628135Y-270208D02*
G54D10*
D03*
X-628135Y-250208D02*
G54D10*
D03*
X-628135Y-230208D02*
G54D10*
D03*
X-598135Y-230208D02*
G54D10*
D03*
X-598135Y-250208D02*
G54D10*
D03*
X-598135Y-270208D02*
G54D10*
D03*
X-598135Y-300208D02*
G54D10*
D03*
X-538135Y-300208D02*
G54D10*
D03*
X-538135Y-270208D02*
G54D10*
D03*
X-538135Y-250208D02*
G54D10*
D03*
X-538135Y-230208D02*
G54D10*
D03*
X-508135Y-230208D02*
G54D10*
D03*
X-508135Y-250208D02*
G54D10*
D03*
X-508135Y-270208D02*
G54D10*
D03*
X-508135Y-300208D02*
G54D10*
D03*
X-478135Y-300208D02*
G54D10*
D03*
X-478135Y-270208D02*
G54D10*
D03*
X-478135Y-250208D02*
G54D10*
D03*
X-478135Y-230208D02*
G54D10*
D03*
X-655635Y-435208D02*
G54D10*
D03*
X-655635Y-455208D02*
G54D10*
D03*
X-655635Y-475208D02*
G54D10*
D03*
X-655635Y-505208D02*
G54D10*
D03*
X-625635Y-505208D02*
G54D10*
D03*
X-625635Y-475208D02*
G54D10*
D03*
X-625635Y-455208D02*
G54D10*
D03*
X-625635Y-435208D02*
G54D10*
D03*
X-595635Y-435208D02*
G54D10*
D03*
X-595635Y-455208D02*
G54D10*
D03*
X-595635Y-475208D02*
G54D10*
D03*
X-595635Y-505208D02*
G54D10*
D03*
X-535635Y-505208D02*
G54D10*
D03*
X-535635Y-475208D02*
G54D10*
D03*
X-535635Y-455208D02*
G54D10*
D03*
X-535635Y-435208D02*
G54D10*
D03*
X-505635Y-435208D02*
G54D10*
D03*
X-505635Y-455208D02*
G54D10*
D03*
X-505635Y-475208D02*
G54D10*
D03*
X-505635Y-505208D02*
G54D10*
D03*
X-475635Y-505208D02*
G54D10*
D03*
X-475635Y-475208D02*
G54D10*
D03*
X-475635Y-455208D02*
G54D10*
D03*
X-475635Y-435208D02*
G54D10*
D03*
X0Y0D02*
G54D10*
D03*
X0Y-25000D02*
G54D10*
D03*
X25000Y-25000D02*
G54D10*
D03*
X25000Y0D02*
G54D10*
D03*
X25000Y-50000D02*
G54D10*
D03*
X0Y-50000D02*
G54D10*
D03*
X0Y-75000D02*
G54D10*
D03*
X25000Y-75000D02*
G54D10*
D03*
X65000Y0D02*
G54D10*
D03*
X65000Y-25000D02*
G54D10*
D03*
X90000Y-25000D02*
G54D10*
D03*
X90000Y0D02*
G54D10*
D03*
X90000Y-50000D02*
G54D10*
D03*
X65000Y-50000D02*
G54D10*
D03*
X65000Y-75000D02*
G54D10*
D03*
X90000Y-75000D02*
G54D10*
D03*
X122500Y0D02*
G54D10*
D03*
X122500Y-25000D02*
G54D10*
D03*
X147500Y-25000D02*
G54D10*
D03*
X147500Y0D02*
G54D10*
D03*
X147500Y-50000D02*
G54D10*
D03*
X122500Y-50000D02*
G54D10*
D03*
X122500Y-75000D02*
G54D10*
D03*
X147500Y-75000D02*
G54D10*
D03*
X172500Y0D02*
G54D10*
D03*
X172500Y-25000D02*
G54D10*
D03*
X197500Y-25000D02*
G54D10*
D03*
X197500Y0D02*
G54D10*
D03*
X197500Y-50000D02*
G54D10*
D03*
X172500Y-50000D02*
G54D10*
D03*
X172500Y-75000D02*
G54D10*
D03*
X197500Y-75000D02*
G54D10*
D03*
X225000Y0D02*
G54D10*
D03*
X225000Y-25000D02*
G54D10*
D03*
X250000Y-25000D02*
G54D10*
D03*
X250000Y0D02*
G54D10*
D03*
X250000Y-50000D02*
G54D10*
D03*
X225000Y-50000D02*
G54D10*
D03*
X225000Y-75000D02*
G54D10*
D03*
X250000Y-75000D02*
G54D10*
D03*
X280000Y0D02*
G54D10*
D03*
X280000Y-25000D02*
G54D10*
D03*
X305000Y-25000D02*
G54D10*
D03*
X305000Y0D02*
G54D10*
D03*
X305000Y-50000D02*
G54D10*
D03*
X280000Y-50000D02*
G54D10*
D03*
X280000Y-75000D02*
G54D10*
D03*
X305000Y-75000D02*
G54D10*
D03*
X345000Y0D02*
G54D10*
D03*
X345000Y-25000D02*
G54D10*
D03*
X370000Y-25000D02*
G54D10*
D03*
X370000Y0D02*
G54D10*
D03*
X370000Y-50000D02*
G54D10*
D03*
X345000Y-50000D02*
G54D10*
D03*
X345000Y-75000D02*
G54D10*
D03*
X370000Y-75000D02*
G54D10*
D03*
X0Y25000D02*
G54D13*
D03*
X-25000Y0D02*
G54D13*
D03*
X25000Y25000D02*
G54D13*
D03*
X65000Y25000D02*
G54D13*
D03*
X90000Y25000D02*
G54D13*
D03*
X-25000Y-25000D02*
G54D13*
D03*
X-25000Y-50000D02*
G54D13*
D03*
X-25000Y-75000D02*
G54D13*
D03*
X280000Y25000D02*
G54D13*
D03*
X305000Y25000D02*
G54D13*
D03*
X345000Y25000D02*
G54D13*
D03*
X370000Y25000D02*
G54D13*
D03*
X395000Y0D02*
G54D13*
D03*
X395000Y-25000D02*
G54D13*
D03*
X395000Y-50000D02*
G54D13*
D03*
X395000Y-75000D02*
G54D13*
D03*
X0Y-405000D02*
G54D10*
D03*
X0Y-430000D02*
G54D10*
D03*
X25000Y-430000D02*
G54D10*
D03*
X25000Y-405000D02*
G54D10*
D03*
X25000Y-455000D02*
G54D10*
D03*
X0Y-455000D02*
G54D10*
D03*
X0Y-480000D02*
G54D10*
D03*
X25000Y-480000D02*
G54D10*
D03*
X65000Y-405000D02*
G54D10*
D03*
X65000Y-430000D02*
G54D10*
D03*
X90000Y-430000D02*
G54D10*
D03*
X90000Y-405000D02*
G54D10*
D03*
X90000Y-455000D02*
G54D10*
D03*
X65000Y-455000D02*
G54D10*
D03*
X65000Y-480000D02*
G54D10*
D03*
X90000Y-480000D02*
G54D10*
D03*
X122500Y-405000D02*
G54D10*
D03*
X122500Y-430000D02*
G54D10*
D03*
X147500Y-430000D02*
G54D10*
D03*
X147500Y-405000D02*
G54D10*
D03*
X147500Y-455000D02*
G54D10*
D03*
X122500Y-455000D02*
G54D10*
D03*
X122500Y-480000D02*
G54D10*
D03*
X147500Y-480000D02*
G54D10*
D03*
X172500Y-405000D02*
G54D10*
D03*
X172500Y-430000D02*
G54D10*
D03*
X197500Y-430000D02*
G54D10*
D03*
X197500Y-405000D02*
G54D10*
D03*
X197500Y-455000D02*
G54D10*
D03*
X172500Y-455000D02*
G54D10*
D03*
X172500Y-480000D02*
G54D10*
D03*
X197500Y-480000D02*
G54D10*
D03*
X225000Y-405000D02*
G54D10*
D03*
X225000Y-430000D02*
G54D10*
D03*
X250000Y-430000D02*
G54D10*
D03*
X250000Y-405000D02*
G54D10*
D03*
X250000Y-455000D02*
G54D10*
D03*
X225000Y-455000D02*
G54D10*
D03*
X225000Y-480000D02*
G54D10*
D03*
X250000Y-480000D02*
G54D10*
D03*
X280000Y-405000D02*
G54D10*
D03*
X280000Y-430000D02*
G54D10*
D03*
X305000Y-430000D02*
G54D10*
D03*
X305000Y-405000D02*
G54D10*
D03*
X305000Y-455000D02*
G54D10*
D03*
X280000Y-455000D02*
G54D10*
D03*
X280000Y-480000D02*
G54D10*
D03*
X305000Y-480000D02*
G54D10*
D03*
X345000Y-405000D02*
G54D10*
D03*
X345000Y-430000D02*
G54D10*
D03*
X370000Y-430000D02*
G54D10*
D03*
X370000Y-405000D02*
G54D10*
D03*
X370000Y-455000D02*
G54D10*
D03*
X345000Y-455000D02*
G54D10*
D03*
X345000Y-480000D02*
G54D10*
D03*
X370000Y-480000D02*
G54D10*
D03*
X0Y-380000D02*
G54D13*
D03*
X-25000Y-405000D02*
G54D13*
D03*
X25000Y-380000D02*
G54D13*
D03*
X65000Y-380000D02*
G54D13*
D03*
X90000Y-380000D02*
G54D13*
D03*
X-25000Y-430000D02*
G54D13*
D03*
X-25000Y-455000D02*
G54D13*
D03*
X-25000Y-480000D02*
G54D13*
D03*
X280000Y-380000D02*
G54D13*
D03*
X305000Y-380000D02*
G54D13*
D03*
X345000Y-380000D02*
G54D13*
D03*
X370000Y-380000D02*
G54D13*
D03*
X395000Y-405000D02*
G54D13*
D03*
X395000Y-430000D02*
G54D13*
D03*
X395000Y-455000D02*
G54D13*
D03*
X395000Y-480000D02*
G54D13*
D03*
X-475000Y-375000D02*
G54D13*
D03*
X-610000Y-350000D02*
G54D13*
D03*
X-652500Y-350000D02*
G54D13*
D03*
X-652500Y-362500D02*
G54D13*
D03*
X-652500Y-375000D02*
G54D13*
D03*
X-652500Y-387500D02*
G54D13*
D03*
X-677500Y-337500D02*
G54D13*
D03*
X-707500Y-367500D02*
G54D13*
D03*
X-727500Y-367500D02*
G54D13*
D03*
X-747500Y-367500D02*
G54D13*
D03*
X-707500Y-327500D02*
G54D13*
D03*
X-730000Y-327500D02*
G54D13*
D03*
X-750000Y-327500D02*
G54D13*
D03*
X-797500Y-365000D02*
G54D13*
D03*
X-710000Y-407500D02*
G54D13*
D03*
X-730000Y-407500D02*
G54D13*
D03*
X-750000Y-407500D02*
G54D13*
D03*
X-767500Y-407500D02*
G54D13*
D03*
X-787500Y-407500D02*
G54D13*
D03*
X-807500Y-407500D02*
G54D13*
D03*
X-827500Y-407500D02*
G54D13*
D03*
X-847500Y-407500D02*
G54D13*
D03*
X-867500Y-407500D02*
G54D13*
D03*
X-887500Y-407500D02*
G54D13*
D03*
X-910000Y-407500D02*
G54D13*
D03*
X-1047500Y-407500D02*
G54D13*
D03*
X-1067500Y-407500D02*
G54D13*
D03*
X-1127500Y-407500D02*
G54D13*
D03*
X-1150000Y-407500D02*
G54D13*
D03*
X-1047500Y-377500D02*
G54D13*
D03*
X-1070000Y-377500D02*
G54D13*
D03*
X-1087500Y-377500D02*
G54D13*
D03*
X-1107500Y-377500D02*
G54D13*
D03*
X-1127500Y-377500D02*
G54D13*
D03*
X-1150000Y-377500D02*
G54D13*
D03*
X-1170000Y-377500D02*
G54D13*
D03*
X-1190000Y-377500D02*
G54D13*
D03*
X-1047500Y-325000D02*
G54D13*
D03*
X-1067500Y-325000D02*
G54D13*
D03*
X-1090000Y-325000D02*
G54D13*
D03*
X-1110000Y-325000D02*
G54D13*
D03*
X-1127500Y-325000D02*
G54D13*
D03*
X-1150000Y-325000D02*
G54D13*
D03*
X-1170000Y-325000D02*
G54D13*
D03*
X-1190000Y-325000D02*
G54D13*
D03*
X-1702500Y227500D02*
G54D13*
D03*
X-1690000Y230000D02*
G54D13*
D03*
X-1690000Y215000D02*
G54D13*
D03*
X-1702500Y217500D02*
G54D13*
D03*
X-1842500Y217500D02*
G54D13*
D03*
X-1842500Y227500D02*
G54D13*
D03*
X-1830000Y230000D02*
G54D13*
D03*
X-1830000Y215000D02*
G54D13*
D03*
X-1837500Y-452500D02*
G54D13*
D03*
X-1837500Y-472500D02*
G54D13*
D03*
X-1837500Y-485000D02*
G54D13*
D03*
X-1855000Y-485000D02*
G54D13*
D03*
X-1855000Y-472500D02*
G54D13*
D03*
X-1855000Y-452500D02*
G54D13*
D03*
X-2252500Y-407500D02*
G54D13*
D03*
X-2272500Y-407500D02*
G54D13*
D03*
X-2292500Y-407500D02*
G54D13*
D03*
X-2312500Y-407500D02*
G54D13*
D03*
X-2282500Y-365000D02*
G54D13*
D03*
X-2372500Y-380000D02*
G54D13*
D03*
X-2372500Y-407500D02*
G54D13*
D03*
X-2392500Y-407500D02*
G54D13*
D03*
X-2392500Y-380000D02*
G54D13*
D03*
X-2415000Y-380000D02*
G54D13*
D03*
X-2415000Y-407500D02*
G54D13*
D03*
X-2432500Y-380000D02*
G54D13*
D03*
X-2432500Y-407500D02*
G54D13*
D03*
X-2452500Y-407500D02*
G54D13*
D03*
X-2452500Y-380000D02*
G54D13*
D03*
X-2472500Y-380000D02*
G54D13*
D03*
X-2472500Y-407500D02*
G54D13*
D03*
X-2492500Y-407500D02*
G54D13*
D03*
X-2492500Y-380000D02*
G54D13*
D03*
X-2512500Y-380000D02*
G54D13*
D03*
X-2512500Y-407500D02*
G54D13*
D03*
X-2532500Y-407500D02*
G54D13*
D03*
X-2532500Y-380000D02*
G54D13*
D03*
X-2552500Y-380000D02*
G54D13*
D03*
X-2552500Y-407500D02*
G54D13*
D03*
X-2572500Y-407500D02*
G54D13*
D03*
X-2572500Y-380000D02*
G54D13*
D03*
X-2592500Y-380000D02*
G54D13*
D03*
X-2592500Y-407500D02*
G54D13*
D03*
X-2612500Y-407500D02*
G54D13*
D03*
X-2632500Y-407500D02*
G54D13*
D03*
X-2652500Y-407500D02*
G54D13*
D03*
X-2675000Y-407500D02*
G54D13*
D03*
G54D14*
X-710000Y-407500D02*
X-720000Y-420000D01*
X-720000Y-475000D01*
X-709556Y-488363D01*
X-720000Y-495000D01*
X-720000Y-515000D01*
X-740000Y-535000D01*
X-3165000Y-535000D01*
X-3290000Y-410000D01*
X-3290000Y-115000D01*
G54D14*
X-3290000Y-115000D02*
X-3400000Y-5000D01*
X-3432500Y-5000D01*
X-3432500Y15000D01*
X-3422830Y28442D01*
G54D14*
X-3422830Y8442D02*
X-3392500Y7500D01*
X-3280000Y-105000D01*
X-3280000Y-407500D01*
X-3155000Y-532500D01*
X-762500Y-532500D01*
X-740000Y-510000D01*
X-740000Y-490000D01*
X-729556Y-488363D01*
G54D14*
X-909556Y-428363D02*
X-900000Y-437500D01*
X-900000Y-507500D01*
X-910000Y-520000D01*
X-1397500Y-520000D01*
X-1405000Y-527500D01*
X-2420000Y-527500D01*
X-2425000Y-522500D01*
X-2425000Y-440000D01*
X-2434556Y-428363D01*
G54D14*
X-1405080Y-511505D02*
X-1410000Y-505000D01*
X-1415000Y-505000D01*
X-1415000Y-512500D01*
X-1425000Y-522500D01*
X-1757500Y-522500D01*
X-1895000Y-385000D01*
X-1972500Y-385000D01*
X-2267500Y-357500D01*
X-2710000Y-357500D01*
X-2742500Y-327500D01*
X-2742500Y-92500D01*
X-2720000Y-70000D01*
X-2670000Y-70000D01*
X-2665000Y-67500D01*
X-2665000Y-62500D01*
X-2674556Y-63363D01*
G54D14*
X-2654556Y-63363D02*
X-2662500Y-62500D01*
X-2662500Y-70000D01*
X-2667500Y-72500D01*
X-2717500Y-72500D01*
X-2740000Y-92500D01*
G54D14*
X-2740000Y-92500D02*
X-2740000Y-325000D01*
X-2710000Y-352500D01*
X-2267500Y-352500D01*
X-1972500Y-380000D01*
X-1895000Y-380000D01*
X-1755000Y-520000D01*
X-1425000Y-520000D01*
X-1417500Y-512500D01*
X-1417500Y-502500D01*
X-1410000Y-500000D01*
X-1410000Y-495000D01*
X-1405080Y-496505D01*
G54D14*
X-1385080Y-496505D02*
X-1385000Y-492500D01*
X-1375000Y-490000D01*
X-1375000Y-395000D01*
X-1332500Y-352500D01*
X-1332500Y-185000D01*
X-1365000Y-152500D01*
X-1632500Y-152500D01*
G54D14*
X-1632500Y-155000D02*
X-1367500Y-155000D01*
X-1337500Y-185000D01*
X-1337500Y-350000D01*
X-1377500Y-390000D01*
X-1377500Y-485000D01*
X-1385080Y-482755D01*
G54D14*
X-1325080Y-454005D02*
X-1332500Y-460000D01*
X-1335000Y-457500D01*
X-1335000Y-382500D01*
X-1315000Y-362500D01*
X-1315000Y-302500D01*
X-1325080Y-295255D01*
G54D14*
X-1325080Y-310255D02*
X-1317500Y-305000D01*
X-1317500Y-360000D01*
X-1337500Y-382500D01*
X-1337500Y-460000D01*
X-1332500Y-465000D01*
X-1325080Y-469005D01*
G54D14*
X-1385080Y-440255D02*
X-1390000Y-445000D01*
X-1395000Y-442500D01*
X-1395000Y-380000D01*
X-1355000Y-340000D01*
X-1355000Y-182500D01*
X-1372500Y-162500D01*
X-1640000Y-162500D01*
X-1875000Y72500D01*
X-2195000Y72500D01*
X-2205000Y80000D01*
X-2360000Y70000D01*
X-2490000Y80000D01*
X-2642500Y70000D01*
X-2660000Y87500D01*
X-2660000Y100000D01*
X-2654556Y101637D01*
G54D14*
X-2674556Y101637D02*
X-2665000Y100000D01*
X-2665000Y87500D01*
X-2642500Y65000D01*
X-2480000Y75000D01*
X-2360000Y65000D01*
X-2205000Y75000D01*
X-2195000Y70000D01*
X-1877500Y70000D01*
X-1640000Y-165000D01*
X-1375000Y-165000D01*
X-1357500Y-185000D01*
X-1357500Y-337500D01*
X-1400000Y-380000D01*
X-1397500Y-447500D01*
X-1390000Y-452500D01*
X-1385080Y-454005D01*
G54D14*
X-1266330Y-399005D02*
X-1272500Y-405000D01*
X-1275000Y-400000D01*
X-1275000Y-360000D01*
X-1295000Y-337500D01*
X-1295000Y-190000D01*
X-1212500Y-105000D01*
X-1212500Y215000D01*
X-1215000Y220000D01*
X-1532500Y220000D01*
X-1537500Y215000D01*
X-1537500Y207500D01*
X-1547580Y209745D01*
G54D14*
X-1546330Y195995D02*
X-1537500Y202500D01*
X-1532500Y205000D01*
X-1532500Y215000D01*
X-1527500Y217500D01*
X-1220000Y217500D01*
X-1215000Y207500D01*
X-1215000Y-100000D01*
X-1222500Y-112500D01*
X-1297500Y-190000D01*
X-1297500Y-337500D01*
X-1277500Y-360000D01*
X-1277500Y-402500D01*
X-1270000Y-412500D01*
X-1265080Y-412755D01*
G54D14*
X-1405080Y-454005D02*
X-1412500Y-457500D01*
X-1412500Y-392500D01*
X-1427500Y-375000D01*
X-1707500Y-375000D01*
X-1727500Y-395000D01*
X-1855000Y-395000D01*
X-1882500Y-367500D01*
X-1967500Y-367500D01*
X-2267500Y-340000D01*
X-2695000Y-340000D01*
X-2722500Y-312500D01*
X-2722500Y-205000D01*
X-2662500Y-145000D01*
X-2662500Y-102500D01*
X-2654556Y-103363D01*
G54D14*
X-2674556Y-103363D02*
X-2665000Y-102500D01*
X-2665000Y-142500D01*
X-2727500Y-205000D01*
X-2727500Y-310000D01*
X-2695000Y-342500D01*
X-2267500Y-342500D01*
X-1967500Y-370000D01*
X-1885000Y-370000D01*
X-1855000Y-400000D01*
X-1727500Y-400000D01*
X-1707500Y-380000D01*
X-1427500Y-380000D01*
X-1415000Y-395000D01*
X-1415000Y-460000D01*
X-1405080Y-469005D01*
G54D14*
X-2314556Y-243363D02*
X-2310863Y-243363D01*
X-2307500Y-240000D01*
X-2307500Y-47500D01*
X-2314556Y-43363D01*
G54D14*
X-2294556Y-243363D02*
X-2302500Y-240000D01*
X-2302500Y-47500D01*
X-2294556Y-43363D01*
G54D14*
X-1632500Y-155000D02*
X-1867500Y80000D01*
X-2192500Y80000D01*
X-2200000Y87500D01*
X-2242500Y87500D01*
X-2362500Y77500D01*
X-2492500Y87500D01*
X-2625000Y75000D01*
X-2645000Y95000D01*
X-2645000Y145000D01*
X-2650000Y150000D01*
X-2657500Y150000D01*
X-2660000Y147500D01*
X-2660000Y142500D01*
X-2654556Y141637D01*
G54D14*
X-2674556Y141637D02*
X-2665000Y142500D01*
X-2665000Y147500D01*
X-2660000Y152500D01*
X-2645000Y152500D01*
X-2642500Y150000D01*
X-2642500Y97500D01*
X-2625000Y80000D01*
X-2492500Y90000D01*
X-2360000Y80000D01*
X-2242500Y90000D01*
X-2200000Y90000D01*
X-2190000Y82500D01*
X-1867500Y82500D01*
X-1632500Y-152500D01*
G54D14*
X-2234556Y-63363D02*
X-2235863Y-63363D01*
X-2245000Y-72500D01*
X-2245000Y-252919D01*
X-2234556Y-263363D01*
G54D14*
X-2254556Y-303363D02*
X-2265000Y-292919D01*
X-2265000Y-112500D01*
X-2255863Y-103363D01*
X-2254556Y-103363D01*
G54D14*
X-2274556Y-103363D02*
X-2285000Y-113807D01*
X-2285000Y-292919D01*
X-2274556Y-303363D01*
G54D14*
X-2334556Y-223363D02*
X-2325000Y-213807D01*
X-2325000Y-32500D01*
X-2334137Y-23363D01*
X-2334556Y-23363D01*
G54D14*
X-2334556Y-63363D02*
X-2342500Y-71307D01*
X-2342500Y-260000D01*
X-2339137Y-263363D01*
X-2334556Y-263363D01*
G54D14*
X-2354556Y-263363D02*
X-2347500Y-256307D01*
X-2347500Y-70000D01*
X-2354137Y-63363D01*
X-2354556Y-63363D01*
G54D14*
X-2354556Y-103363D02*
X-2365000Y-113807D01*
X-2365000Y-295000D01*
X-2356637Y-303363D01*
X-2354556Y-303363D01*
G54D14*
X-2374556Y-243363D02*
X-2382500Y-235419D01*
X-2382500Y-47500D01*
X-2378363Y-43363D01*
X-2374556Y-43363D01*
G54D14*
X-2394556Y-43363D02*
X-2387500Y-50419D01*
X-2387500Y-235000D01*
X-2394556Y-242056D01*
X-2394556Y-243363D01*
G54D14*
X-2414556Y-303363D02*
X-2422500Y-295419D01*
X-2422500Y-110000D01*
X-2415863Y-103363D01*
X-2414556Y-103363D01*
G54D14*
X-2434556Y-103363D02*
X-2427500Y-110419D01*
X-2427500Y-295000D01*
X-2434556Y-302056D01*
X-2434556Y-303363D01*
G54D14*
X-2434556Y-223363D02*
X-2445000Y-212919D01*
X-2445000Y-100000D01*
X-2437500Y-92500D01*
X-2427500Y-92500D01*
X-2425000Y-90000D01*
X-2425000Y-32500D01*
X-2434137Y-23363D01*
X-2434556Y-23363D01*
G54D14*
X-2454556Y-43363D02*
X-2462500Y-51307D01*
X-2462500Y-237500D01*
X-2456637Y-243363D01*
X-2454556Y-243363D01*
G54D14*
X-2474556Y-243363D02*
X-2467500Y-236307D01*
X-2467500Y-50000D01*
X-2474137Y-43363D01*
X-2474556Y-43363D01*
G54D14*
X-2494556Y-263363D02*
X-2502500Y-255419D01*
X-2502500Y-142500D01*
X-2482500Y-122500D01*
X-2482500Y-100000D01*
X-2490000Y-92500D01*
X-2495000Y-92500D01*
X-2502500Y-85000D01*
X-2502500Y-71307D01*
X-2494556Y-63363D01*
G54D14*
X-2514556Y-63363D02*
X-2507500Y-70419D01*
X-2507500Y-85000D01*
X-2497500Y-95000D01*
X-2492500Y-95000D01*
X-2487500Y-100000D01*
X-2487500Y-122500D01*
X-2507500Y-142500D01*
X-2507500Y-255000D01*
X-2514556Y-262056D01*
X-2514556Y-263363D01*
G54D14*
X-2494556Y-303363D02*
X-2505000Y-292919D01*
X-2505000Y-280000D01*
X-2512500Y-272500D01*
X-2517500Y-272500D01*
X-2522500Y-267500D01*
X-2522500Y-145000D01*
X-2502500Y-125000D01*
X-2502500Y-105000D01*
X-2500863Y-103363D01*
X-2494556Y-103363D01*
G54D14*
X-2514556Y-103363D02*
X-2507500Y-110419D01*
X-2507500Y-125000D01*
X-2527500Y-145000D01*
X-2527500Y-267500D01*
X-2520000Y-275000D01*
X-2512500Y-275000D01*
X-2507500Y-280000D01*
X-2507500Y-295000D01*
X-2514556Y-302056D01*
X-2514556Y-303363D01*
G54D14*
X-2534556Y-243363D02*
X-2542500Y-235419D01*
X-2542500Y-145000D01*
X-2522500Y-125000D01*
X-2522500Y-77500D01*
X-2530000Y-70000D01*
X-2537500Y-70000D01*
X-2542500Y-65000D01*
X-2542500Y-50000D01*
X-2535863Y-43363D01*
X-2534556Y-43363D01*
G54D14*
X-2554556Y-43363D02*
X-2547500Y-50419D01*
X-2547500Y-65000D01*
X-2537500Y-75000D01*
X-2532500Y-75000D01*
X-2527500Y-80000D01*
X-2527500Y-122500D01*
X-2547500Y-142500D01*
X-2547500Y-235000D01*
X-2554556Y-242056D01*
X-2554556Y-243363D01*
G54D14*
X-2534556Y-83363D02*
X-2542500Y-91307D01*
X-2542500Y-125000D01*
X-2562500Y-145000D01*
X-2562500Y-250000D01*
X-2560000Y-252500D01*
X-2550000Y-252500D01*
X-2542500Y-260000D01*
X-2542500Y-280000D01*
X-2539137Y-283363D01*
X-2534556Y-283363D01*
G54D14*
X-2554556Y-283363D02*
X-2547500Y-276307D01*
X-2547500Y-260000D01*
X-2552500Y-255000D01*
X-2562500Y-255000D01*
X-2565000Y-252500D01*
X-2565000Y-142500D01*
X-2545000Y-122500D01*
X-2545000Y-92500D01*
X-2554137Y-83363D01*
X-2554556Y-83363D01*
G54D14*
X-2574556Y-223363D02*
X-2582500Y-215419D01*
X-2582500Y-147500D01*
X-2562500Y-127500D01*
X-2562500Y-57500D01*
X-2570000Y-50000D01*
X-2580000Y-50000D01*
X-2582500Y-47500D01*
X-2582500Y-30000D01*
X-2575863Y-23363D01*
X-2574556Y-23363D01*
G54D14*
X-2594556Y-23363D02*
X-2585000Y-32919D01*
X-2585000Y-50000D01*
X-2582500Y-52500D01*
X-2570000Y-52500D01*
X-2567500Y-55000D01*
X-2567500Y-125000D01*
X-2587500Y-145000D01*
X-2587500Y-217500D01*
X-2593363Y-223363D01*
X-2594556Y-223363D01*
G54D14*
X-2574556Y-263363D02*
X-2582500Y-255419D01*
X-2582500Y-240000D01*
X-2590000Y-232500D01*
X-2600000Y-232500D01*
X-2602500Y-230000D01*
X-2602500Y-142500D01*
X-2582500Y-122500D01*
X-2582500Y-65000D01*
X-2580863Y-63363D01*
X-2574556Y-63363D01*
G54D14*
X-2594556Y-263363D02*
X-2587500Y-256307D01*
X-2587500Y-240000D01*
X-2592500Y-235000D01*
X-2602500Y-235000D01*
X-2605000Y-232500D01*
X-2605000Y-140000D01*
X-2585000Y-120000D01*
X-2585000Y-65000D01*
X-2586637Y-63363D01*
X-2594556Y-63363D01*
G54D14*
X-2654556Y-23363D02*
X-2660000Y-28807D01*
X-2660000Y-30000D01*
X-2655000Y-35000D01*
X-2645000Y-35000D01*
X-2642500Y-37500D01*
X-2642500Y-155000D01*
X-2662500Y-175000D01*
X-2662500Y-220000D01*
X-2659137Y-223363D01*
X-2654556Y-223363D01*
G54D14*
X-2674556Y-223363D02*
X-2667500Y-220000D01*
X-2667500Y-175000D01*
X-2645000Y-152500D01*
X-2645000Y-40000D01*
X-2647500Y-37500D01*
X-2660000Y-37500D01*
X-2665000Y-32500D01*
X-2665000Y-30000D01*
X-2671637Y-23363D01*
X-2674556Y-23363D01*
G54D14*
X-2694556Y-243363D02*
X-2698363Y-243363D01*
X-2702500Y-247500D01*
X-2702500Y-250000D01*
X-2700000Y-252500D01*
X-2647500Y-252500D01*
X-2642500Y-257500D01*
X-2642500Y-307500D01*
X-2635000Y-315000D01*
X-2257500Y-315000D01*
X-1967500Y-340000D01*
X-1867500Y-340000D01*
X-1837500Y-370000D01*
X-1745000Y-370000D01*
X-1722500Y-347500D01*
X-1472500Y-345000D01*
X-1440000Y-315000D01*
X-1440000Y-287500D01*
X-1425080Y-281505D01*
G54D14*
X-1425080Y-295255D02*
X-1430000Y-290000D01*
X-1432500Y-290000D01*
X-1432500Y-315000D01*
X-1470000Y-350000D01*
X-1720000Y-350000D01*
X-1745000Y-375000D01*
X-1840000Y-375000D01*
X-1867500Y-345000D01*
X-1965000Y-345000D01*
X-2257500Y-317500D01*
X-2637500Y-317500D01*
X-2645000Y-310000D01*
X-2645000Y-260000D01*
X-2650000Y-255000D01*
X-2702500Y-255000D01*
X-2707500Y-250000D01*
X-2707500Y-245000D01*
X-2714556Y-243363D01*
G54D14*
X-2694556Y-283363D02*
X-2695000Y-275000D01*
X-2687500Y-277500D01*
X-2687500Y-315000D01*
X-2670000Y-332500D01*
X-2265000Y-332500D01*
X-1970000Y-357500D01*
X-1877500Y-357500D01*
X-1847500Y-387500D01*
X-1732500Y-387500D01*
X-1710000Y-365000D01*
X-1457500Y-365000D01*
X-1415000Y-322500D01*
X-1415000Y-245000D01*
X-1425080Y-239005D01*
G54D14*
X-1425080Y-252755D02*
X-1420000Y-247500D01*
X-1417500Y-250000D01*
X-1417500Y-320000D01*
X-1460000Y-362500D01*
X-1712500Y-362500D01*
X-1735000Y-385000D01*
X-1845000Y-385000D01*
X-1877500Y-355000D01*
X-1970000Y-355000D01*
X-2265000Y-330000D01*
X-2667500Y-330000D01*
X-2682500Y-315000D01*
X-2682500Y-277500D01*
X-2687500Y-272500D01*
X-2705000Y-272500D01*
X-2707500Y-282500D01*
X-2714556Y-283363D01*
G54D14*
X-2831330Y-196505D02*
X-2822500Y-202500D01*
X-2817500Y-207500D01*
X-2817500Y-317500D01*
X-2860000Y-360000D01*
X-2860000Y-412500D01*
X-2848830Y-412755D01*
G54D14*
X-2848830Y-426505D02*
X-2850995Y-426505D01*
X-2862500Y-415000D01*
X-2862500Y-355000D01*
X-2822500Y-315000D01*
X-2822500Y-210000D01*
X-2825000Y-207500D01*
X-2827325Y-207500D01*
X-2830080Y-210255D01*
G54D14*
X-2830080Y-280255D02*
X-2834745Y-280255D01*
X-2840000Y-275000D01*
X-2840000Y-170000D01*
X-2857500Y-152500D01*
X-2857500Y-45000D01*
X-2862500Y-40000D01*
X-2865335Y-40000D01*
X-2871330Y-34005D01*
G54D14*
X-2871330Y-47755D02*
X-2867755Y-47755D01*
X-2865000Y-45000D01*
X-2862500Y-45000D01*
X-2860000Y-47500D01*
X-2860000Y-155000D01*
X-2842500Y-172500D01*
X-2842500Y-281585D01*
X-2830080Y-294005D01*
G54D14*
X-2870080Y-251505D02*
X-2869005Y-251505D01*
X-2860000Y-242500D01*
X-2860000Y-175000D01*
X-2917500Y-117500D01*
X-2917500Y25000D01*
X-2877500Y65000D01*
X-2877500Y106075D01*
X-2871330Y112245D01*
G54D14*
X-2871330Y125995D02*
X-2871505Y125995D01*
X-2880000Y117500D01*
X-2880000Y67500D01*
X-2922500Y25000D01*
X-2922500Y-117500D01*
X-2862500Y-177500D01*
X-2862500Y-230175D01*
X-2870080Y-237755D01*
G54D14*
X-2890080Y-251505D02*
X-2886505Y-251505D01*
X-2882500Y-247500D01*
X-2882500Y-182500D01*
X-2940000Y-125000D01*
X-2940000Y32500D01*
X-2900000Y72500D01*
X-2900000Y103575D01*
X-2891330Y112245D01*
G54D14*
X-2891330Y97245D02*
X-2895255Y97245D01*
X-2897500Y95000D01*
X-2897500Y70000D01*
X-2937500Y30000D01*
X-2937500Y-122500D01*
X-2877500Y-182500D01*
X-2877500Y-253925D01*
X-2890080Y-266505D01*
G54D14*
X-2910080Y-210255D02*
X-2915255Y-210255D01*
X-2917500Y-212500D01*
X-2917500Y-415175D01*
X-2928830Y-426505D01*
G54D14*
X-2928830Y-412755D02*
X-2927755Y-412755D01*
X-2920000Y-405000D01*
X-2920000Y-205175D01*
X-2911330Y-196505D01*
G54D14*
X-2951330Y-196505D02*
X-2954005Y-196505D01*
X-2960000Y-202500D01*
X-2960000Y-403925D01*
X-2968830Y-412755D01*
G54D14*
X-2968830Y-426505D02*
X-2968830Y-426330D01*
X-2957500Y-415000D01*
X-2957500Y-217675D01*
X-2950080Y-210255D01*
G54D14*
X-3030080Y-210255D02*
X-3030080Y-210080D01*
X-3025000Y-205000D01*
X-3022500Y-205000D01*
X-3020000Y-207500D01*
X-3020000Y-330000D01*
X-3062500Y-372500D01*
X-3062500Y-412835D01*
X-3048830Y-426505D01*
G54D14*
X-3048830Y-412755D02*
X-3052245Y-412755D01*
X-3060000Y-405000D01*
X-3060000Y-372500D01*
X-3017500Y-330000D01*
X-3017500Y-207500D01*
X-3025000Y-200000D01*
X-3027835Y-200000D01*
X-3031330Y-196505D01*
G54D14*
X-3030080Y-280255D02*
X-3032245Y-280255D01*
X-3037500Y-275000D01*
X-3037500Y45000D01*
X-3017500Y65000D01*
X-3017500Y154665D01*
X-3031330Y168495D01*
G54D14*
X-3031330Y154745D02*
X-3024745Y154745D01*
X-3020000Y150000D01*
X-3020000Y67500D01*
X-3040000Y47500D01*
X-3040000Y-284085D01*
X-3030080Y-294005D01*
G54D14*
X-3050080Y-294005D02*
X-3053495Y-294005D01*
X-3057500Y-290000D01*
X-3057500Y50000D01*
X-3037414Y73037D01*
G54D14*
X-3037414Y73037D02*
X-3037414Y140829D01*
X-3051330Y154745D01*
G54D14*
X-3051330Y139745D02*
X-3044745Y139745D01*
X-3042500Y137500D01*
X-3042500Y70000D01*
X-3060000Y52500D01*
X-3060000Y-299085D01*
X-3050080Y-309005D01*
G54D15*
X-600635Y174792D02*
X-600635Y104792D01*
G54D15*
X-480635Y174792D02*
X-480635Y104792D01*
G54D15*
X-598135Y-27708D02*
X-598135Y-97708D01*
G54D15*
X-478135Y-27708D02*
X-478135Y-97708D01*
G54D15*
X-478135Y-230208D02*
X-478135Y-300208D01*
G54D15*
X-475635Y-435208D02*
X-475635Y-505208D01*
G54D15*
X280000Y-480000D02*
X280000Y-380000D01*
X370000Y-380000D01*
X370000Y-480000D01*
X395000Y-480000D01*
X395000Y-405000D01*
X305000Y-405000D01*
X305000Y-480000D01*
X345000Y-480000D01*
X345000Y-430000D01*
X280000Y-430000D01*
X280000Y-405000D01*
X305000Y-405000D01*
X345000Y-405000D01*
X345000Y-480000D01*
X370000Y-480000D01*
X370000Y-430000D01*
X280000Y-430000D01*
X280000Y-455000D01*
X370000Y-455000D01*
X370000Y-480000D01*
X280000Y-480000D01*
G54D15*
X305000Y-380000D02*
X305000Y-405000D01*
X345000Y-405000D01*
X345000Y-380000D01*
X345000Y-430000D01*
X395000Y-430000D01*
X395000Y-455000D01*
X345000Y-455000D01*
G54D14*
X-600635Y104792D02*
X-535843Y40000D01*
X-297500Y40000D01*
X20000Y-277500D01*
X227500Y-277500D01*
X280000Y-330000D01*
X280000Y-380000D01*
G54D14*
X-598135Y-27708D02*
X-530427Y40000D01*
X-297500Y40000D01*
G54D14*
X-480635Y104792D02*
X-415843Y40000D01*
X-297500Y40000D01*
G54D14*
X-478135Y-27708D02*
X-410427Y40000D01*
X-297500Y40000D01*
G54D14*
X-478135Y-230208D02*
X-478135Y-97708D01*
G54D14*
X-475635Y-435208D02*
X-442500Y-402073D01*
X-442500Y-322500D01*
X-464792Y-300208D01*
X-478135Y-300208D01*
G54D14*
X-2888830Y-511505D02*
X-2902325Y-525000D01*
X-3075000Y-525000D01*
X-3082500Y-517500D01*
X-3082500Y132500D01*
X-3089745Y139745D01*
X-3091330Y139745D01*
G54D14*
X-3091330Y154745D02*
X-3077500Y140915D01*
X-3077500Y-512500D01*
X-3070000Y-520000D01*
X-2905000Y-520000D01*
X-2897500Y-512500D01*
X-2897500Y-502500D01*
X-2891505Y-496505D01*
X-2888830Y-496505D01*
G54D14*
X-3008830Y-454005D02*
X-3015000Y-447835D01*
X-3015000Y-360000D01*
X-2997500Y-342500D01*
X-2997500Y-105000D01*
X-3011330Y-91170D01*
X-3011330Y-90255D01*
G54D14*
X-3011330Y-105255D02*
X-3002500Y-114085D01*
X-3002500Y-340000D01*
X-3020000Y-357500D01*
X-3020000Y-457500D01*
X-3008830Y-468670D01*
X-3008830Y-469005D01*
G54D14*
X-2988830Y-454005D02*
X-3002500Y-440335D01*
X-3002500Y-362500D01*
X-2982500Y-342500D01*
X-2982500Y-100000D01*
X-2991330Y-91170D01*
X-2991330Y-90255D01*
G54D14*
X-2991330Y-76505D02*
X-2977500Y-90335D01*
X-2977500Y-347500D01*
X-2997500Y-367500D01*
X-2997500Y-430000D01*
X-2988830Y-438670D01*
X-2988830Y-440255D01*
G54D14*
X-2992580Y7245D02*
X-3000000Y14665D01*
X-3000000Y185000D01*
X-3010995Y195995D01*
X-3011330Y195995D01*
G54D14*
X-3011330Y182245D02*
X-3005000Y175915D01*
X-3005000Y10000D01*
X-2991330Y-3670D01*
X-2991330Y-6505D01*
G54D14*
X-2952580Y7245D02*
X-2957500Y12165D01*
X-2957500Y185000D01*
X-2968495Y195995D01*
X-2971330Y195995D01*
G54D14*
X-2971330Y182245D02*
X-2962500Y173415D01*
X-2962500Y5000D01*
X-2951330Y-6170D01*
X-2951330Y-6505D01*
G54D14*
X-2828830Y-440255D02*
X-2837500Y-431585D01*
X-2837500Y-365000D01*
X-2797500Y-325000D01*
X-2797500Y-172500D01*
X-2817500Y-152500D01*
X-2817500Y-90000D01*
X-2830995Y-76505D01*
X-2831330Y-76505D01*
G54D14*
X-2831330Y-90255D02*
X-2822500Y-99085D01*
X-2822500Y-155000D01*
X-2802500Y-175000D01*
X-2802500Y-320000D01*
X-2842500Y-360000D01*
X-2842500Y-440000D01*
X-2828830Y-453670D01*
X-2828830Y-454005D01*
G54D14*
X-2828830Y-482755D02*
X-2822500Y-476425D01*
X-2822500Y-367500D01*
X-2782500Y-327500D01*
X-2782500Y12500D01*
X-2790000Y20000D01*
X-2832500Y20000D01*
X-2840000Y12500D01*
X-2840000Y-25000D01*
X-2831330Y-33670D01*
X-2831330Y-34005D01*
G54D14*
X-2831330Y-47755D02*
X-2845000Y-34085D01*
X-2845000Y15000D01*
X-2835000Y25000D01*
X-2787500Y25000D01*
X-2777500Y15000D01*
X-2777500Y-332500D01*
X-2817500Y-372500D01*
X-2817500Y-487500D01*
X-2826505Y-496505D01*
X-2828830Y-496505D01*
G54D14*
X-2891330Y-20255D02*
X-2882500Y-29085D01*
X-2882500Y-110000D01*
X-2885000Y-112500D01*
X-2897500Y-112500D01*
X-2897500Y20000D01*
X-2870000Y47500D01*
X-2730000Y47500D01*
G54D14*
X-2725000Y52500D02*
X-2872500Y52500D01*
X-2902500Y22500D01*
X-2902500Y-117500D01*
X-2882500Y-117500D01*
X-2877500Y-112500D01*
X-2877500Y-17500D01*
X-2888495Y-6505D01*
X-2891330Y-6505D01*
G54D14*
X-2871330Y-6505D02*
X-2880000Y2165D01*
X-2880000Y15000D01*
X-2855000Y40000D01*
X-2732500Y40000D01*
G54D14*
X-2735000Y35000D02*
X-2852500Y35000D01*
X-2872580Y14920D01*
X-2872580Y7245D01*
G54D14*
X-2931330Y112245D02*
X-2925000Y118575D01*
X-2925000Y212500D01*
X-2895000Y242500D01*
X-2687500Y242500D01*
G54D14*
X-2687500Y237500D02*
X-2892500Y237500D01*
X-2920000Y210000D01*
X-2920000Y107500D01*
X-2930255Y97245D01*
X-2931330Y97245D01*
G54D14*
X-2911330Y125995D02*
X-2905000Y132325D01*
X-2905000Y210000D01*
X-2882500Y232500D01*
X-2687500Y232500D01*
G54D14*
X-2687500Y227500D02*
X-2882500Y227500D01*
X-2900000Y210000D01*
X-2900000Y122500D01*
X-2910255Y112245D01*
X-2911330Y112245D01*
G54D14*
X-2891330Y195995D02*
X-2882500Y204825D01*
X-2882500Y215000D01*
X-2875000Y222500D01*
X-2785000Y222500D01*
X-2777500Y215000D01*
X-2777500Y92500D01*
X-2765000Y80000D01*
X-2717500Y80000D01*
G54D14*
X-2717500Y75000D02*
X-2765000Y75000D01*
X-2782500Y92500D01*
X-2782500Y212500D01*
X-2787500Y217500D01*
X-2872500Y217500D01*
X-2877500Y212500D01*
X-2877500Y197500D01*
X-2891330Y183670D01*
X-2891330Y182245D01*
G54D14*
X-2872580Y209745D02*
X-2857500Y194665D01*
X-2857500Y95000D01*
X-2827500Y65000D01*
X-2722500Y65000D01*
G54D14*
X-2725000Y60000D02*
X-2830000Y60000D01*
X-2862500Y92500D01*
X-2862500Y187500D01*
X-2870995Y195995D01*
X-2871330Y195995D01*
G54D14*
X-2771330Y154745D02*
X-2760000Y166075D01*
X-2760000Y215000D01*
X-2755000Y220000D01*
X-2690000Y220000D01*
G54D14*
X-2690000Y215000D02*
X-2755000Y215000D01*
X-2757500Y212500D01*
X-2757500Y155000D01*
X-2771330Y141170D01*
X-2771330Y139745D01*
G54D14*
X-2751330Y168495D02*
X-2740000Y179825D01*
X-2740000Y192500D01*
X-2725000Y207500D01*
X-2690000Y207500D01*
G54D14*
X-2690000Y202500D02*
X-2722500Y202500D01*
X-2735000Y190000D01*
X-2735000Y170000D01*
X-2750255Y154745D01*
X-2751330Y154745D01*
G54D14*
X-2714556Y161637D02*
X-2701193Y175000D01*
X-2690000Y175000D01*
X-2682500Y167500D01*
X-2682500Y92500D01*
X-2647500Y57500D01*
G54D14*
X-2647500Y50000D02*
X-2685000Y87500D01*
X-2685000Y155000D01*
X-2691637Y161637D01*
X-2694556Y161637D01*
G54D14*
X-2694556Y121637D02*
X-2702500Y113693D01*
X-2702500Y80000D01*
X-2665000Y42500D01*
X-2620000Y42500D01*
G54D14*
X-2647500Y57500D02*
X-2620000Y57500D01*
G54D14*
X-2620000Y50000D02*
X-2647500Y50000D01*
G54D14*
X-2714556Y121637D02*
X-2705000Y112081D01*
X-2705000Y77500D01*
X-2665000Y37500D01*
X-2620000Y37500D01*
G54D14*
X-2620000Y30000D02*
X-2667500Y30000D01*
X-2717500Y80000D01*
X-2722500Y80000D01*
G54D14*
X-2717500Y75000D02*
X-2667500Y25000D01*
X-2620000Y25000D01*
G54D14*
X-2620000Y17500D02*
X-2672500Y17500D01*
X-2720000Y65000D01*
X-2722500Y65000D01*
G54D14*
X-2725000Y60000D02*
X-2677500Y12500D01*
X-2620000Y12500D01*
G54D14*
X-2620000Y5000D02*
X-2677500Y5000D01*
X-2725000Y52500D01*
G54D14*
X-2730000Y47500D02*
X-2682500Y0D01*
X-2620000Y0D01*
G54D14*
X-2620000Y-7500D02*
X-2685000Y-7500D01*
X-2732500Y40000D01*
G54D14*
X-2735000Y35000D02*
X-2687500Y-12500D01*
X-2620000Y-12500D01*
G54D14*
X-2240000Y67500D02*
X-2210000Y67500D01*
X-2202500Y60000D01*
X-1880000Y60000D01*
G54D14*
X-2240000Y62500D02*
X-2212500Y62500D01*
X-2205000Y55000D01*
X-1882500Y55000D01*
G54D14*
X-2239175Y52908D02*
X-2214175Y52908D01*
X-2206675Y45408D01*
X-1886675Y45408D01*
G54D14*
X-2240000Y47500D02*
X-2215000Y47500D01*
X-2207500Y40000D01*
X-1890000Y40000D01*
G54D14*
X-2240000Y40000D02*
X-2220000Y40000D01*
X-2212500Y32500D01*
X-1892500Y32500D01*
G54D14*
X-2240000Y35000D02*
X-2220000Y35000D01*
X-2212500Y27500D01*
X-1895000Y27500D01*
G54D14*
X-2240000Y27500D02*
X-2225000Y27500D01*
X-2217500Y20000D01*
X-1900000Y20000D01*
G54D14*
X-2240000Y22500D02*
X-2227500Y22500D01*
X-2220000Y15000D01*
X-1902500Y15000D01*
G54D14*
X-2240000Y15000D02*
X-2232500Y15000D01*
X-2202500Y-15000D01*
X-2202500Y-105000D01*
X-2182500Y-125000D01*
X-1837500Y-125000D01*
G54D14*
X-1837500Y-130000D02*
X-2182500Y-130000D01*
X-2207500Y-105000D01*
X-2207500Y-17500D01*
X-2235000Y10000D01*
X-2240000Y10000D01*
G54D14*
X-2240000Y2500D02*
X-2237500Y2500D01*
X-2217500Y-17500D01*
X-2217500Y-110000D01*
X-2187500Y-140000D01*
X-1842500Y-140000D01*
G54D14*
X-1842500Y-145000D02*
X-2187500Y-145000D01*
X-2222500Y-110000D01*
X-2222500Y-20000D01*
X-2240000Y-2500D01*
G54D14*
X-1842500Y-145000D02*
X-1650000Y-337500D01*
X-1537500Y-337500D01*
G54D14*
X-1842500Y-140000D02*
X-1650000Y-332500D01*
X-1537500Y-332500D01*
G54D14*
X-1837500Y-130000D02*
X-1645000Y-322500D01*
X-1540000Y-322500D01*
G54D14*
X-1837500Y-125000D02*
X-1645000Y-317500D01*
X-1540000Y-317500D01*
G54D14*
X-1837500Y-112500D02*
X-1645000Y-305000D01*
X-1572500Y-305000D01*
G54D14*
X-1833750Y-107500D02*
X-1641250Y-300000D01*
X-1572580Y-300255D01*
G54D14*
X-1832500Y-98750D02*
X-1640000Y-291250D01*
X-1605000Y-291250D01*
G54D14*
X-1828750Y-91250D02*
X-1636250Y-283750D01*
X-1606250Y-283750D01*
G54D14*
X-1572500Y-305000D02*
X-1567245Y-310255D01*
X-1565080Y-310255D01*
G54D14*
X-1572580Y-300255D02*
X-1567580Y-295255D01*
X-1565080Y-295255D01*
G54D14*
X-1605000Y-291250D02*
X-1581505Y-267755D01*
X-1565080Y-267755D01*
G54D14*
X-1565080Y-252755D02*
X-1574825Y-262500D01*
X-1582500Y-262500D01*
X-1603750Y-283750D01*
X-1606250Y-283750D01*
G54D14*
X-1540000Y-317500D02*
X-1537500Y-315000D01*
X-1537500Y-262500D01*
X-1527755Y-252755D01*
X-1525080Y-252755D01*
G54D14*
X-1525080Y-267755D02*
X-1535000Y-277675D01*
X-1535000Y-317500D01*
X-1540000Y-322500D01*
X-1542500Y-322500D01*
G54D14*
X-1537500Y-332500D02*
X-1520000Y-315000D01*
X-1520000Y-310000D01*
X-1520255Y-310255D01*
X-1525080Y-310255D01*
G54D14*
X-1525080Y-295255D02*
X-1515000Y-305335D01*
X-1515000Y-315000D01*
X-1537500Y-337500D01*
G54D14*
X-1828750Y-91250D02*
X-1852500Y-67500D01*
X-1852500Y-7500D01*
X-1892500Y32500D01*
G54D14*
X-1895000Y27500D02*
X-1862500Y-5000D01*
X-1862500Y-70000D01*
X-1832500Y-98750D01*
G54D14*
X-1833750Y-107500D02*
X-1875000Y-66250D01*
X-1875000Y-5000D01*
X-1900000Y20000D01*
G54D14*
X-1902500Y15000D02*
X-1880000Y-7500D01*
X-1880000Y-72500D01*
X-1840000Y-110000D01*
X-1837500Y-112500D01*
G54D14*
X-1385080Y-295255D02*
X-1372500Y-282675D01*
X-1372500Y-187500D01*
X-1387500Y-172500D01*
X-1622500Y-172500D01*
G54D14*
X-1385080Y-281505D02*
X-1377500Y-273925D01*
X-1377500Y-192500D01*
X-1392500Y-177500D01*
X-1622500Y-177500D01*
G54D14*
X-1622500Y-182500D02*
X-1402500Y-182500D01*
X-1392500Y-192500D01*
X-1392500Y-232500D01*
X-1385995Y-239005D01*
X-1385080Y-239005D01*
G54D14*
X-1385080Y-252755D02*
X-1397500Y-240335D01*
X-1397500Y-195000D01*
X-1405000Y-187500D01*
X-1622500Y-187500D01*
G54D14*
X-1266330Y-91505D02*
X-1275000Y-100175D01*
X-1275000Y-115000D01*
G54D14*
X-1880000Y60000D02*
X-1647500Y-172500D01*
X-1622500Y-172500D01*
G54D14*
X-1882500Y55000D02*
X-1650000Y-177500D01*
X-1622500Y-177500D01*
G54D14*
X-1886675Y45408D02*
X-1658766Y-182500D01*
X-1622500Y-182500D01*
G54D14*
X-1890000Y40000D02*
X-1662500Y-187500D01*
X-1622500Y-187500D01*
G54D14*
X-2132500Y242500D02*
X-1875000Y242500D01*
X-1792500Y160000D01*
X-1777500Y160000D01*
X-1687500Y70000D01*
X-1687500Y-20000D01*
X-1595000Y-110000D01*
G54D14*
X-2132500Y237500D02*
X-1880000Y237500D01*
X-1797500Y155000D01*
X-1782500Y155000D01*
X-1692500Y65000D01*
X-1692500Y-25000D01*
X-1595000Y-117500D01*
G54D14*
X-2132500Y230000D02*
X-1880000Y230000D01*
X-1797500Y147500D01*
X-1782500Y147500D01*
X-1700000Y65000D01*
X-1700000Y-22500D01*
X-1600000Y-122500D01*
G54D14*
X-2132500Y225000D02*
X-1880000Y225000D01*
X-1797500Y142500D01*
X-1782500Y142500D01*
X-1705000Y65000D01*
X-1705000Y-22500D01*
X-1600000Y-127500D01*
G54D14*
X-2132500Y220000D02*
X-1887500Y220000D01*
X-1805000Y137500D01*
X-1790000Y137500D01*
X-1715000Y60000D01*
X-1715000Y-30000D01*
X-1610000Y-132500D01*
G54D14*
X-2132500Y215000D02*
X-1890000Y215000D01*
X-1807500Y132500D01*
X-1792500Y132500D01*
X-1720000Y57500D01*
X-1720000Y-30000D01*
X-1610000Y-137500D01*
G54D14*
X-2132500Y207500D02*
X-1987500Y207500D01*
X-1977500Y197500D01*
X-1977500Y162500D01*
X-1912500Y97500D01*
X-1860000Y97500D01*
X-1620000Y-142500D01*
X-1307500Y-142500D01*
X-1280000Y-115000D01*
X-1280000Y-90000D01*
X-1267755Y-77755D01*
X-1266330Y-77755D01*
G54D14*
X-1275000Y-115000D02*
X-1307500Y-147500D01*
X-1622500Y-147500D01*
X-1862500Y92500D01*
X-1915000Y92500D01*
X-1982500Y160000D01*
X-1982500Y195000D01*
X-1990000Y202500D01*
X-2132500Y202500D01*
G54D14*
X-1595000Y-110000D02*
X-1592500Y-112500D01*
X-1462500Y-112500D01*
X-1457500Y-107500D01*
X-1457500Y-60000D01*
X-1446505Y-49005D01*
X-1446330Y-49005D01*
G54D14*
X-1446330Y-64005D02*
X-1452500Y-70175D01*
X-1452500Y-110000D01*
X-1460000Y-117500D01*
X-1595000Y-117500D01*
G54D14*
X-1600000Y-122500D02*
X-1450000Y-122500D01*
X-1437500Y-110000D01*
X-1437500Y-47500D01*
X-1426330Y-36330D01*
X-1426330Y-35255D01*
G54D14*
X-1426330Y-49005D02*
X-1432500Y-55175D01*
X-1432500Y-112500D01*
X-1447500Y-127500D01*
X-1600000Y-127500D01*
G54D14*
X-1610000Y-132500D02*
X-1317500Y-132500D01*
X-1297500Y-112500D01*
X-1297500Y-97500D01*
X-1291505Y-91505D01*
X-1286330Y-91505D01*
G54D14*
X-1286330Y-106505D02*
X-1292325Y-112500D01*
X-1292500Y-112500D01*
X-1317500Y-137500D01*
X-1610000Y-137500D01*
G54D14*
X-1526330Y-7755D02*
X-1517500Y1075D01*
X-1517500Y200000D01*
X-1507755Y209745D01*
X-1507580Y209745D01*
G54D14*
X-1506330Y195995D02*
X-1515000Y187325D01*
X-1515000Y-7500D01*
X-1526330Y-18830D01*
X-1526330Y-21505D01*
G54D14*
X-1486330Y-7755D02*
X-1480000Y-1425D01*
X-1480000Y197500D01*
X-1467755Y209745D01*
X-1467580Y209745D01*
X-1466330Y208495D01*
X-1466330Y195995D01*
X-1475000Y187325D01*
X-1475000Y-7500D01*
X-1486330Y-18830D01*
X-1486330Y-21505D01*
G54D14*
X-1427580Y5995D02*
X-1432500Y10915D01*
X-1432500Y187500D01*
X-1440995Y195995D01*
X-1446330Y195995D01*
G54D14*
X-1446330Y182245D02*
X-1437500Y173415D01*
X-1437500Y2500D01*
X-1427245Y-7755D01*
X-1426330Y-7755D01*
G54D14*
X-1406330Y182245D02*
X-1412500Y176075D01*
X-1412500Y-107500D01*
X-1405000Y-115000D01*
X-1382500Y-115000D01*
X-1380000Y-112500D01*
X-1380000Y-15000D01*
X-1386330Y-8670D01*
X-1386330Y-7755D01*
G54D14*
X-1387580Y5995D02*
X-1375000Y-6585D01*
X-1375000Y-115000D01*
X-1380000Y-120000D01*
X-1407500Y-120000D01*
X-1417500Y-110000D01*
X-1417500Y185000D01*
X-1406505Y195995D01*
X-1406330Y195995D01*
G54D14*
X-1406330Y-7755D02*
X-1397500Y1075D01*
X-1397500Y197500D01*
X-1387580Y207420D01*
X-1387580Y209745D01*
G54D14*
X-1386330Y195995D02*
X-1392500Y189825D01*
X-1392500Y-7500D01*
X-1406330Y-21330D01*
X-1406330Y-21505D01*
G54D14*
X-1326330Y182245D02*
X-1320000Y175915D01*
X-1320000Y5000D01*
X-1307245Y-7755D01*
X-1306330Y-7755D01*
G54D14*
X-1307580Y5995D02*
X-1315000Y13415D01*
X-1315000Y187500D01*
X-1323495Y195995D01*
X-1326330Y195995D01*
G54D14*
X-1702500Y227500D02*
X-1700000Y225000D01*
X-1680000Y225000D01*
X-1662500Y242500D01*
X-1190000Y242500D01*
X-1157500Y210000D01*
X-1157500Y-165000D01*
X-1137500Y-185000D01*
X-1137500Y-217500D01*
X-1129556Y-225444D01*
X-1129556Y-228363D01*
G54D14*
X-1149556Y-228363D02*
X-1140000Y-218807D01*
X-1140000Y-187500D01*
X-1162500Y-165000D01*
X-1162500Y205000D01*
X-1195000Y237500D01*
X-1662500Y237500D01*
X-1677500Y222500D01*
X-1700000Y222500D01*
X-1702500Y220000D01*
X-1702500Y217500D01*
G54D14*
X-1566330Y195995D02*
X-1557500Y204825D01*
X-1557500Y220000D01*
X-1545000Y232500D01*
X-1207500Y232500D01*
X-1197500Y222500D01*
X-1197500Y-112500D01*
X-1272500Y-187500D01*
X-1272500Y-192500D01*
X-1267245Y-197755D01*
X-1266330Y-197755D01*
G54D14*
X-1265080Y-211505D02*
X-1277500Y-199085D01*
X-1277500Y-182500D01*
X-1202500Y-107500D01*
X-1202500Y220000D01*
X-1210000Y227500D01*
X-1542500Y227500D01*
X-1555000Y215000D01*
X-1555000Y197500D01*
X-1566330Y186170D01*
X-1566330Y182245D01*
G54D14*
X-1069556Y101637D02*
X-1062500Y94581D01*
X-1062500Y7500D01*
X-1042500Y-12500D01*
X-1042500Y-65000D01*
X-1050000Y-72500D01*
X-1060000Y-72500D01*
X-1062500Y-75000D01*
X-1062500Y-97500D01*
X-1068363Y-103363D01*
X-1069556Y-103363D01*
G54D14*
X-1049556Y-103363D02*
X-1057500Y-95419D01*
X-1057500Y-80000D01*
X-1052500Y-75000D01*
X-1047500Y-75000D01*
X-1037500Y-65000D01*
X-1037500Y-10000D01*
X-1057500Y10000D01*
X-1057500Y95000D01*
X-1050863Y101637D01*
X-1049556Y101637D01*
G54D14*
X-769556Y101637D02*
X-797500Y73693D01*
X-797500Y-312500D01*
X-802500Y-317500D01*
X-1272500Y-317500D01*
X-1277500Y-312500D01*
X-1277500Y-305000D01*
X-1285080Y-297420D01*
X-1285080Y-295255D01*
G54D14*
X-1285080Y-310255D02*
X-1285000Y-310335D01*
X-1285000Y-327500D01*
X-1225000Y-387500D01*
X-1025000Y-387500D01*
X-967500Y-330000D01*
X-800000Y-330000D01*
X-780000Y-310000D01*
X-780000Y-112500D01*
X-770863Y-103363D01*
X-769556Y-103363D01*
G54D14*
X-2620000Y57500D02*
X-2492500Y67500D01*
X-2360000Y55000D01*
X-2240000Y67500D01*
G54D14*
X-2620000Y50000D02*
X-2492500Y60000D01*
X-2360000Y47500D01*
X-2240000Y62500D01*
G54D14*
X-2620000Y42500D02*
X-2492500Y52500D01*
X-2360000Y40000D01*
X-2240000Y52500D01*
G54D14*
X-2620000Y37500D02*
X-2492500Y47500D01*
X-2360000Y35000D01*
X-2240000Y47500D01*
G54D14*
X-2620000Y30000D02*
X-2492500Y40000D01*
X-2360000Y27500D01*
X-2240000Y40000D01*
G54D14*
X-2620000Y25000D02*
X-2492500Y35000D01*
X-2360000Y22500D01*
X-2240000Y35000D01*
G54D14*
X-2620000Y17500D02*
X-2492500Y27500D01*
X-2360000Y15000D01*
X-2240000Y27500D01*
G54D14*
X-2620000Y12500D02*
X-2492500Y22500D01*
X-2360000Y10000D01*
X-2240000Y22500D01*
G54D14*
X-2620000Y5000D02*
X-2492500Y15000D01*
X-2360000Y2500D01*
X-2240000Y15000D01*
G54D14*
X-2620000Y0D02*
X-2492500Y10000D01*
X-2360000Y-2500D01*
X-2240000Y10000D01*
G54D14*
X-2620000Y-7500D02*
X-2492500Y2500D01*
X-2360000Y-10000D01*
X-2240000Y2500D01*
G54D14*
X-2620000Y-12500D02*
X-2492500Y-2500D01*
X-2360000Y-15000D01*
X-2240000Y-2500D01*
G54D14*
X-2687500Y242500D02*
X-2542500Y230000D01*
X-2397500Y240000D01*
X-2267500Y230000D01*
X-2132500Y242500D01*
G54D14*
X-2687500Y237500D02*
X-2542500Y225000D01*
X-2397500Y235000D01*
X-2267500Y225000D01*
X-2132500Y237500D01*
G54D14*
X-2687500Y232500D02*
X-2542500Y220000D01*
X-2397500Y230000D01*
X-2267500Y220000D01*
X-2132500Y230000D01*
G54D14*
X-2687500Y227500D02*
X-2542500Y215000D01*
X-2397500Y225000D01*
X-2267500Y215000D01*
X-2132500Y225000D01*
G54D14*
X-2690000Y220000D02*
X-2545000Y207500D01*
X-2400000Y217500D01*
X-2270000Y207500D01*
X-2132500Y220000D01*
G54D14*
X-2690000Y215000D02*
X-2545000Y202500D01*
X-2400000Y212500D01*
X-2270000Y202500D01*
X-2132500Y215000D01*
G54D14*
X-2690000Y207500D02*
X-2545000Y195000D01*
X-2400000Y205000D01*
X-2270000Y195000D01*
X-2132500Y207500D01*
G54D14*
X-2690000Y202500D02*
X-2545000Y190000D01*
X-2400000Y200000D01*
X-2270000Y190000D01*
X-2132500Y202500D01*
M02*
